<?xml version="1.0" encoding="UTF-8" standalone="no"?>
<!-- Created with Inkscape (http://www.inkscape.org/) -->
<svg width="343.151" height="128" viewBox="0 0 90.792034 33.866668" version="1.1" id="svg5" inkscape:version="1.2.2 (732a01da63, 2022-12-09)" sodipodi:docname="C.A.R._SMG_Icon.svg" xmlns:inkscape="http://www.inkscape.org/namespaces/inkscape" xmlns:sodipodi="http://sodipodi.sourceforge.net/DTD/sodipodi-0.dtd" xmlns="http://www.w3.org/2000/svg" xmlns:svg="http://www.w3.org/2000/svg">
  <sodipodi:namedview id="namedview7" pagecolor="#ffffff" bordercolor="#666666" borderopacity="1.0" inkscape:pageshadow="2" inkscape:pageopacity="0.0" inkscape:pagecheckerboard="0" inkscape:document-units="mm" showgrid="false" units="px" inkscape:zoom="1.9506277" inkscape:cx="93.815955" inkscape:cy="-75.616685" inkscape:window-width="2560" inkscape:window-height="1361" inkscape:window-x="-9" inkscape:window-y="-9" inkscape:window-maximized="1" inkscape:current-layer="layer1" inkscape:showpageshadow="2" inkscape:deskcolor="#d1d1d1"/>
  <defs id="defs2"/>
  <g inkscape:label="Layer 1" inkscape:groupmode="layer" id="layer1">
    <path style="fill:#000000;fill-opacity:1;stroke-width:0.183648" d="m 15.969098,30.569226 c -0.06735,-0.06735 -0.122431,-0.356581 -0.122431,-0.642769 0,-0.480804 0.05582,-0.522079 0.734591,-0.543294 0.404025,-0.01259 0.837894,-0.03323 0.964151,-0.0459 0.172395,-0.01722 0.242024,-0.857554 0.279615,-3.374531 l 0.05005,-3.351577 h -1.014206 -1.014205 v -0.64276 -0.642768 h 0.924003 c 0.714151,0 0.949887,0.07296 1.037977,0.321384 0.235747,0.664755 0.661834,0.964144 1.372143,0.964144 h 0.706128 v 2.445917 c 0,2.881204 -0.269318,4.024294 -1.174199,4.983751 -0.557471,0.591085 -0.705969,0.650844 -1.617506,0.650844 -0.552025,0 -1.058776,-0.05509 -1.126115,-0.122436 z m 1.530399,-8.570229 c 0,-0.345426 -0.17673,-0.480861 -0.477074,-0.365608 -0.39063,0.149898 -0.307808,0.610471 0.109778,0.610471 0.202013,0 0.367296,-0.110191 0.367296,-0.244863 z m -1.285535,6.672531 c 0,-0.280865 0.122432,-0.367291 0.520335,-0.367291 0.611167,0 0.776835,0.123281 0.641075,0.477075 -0.05434,0.141636 -0.337902,0.257515 -0.630115,0.257515 -0.408863,0 -0.531295,-0.08465 -0.531295,-0.367299 z m 47.593027,-0.05777 c -0.25241,-0.304143 -0.10392,-0.495267 0.932919,-1.200736 1.247407,-0.848738 1.94107,-1.646043 2.300325,-2.644004 0.342338,-0.950982 0.707752,-1.127335 0.883667,-0.426457 0.127959,0.509844 -0.0251,1.105878 -0.397305,1.546472 -1.056136,1.250404 -1.583058,1.738205 -2.49049,2.305581 -0.806673,0.504375 -1.080795,0.597853 -1.229116,0.419144 z M 40.197155,28.074682 c -0.254344,-0.227263 -0.507374,-0.66113 -0.562283,-0.964144 l -0.09984,-0.550948 0.209404,0.550948 c 0.115173,0.303014 0.29107,0.654242 0.39088,0.780496 0.254229,0.321587 8.410238,0.330167 8.731221,0.0092 0.356808,-0.356809 0.25187,-0.599649 -0.115469,-0.267207 -0.290639,0.263023 -0.868562,0.30394 -4.293236,0.30394 -2.94537,0 -4.00444,-0.05874 -4.141356,-0.229564 -0.101175,-0.126254 -0.319321,-0.701683 -0.484757,-1.278728 -0.165435,-0.577037 -0.349536,-1.176191 -0.409113,-1.331442 -0.08792,-0.229126 0.05327,-0.282288 0.749812,-0.282288 1.055565,0 1.491267,-0.217895 1.64278,-0.821566 l 0.116448,-0.463963 h 3.393983 3.393985 v 0.517612 c 0,0.284683 0.131076,0.958993 0.291284,1.498468 0.160207,0.539467 0.252833,1.182001 0.205836,1.427855 -0.07241,0.378795 -0.04701,0.408556 0.166506,0.195049 0.213514,-0.213518 0.196117,-0.447233 -0.114006,-1.531685 -0.201286,-0.703843 -0.36597,-1.465928 -0.36597,-1.693508 0,-0.678827 0.321419,-0.468634 0.420339,0.274892 0.125824,0.945774 0.525819,2.319695 0.711535,2.444007 0.08422,0.05639 -0.20795,0.490238 -0.649274,0.964144 l -0.802407,0.861657 h -3.961935 c -3.849215,0 -3.975084,-0.01178 -4.424371,-0.413206 z m 8.712703,-0.884641 c 0.158213,-0.295628 0.137864,-0.479268 -0.09198,-0.830049 l -0.295141,-0.450441 -3.890616,0.04956 -3.890616,0.04956 -0.222958,0.447483 c -0.151002,0.303079 -0.165437,0.554971 -0.04472,0.780504 0.163789,0.306052 0.504377,0.333019 4.20555,0.333019 3.882927,0 4.034612,-0.01357 4.23049,-0.379616 z m -8.144757,0.0771 c -0.236705,-0.236706 -0.126515,-0.943499 0.164507,-1.055185 0.447102,-0.171559 7.298316,-0.12649 7.576522,0.04989 0.135095,0.08563 0.217736,0.352958 0.183643,0.594051 l -0.06197,0.438343 -3.868351,0.04948 c -2.127597,0.02722 -3.925049,-0.0073 -3.994342,-0.07653 z m 0.789443,-0.294328 c -0.0015,-0.126254 -0.08419,-0.353519 -0.183648,-0.505033 -0.160744,-0.244856 -0.200926,-0.244856 -0.361671,0 -0.288543,0.439554 -0.215913,0.734596 0.180834,0.734596 0.202014,0 0.366031,-0.103301 0.364485,-0.229563 z m 6.881761,0.05859 c 0.05811,-0.09403 0.0203,-0.223689 -0.08398,-0.288153 -0.104302,-0.06443 -0.142096,-0.194138 -0.08397,-0.288161 0.05811,-0.09403 0.02697,-0.170958 -0.06918,-0.170958 -0.172972,0 -0.397783,0.423645 -0.397783,0.749612 0,0.220309 0.498458,0.218473 0.634926,-0.0024 z m -5.455704,-2.87455 c -0.175007,-0.175013 -0.525876,0.108461 -0.39545,0.319483 0.07752,0.125433 0.180245,0.122273 0.312137,-0.0097 0.108124,-0.10812 0.145615,-0.247561 0.08331,-0.309863 z m 5.188075,0.09631 c 0,-0.09506 -0.123964,-0.17281 -0.275473,-0.17281 -0.283996,0 -0.364851,0.216694 -0.158031,0.423515 0.146724,0.14673 0.433504,-0.01918 0.433504,-0.250705 z m -31.495594,3.877922 -0.918239,-0.115463 0.964265,-0.08525 c 0.694479,-0.06142 0.964233,-0.02104 0.964152,0.144316 -6.4e-5,0.126255 -0.02078,0.21658 -0.04603,0.200711 -0.02526,-0.01584 -0.45912,-0.08084 -0.964151,-0.144316 z m -0.550943,-0.561429 c -0.06865,-0.111077 0.185353,-0.183648 0.642767,-0.183648 0.457414,0 0.711415,0.07256 0.642767,0.183648 -0.06242,0.101013 -0.351671,0.18365 -0.642767,0.18365 -0.291097,0 -0.580342,-0.08264 -0.642767,-0.18365 z m 47.265876,-0.137734 c -0.226573,-0.288901 -0.220625,-0.29679 0.05882,-0.07808 0.264922,0.207359 0.402219,0.180221 0.929003,-0.183648 0.703006,-0.485599 1.810931,-1.686473 2.147159,-2.3273 0.205652,-0.391949 0.116228,-0.59635 -0.983554,-2.248162 -0.665381,-0.999358 -1.20978,-1.856228 -1.20978,-1.904166 0,-0.04793 -0.337406,-0.606448 -0.74979,-1.241149 C 62.95056,18.480853 62.844488,18.184624 62.91975,17.605889 63.02839,16.770435 62.83374,16.68882 60.928339,16.77098 l -1.28169,0.05525 0.05254,0.642768 c 0.132685,1.623082 0.09527,2.588526 -0.108181,2.791993 -0.318246,0.318239 -0.270336,0.845233 0.127597,1.403559 l 0.347439,0.487468 -3.54613,-0.05671 c -3.49387,-0.05582 -3.559795,-0.04981 -4.473407,0.413212 -0.713414,0.361515 -1.204,0.469886 -2.127096,0.469886 -1.079733,0 -1.199814,-0.03697 -1.199814,-0.369468 0,-0.328186 0.08207,-0.356338 0.734591,-0.252006 l 0.734594,0.117472 v -3.271668 -3.271667 l 0.550942,0.52784 c 0.398278,0.381574 0.550942,0.698953 0.550942,1.145365 0,0.722579 0.336964,1.42661 1.319636,2.757143 l 0.712076,0.964161 h 2.005691 c 1.163885,0 2.207797,-0.09209 2.487226,-0.219408 0.6407,-0.291924 1.004932,-1.044427 1.004932,-2.076195 0,-1.031769 -0.364232,-1.784274 -1.004932,-2.076197 -0.310778,-0.141594 -1.549162,-0.219399 -3.492244,-0.219399 -1.80904,0 -3.056008,-0.07329 -3.124209,-0.183649 -0.0749,-0.121201 2.263086,-0.18365 6.875956,-0.18365 4.537205,0 6.989458,0.06443 6.989458,0.18365 0,0.101003 -0.291013,0.183649 -0.646709,0.183649 -0.515011,0 -0.690153,0.09537 -0.860119,0.468397 -0.181991,0.399442 -0.141431,0.608978 0.275502,1.423273 1.045735,2.04233 2.200906,3.826059 2.935991,4.533559 0.426058,0.41006 0.43472,0.464238 0.19929,1.246521 -0.278679,0.925957 -1.24635,2.095509 -2.35087,2.841303 -0.882529,0.595886 -0.904117,0.599129 -1.229344,0.184429 z M 51.42848,21.922581 c 0.100411,-0.301575 -0.475006,-0.516839 -0.721806,-0.270042 -0.105619,0.105626 -0.133679,0.286455 -0.06236,0.401854 0.162263,0.262543 0.681944,0.175191 0.784166,-0.131812 z m -0.596909,-0.04598 c -0.06242,-0.101012 0.0202,-0.18365 0.183648,-0.18365 0.16343,0 0.246071,0.08264 0.183644,0.18365 -0.06242,0.101003 -0.145064,0.18365 -0.183644,0.18365 -0.03858,0 -0.121226,-0.08265 -0.183648,-0.18365 z m -34.158489,5.15262 -0.918239,-0.115464 0.964265,-0.08525 c 0.694479,-0.06142 0.964233,-0.02105 0.964152,0.144316 -6.4e-5,0.126262 -0.02078,0.216572 -0.04603,0.200704 -0.02526,-0.01584 -0.45912,-0.08076 -0.964151,-0.144309 z m 46.235933,-1.066454 c -0.469877,-0.782461 -0.848038,-1.220902 -1.025383,-1.188841 -0.154528,0.02787 -0.332816,-0.03315 -0.396183,-0.135639 -0.06768,-0.109541 0.0024,-0.141317 0.169797,-0.07702 0.156763,0.06013 0.285017,0.01787 0.285017,-0.09394 0,-0.111817 -0.06199,-0.203443 -0.137736,-0.203621 -0.07573,-1.88e-4 -0.372677,-0.372206 -0.659822,-0.826719 -0.287144,-0.454512 -0.591343,-0.783582 -0.67599,-0.731265 -0.08465,0.05233 -0.213706,-0.0016 -0.286796,-0.119901 -0.08299,-0.134282 -0.05329,-0.165815 0.07913,-0.08397 0.326136,0.201557 0.255535,-0.01642 -0.255364,-0.788433 -0.460612,-0.696028 -0.462939,-0.717389 -0.16063,-1.47293 0.220069,-0.550006 0.271632,-1.011018 0.182463,-1.631305 -0.250696,-1.743908 -0.362641,-1.593003 1.22606,-1.652868 l 1.423271,-0.05362 v 0.809956 c 0,0.692111 0.194651,1.114042 1.337942,2.900176 0.735865,1.149621 1.562283,2.419306 1.836477,2.821534 0.274193,0.40222 0.498541,0.921788 0.498541,1.154603 0,0.456787 -2.027527,2.613461 -2.456966,2.613461 -0.131682,0 -0.574403,-0.557837 -0.98383,-1.239623 z m 1.87979,-3.721394 c 0,-0.393648 -0.533625,-0.33679 -0.611025,0.06508 -0.04729,0.245423 0.02754,0.320213 0.272959,0.272951 0.185933,-0.03583 0.338066,-0.187931 0.338066,-0.338066 z m -1.970944,4.272334 c -0.139247,-0.27777 -0.402732,-0.732298 -0.585512,-1.010067 -0.18278,-0.277769 -0.292483,-0.505034 -0.243791,-0.505034 0.116253,0 0.955784,1.286455 1.108599,1.69875 0.184787,0.498574 0.0024,0.378836 -0.279296,-0.183649 z M 16.109099,26.33005 c 0.04761,-0.330565 0.666097,-0.519024 1.125186,-0.342858 0.479468,0.18399 0.07125,0.664242 -0.564601,0.664242 -0.473172,0 -0.596673,-0.07077 -0.560585,-0.321384 z m 0.563983,-0.586372 -0.918239,-0.115465 0.964265,-0.08525 c 0.694479,-0.06142 0.964233,-0.02105 0.964152,0.144316 -6.4e-5,0.126254 -0.02078,0.21658 -0.04603,0.200712 -0.02526,-0.01584 -0.45912,-0.08085 -0.964151,-0.144316 z M 39.1008,25.450625 C 39.03782,25.2865 38.991526,25.055669 38.99793,24.93767 c 0.0064,-0.117991 0.09082,-0.01658 0.187592,0.225331 0.09677,0.241929 0.143066,0.472752 0.102871,0.512954 -0.04019,0.04022 -0.124612,-0.06118 -0.187593,-0.22533 z M 16.030314,25.182264 c 0,-0.101012 0.335444,-0.183648 0.74543,-0.183648 0.450188,0 0.700476,0.07272 0.631929,0.183648 -0.06242,0.101003 -0.397868,0.18365 -0.74543,0.18365 -0.34756,0 -0.631929,-0.08265 -0.631929,-0.18365 z m -0.08087,-0.533226 c -0.0564,-0.09126 0.310657,-0.19457 0.815691,-0.229564 0.646138,-0.04477 0.918207,0.0041 0.918127,0.165928 -1.32e-4,0.268443 -1.571596,0.326114 -1.733818,0.06362 z m 0.172698,-0.568661 c -0.06865,-0.111077 0.185354,-0.183649 0.642767,-0.183649 0.457414,0 0.711416,0.07255 0.642768,0.183649 -0.06242,0.101003 -0.351671,0.18365 -0.642768,0.18365 -0.291096,0 -0.580342,-0.08265 -0.642767,-0.18365 z m 24.366902,-0.964152 c 0.01587,-0.631288 -0.01698,-1.443316 -0.07295,-1.804513 -0.119856,-0.773425 -0.628467,-1.822533 -0.883571,-1.822533 -0.09841,0 -0.182395,-0.18594 -0.18663,-0.413205 -0.01201,-0.644613 -0.599332,-1.593514 -1.169351,-1.889248 -0.414726,-0.215158 -1.600887,-0.276437 -5.960295,-0.307937 -4.872177,-0.03518 -5.105968,-0.04964 -2.23093,-0.137736 3.025959,-0.09273 3.21561,-0.119648 3.280993,-0.465708 0.03817,-0.202011 0.163136,-0.428017 0.277708,-0.502222 0.114576,-0.07418 1.506864,-0.136191 3.093978,-0.137735 l 2.885661,-0.0024 1.475972,2.479018 c 0.811786,1.363463 1.475974,2.528188 1.475974,2.588281 0,0.06013 0.265838,0.55371 0.590745,1.096924 l 0.590745,0.987657 2.301708,0.05712 2.301707,0.05712 -2.410846,0.0399 c -1.953995,0.03233 -2.454169,-0.01227 -2.639469,-0.23556 -0.12574,-0.151508 -0.379525,-0.27547 -0.563966,-0.27547 -0.434276,0 -1.205806,0.718875 -1.444041,1.345491 -0.102668,0.270042 -0.311612,0.490985 -0.464313,0.490985 -0.221219,0 -0.271788,-0.233269 -0.248825,-1.147802 z m 0.84947,-0.335156 c -0.03618,-0.108582 -0.14432,-0.19743 -0.240273,-0.19743 -0.09595,0 -0.20408,0.08885 -0.240271,0.19743 -0.03618,0.108582 0.07192,0.19742 0.240271,0.19742 0.168344,0 0.276463,-0.08884 0.240273,-0.19742 z m 0.953436,-0.812646 c 0,-0.151507 -0.07777,-0.27547 -0.172811,-0.27547 -0.231573,0 -0.397428,0.286788 -0.25071,0.433501 0.206826,0.206821 0.423521,0.12597 0.423521,-0.158031 z m -8.142174,-5.521778 c 0.153062,-0.398873 -0.235519,-0.77398 -0.513655,-0.495853 -0.235076,0.235081 -0.08944,0.783673 0.208033,0.783673 0.107346,0 0.244875,-0.129521 0.305622,-0.28782 z m -0.48927,-0.273967 c 0,-0.106966 0.08264,-0.143407 0.183648,-0.08101 0.101003,0.0624 0.183647,0.149948 0.183647,0.194488 0,0.04453 -0.08264,0.08101 -0.183647,0.08101 -0.101002,0 -0.183648,-0.08751 -0.183648,-0.194488 z m 5.509434,0 c 0,-0.09505 -0.123962,-0.172811 -0.275472,-0.172811 -0.283995,0 -0.364852,0.216702 -0.158032,0.423523 0.146722,0.146722 0.433504,-0.01918 0.433504,-0.250712 z m 2.231288,7.540401 c 0.105635,-0.303022 0.27817,-0.550948 0.38341,-0.550948 0.105245,0 0.297624,-0.144617 0.427517,-0.321385 0.224927,-0.306076 0.26222,-0.306076 0.783172,0 0.424749,0.24956 1.033215,0.330103 2.722443,0.360377 2.106675,0.03769 2.079656,0.04209 -0.85475,0.137734 -2.921013,0.09519 -3.036721,0.113637 -3.211472,0.511957 -0.268978,0.613096 -0.472933,0.500865 -0.25032,-0.137735 z m -2.380951,0.0092 c 0.03437,-0.36503 -0.06111,-0.56506 -0.222184,-0.465505 -0.103507,0.06394 -0.169777,0.04818 -0.147261,-0.0351 0.06939,-0.25666 -0.230612,-0.977794 -0.406791,-0.977794 -0.0916,0 -0.296159,-0.250632 -0.454566,-0.556952 -0.167157,-0.323253 -0.373692,-0.503994 -0.49221,-0.430746 -0.125566,0.07759 -0.152434,0.04242 -0.06977,-0.09131 0.16818,-0.272122 -0.679359,-1.745435 -1.223208,-2.126368 -0.338116,-0.236827 -1.129925,-0.283936 -4.772064,-0.283936 H 26.86554 v -0.826411 -0.82641 h 5.315402 5.315404 l 0.32545,0.55094 c 0.178998,0.303013 0.3794,0.55094 0.445338,0.55094 0.06594,0 0.579552,0.934512 1.141368,2.076699 0.893579,1.816659 1.008479,2.173598 0.917677,2.850622 -0.09966,0.742949 -0.128067,0.772305 -0.709609,0.733143 -0.333191,-0.02242 -0.601522,-0.08626 -0.596291,-0.14183 z M 16.122136,23.529413 c -0.06933,-0.112173 0.212349,-0.183649 0.723753,-0.183649 0.46049,0 0.837253,0.08265 0.837253,0.183649 0,0.101012 -0.325689,0.18365 -0.723752,0.18365 -0.398065,0 -0.774829,-0.08264 -0.837254,-0.18365 z m 44.534589,-0.183649 c -0.108114,-0.202012 -0.155252,-0.36729 -0.104751,-0.36729 0.0505,0 0.180287,0.165278 0.2884,0.36729 0.108113,0.20202 0.155246,0.367299 0.104745,0.367299 -0.0505,0 -0.180281,-0.165279 -0.288394,-0.367299 z M 16.21396,22.978474 c 0,-0.101013 0.243047,-0.18365 0.540105,-0.18365 0.297057,0 0.59118,0.08264 0.653606,0.18365 0.06754,0.109289 -0.151134,0.183641 -0.540105,0.183641 -0.359483,0 -0.653606,-0.08264 -0.653606,-0.183641 z M 66.302775,22.333373 C 65.937143,21.829624 65.4328,21.037631 65.182006,20.573387 l -0.455975,-0.84409 0.424019,0.08109 c 0.866799,0.165701 1.932213,-0.949171 1.933659,-2.023433 5.2e-4,-0.461769 0.04713,-0.497323 0.505725,-0.38666 0.749781,0.180927 3.56038,1.175776 4.068834,1.440228 0.435475,0.226492 0.43168,0.231676 -0.265329,0.362439 -1.076758,0.201996 -2.318509,0.906571 -2.931182,1.663154 -0.303022,0.374197 -0.649772,0.785589 -0.770566,0.9142 -0.120795,0.128619 -0.333027,0.511761 -0.471631,0.851418 l -0.251997,0.617581 z m -18.062563,0.318898 c -0.112164,-0.07313 -0.34155,-0.401504 -0.509749,-0.729779 -0.291106,-0.568148 -0.356366,-0.59687 -1.357069,-0.597268 l -1.051263,-4.22e-4 -0.537032,-1.101473 c -0.295364,-0.605799 -0.595243,-1.101465 -0.666394,-1.101465 -0.07115,0 -0.234312,-0.253353 -0.362577,-0.563013 -0.193223,-0.466473 -0.189167,-0.605768 0.02363,-0.812345 0.313642,-0.30446 0.739542,-0.340478 3.608412,-0.305167 l 2.249687,0.0277 v 2.394664 c 0,2.046027 -0.03753,2.360188 -0.257889,2.157859 -0.141841,-0.130236 -0.245145,-0.278118 -0.229563,-0.328624 0.01557,-0.05046 -0.0543,-0.09183 -0.155315,-0.09183 -0.101013,0 -0.162987,0.06199 -0.137734,0.137743 0.02525,0.07573 -0.03123,0.137735 -0.125542,0.137735 -0.09429,0 -0.197595,0.204442 -0.229559,0.454309 -0.03613,0.282433 -0.135261,0.404015 -0.262043,0.321376 z m 0.109263,-1.923487 c -0.0015,-0.227263 -0.317297,-0.991695 -0.701616,-1.69874 l -0.69877,-1.285537 -1.273642,-0.05306 c -0.896021,-0.0373 -1.382235,0.02633 -1.639894,0.21476 -0.364248,0.266345 -0.36405,0.270155 0.03634,0.696352 0.221427,0.235706 0.620032,0.9035 0.885791,1.48399 l 0.48319,1.055436 h 1.455724 c 1.388044,0 1.455583,-0.01926 1.452871,-0.413213 z m -3.38929,-1.125652 c -0.383442,-0.745363 -0.639929,-1.447818 -0.569979,-1.561006 0.07186,-0.116277 0.624181,-0.205791 1.269791,-0.205791 h 1.142601 l 0.683038,1.380396 c 0.375669,0.759216 0.683037,1.46167 0.683037,1.561006 0,0.100778 -0.555069,0.180611 -1.25566,0.180611 h -1.255659 z m 1.555658,-0.389439 c 0,-0.302339 -0.503042,-0.501548 -0.653161,-0.258659 -0.06269,0.10143 -0.06847,0.303037 -0.01287,0.448004 0.119385,0.311089 0.666001,0.155683 0.666001,-0.189345 z m 2.708779,-1.300869 c -0.175008,-0.175004 -0.525871,0.108469 -0.395446,0.319499 0.07752,0.125435 0.180239,0.122257 0.312133,-0.0097 0.108124,-0.108119 0.145616,-0.24756 0.08331,-0.309863 z m 34.388074,4.679298 c -1.01589,-0.160688 -6.072689,-1.778017 -6.244029,-1.997041 -0.093,-0.118853 -3.4091,-1.301681 -4.59119,-1.637626 -0.353517,-0.100462 -1.965029,-0.640672 -3.581131,-1.200461 -1.616101,-0.559778 -3.165628,-1.018857 -3.443397,-1.020165 -0.466375,-0.0024 -0.505025,-0.05858 -0.505025,-0.736978 V 15.265262 H 64.45824 c -0.880286,0 -1.230441,-0.241361 -1.230441,-0.848119 0,-0.858434 0.166741,-0.988359 1.268449,-0.988359 0.57503,0 1.144682,-0.09917 1.26589,-0.220376 0.121201,-0.121206 0.220374,-0.617055 0.220374,-1.101888 0,-0.75908 0.05102,-0.881509 0.367299,-0.881509 0.322774,0 0.367291,0.122429 0.367291,1.010064 0,0.555534 0.08264,1.010066 0.183649,1.010066 0.101012,0 0.183649,-0.454532 0.183649,-1.010066 v -1.010064 h 7.932718 7.932708 l 0.51509,0.493481 0.51507,0.493476 v 4.34473 c 0,4.11149 -0.0198,4.362568 -0.36729,4.67712 -0.72277,0.654102 -0.34342,0.947261 1.37736,1.06439 l 0.55095,0.03746 0.0483,-6.298032 0.0482,-6.2980319 -1.33386,0.054007 -1.33387,0.054007 -0.0575,0.5968509 -0.0575,0.596857 h -7.869908 c -6.116377,0 -7.893792,-0.05117 -7.977049,-0.229559 -0.0857,-0.183649 -0.128553,-0.183649 -0.214257,0 -0.0589,0.126256 -0.265524,0.229559 -0.459119,0.229559 -0.29631,0 -0.351991,-0.134778 -0.351991,-0.851998 V 9.3373291 l 0.964154,0.115812 c 0.530277,0.063692 4.992922,0.1165263 9.916972,0.1174005 l 8.952838,0.00154 v 6.6113244 6.611324 l -0.59687,-0.02145 c -0.32826,-0.01178 -1.05138,-0.09337 -1.60691,-0.181236 z m -0.11147,-1.740618 c 0.0614,-0.15977 0.11147,-2.075862 0.11147,-4.257976 0,-5.306708 0.53589,-4.817575 -5.278039,-4.817575 -2.736599,0 -4.617646,0.07397 -4.834656,0.19011 -0.322766,0.172737 -0.355225,0.404665 -0.355225,2.537992 0,2.319646 0.0065,2.354909 0.521413,2.931905 0.28678,0.321206 0.584301,0.584025 0.661163,0.584025 0.180823,0 4.791205,1.621684 5.548325,1.951599 0.31829,0.138694 0.66361,0.252168 0.76739,0.252168 0.10377,0 0.29936,0.110686 0.43464,0.24596 0.609829,0.609828 2.237609,0.866262 2.423519,0.381792 z m -1.3577,-0.02299 c -0.15152,-0.05988 -0.31679,-0.165523 -0.36731,-0.234763 -0.0506,-0.06922 -0.2571,-0.219611 -0.459119,-0.334173 -0.36233,-0.205465 -0.36204,-0.208357 0.0211,-0.213858 0.549229,-0.0082 1.355899,-0.694558 1.653949,-1.407883 0.16757,-0.401082 0.25321,-1.353316 0.25321,-2.815709 v -2.209671 l -0.50504,-0.02286 c -3.277679,-0.148474 -9.045151,-0.221714 -9.044924,-0.114855 1.54e-4,0.07576 -0.08236,0.137734 -0.183373,0.137734 -0.101002,0 -0.183706,-0.185945 -0.183787,-0.413209 l -1.38e-4,-0.413207 h 3.994483 c 3.42821,0 3.99448,-0.03904 3.99448,-0.275473 0,-0.233021 -0.59426,-0.290487 -3.85661,-0.372936 l -3.856599,-0.09746 4.524939,-0.04029 c 4.074029,-0.03623 4.564079,-0.0083 4.917799,0.28111 0.38317,0.313449 0.39162,0.423396 0.34174,4.453464 l -0.0511,4.13207 -0.45912,0.03542 c -0.25251,0.01949 -0.58308,-0.01357 -0.73458,-0.07345 z M 64.297234,14.102245 c 0.03437,-0.177141 -0.05785,-0.306166 -0.218725,-0.306166 -0.34116,0 -0.547079,0.299373 -0.385603,0.560638 0.166115,0.268783 0.532796,0.114375 0.604328,-0.254472 z m 6.827417,-2.326295 c 0,-0.101002 -0.08264,-0.183644 -0.18365,-0.183644 -0.101002,0 -0.183641,0.08264 -0.183641,0.183644 0,0.101002 0.08264,0.18365 0.183641,0.18365 0.101013,0 0.18365,-0.08264 0.18365,-0.18365 z M 86.000125,16.1835 V 9.572178 h 0.52846 c 0.29064,0 0.61382,0.1033028 0.71815,0.2295588 0.25478,0.3083102 0.47352,1.5330772 0.31859,1.7837662 -0.24612,0.398256 -0.42572,7.45152 -0.1956,7.68166 0.053,0.05298 0.0105,0.199924 -0.0946,0.326488 -0.13231,0.159419 -0.13182,0.266662 0.002,0.349122 0.10592,0.06549 0.19257,0.605296 0.19257,1.199646 0,0.908505 -0.065,1.126165 -0.40816,1.36652 -0.22448,0.157234 -0.55505,0.285885 -0.73458,0.285885 -0.30683,0 -0.3265,-0.398303 -0.3265,-6.611324 z m -41.432229,6.137182 c 0.06131,-0.15977 0.111279,-0.304394 0.111039,-0.321384 -1.81e-4,-0.01699 0.660899,-0.0041 1.469187,0.02901 1.120915,0.04567 1.469613,0.121931 1.469613,0.321384 0,0.205961 -0.335631,0.261478 -1.580658,0.261478 -1.365898,0 -1.565508,-0.03949 -1.469181,-0.290492 z M 18.387317,22.206119 c -0.423574,-0.329167 -0.501061,-0.879774 -0.207907,-1.477335 0.375768,-0.765966 1.188691,-0.701731 1.705688,0.134794 0.217488,0.351893 0.368852,0.827092 0.336363,1.055973 -0.04854,0.341997 -0.189966,0.425782 -0.793663,0.470218 -0.404026,0.02974 -0.872241,-0.0529 -1.040481,-0.18365 z m 1.188689,-0.534137 c 0.275204,-0.439245 0.01966,-0.897291 -0.500614,-0.897291 -0.560296,0 -0.882931,0.497314 -0.629658,0.970554 0.213756,0.399409 0.860387,0.357492 1.130272,-0.07329 z m -0.907739,-0.06963 c -0.06361,-0.165757 -0.02759,-0.389447 0.08004,-0.497079 0.279807,-0.279801 0.809961,-0.02405 0.736873,0.355453 -0.08142,0.422735 -0.669886,0.52476 -0.816908,0.141626 z m 24.855175,0.514792 c -0.04909,-0.08179 -0.335636,-0.606068 -0.636711,-1.165052 l -0.547412,-1.016338 0.612854,0.07158 c 0.430532,0.05022 0.648799,0.188711 0.73369,0.465392 0.06646,0.216611 0.289659,0.55453 0.495989,0.750928 0.29322,0.279101 0.318328,0.373944 0.114949,0.434329 -0.143111,0.0425 -0.355569,0.19665 -0.472132,0.342582 -0.116556,0.145933 -0.252115,0.198413 -0.301227,0.116611 z m 0.421335,-0.05687 c 0,-0.101002 0.07777,-0.183649 0.172811,-0.183649 0.09504,0 0.223884,0.08265 0.286311,0.183649 0.06242,0.101013 -0.01535,0.183649 -0.172811,0.183649 -0.157468,0 -0.286311,-0.08264 -0.286311,-0.183649 z m 39.801359,-0.127416 c -0.29323,-0.07638 -0.27951,-0.139685 0.13774,-0.635562 l 0.46342,-0.550736 v -4.209284 -4.209275 l -0.65664,-0.726809 c -0.43737,-0.484125 -0.63666,-0.867562 -0.59685,-1.148329 0.054,-0.381203 0.16956,-0.426748 1.20757,-0.4761923 l 1.1478,-0.054673 v 6.0691413 6.069135 l -0.68868,-0.02129 c -0.37877,-0.0117 -0.83524,-0.05947 -1.01436,-0.10612 z m 1.15209,-0.423524 c 0,-0.101012 -0.12883,-0.183649 -0.28629,-0.183649 -0.15748,0 -0.23525,0.08264 -0.17282,0.183649 0.0624,0.101003 0.19126,0.183641 0.28631,0.183641 0.095,0 0.1728,-0.08264 0.1728,-0.183641 z m -0.10155,-9.749022 c -0.0591,-0.09567 -0.18578,-0.125574 -0.28146,-0.06644 -0.0956,0.05913 -0.12558,0.185787 -0.0665,0.281459 0.0591,0.09568 0.18578,0.125573 0.28146,0.06645 0.0956,-0.05914 0.12558,-0.185789 0.0665,-0.281465 z m -40.238383,9.565332 c -0.179001,-0.303021 -0.380636,-0.550947 -0.448087,-0.550947 -0.06745,0 -0.165855,-0.165279 -0.218683,-0.36729 -0.178682,-0.683296 0.544184,-0.428123 0.910415,0.321383 0.321315,0.657589 0.382114,0.691226 1.346569,0.745111 1.550235,0.08661 1.587217,0.402683 0.04711,0.402683 -1.262891,0 -1.324033,-0.02056 -1.637332,-0.55094 z M 15.11726,20.937531 c -0.544414,-0.217262 -0.733202,-0.482444 -0.736964,-1.03518 l -0.0029,-0.413212 h 3.408572 3.40857 l -0.057,0.6688 c -0.04262,0.5001 -0.16273,0.707621 -0.476163,0.822695 -0.344386,0.12645 -0.448356,0.0771 -0.582788,-0.276452 -0.325975,-0.857373 -1.528743,-0.926436 -1.990864,-0.114309 -0.294244,0.517089 -0.378351,0.54915 -1.414731,0.539295 -0.606037,-0.0057 -1.306157,-0.092 -1.555821,-0.191637 z m 0.316174,-1.004597 c -0.175009,-0.175012 -0.525874,0.10846 -0.395451,0.319491 0.07752,0.125425 0.180244,0.122264 0.312137,-0.0097 0.108124,-0.108127 0.145615,-0.247569 0.08331,-0.309863 z m 5.371723,0.107144 c 0,-0.101003 -0.123962,-0.183641 -0.275472,-0.183641 -0.151509,0 -0.275472,0.08264 -0.275472,0.183641 0,0.101012 0.123963,0.183649 0.275472,0.183649 0.15151,0 0.275472,-0.08264 0.275472,-0.183649 z M 9.6485536,20.132668 C 9.1499937,19.566405 9.4090776,19.489137 11.806415,19.489137 h 2.387423 v 0.459119 c 0,0.252516 -0.08264,0.459119 -0.183648,0.459119 -0.101002,0 -0.183649,-0.08264 -0.183649,-0.18365 0,-0.101002 -0.206604,-0.183649 -0.459119,-0.183649 -0.252516,0 -0.459119,0.08265 -0.459119,0.183649 0,0.301926 -2.9872225,0.218482 -3.2597494,-0.09106 z M 21.356101,19.948256 v -0.459119 h 2.479244 c 2.506744,0 2.789207,0.08358 2.216893,0.65589 -0.333175,0.333173 -2.71054,0.358588 -3.229447,0.03453 -0.29036,-0.181326 -0.439247,-0.181326 -0.729607,0 -0.543932,0.339698 -0.737083,0.279085 -0.737083,-0.231294 z m 34.342136,0.275469 c 0,-0.101002 0.08264,-0.183649 0.183649,-0.183649 0.104938,0 0.183643,-0.550939 0.183643,-1.285529 0,-0.734589 -0.0787,-1.285537 -0.183643,-1.285537 -0.101003,0 -0.183649,-0.123963 -0.183649,-0.275469 0,-0.192392 0.193852,-0.275471 0.642766,-0.275471 h 0.642767 v 1.017382 c 0,1.121664 -0.553774,2.471925 -1.013792,2.471925 -0.149457,0 -0.271741,-0.08264 -0.271741,-0.18365 z M 42.559866,19.660567 c -0.06658,-0.10772 -0.08166,-0.235251 -0.03352,-0.283391 0.04816,-0.04818 0.136464,0.03998 0.196272,0.195869 0.124179,0.323611 0.01838,0.380526 -0.162747,0.08752 z m 0.466672,-0.07962 c 0,-0.28279 0.479528,-0.361822 0.995045,-0.164003 0.508686,0.195203 0.312882,0.439474 -0.35228,0.439474 -0.448913,0 -0.642765,-0.08309 -0.642765,-0.275471 z m -1.697184,-1.349716 c -0.757797,-1.25757 -0.809527,-1.411165 -0.492965,-1.463692 0.486614,-0.08076 0.474422,-0.767731 -0.01364,-0.767731 -0.225149,0 -0.369558,0.124385 -0.373138,0.321383 -0.0053,0.290802 -0.0315,0.287463 -0.275468,-0.0351 -0.422304,-0.558341 -0.33245,-0.653582 0.616596,-0.653582 0.703594,0 0.973534,0.09294 1.309904,0.450986 0.341676,0.363707 0.641126,0.46349 1.547108,0.515563 l 1.123424,0.06459 -1.125314,0.03542 c -1.472769,0.04631 -1.694097,0.294165 -1.173645,1.314323 0.377089,0.739164 0.378084,0.765635 0.04472,1.189443 l -0.340952,0.433452 z M 9.1434467,18.977569 C 8.5815628,18.495993 8.1334599,17.715083 8.1334599,17.21746 c 0,-0.420054 0.04886,-0.442 0.7805028,-0.350554 0.4292759,0.05362 0.8590118,0.169756 0.9549688,0.257994 0.3055095,0.280962 1.3865405,0.191278 1.3865405,-0.115026 0,-0.184283 0.184288,-0.27547 0.556707,-0.27547 0.325437,0 0.600621,0.114433 0.662415,0.27547 0.06549,0.170658 0.344999,0.275478 0.734592,0.275478 0.389593,0 0.669104,-0.10482 0.734592,-0.275478 0.06429,-0.167529 0.342174,-0.27547 0.709177,-0.27547 0.367005,0 0.644892,0.107941 0.70918,0.27547 0.06212,0.161899 0.337618,0.275478 0.668179,0.275478 0.330561,0 0.606056,-0.113579 0.66818,-0.275478 0.05896,-0.153652 0.331972,-0.27547 0.617355,-0.27547 0.285384,0 0.558394,0.121818 0.617355,0.27547 0.06044,0.157504 0.33448,0.275478 0.63993,0.275478 0.29382,0 0.637099,-0.123971 0.762841,-0.275478 0.125741,-0.151507 0.389687,-0.27547 0.586547,-0.27547 0.19686,0 0.481889,0.123963 0.633399,0.27547 0.151509,0.151507 0.520086,0.275478 0.819061,0.275478 0.313776,0 0.58828,-0.116463 0.649297,-0.275478 0.05896,-0.153652 0.331973,-0.27547 0.617356,-0.27547 0.285383,0 0.558395,0.121818 0.617357,0.27547 0.06635,0.172908 0.34718,0.275478 0.754239,0.275478 0.45404,0 0.64853,-0.08262 0.64853,-0.275478 0,-0.430698 0.855966,-0.349789 0.97145,0.09183 0.0649,0.248194 0.250499,0.36729 0.572363,0.36729 0.616495,0 0.62947,0.472688 0.01719,0.626356 -0.364078,0.09138 -0.459119,0.231083 -0.459119,0.674879 0,0.501962 -0.05196,0.553653 -0.504159,0.501531 -0.39842,-0.0459 -0.52398,-0.173663 -0.598659,-0.609049 -0.08385,-0.488882 -0.166714,-0.550948 -0.735464,-0.550948 -0.588901,0 -0.645637,0.0485 -0.69851,0.596854 -0.05029,0.521535 -0.12413,0.596854 -0.585217,0.596854 -0.460783,0 -0.534967,-0.07548 -0.585219,-0.595351 -0.06207,-0.642176 -0.383525,-0.80951 -1.17396,-0.611122 -0.348686,0.08751 -0.444595,0.232318 -0.444595,0.671231 0,0.502173 -0.05186,0.553669 -0.505031,0.501531 -0.399643,-0.04598 -0.517376,-0.165758 -0.564188,-0.57399 -0.06739,-0.587584 -0.380797,-0.768552 -1.04314,-0.602314 -0.360846,0.09056 -0.458709,0.231919 -0.458709,0.662577 0,0.483209 -0.06328,0.547438 -0.539308,0.547438 -0.474214,0 -0.546254,-0.07207 -0.596855,-0.596854 -0.05291,-0.548722 -0.109379,-0.596854 -0.700316,-0.596854 -0.590936,0 -0.647408,0.04809 -0.700314,0.596854 -0.05268,0.54643 -0.110869,0.596854 -0.68868,0.596854 -0.542106,0 -0.63113,-0.06159 -0.63113,-0.436629 0,-0.993841 -1.302811,-1.176557 -1.469805,-0.206131 -0.08049,0.467706 -0.177495,0.550939 -0.642145,0.550939 -0.464652,0 -0.561659,-0.08323 -0.642145,-0.550939 -0.0687,-0.399271 -0.211026,-0.567467 -0.516944,-0.610959 -0.541729,-0.07702 -0.9812145,0.288404 -0.9137305,0.759735 0.06947,0.485152 -0.2258029,0.557066 -0.6819738,0.166083 z m 0.3673709,-1.508576 c -0.08885,-0.143772 -0.194495,-0.154432 -0.3169279,-0.03202 -0.101002,0.101003 -0.123671,0.280687 -0.05038,0.399296 0.08886,0.143764 0.1944969,0.154432 0.3169279,0.03202 0.101003,-0.101003 0.123672,-0.280694 0.05038,-0.399303 z m 2.5710694,0 c -0.08885,-0.143772 -0.194496,-0.154432 -0.316927,-0.03202 -0.101003,0.101003 -0.123673,0.280687 -0.05037,0.399296 0.08885,0.143764 0.194495,0.154432 0.316927,0.03202 0.101002,-0.101003 0.123672,-0.280694 0.05038,-0.399303 z m 7.988679,0.172811 c 0,-0.09505 -0.123963,-0.172811 -0.275471,-0.172811 -0.283996,0 -0.364855,0.216702 -0.158034,0.423515 0.146722,0.14673 0.433505,-0.0191 0.433505,-0.250704 z m -5.142139,0.01081 c 0,-0.101012 -0.165283,-0.18365 -0.367295,-0.18365 -0.202012,0 -0.367294,0.08264 -0.367294,0.18365 0,0.101002 0.165282,0.18365 0.367294,0.18365 0.202012,0 0.367295,-0.08265 0.367295,-0.18365 z m 2.57107,0 c 0,-0.101012 -0.123962,-0.18365 -0.275472,-0.18365 -0.151508,0 -0.275471,0.08264 -0.275471,0.18365 0,0.101002 0.123963,0.18365 0.275471,0.18365 0.15151,0 0.275472,-0.08265 0.275472,-0.18365 z m 5.325786,0 c 0,-0.101012 -0.08264,-0.18365 -0.183648,-0.18365 -0.101002,0 -0.183647,0.08264 -0.183647,0.18365 0,0.101002 0.08264,0.18365 0.183647,0.18365 0.101003,0 0.183648,-0.08265 0.183648,-0.18365 z m 2.571069,0 c 0,-0.101012 -0.08264,-0.18365 -0.183648,-0.18365 -0.101003,0 -0.183647,0.08264 -0.183647,0.18365 0,0.101002 0.08264,0.18365 0.183647,0.18365 0.101002,0 0.183648,-0.08265 0.183648,-0.18365 z m -15.242767,1.193702 c 0,-0.367299 0.09183,-0.459119 0.459119,-0.459119 0.367296,0 0.45912,0.09183 0.45912,0.459119 0,0.367298 -0.09183,0.459119 -0.45912,0.459119 -0.367295,0 -0.459119,-0.09182 -0.459119,-0.459119 z m 2.571069,0 c 0,-0.367299 0.09183,-0.459119 0.459119,-0.459119 0.367297,0 0.459121,0.09183 0.459121,0.459119 0,0.367298 -0.09183,0.459119 -0.459121,0.459119 -0.367295,0 -0.459119,-0.09182 -0.459119,-0.459119 z m 2.884896,0.344434 c -0.0716,-0.07158 -0.13018,-0.281685 -0.13018,-0.46687 0,-0.253353 0.139515,-0.336683 0.563718,-0.336683 0.479551,0 0.554954,0.06167 0.505031,0.413205 -0.05794,0.407964 -0.667457,0.661464 -0.938569,0.390348 z m 2.571069,0 c -0.0716,-0.07158 -0.130178,-0.281685 -0.130178,-0.46687 0,-0.253353 0.139514,-0.336683 0.563716,-0.336683 0.47955,0 0.554953,0.06167 0.50503,0.413205 -0.05793,0.407964 -0.667455,0.661464 -0.938568,0.390348 z m 2.754716,0 c -0.0716,-0.07158 -0.130178,-0.281685 -0.130178,-0.46687 0,-0.253353 0.139515,-0.336683 0.563716,-0.336683 0.47955,0 0.554954,0.06167 0.505032,0.413205 -0.05794,0.407964 -0.667457,0.661464 -0.93857,0.390348 z m 2.624538,-0.344434 c 0,-0.367299 0.09183,-0.459119 0.45912,-0.459119 0.367295,0 0.45912,0.09183 0.45912,0.459119 0,0.367298 -0.09183,0.459119 -0.45912,0.459119 -0.367295,0 -0.45912,-0.09182 -0.45912,-0.459119 z m 2.497202,0.324033 c -0.263517,-0.263517 -0.09265,-0.783152 0.257516,-0.783152 0.237943,0 0.367295,0.122435 0.367295,0.347644 0,0.348838 -0.419254,0.64107 -0.624811,0.435508 z m 16.731153,-1.043355 c -0.325439,-0.58227 -0.397231,-0.86727 -0.254442,-1.010058 0.250272,-0.250275 2.32923,-0.263908 2.32923,-0.01527 0,0.101012 -0.235117,0.18365 -0.522481,0.18365 -0.712383,0 -1.227983,0.576305 -0.961338,1.074531 0.242188,0.452537 0.248783,0.578304 0.03034,0.578304 -0.09237,0 -0.371962,-0.365024 -0.621308,-0.811159 z m -16.954053,-1.10643 c -0.05587,-0.145608 -0.07394,-0.387464 -0.04014,-0.537459 0.05057,-0.224454 0.140957,-0.207846 0.510754,0.09387 0.370552,0.302314 0.402743,0.396036 0.183648,0.534648 -0.374109,0.236682 -0.537201,0.213989 -0.654255,-0.09105 z M 45.01325,16.82619 c -0.191223,-0.419688 -0.30953,-0.459119 -1.377357,-0.459119 -1.073028,0 -1.185499,-0.03802 -1.380908,-0.466903 -0.18267,-0.40092 -0.156162,-0.523485 0.187585,-0.867229 0.220178,-0.220171 0.400318,-0.299309 0.400318,-0.175866 0,0.123451 0.123965,0.224462 0.275474,0.224462 0.158645,0 0.275473,0.165896 0.275473,0.391177 0,0.35499 0.07646,0.382566 0.826416,0.298034 0.454525,-0.05119 0.826415,-0.02064 0.826415,0.06793 0,0.08859 0.12396,0.161086 0.275468,0.161086 0.151514,0 0.275474,-0.06419 0.275474,-0.142586 0,-0.07841 0.338441,-0.110313 0.75209,-0.07085 0.655178,0.06248 0.743134,0.02762 0.682554,-0.270619 -0.05425,-0.267094 -0.22329,-0.337407 -0.769015,-0.319898 -0.641558,0.02064 -0.69258,-0.01365 -0.616196,-0.413204 0.04581,-0.239614 0.01208,-0.435654 -0.0749,-0.435654 -0.087,0 -0.158183,0.206602 -0.158183,0.459119 0,0.252516 -0.08264,0.459118 -0.183643,0.459118 -0.101003,0 -0.183649,-0.08264 -0.183649,-0.183649 0,-0.101012 -0.445687,-0.183649 -0.990417,-0.183649 -0.735935,0 -1.019211,-0.07499 -1.102483,-0.292044 -0.199043,-0.518691 0.06753,-0.62619 1.552797,-0.62619 1.43313,0 1.458341,0.0079 1.458341,0.459115 0,0.285675 0.104064,0.459119 0.275469,0.459119 0.158099,0 0.275472,-0.16562 0.275472,-0.388707 0,-0.315584 0.08636,-0.372193 0.459119,-0.300934 0.252516,0.04826 0.459122,0.01658 0.459122,-0.07043 0,-0.08699 -0.213494,-0.158177 -0.474422,-0.158177 -0.290034,0 -0.445583,-0.08652 -0.400219,-0.222624 0.10234,-0.307011 1.807952,-0.192884 2.153619,0.144105 0.235655,0.229747 0.22998,0.262163 -0.04591,0.262163 -0.173153,0 -0.314824,0.08265 -0.314824,0.183655 0,0.235803 0.311795,0.238379 0.456796,0.0033 0.07,-0.113263 0.244057,-0.0969 0.469956,0.0442 0.302418,0.188858 0.358781,0.433502 0.358781,1.557245 v 1.333182 H 47.43015 c -2.176676,0 -2.210648,-0.0065 -2.416896,-0.459119 z M 10.153585,16.73441 c 0,-0.269343 0.122431,-0.36729 0.459119,-0.36729 0.336689,0 0.45912,0.09794 0.45912,0.36729 0,0.269352 -0.122431,0.367299 -0.45912,0.367299 -0.336688,0 -0.459119,-0.09794 -0.459119,-0.367299 z m 2.571069,0 c 0,-0.269343 0.122433,-0.36729 0.459119,-0.36729 0.336688,0 0.459121,0.09794 0.459121,0.36729 0,0.269352 -0.122433,0.367299 -0.459121,0.367299 -0.336686,0 -0.459119,-0.09794 -0.459119,-0.367299 z m 2.884896,0.252614 c -0.315349,-0.315347 -0.102013,-0.619904 0.43423,-0.619904 0.438436,0 0.550738,0.07174 0.503155,0.321385 -0.06266,0.328818 -0.703128,0.532779 -0.937385,0.298519 z m 2.571069,0 c -0.315348,-0.315347 -0.102012,-0.619904 0.434231,-0.619904 0.438434,0 0.550737,0.07174 0.503154,0.321385 -0.06266,0.328818 -0.703128,0.532779 -0.937385,0.298519 z m 2.754716,0 c -0.315348,-0.315347 -0.102012,-0.619904 0.434231,-0.619904 0.438436,0 0.550738,0.07174 0.503156,0.321385 -0.06267,0.328818 -0.70313,0.532779 -0.937387,0.298519 z m 2.624538,-0.252614 c 0,-0.269343 0.122433,-0.36729 0.45912,-0.36729 0.336688,0 0.45912,0.09794 0.45912,0.36729 0,0.269352 -0.122432,0.367299 -0.45912,0.367299 -0.336687,0 -0.45912,-0.09794 -0.45912,-0.367299 z M 8.2449319,16.260274 c -0.061309,-0.159771 -0.111472,-0.367186 -0.111472,-0.460915 0,-0.103074 3.4294101,-0.151572 8.6773581,-0.12272 l 8.677358,0.0477 0.05869,0.413213 c 0.04779,0.336529 -0.02889,0.413205 -0.413207,0.413205 -0.297029,0 -0.471893,-0.102074 -0.471893,-0.27547 0,-0.192855 -0.19449,-0.275469 -0.64853,-0.275469 -0.407059,0 -0.687892,0.102569 -0.754239,0.275469 -0.06026,0.157024 -0.334154,0.27547 -0.637004,0.27547 -0.349832,0 -0.531296,-0.09409 -0.531296,-0.27547 0,-0.204051 -0.214257,-0.275469 -0.826415,-0.275469 -0.612159,0 -0.826415,0.07141 -0.826415,0.275469 0,0.18365 -0.183648,0.27547 -0.550944,0.27547 -0.367296,0 -0.550943,-0.09182 -0.550943,-0.27547 0,-0.192855 -0.194491,-0.275469 -0.648531,-0.275469 -0.407058,0 -0.68789,0.102569 -0.754239,0.275469 -0.06026,0.157024 -0.334155,0.27547 -0.637004,0.27547 -0.34983,0 -0.531295,-0.09409 -0.531295,-0.27547 0,-0.198957 -0.204053,-0.275469 -0.734592,-0.275469 -0.530537,0 -0.73459,0.07653 -0.73459,0.275469 0,0.190742 -0.191668,0.27547 -0.623119,0.27547 -0.38447,0 -0.663604,-0.105503 -0.728827,-0.27547 -0.06635,-0.1729 -0.347182,-0.275469 -0.754241,-0.275469 -0.454038,0 -0.648529,0.08262 -0.648529,0.275469 0,0.192392 -0.193852,0.27547 -0.642768,0.27547 -0.448918,0 -0.642768,-0.08308 -0.642768,-0.27547 0,-0.192855 -0.19449,-0.275469 -0.648531,-0.275469 -0.407059,0 -0.6878905,0.102569 -0.7542385,0.275469 -0.148422,0.386782 -1.4582807,0.374538 -1.6077706,-0.01503 z m 18.8042501,-0.0073 c 0,-0.247145 -0.0481,-0.258034 -0.282113,-0.06386 -0.236146,0.195983 -0.373253,0.147282 -0.841502,-0.298895 -0.455903,-0.434419 -0.542302,-0.640054 -0.467008,-1.111523 0.07008,-0.438782 -0.0067,-0.671625 -0.31813,-0.964147 -0.403797,-0.379348 -0.538837,-0.385664 -8.249624,-0.385664 H 9.0516977 v -1.010059 -1.010064 h 6.7072213 6.70722 l 1.46103,0.734591 1.461031,0.73459 h 3.952502 3.952505 v 0.642767 c 0,0.629455 -0.372883,0.895806 -0.642768,0.459122 -0.06741,-0.109065 -1.21873,-0.183648 -2.834891,-0.183648 -2.194974,0 -2.765616,0.05328 -2.950013,0.275473 -0.144168,0.173706 -0.156478,0.275472 -0.03332,0.275472 0.107412,0 0.246371,-0.08265 0.308796,-0.183653 0.06675,-0.108014 1.152805,-0.183644 2.637118,-0.183644 2.783581,0 3.511252,0.180655 3.513651,0.872322 l 0.0014,0.413213 h 4.132076 4.132071 v -0.459119 c 0,-0.336692 0.09794,-0.459119 0.367298,-0.459119 0.420887,0 0.465797,0.313965 0.111649,0.780503 -0.219377,0.28899 -0.652236,0.321384 -4.294861,0.321384 -2.227993,0 -4.181619,0.05022 -4.341388,0.111467 -0.159772,0.06134 -0.290492,0.223998 -0.290492,0.36153 0,0.146826 -0.113725,0.206423 -0.275472,0.144357 -0.174436,-0.06695 -0.275472,0.0024 -0.275472,0.189409 0,0.257945 -0.347,0.295117 -2.754717,0.295117 -2.418604,0 -2.754716,-0.03632 -2.754716,-0.297952 z m 5.106786,-1.21714 -0.05647,-0.780504 -2.020125,-0.05339 c -2.635294,-0.06969 -2.846541,-0.01324 -2.846541,0.760898 0,0.334766 0.0551,0.663755 0.122433,0.731095 0.06734,0.06735 1.187749,0.122427 2.489802,0.122427 h 2.367375 z m -4.555843,-0.05175 v -0.648575 l 2.157862,0.05175 2.157862,0.05176 0.05755,0.596854 0.05755,0.596853 h -2.21541 -2.21541 z m -1.652831,-1.46336 c 0,-0.151507 -0.123961,-0.275467 -0.275471,-0.275467 -0.151509,0 -0.275471,0.12396 -0.275471,0.275467 0,0.151509 0.123962,0.275475 0.275471,0.275475 0.15151,0 0.275471,-0.123966 0.275471,-0.275475 z M 10.704528,12.510478 c 0,-0.244862 -0.122432,-0.367292 -0.367295,-0.367292 -0.244863,0 -0.3672965,0.12243 -0.3672965,0.367292 0,0.244864 0.1224335,0.367299 0.3672965,0.367299 0.244863,0 0.367295,-0.122435 0.367295,-0.367299 z m -0.550943,0 c 0,-0.101002 0.08264,-0.183643 0.183648,-0.183643 0.101002,0 0.183648,0.08264 0.183648,0.183643 0,0.101003 -0.08264,0.183649 -0.183648,0.183649 -0.101003,0 -0.183648,-0.08264 -0.183648,-0.183649 z m 30.485532,3.856607 c 0,-0.101003 0.08264,-0.18365 0.183649,-0.18365 0.101002,0 0.183649,0.08265 0.183649,0.18365 0,0.101002 -0.08264,0.183648 -0.183649,0.183648 -0.101003,0 -0.183649,-0.08265 -0.183649,-0.183648 z m 9.770063,-0.404024 c -0.680611,-0.680615 -0.435686,-0.706907 6.390065,-0.685936 3.760545,0.01153 6.655079,0.09253 6.713977,0.187833 0.05696,0.09214 0.429235,0.167538 0.827294,0.167538 0.52091,0 0.723758,0.07718 0.723758,0.275469 0,0.240191 -0.924356,0.27547 -7.217358,0.27547 -5.368637,0 -7.273812,-0.05647 -7.437736,-0.220374 z M 8.3720918,15.101349 c -0.1193589,-0.191125 -0.1667849,-0.397727 -0.1053919,-0.45912 0.06139,-0.06142 1.1739617,-0.111621 2.4723731,-0.111621 2.339919,0 2.362597,-0.0041 2.56994,-0.459118 0.198793,-0.436306 0.285303,-0.459122 1.740717,-0.459122 h 1.531528 v 0.91824 0.918238 h -3.996076 c -3.7212883,0 -4.0109982,-0.02389 -4.2130902,-0.347497 z m 3.6179712,-0.01974 c 0,-0.108827 -0.673375,-0.18365 -1.65283,-0.18365 -0.9794544,0 -1.6528302,0.07483 -1.6528302,0.18365 0,0.108826 0.6733758,0.183649 1.6528302,0.183649 0.979455,0 1.65283,-0.07483 1.65283,-0.183649 z m 12.815263,0.137735 c 0.103695,-0.126262 0.226522,-0.436166 0.272948,-0.688683 0.06223,-0.338447 0.09099,-0.27811 0.109421,0.229564 0.01899,0.523103 -0.04663,0.688682 -0.272948,0.688682 -0.21649,0 -0.246409,-0.06281 -0.109421,-0.229563 z m -8.04042,-0.688683 c 0,-0.457411 0.07258,-0.711411 0.183648,-0.642763 0.101002,0.06242 0.183647,0.351669 0.183647,0.642763 0,0.291102 -0.08264,0.580344 -0.183647,0.642768 -0.111075,0.06866 -0.183648,-0.185348 -0.183648,-0.642768 z m 4.626019,0.0459 0.057,-0.688679 1.377145,-0.05487 c 1.101027,-0.04388 1.331158,-0.0089 1.147797,0.17446 -0.359823,0.359827 -0.269224,0.886286 0.183863,1.068401 0.295256,0.118673 -0.04866,0.169414 -1.204797,0.177734 l -1.618004,0.01171 z m 28.430582,0.232026 c 0,-0.150151 -0.309904,-0.561121 -0.68868,-0.913267 -0.5558,-0.516734 -0.837182,-0.64123 -1.458344,-0.645239 -0.423317,-0.0027 -0.820742,-0.0876 -0.883163,-0.188616 -0.07301,-0.118139 0.599647,-0.183648 1.885652,-0.183648 h 1.999159 l -0.08052,0.548598 c -0.110227,0.751025 0.09522,1.471525 0.419605,1.471525 0.324377,0 0.529827,-0.7205 0.419601,-1.471525 -0.0617,-0.420319 -0.0095,-0.548595 0.223165,-0.548595 0.232673,0 0.284855,0.128276 0.223167,0.548595 -0.110227,0.751025 0.09522,1.471525 0.4196,1.471525 0.324377,0 0.529827,-0.7205 0.4196,-1.471525 -0.0657,-0.44766 -0.0152,-0.548595 0.27462,-0.548595 0.24817,0 0.321612,0.08737 0.243833,0.290065 -0.178662,0.465577 0.08991,1.730055 0.367455,1.730055 0.323819,0 0.511003,-0.7716 0.381208,-1.571414 -0.09873,-0.608388 -0.04378,-0.682538 1.400859,-1.889527 0.826994,-0.690956 1.617041,-1.393214 1.755665,-1.5605632 0.221219,-0.2670614 0.765945,-0.3042771 4.453463,-0.3042771 h 4.20141 V 11.04134 c 0,0.808049 -0.07118,1.469181 -0.158178,1.469181 -0.087,0 -0.11869,-0.206601 -0.07044,-0.459116 0.04827,-0.252516 0.0049,-0.459118 -0.09689,-0.459118 -0.101563,0 -0.173176,0.144622 -0.159145,0.321383 0.02194,0.276198 -0.172656,0.32889 -1.384011,0.374775 -1.342695,0.05086 -1.413334,0.03342 -1.490082,-0.3673 -0.07174,-0.374632 -0.0833,-0.366131 -0.105577,0.0777 l -0.02502,0.498379 -1.79057,0.05256 -1.790562,0.05256 -0.0543,1.239624 -0.0543,1.239621 H 54.22063 c -3.770228,0 -4.399157,-0.03908 -4.399157,-0.273 z m 5.473116,-0.873073 c -0.04113,-0.713492 -0.132659,-0.977086 -0.353783,-1.019081 -0.400442,-0.07605 -0.552321,0.388226 -0.412676,1.261516 0.08767,0.548258 0.199427,0.719988 0.468548,0.719988 0.310899,0 0.346741,-0.115789 0.297911,-0.962423 z m 1.469187,0 c -0.04289,-0.743838 -0.12851,-0.976311 -0.376897,-1.023532 -0.274944,-0.05227 -0.321384,0.0868 -0.321384,0.962431 0,0.90979 0.04191,1.023523 0.376898,1.023523 0.339207,0 0.371342,-0.09622 0.321383,-0.962422 z m 1.689141,0.31682 c 0,-0.295445 -0.502722,-0.499225 -0.648738,-0.262966 -0.06026,0.09749 -0.05595,0.346165 0.0096,0.552588 0.09511,0.299683 0.171523,0.331834 0.379151,0.159527 0.143007,-0.118699 0.260017,-0.320807 0.260017,-0.449149 z m 6.244025,-3.965235 c 0,-0.225217 -0.12935,-0.3476456 -0.367299,-0.3476456 -0.350154,0 -0.521023,0.5196346 -0.257513,0.7831516 0.205554,0.20556 0.624812,-0.08667 0.624812,-0.435506 z m -0.550939,0.01962 c 0,-0.101003 0.08264,-0.18365 0.18364,-0.18365 0.101013,0 0.18365,0.08264 0.18365,0.18365 0,0.101002 -0.08264,0.183648 -0.18365,0.183648 -0.101002,0 -0.18364,-0.08264 -0.18364,-0.183648 z m -5.139328,3.627044 c 0.0021,-0.808841 0.05537,-1.066448 0.180837,-0.872325 0.118681,0.183648 0.178958,0.198949 0.180832,0.04591 0.0015,-0.126256 0.135615,-0.229559 0.297932,-0.229559 0.174601,0 0.255649,0.102866 0.198464,0.251886 -0.05448,0.141961 0.134069,0.422475 0.432032,0.642767 0.64212,0.474739 0.96037,0.500131 0.871383,0.0695 -0.03654,-0.176761 -0.207872,-0.309903 -0.380761,-0.295874 -0.172894,0.014 -0.31435,-0.08238 -0.31435,-0.21426 0,-0.131867 -0.103303,-0.281444 -0.229558,-0.332388 -0.126261,-0.05097 1.092707,-0.08615 2.708801,-0.07823 1.984553,0.0097 2.533738,0.04972 1.691858,0.123236 -1.396611,0.121946 -1.592887,0.28765 -1.597218,1.348466 l -0.0024,0.688675 -1.423273,-0.01454 c -0.782792,-0.0082 -1.319965,-0.05614 -1.193704,-0.107129 0.319759,-0.129025 0.28765,-0.429317 -0.04591,-0.429317 -0.151509,0 -0.275474,0.123963 -0.275474,0.275471 0,0.183648 -0.183644,0.275469 -0.550942,0.275469 h -0.550932 l 0.0025,-1.1478 z m 0.306285,0.562422 c -0.05862,-0.146501 -0.102142,-0.102984 -0.110951,0.110956 -0.008,0.193602 0.03545,0.302071 0.09646,0.241036 0.06102,-0.06102 0.06755,-0.219416 0.01447,-0.351992 z m 3.489307,0 c -0.05866,-0.146501 -0.102139,-0.102984 -0.110947,0.110956 -0.0082,0.193602 0.03542,0.302071 0.09646,0.241036 0.06101,-0.06102 0.06752,-0.219416 0.01446,-0.351992 z m -29.289597,-0.47061 c 0.04963,-0.773384 0.108047,-0.879301 0.515094,-0.93379 0.252516,-0.03378 0.537629,-0.137104 0.633585,-0.229558 0.240395,-0.23162 5.374798,-0.217153 5.518618,0.01557 0.06242,0.101003 0.356547,0.18365 0.653603,0.18365 0.525694,0 0.540103,0.02452 0.540103,0.918239 v 0.918235 H 37.41522 33.456731 Z m 0.698742,0.229558 c 0,-0.151507 -0.07777,-0.275467 -0.172809,-0.275467 -0.231576,0 -0.397433,0.286777 -0.250711,0.433507 0.206822,0.206821 0.42352,0.125953 0.42352,-0.15804 z m 6.822513,0 c 0,-0.09596 -0.08884,-0.204075 -0.197418,-0.240271 -0.108583,-0.03618 -0.197424,0.07193 -0.197424,0.240271 0,0.168342 0.08884,0.276469 0.197424,0.240272 0.108581,-0.03616 0.197418,-0.144315 0.197418,-0.240272 z M 7.9498119,13.979667 c 0,-0.350411 0.122432,-0.367298 2.6628921,-0.367298 1.464591,0 2.662894,0.06611 2.662894,0.146917 0,0.47504 -0.552637,0.587676 -2.883271,0.587676 -2.3200831,0 -2.4425151,-0.01844 -2.4425151,-0.367295 z M 41.557355,13.520545 v -0.642767 h 2.14868 c 1.702385,0 2.101677,0.04701 1.922391,0.226289 -0.12446,0.124459 -0.848545,0.257712 -1.609071,0.296114 -1.1086,0.05598 -1.425714,0.138568 -1.599274,0.416483 -0.119067,0.190656 -0.361889,0.346647 -0.539609,0.346647 -0.246842,0 -0.323117,-0.151723 -0.323117,-0.642766 z M 3.17501,13.750102 c -2.2e-5,-0.07576 0.103261,-0.138999 0.2295189,-0.140545 0.152379,-0.0021 0.136943,-0.06138 -0.04591,-0.177006 -0.241204,-0.152524 -0.23596,-0.213717 0.04215,-0.491909 0.293021,-0.293095 0.294614,-0.343143 0.02057,-0.645962 C 3.189092,12.038051 3.171548,11.909469 3.340929,11.705372 3.5087299,11.503186 3.5040919,11.42285 3.320359,11.34913 3.189886,11.29677 4.2194558,11.247424 5.6082915,11.239446 l 2.5251574,-0.01453 v 1.0794 c 0,1.513868 -0.12236,1.583494 -2.7829224,1.583494 -1.1965177,0 -2.1755045,-0.06198 -2.1755265,-0.137739 z m 2.0200855,-0.51384 c 0,-0.247372 -0.3110139,-0.368552 -0.6308828,-0.245811 -0.223015,0.08559 -0.246608,0.174263 -0.09497,0.356975 0.20531,0.247389 0.7258518,0.167667 0.7258518,-0.111164 z m 1.2855338,0 c 0,-0.294162 -0.3856,-0.388267 -0.6595039,-0.160946 -0.2076599,0.172341 -0.2211789,0.263115 -0.05452,0.366116 0.253013,0.15637 0.7140269,0.0239 0.7140269,-0.20517 z m 1.2855347,0 c 0,-0.08424 -0.08984,-0.208683 -0.19965,-0.27655 C 7.3115231,12.802117 6.9520242,13.151434 7.1085501,13.4047 7.2388991,13.615612 7.766164,13.48056 7.766164,13.236262 Z M 5.0954276,11.97223 c 0.05811,-0.09403 0.01771,-0.225316 -0.08978,-0.291747 -0.2717929,-0.16798 -0.7772108,0.05214 -0.6377709,0.277759 0.143539,0.23225 0.5873829,0.240782 0.7275499,0.014 z m 1.2571657,-0.102002 c 0.01991,-0.09963 -0.108411,-0.208986 -0.2851719,-0.243027 -0.201021,-0.03873 -0.321383,0.05138 -0.321383,0.240512 0,0.31951 0.5427339,0.321758 0.6065549,0.0025 z m 1.3677447,0.04341 c -0.115703,-0.347501 -0.6887659,-0.396903 -0.6887659,-0.05938 0,0.170358 0.157019,0.28894 0.3826,0.28894 0.2244129,0 0.3509979,-0.09492 0.3061659,-0.229558 z m 35.084965,1.848426 c 0.160759,-0.156262 2.940876,-0.245977 3.087226,-0.09962 0.05866,0.05866 -0.641095,0.133366 -1.554993,0.166027 -0.913903,0.03264 -1.603407,0.0027 -1.532233,-0.0664 z M 8.3171069,12.337715 c 0,-0.600079 0.08264,-1.142125 0.1836489,-1.204552 0.115301,-0.07126 0.183647,0.334783 0.183647,1.09105 0,0.680602 -0.07989,1.204548 -0.183647,1.204548 -0.101828,0 -0.1836489,-0.486115 -0.1836489,-1.091046 z m 25.1597481,0.301361 c 0,-0.606908 0.421812,-0.679498 3.948427,-0.679498 3.526613,0 3.948425,0.07259 3.948425,0.679498 0,0.279024 -0.843239,0.325018 -1.010062,0.0551 -0.0677,-0.10955 -1.25322,-0.183649 -2.938363,-0.183649 -1.685143,0 -2.870657,0.07409 -2.938365,0.183649 -0.166822,0.269925 -1.010062,0.223931 -1.010062,-0.0551 z m -9.592203,-0.781176 -1.236225,-0.634552 -6.798365,-0.0291 c -3.739099,-0.01603 -6.7983643,-0.09828 -6.7983643,-0.182825 0,-0.08455 0.7079428,-0.153728 1.5732053,-0.153728 h 1.573204 l -0.05811,-0.505027 C 12.082416,9.8522344 12.068075,9.8471433 10.566793,9.7942893 l -1.5150943,-0.053341 0.0145,-0.773077 c 0.008,-0.4251909 0.05618,-0.6697736 0.107127,-0.5435128 0.1290279,0.3197642 0.4293179,0.2876501 0.4293179,-0.045914 0,-0.2413603 1.1930694,-0.2754682 9.6357444,-0.2754682 8.489657,0 9.623173,0.032744 9.530038,0.2754682 -0.06862,0.1788336 0.0047,0.2754739 0.209059,0.2754739 0.204343,0 0.277685,-0.096641 0.209058,-0.2754739 -0.05814,-0.1515084 -0.0267,-0.2754682 0.06986,-0.2754682 0.100309,0 0.156881,0.610105 0.131972,1.4232717 l -0.0436,1.423267 h 7.070442 7.07044 l 0.05334,-1.5150908 0.05334,-1.5150963 h 4.308297 c 3.37412,0 4.308295,0.050862 4.308295,0.2346547 0,0.1290663 0.166226,0.3769907 0.369396,0.5509469 0.475333,0.4069918 2.110541,0.4336507 2.503378,0.040812 0.202952,-0.2029532 0.699156,-0.2754744 1.884832,-0.2754744 1.570417,0 1.621705,-0.013845 2.119896,-0.5729932 0.407798,-0.4576908 0.460105,-0.6067057 0.259917,-0.7404886 -0.169577,-0.113325 -0.04279,-0.1507382 0.392141,-0.1156829 0.559661,0.045134 0.650685,0.1212892 0.703997,0.5891784 0.03368,0.2955516 0.270752,0.8120623 0.526828,1.1477981 l 0.465603,0.6104285 H 59.37612 57.317325 l -0.917453,0.7805056 c -0.504601,0.429278 -1.311333,1.131728 -1.792741,1.561007 l -0.875292,0.780505 h -6.043071 c -5.844173,0 -6.050613,-0.01207 -6.272446,-0.367293 -0.217251,-0.347875 -0.428267,-0.367297 -3.991045,-0.367297 -3.562776,0 -3.773794,0.01942 -3.991046,0.367297 -0.218388,0.349693 -0.423112,0.366861 -4.271369,0.358262 l -4.041986,-0.009 z M 50.372447,10.76587 V 9.2048591 h -0.734588 -0.734591 v 1.5610109 1.561006 h 0.734591 0.734588 z m -1.285531,0 V 9.3885084 h 0.550943 0.550945 v 1.3773616 1.377358 h -0.550945 -0.550943 z m -30.156871,-0.459122 -0.06685,-0.4591173 3.188549,-0.02301 c 1.7537,-0.01265 3.260849,-0.095275 3.349216,-0.1836435 0.09179,-0.091793 -0.654508,-0.1606711 -1.740915,-0.1606711 -1.04587,0 -1.863276,0.061978 -1.816456,0.1377342 0.04682,0.075758 -0.06844,0.1377398 -0.256132,0.1377398 -0.276896,0 -0.328093,-0.1125694 -0.271451,-0.5968566 l 0.0698,-0.5968573 -1.805425,0.064822 c -1.665767,0.059808 -2.06904,0.1808797 -2.078084,0.6238583 -0.0015,0.075758 0.776534,0.1377342 1.729068,0.1377342 1.586343,0 1.738866,-0.031078 1.815001,-0.3701089 0.06914,-0.3078741 0.07901,-0.3001537 0.05869,0.045914 -0.02346,0.3994433 -0.104946,0.419777 -2.044561,0.5101334 -1.111069,0.051748 -2.929181,0.051748 -4.040251,0 -1.858395,-0.086577 -2.02157,-0.123517 -2.038175,-0.4614022 -0.01373,-0.2795916 2.76e-4,-0.2905546 0.05869,-0.045914 0.06641,0.278134 0.311459,0.3213833 1.820991,0.3213833 1.660684,0 1.738672,-0.017599 1.627682,-0.3672928 -0.07177,-0.2261227 -0.033,-0.3672979 0.10086,-0.3672979 0.134608,0 0.182986,0.1801922 0.127003,0.4730423 -0.05839,0.3054794 -0.02734,0.4099701 0.08764,0.2949795 0.09793,-0.097935 0.149655,-0.3196494 0.11493,-0.492694 C 16.865135,8.6564567 16.581784,8.611094 14.790649,8.5883285 l -2.066082,-0.026235 4.3e-5,0.5107951 c 2.5e-5,0.2809395 0.103348,0.5470794 0.229605,0.5914224 0.126259,0.044354 1.468255,0.1450482 2.982218,0.2237957 2.564163,0.1333653 2.755221,0.1683223 2.790084,0.5104663 0.02913,0.28587 0.01643,0.296047 -0.05732,0.04591 -0.08118,-0.275369 -0.332271,-0.321384 -1.753759,-0.321384 -1.399227,0 -1.64246,0.04315 -1.553304,0.275474 0.05815,0.15151 0.01603,0.275475 -0.09359,0.275475 -0.113352,0 -0.154898,-0.169813 -0.09633,-0.393754 0.07354,-0.2812261 0.04645,-0.3372349 -0.09479,-0.195993 -0.108766,0.108769 -0.155984,0.306615 -0.104929,0.439664 0.06878,0.179261 0.601897,0.241907 2.058616,0.241907 h 1.965782 z m 4.239573,0.03248 c 0.226991,-0.276828 0.241949,-0.263522 0.14801,0.131711 -0.07464,0.314022 -0.04798,0.383149 0.09325,0.241907 0.108768,-0.10877 0.156188,-0.306615 0.105379,-0.439664 -0.07011,-0.183587 -0.540842,-0.227898 -1.952686,-0.183795 -1.589427,0.04966 -1.862973,0.103126 -1.878613,0.367293 -0.0113,0.190693 -0.07467,0.133232 -0.165342,-0.149932 l -0.147036,-0.4591164 -0.01846,0.4591164 -0.01845,0.459124 1.790708,-0.05934 c 1.402498,-0.04649 1.84545,-0.126105 2.043218,-0.367299 z m 22.714353,-0.198501 c -0.06842,-0.110701 -0.284797,-0.2012707 -0.480851,-0.2012707 -0.402072,0 -0.506349,0.6484087 -0.126895,0.7890907 0.304932,0.113053 0.765558,-0.332478 0.607746,-0.58782 z m -0.653656,0.166026 c 0,-0.101012 0.07776,-0.183649 0.172805,-0.183649 0.09505,0 0.223884,0.08264 0.286312,0.183649 0.06242,0.101003 -0.01535,0.18365 -0.172811,0.18365 -0.157469,0 -0.286306,-0.08264 -0.286306,-0.18365 z M 17.407673,9.0387545 c 0,-0.2933708 -0.06198,-0.4950992 -0.137736,-0.4482789 -0.07576,0.0468 -0.137736,0.2868531 -0.137736,0.5334085 0,0.2465504 0.06198,0.4482795 0.137736,0.4482795 0.07576,0 0.137736,-0.2400327 0.137736,-0.5334091 z m 7.951949,0.1293839 C 25.859497,8.668265 25.560308,8.562099 23.651698,8.562099 c -1.592863,0 -1.927813,0.047946 -1.92549,0.2754732 0.0025,0.2448639 0.0226,0.2448639 0.180836,0 0.143956,-0.2227598 0.178561,-0.1964031 0.180836,0.1377342 0.0027,0.3950973 0.06962,0.4132079 1.527088,0.4132079 0.940684,0 1.608653,-0.084375 1.744654,-0.2203759 z m 19.136097,-0.803152 c 0,-0.1710197 -0.124949,-0.2647074 -0.306162,-0.2295636 -0.460731,0.089357 -0.523996,0.5184998 -0.07644,0.5184998 0.225582,0 0.382598,-0.118577 0.382598,-0.2889362 z m 15.059119,0.1052869 c 0,-0.1010023 -0.08264,-0.1836436 -0.183649,-0.1836436 -0.101002,0 -0.183643,0.082642 -0.183643,0.1836436 0,0.1010075 0.08264,0.1836493 0.183643,0.1836493 0.101013,0 0.183649,-0.082642 0.183649,-0.1836493 z m -30.04587,2.1274657 c -0.159107,-0.414628 -0.0018,-1.2657082 0.249019,-1.3480997 0.154964,-0.050911 0.229559,0.1384629 0.229559,0.5826913 v 0.6580714 h 6.713985 c 4.429218,0 6.675354,0.0625 6.600479,0.18365 -0.07235,0.117071 -2.574901,0.183643 -6.903393,0.183643 -5.685963,0 -6.806112,-0.04227 -6.889649,-0.259956 z M 8.2508989,10.546619 c -0.06459,-0.06459 -0.117439,-0.392911 -0.117439,-0.7295984 0,-0.4217084 0.0857,-0.6121616 0.2754719,-0.6121616 0.191491,0 0.275471,0.1926494 0.275471,0.6319329 0,0.6180191 -0.199178,0.9441541 -0.4335039,0.7098271 z m 0.8007988,-0.247596 c 0,-0.3499111 0.09516,-0.3714268 1.4212793,-0.3213834 1.182218,0.044614 1.431602,0.1076904 1.482648,0.3750234 0.05434,0.284604 -0.108286,0.321383 -1.421279,0.321383 -1.3703963,0 -1.4826483,-0.02838 -1.4826483,-0.375023 z m 2.5710693,0.0077 c 0,-0.103595 -0.520335,-0.183649 -1.193711,-0.183649 -0.6733745,0 -1.1937104,0.08005 -1.1937104,0.183649 0,0.103595 0.5203359,0.183649 1.1937104,0.183649 0.673376,0 1.193711,-0.08006 1.193711,-0.183649 z M 7.3988681,9.939403 c 0,-0.2040561 0.1224319,-0.3672978 0.2754719,-0.3672978 0.15304,0 0.2754719,0.1632417 0.2754719,0.3672978 0,0.20405 -0.1224319,0.367292 -0.2754719,0.367292 -0.15304,0 -0.2754719,-0.163242 -0.2754719,-0.367292 z m 22.8591789,0.175646 c -0.06516,-0.105432 -0.02527,-0.3039954 0.08866,-0.4412606 0.155726,-0.1876371 0.148257,-0.2726107 -0.0301,-0.3424247 -0.130475,-0.051065 0.09334,-0.045086 0.497366,0.013276 0.404024,0.058354 0.966327,0.2468154 1.24956,0.4187882 0.447906,0.2719591 0.983259,0.3053331 4.110982,0.2562741 2.222859,-0.03488 3.670685,-0.1310809 3.791569,-0.2519695 0.108686,-0.1086856 0.913491,-0.1955597 1.811656,-0.1955597 1.49367,0 1.616104,0.027795 1.616104,0.3672986 0,0.3603856 -0.122434,0.3672936 -6.508656,0.3672936 -4.323104,0 -6.548441,-0.06437 -6.62713,-0.191693 z M 32.558616,9.7888042 C 31.839233,9.4628197 31.510937,9.1290571 31.594681,8.8088137 31.676841,8.4946248 31.937802,8.470262 35.221509,8.470262 c 3.383844,0 3.542486,0.01603 3.634344,0.3672979 0.08889,0.3399367 0.264899,0.3697343 2.362926,0.4000219 l 2.266881,0.032744 -1.744655,0.13838 c -0.959563,0.076107 -2.568574,0.2351967 -3.57559,0.353534 -1.338711,0.1573129 -1.918152,0.1606807 -2.155368,0.012545 -0.404914,-0.2528751 -2.104334,-0.2671499 -2.257721,-0.018947 -0.127046,0.2055599 -0.773464,0.2234366 -1.19371,0.033004 z M 61.28807,8.699811 C 60.357057,7.6908248 60.491674,7.4615625 62.019848,7.4535611 l 1.265013,-0.00658 0.639615,0.8903004 c 0.634798,0.8835908 0.845999,0.9310148 1.001243,0.2248325 0.07264,-0.3304884 0.100859,-0.3186193 0.281426,0.1184778 0.110377,0.2671752 0.309326,0.5292338 0.442121,0.5823534 0.132778,0.053122 -0.651186,0.1031103 -1.742153,0.1110858 l -1.983578,0.014527 z m 1.306849,0.3053814 C 62.784174,8.6989733 62.358522,8.3478231 62.105177,8.601167 c -0.211917,0.2119163 -0.0793,0.603671 0.204384,0.603671 0.08907,0 0.21749,-0.089841 0.285358,-0.1996456 z m 3.387593,-0.1741073 c 0,-0.2055707 -0.133468,-0.577455 -0.296594,-0.8264154 -0.464588,-0.7090561 1.6e-5,-0.5303476 0.734345,0.2824598 0.365275,0.404316 0.664137,0.7762053 0.664137,0.8264154 0,0.050237 -0.247926,0.091294 -0.550939,0.091294 -0.431689,0 -0.550949,-0.080901 -0.550949,-0.3737538 z M 29.731724,8.7307024 c -0.06131,-0.1597701 -0.111473,-0.3663765 -0.111473,-0.4591226 0,-0.099405 2.826979,-0.1686253 6.886793,-0.1686253 h 6.886791 V 8.562072 9.0211945 h -2.067777 c -1.868877,0 -2.089834,-0.035344 -2.29715,-0.3672979 -0.21663,-0.3468763 -0.42827,-0.3672929 -3.807399,-0.3672929 -3.379129,0 -3.59077,0.02041 -3.807399,0.3672929 -0.290172,0.4646403 -1.512154,0.5204256 -1.682386,0.076806 z M 65.240392,8.2760258 c -0.483258,-0.678671 -0.334864,-0.9556333 0.180473,-0.336824 0.331621,0.39821 0.497908,0.8983434 0.298682,0.8983434 -0.04363,0 -0.259244,-0.2526825 -0.479155,-0.5615194 z M 7.1693081,8.5201137 C 6.4418213,8.4440147 6.3175953,8.1997923 6.6707382,7.5399355 6.9273722,7.060417 8.7431168,7.00167 8.5600198,7.4788105 c -0.08366,0.2180181 -0.02278,0.2745786 0.2353229,0.2186526 0.1915,-0.041486 0.327519,-0.1738408 0.302268,-0.2940996 -0.03349,-0.1595099 0.5501949,-0.2186526 2.1578613,-0.2186526 1.665073,0 2.192551,0.056111 2.157862,0.2295588 -0.03178,0.1588908 -0.696091,0.2671913 -2.157862,0.3518 -2.6135052,0.1512695 -2.5710692,0.1421753 -2.5710692,0.5511346 0,0.3484535 -0.05424,0.3557156 -1.5150947,0.2029055 z M 52.805784,8.5397917 C 52.679523,8.4847211 52.576226,8.322582 52.576226,8.1794912 c 0,-0.2096046 0.419355,-0.2604808 2.157856,-0.2617661 1.186826,-0.00106 2.612394,-0.055786 3.167927,-0.1220237 0.91115,-0.1086336 0.986378,-0.091699 0.768236,0.1729306 -0.176966,0.2146755 -0.694152,0.3189939 -1.928305,0.388938 -0.927558,0.052577 -2.141,0.1376097 -2.696533,0.1889695 -0.555533,0.051382 -1.113368,0.048311 -1.239623,-0.00674 z M 64.082077,8.1764613 c -0.401188,-0.5506657 -0.247025,-0.8502522 0.172671,-0.3355581 0.278055,0.3409929 0.284522,0.3412327 0.17754,0.00658 -0.09396,-0.2939957 -0.06801,-0.3117001 0.168667,-0.1152507 0.326827,0.2712464 0.38051,0.6384353 0.06484,0.4433175 -0.144462,-0.089284 -0.176434,-0.032695 -0.09759,0.1728114 0.174858,0.4556499 -0.09965,0.3586088 -0.486103,-0.1718534 z M 13.70411,7.4602041 c 0,-0.1515141 0.110188,-0.2754739 0.244864,-0.2754739 0.134675,0 0.244864,0.1239598 0.244864,0.2754739 0,0.1515084 -0.110189,0.2754683 -0.244864,0.2754683 -0.134676,0 -0.244864,-0.1239599 -0.244864,-0.2754683 z m 0.673374,-0.091825 c 0,-0.202015 0.117076,-0.3672978 0.260167,-0.3672978 0.143092,0 0.29472,-0.1033036 0.336951,-0.2295588 0.05347,-0.1598535 0.555399,-0.2295585 1.652949,-0.2295585 0.866892,0 1.617024,0.041332 1.666959,0.091825 0.04994,0.050497 0.04714,0.3190872 -0.0062,0.5968515 -0.09258,0.4819284 -0.144345,0.5043704 -1.131582,0.4905336 -0.569013,-0.00796 -0.931265,-0.056176 -0.805006,-0.1071289 0.265337,-0.1070623 0.309349,-0.7256214 0.06248,-0.8781925 -0.285594,-0.1765066 -0.751164,0.1044021 -0.751164,0.4532195 0,0.1827896 0.103303,0.3740293 0.229561,0.424973 0.126257,0.050968 -0.162988,0.099154 -0.642768,0.1071289 -0.754728,0.012545 -0.872328,-0.035035 -0.872328,-0.3527946 z m 0.856218,-0.4132073 c -0.05094,-0.1262608 -0.09263,-0.022962 -0.09263,0.229558 0,0.2525167 0.04168,0.3558195 0.09263,0.2295587 0.05094,-0.1262551 0.05094,-0.3328615 0,-0.4591167 z m 2.816739,0.2601681 c 0,-0.2391267 -0.218316,-0.3981573 -0.395907,-0.2883992 -0.189932,0.1173851 -0.02616,0.4414384 0.223097,0.4414384 0.09505,0 0.17281,-0.068875 0.17281,-0.1530392 z m 0.367295,0.3366828 c 0,-0.1211584 6.029768,-0.1836436 17.722012,-0.1836436 11.692241,0 17.72201,0.062481 17.72201,0.1836436 0,0.1211647 -6.029769,0.1836493 -17.72201,0.1836493 -11.692244,0 -17.722012,-0.062482 -17.722012,-0.1836493 z M 54.11758,7.44518 c 0.06131,-0.15977 0.111476,-0.4076944 0.111476,-0.5509414 0,-0.2150555 0.50413,-0.2553278 2.892452,-0.2310634 1.590846,0.016136 2.623867,0.062725 2.295596,0.1034595 -0.424081,0.052634 -0.596856,0.1694525 -0.596856,0.4035662 0,0.2683678 -0.209432,0.3513889 -1.128828,0.4474882 -0.620849,0.064886 -1.704035,0.1179831 -2.407068,0.1179831 -1.090137,0 -1.26184,-0.042738 -1.166772,-0.2904922 z M 55.48214,7.1235992 C 55.5165,6.9464571 55.42432,6.8174323 55.263419,6.8174323 c -0.34117,0 -0.547079,0.2993735 -0.385606,0.5606401 0.166116,0.2687789 0.532795,0.1143763 0.604327,-0.2544732 z m -0.518494,0.061133 c 0,-0.1010064 0.08264,-0.1836485 0.183644,-0.1836485 0.101002,0 0.183649,0.082642 0.183649,0.1836485 0,0.1010075 -0.08264,0.1836493 -0.183649,0.1836493 -0.101002,0 -0.183644,-0.082642 -0.183644,-0.1836493 z M 15.881865,7.1709356 c 0.0362,-0.1085825 0.144317,-0.1974236 0.240274,-0.1974236 0.09596,0 0.204078,0.088842 0.240272,0.1974236 0.0362,0.1085816 -0.07193,0.1974228 -0.240272,0.1974228 -0.168344,0 -0.276467,-0.088842 -0.240274,-0.1974228 z M 18.85062,6.9092359 c 0.32071,-0.3207113 3.142377,-0.3984699 3.331896,-0.091824 0.147781,0.2391162 1.010062,0.2391162 1.010062,0 0,-0.1010022 0.206604,-0.1836443 0.45912,-0.1836443 0.252516,0 0.459119,0.082642 0.459119,0.1836443 0,0.1010064 0.247926,0.1836485 0.550944,0.1836485 0.303018,0 0.550943,-0.082641 0.550943,-0.1836485 0,-0.1080249 0.642767,-0.1836443 1.561006,-0.1836443 0.91824,0 1.561006,0.075619 1.561006,0.1836443 0,0.2391162 0.862282,0.2391162 1.010063,0 0.147781,-0.2391112 1.010064,-0.2391112 1.010064,0 0,0.2391162 0.862281,0.2391162 1.010063,0 0.149743,-0.2422921 3.213836,-0.2422921 3.213836,0 0,0.1010064 0.206603,0.1836485 0.459119,0.1836485 0.252515,0 0.459119,-0.082641 0.459119,-0.1836485 0,-0.2391112 0.862283,-0.2391112 1.010064,0 0.14778,0.2391162 1.010062,0.2391162 1.010062,0 0,-0.1080249 0.642767,-0.1836443 1.561007,-0.1836443 0.918239,0 1.561004,0.075619 1.561004,0.1836443 0,0.1010064 0.201728,0.1836485 0.448279,0.1836485 0.246554,0 0.499357,-0.082641 0.561784,-0.1836485 0.147782,-0.2391112 1.010064,-0.2391112 1.010064,0 0,0.1010064 0.206601,0.1836485 0.459118,0.1836485 0.252516,0 0.459123,-0.082641 0.459123,-0.1836485 0,-0.2422921 3.064085,-0.2422921 3.213835,0 0.147781,0.2391162 1.010059,0.2391162 1.010059,0 0,-0.2391112 0.862282,-0.2391112 1.010064,0 0.147781,0.2391162 1.010064,0.2391162 1.010064,0 0,-0.1080249 0.642765,-0.1836443 1.561006,-0.1836443 1.024317,0 1.561005,0.070306 1.561005,0.2044883 0,0.1227515 0.22023,0.1721702 0.550943,0.1236315 0.303022,-0.04446 0.550946,-0.012545 0.550946,0.07098 0,0.08351 -7.980807,0.1518415 -17.735129,0.1518415 -15.764561,0 -17.704521,-0.030607 -17.459658,-0.275473 z M 54.963646,5.97109 c 0,-0.4064408 0.06322,-0.463162 0.417242,-0.3743056 0.434848,0.109139 1.61247,-0.1850645 2.245647,-0.56103 C 57.941265,4.8488779 57.96098,4.7639977 57.764274,4.442672 57.390121,3.8314839 57.491846,3.6954 58.32289,3.6954 c 0.685771,0 0.888591,0.102314 1.56101,0.7874549 0.584175,0.5952323 0.772827,0.931452 0.772827,1.3773573 0,0.7109826 -0.280117,0.7786053 -0.448367,0.1082436 -0.110398,-0.4398612 -0.179865,-0.4719134 -0.800413,-0.3693184 -0.373737,0.06179 -0.906786,0.1132568 -1.184555,0.1143658 -0.381926,0.00154 -0.505032,0.091554 -0.505032,0.3693176 0,0.3346475 -0.122429,0.3672986 -1.377357,0.3672986 -1.362016,0 -1.377357,-0.00528 -1.377357,-0.4790294 z M 59.70404,4.9323574 c 0.0731,-0.3795211 -0.457065,-0.6352543 -0.736874,-0.3554499 -0.279805,0.2798101 -0.02405,0.8099653 0.355448,0.7368761 0.175908,-0.03389 0.347548,-0.2055185 0.381426,-0.3814262 z m -0.572721,0.1147874 c -0.146719,-0.1467244 0.01916,-0.433505 0.250709,-0.433505 0.09505,0 0.17281,0.1239597 0.17281,0.275473 0,0.2839955 -0.216694,0.3648514 -0.423519,0.158032 z m -1.22931,1.1275007 c 0,-0.1878394 0.189864,-0.2762702 0.596857,-0.2779772 0.32827,-0.00154 0.796736,-0.055982 1.041038,-0.1213469 0.367027,-0.09819 0.423218,-0.064204 0.323486,0.1956955 -0.07165,0.1867099 -0.0469,0.2689349 0.06085,0.2023269 0.09985,-0.06171 0.181541,-0.024675 0.181541,0.082288 0,0.1152717 -0.44879,0.194488 -1.101883,0.194488 -0.857025,0 -1.101889,-0.061214 -1.101889,-0.2754743 z M 15.334208,4.7513739 c 0.04849,-1.3772687 0.0883,-1.5200891 0.437621,-1.5699863 0.316017,-0.045134 0.456571,0.1342932 0.791189,1.0100645 0.223797,0.5857211 0.624162,1.292217 0.889698,1.5699861 L 17.93551,6.2664701 H 16.60819 15.280869 Z M 55.642733,5.415156 c -0.201506,-0.2015 -0.149781,-0.7664659 0.08336,-0.9105561 0.116333,-0.071898 0.311388,0.00585 0.433457,0.1728048 0.314679,0.430351 0.808117,0.3759817 0.995389,-0.1096744 0.138595,-0.3594164 0.175805,-0.3725147 0.285829,-0.100622 0.172435,0.4261227 0.01145,0.6311627 -0.590913,0.7527175 -0.279871,0.056477 -0.637133,0.1523623 -0.793914,0.2130821 -0.156787,0.060718 -0.342732,0.052731 -0.413208,-0.017753 z" id="path854"/>
  </g>
</svg>