<svg width="512" height="512" viewBox="0 0 512 512" fill="none" xmlns="http://www.w3.org/2000/svg">
<path d="M296.405 353.418C278.633 350.12 253.859 342.356 238.636 335.316C229.189 330.947 228.195 329.662 225.001 317.708C224.045 314.131 220.932 308.119 218.081 304.348C215.231 300.577 212.19 296.53 211.323 295.355C210.167 293.785 211.28 291.686 215.511 287.454L221.274 281.692L229.487 288.184C242.465 298.442 254.479 300.431 270.166 294.917C274.937 293.24 280.935 290.377 283.494 288.555C289.594 284.211 292.659 284.369 293.843 289.086C295.397 295.277 306.467 297.059 344.122 297.181C362.056 297.239 377.803 297.892 379.115 298.633C380.427 299.374 391.364 306.108 403.419 313.597C433.678 332.397 434.138 336.147 407.33 345.511C373.91 357.185 332.572 360.132 296.405 353.418ZM327.94 345.676C330.664 343.406 331.365 341.636 330.597 338.969C328.305 331.011 321.082 313.02 319.822 312.129C317.253 310.311 284.844 305.711 283.718 307.003C276.301 315.515 266.183 328.661 266.183 329.786C266.183 330.574 266.974 332.954 267.94 335.073C270.632 340.983 296.76 347.946 318.673 348.595C322.049 348.694 325.696 347.546 327.94 345.676ZM352.65 344.889C354.126 341.045 352.018 337.731 348.099 337.731C343.855 337.731 341.676 341.941 344.29 345.09C346.696 347.99 351.505 347.874 352.65 344.889ZM378.286 340.836C384.39 339.954 392.085 338.423 395.384 337.434C400.936 335.771 401.383 335.192 401.383 329.678C401.383 324.271 400.7 323.317 394.017 319.401C387.389 315.517 386.056 315.263 380.71 316.864C372.158 319.426 369.897 319.114 365.552 314.769C361.861 311.078 361.003 310.938 347.51 311.812L333.342 312.73L337.018 320.663C340.358 327.873 341.216 328.629 346.421 328.945C352.407 329.308 359.236 334.32 360.903 339.573C361.97 342.935 363.163 343.021 378.286 340.836ZM417.805 332.319C419.238 328.586 415.124 324.47 411.203 325.714C407.913 326.758 406.538 331.221 408.806 333.49C410.722 335.405 416.931 334.597 417.805 332.319ZM247.686 323.057C248.826 321.25 248.685 319.763 247.207 317.982C244.39 314.588 241.197 314.808 239.203 318.534C237.956 320.862 238.179 322.225 240.127 324.172C243.048 327.094 245.354 326.754 247.686 323.057ZM377.284 310.874C380.886 308.591 378.748 303.586 373.932 303.03C370.25 302.605 369.572 303.121 369.572 306.344C369.572 312.132 372.544 313.878 377.284 310.874ZM288.169 299.083C289.025 294.596 285.531 291.353 281.922 293.284C278.927 294.887 277.879 299.588 280.036 301.745C282.09 303.799 287.615 301.991 288.169 299.083ZM227.073 295.913C229.192 292.555 224.736 287.507 220.939 288.965C216.845 290.536 216.002 294.985 219.336 297.423C222.815 299.966 224.756 299.588 227.073 295.913ZM431.605 329.074C431.605 327.812 422.3 320.917 410.927 313.752C399.554 306.587 390.259 300.283 390.27 299.743C390.281 299.203 396.902 297.127 404.983 295.129C421.183 291.123 445.218 280.137 453.873 272.783L459.44 268.053L451.728 261.436H500C500 264.68 492.173 278.435 485.496 286.926C473.144 302.633 453.743 319.774 438.844 328.142C431.999 331.986 431.605 332.037 431.605 329.074ZM12.1537 251.013C11.567 250.118 12.6331 246.77 15.8192 241.011C26.4405 221.816 45.6495 201.345 65.4949 188.072C77.5079 180.037 81.6752 178.603 81.6752 182.503L122.29 210.572C122.66 211.171 117.789 212.899 111.465 214.411C90.7415 219.368 62.9776 232.366 55.5259 240.6C51.9127 244.524 52.2454 248.119 60.9975 251.013H12.1537ZM285.346 224.084C278.985 217.313 268.981 213.665 256.773 213.665C247.255 213.665 244.268 214.431 235.056 219.232C222.773 225.635 220.082 226.035 218.93 221.631C208.52 209.406 155.231 213.048 133.369 212.87L87.3583 181.243C84.4077 177.312 84.3997 177.042 87.1451 174.008C93.5376 166.944 128.28 156.954 155.376 154.388C193.505 150.778 240.15 159.073 272.751 175.263C283.868 180.784 284.504 181.398 286.173 188.225C288.362 197.186 290.627 201.562 297.442 209.995L302.83 216.664L297.862 222.322C291.983 229.018 290.215 229.267 285.346 224.084ZM294.019 216.847C294.019 213.931 293.062 212.734 290.433 212.361C288.282 212.055 286.463 212.851 285.889 214.349C284.305 218.476 286.525 221.887 290.433 221.332C293.062 220.959 294.019 219.762 294.019 216.847ZM232.664 215.476C234.75 211.578 231.174 206.358 227.408 207.804C223.741 209.211 222.493 213.237 224.845 216.071C227.517 219.291 230.754 219.045 232.664 215.476ZM142.101 206.528C144.898 203.157 142.895 199.35 138.324 199.35C133.887 199.35 132.341 202.038 134.436 206.11C136.188 209.517 139.472 209.696 142.101 206.528ZM245.004 177.042C233.612 163.035 191.615 160.347 180.432 168.334L191.701 198.572L225.711 205.47C232.689 199.849 247.502 183.852 245.004 177.042ZM178.376 196.995C178.635 196.752 177.24 193.246 175.276 189.204C172.077 182.62 171.145 181.854 166.332 181.854C161.071 181.854 155.007 177.315 150.866 170.279C149.383 167.76 148.252 167.744 134.165 170.049C114.688 173.236 111.298 174.872 110.773 181.339C110.408 185.843 111.212 186.91 118.223 191.224C125.77 195.868 126.305 195.968 131.663 193.729C139.293 190.541 141.238 190.764 146.403 195.421C150.666 199.265 151.472 199.4 164.386 198.441C171.822 197.889 178.117 197.238 178.376 196.995ZM273.341 189.807C273.341 185.06 267.846 183.501 264.657 187.344C262.992 189.35 262.992 190.263 264.657 192.269C267.846 196.112 273.341 194.553 273.341 189.807ZM104.596 182.447C105.71 179.544 103.013 175.491 99.967 175.491C98.869 175.491 97.0795 176.565 95.9905 177.877C94.4107 179.781 94.4107 180.745 95.9905 182.649C98.6075 185.802 103.351 185.691 104.596 182.447ZM166.642 172.935C169.737 171.747 169.925 166.974 166.973 164.524C165.772 163.527 163.625 163.158 162.202 163.705C159.163 164.871 158.716 171.683 161.602 172.847C162.696 173.288 163.711 173.706 163.858 173.775C164.005 173.844 165.258 173.466 166.642 172.935Z" fill="white"/>
<path d="M256.604 280.423C270.534 280.423 281.826 269.131 281.826 255.202C281.826 241.272 270.534 229.98 256.604 229.98C242.675 229.98 231.383 241.272 231.383 255.202C231.383 269.131 242.675 280.423 256.604 280.423Z" fill="white"/>
<path d="M256.239 217.16C251.241 217.16 246.291 218.144 241.673 220.057C237.055 221.97 232.859 224.774 229.324 228.308C225.789 231.843 222.986 236.039 221.073 240.657C219.16 245.275 218.175 250.225 218.175 255.224C218.175 260.222 219.16 265.172 221.073 269.79C222.986 274.408 225.789 278.605 229.324 282.139C232.859 285.674 237.055 288.477 241.673 290.39C246.291 292.303 251.241 293.288 256.239 293.288C261.238 293.288 266.188 292.303 270.806 290.39C275.424 288.477 279.62 285.674 283.155 282.139C286.689 278.605 289.493 274.408 291.406 269.79C293.319 265.172 294.303 260.222 294.303 255.224C294.303 250.225 293.319 245.275 291.406 240.657C289.493 236.039 286.689 231.843 283.155 228.308C279.62 224.774 275.424 221.97 270.806 220.057C266.188 218.144 261.238 217.16 256.239 217.16ZM256.374 225.301C264.346 225.301 271.992 228.468 277.629 234.105C283.267 239.742 286.433 247.388 286.433 255.36C286.433 263.333 283.267 270.978 277.629 276.616C271.992 282.253 264.346 285.42 256.374 285.42C248.402 285.42 240.756 282.253 235.119 276.616C229.482 270.978 226.315 263.333 226.315 255.36C226.315 247.388 229.482 239.742 235.119 234.105C240.756 228.468 248.402 225.301 256.374 225.301Z" fill="white"/>
<path d="M173.554 132.265L194.811 133.246C258.352 94.4148 407.09 127.317 407.489 270.381C421.659 109.731 243.467 71.5123 173.554 132.265Z" fill="white" fill-opacity="0.5"/>
<path d="M90.6689 151.1L115.181 144.78C219.27 22.8318 423.566 86.2986 448.695 237.46C413.269 11.8882 146.571 25.0138 90.6689 151.1Z" fill="white" fill-opacity="0.5"/>
<path d="M397.654 368.314C293.565 490.261 92.7565 424.178 67.6279 273.017C103.054 498.589 366.264 488.079 422.166 361.993L397.654 368.314Z" fill="white" fill-opacity="0.5"/>
<path d="M341.065 379.409L319.808 378.428C256.267 417.259 107.529 384.357 107.13 241.293C92.9601 401.942 271.152 440.161 341.065 379.409Z" fill="white" fill-opacity="0.5"/>
</svg>
