<svg width="512" height="512" viewBox="0 0 512 512" fill="none" xmlns="http://www.w3.org/2000/svg">
<path d="M12.6636 261.514C29.046 211.265 117.397 146.727 176.363 136.467L180.827 150.893C120.799 164.85 54.5294 216.758 33.1387 261.514C53.603 319.181 134.578 373.379 204.266 375.795L204.764 393.068C133.406 393.447 21.104 322.907 12.6636 261.514ZM304.766 375.795C385.067 372.018 470.067 313.037 476.935 261.514C476.535 223.604 373.299 154.809 304.766 150.893V136.467C372.029 136.629 499.879 209.794 500 261.514C490.691 323.705 385.328 393.456 304.766 393.068V375.795ZM304.766 325.671C302.793 291.992 313.263 287.688 309.999 269.996C307.361 259.463 306.271 241.572 310.534 230.355C313.799 222.646 315.498 209.228 308.43 203.455C306.368 201.972 307.751 178.43 309.943 177.706C333.115 189.494 350.336 226.041 353.355 245.246C359.711 293.055 337.487 331.166 304.766 343.641V325.671ZM195.14 181.547L203.443 189.347V225.815C203.443 255.329 202.982 262.892 201.024 265.48C199.694 267.239 198.581 269.961 198.553 271.528C198.523 273.129 195.794 275.766 192.322 277.546C180.993 283.355 175.432 292.001 175.437 303.796C176.199 326.71 200.682 328.009 203.681 329.009V341.994C120.593 310.836 138.152 201.953 195.14 181.547ZM71.6458 261.514C92.0012 238.275 111.763 215.235 138.152 201.953C120.534 238.151 122.077 277.047 138.718 317.212C113.641 305.588 92.2105 281.974 71.6458 261.514ZM373.14 317.212C389.953 280.149 391.606 241.082 374.323 201.953C397.67 220.085 421.631 237.9 439.496 261.514C421.212 289.083 400.252 300.157 373.14 317.212Z" fill="white" fill-opacity="0.501961"/>
<path d="M229.484 446.129C225.903 428.242 225.951 428.11 225.301 369.553V305.672L202.221 305.883C191.293 306.221 196.72 298.241 201.777 295.812C204.369 294.179 209.433 292.219 214.975 289.585L214.975 299.428L262.287 296.313C271.812 296.219 273.937 296.29 277.994 299.78C280.749 303.243 280.742 303.235 280.911 372.01L280.944 443.318L261.121 490.266C244.326 484.653 231.871 457.367 229.484 446.129ZM258.137 447.272C257.707 437.114 257.754 438.606 267.697 438.375V316.457H257.811V426.019L249.618 426.019L248.749 316.457H238C238.293 357.096 237.714 397.735 238 438.375C248.027 438.356 248.009 438.366 247.926 447.272V457.322H258.137V447.272ZM221.566 272.348C224.675 268.395 224.861 265.664 224.861 223.964V179.769L201.683 158.293L228.12 103.831L195.526 82.5063L238.262 21.8884L305.26 58.1057C311.249 61.827 308.74 64.2795 312.601 68.009L315.897 71.6345L312.484 77.4184C310.033 81.5727 309.335 84.8229 310.005 88.9539C310.811 93.9172 310.007 95.8748 304.146 103.237C298.066 110.872 297.353 112.71 297.353 120.723C297.353 131.717 295.24 136.051 289.881 136.051C286.269 136.051 285.82 136.752 285.82 142.386C285.82 146.629 286.908 149.706 289.115 151.703C290.939 153.354 292.41 156.777 292.41 159.372C292.41 161.95 290.927 165.542 289.115 167.355C286.207 170.262 285.82 172.846 285.82 189.341C285.82 205.94 286.189 208.366 289.115 211.014C293.327 214.827 293.533 222.583 289.115 227.116C283.264 232.505 282.596 263.819 289.115 272.348C292.361 276.943 292.313 276.957 292.41 289.273L271.865 289.273L271.816 287.625H238.865V289.273H218.271C218.633 276.235 218.651 276.267 221.566 272.348ZM271.327 271.797L271.327 224.402L236.805 249.732V271.706L271.327 271.797ZM271.327 171.219L244.921 181.09L271.327 210.149V171.219ZM261.931 163.236L227.834 163.236L237.827 171.465L261.931 163.236ZM271.327 129.19L231.451 152.166L271.327 151.703V129.19ZM271.327 107.752H254.945L234.869 132.499L271.327 107.752ZM196.915 134.331L208.994 111.277L218.271 116.292L206.796 139.28L196.915 134.331Z" fill="white"/>
</svg>
