<svg width="512" height="512" viewBox="0 0 512 512" fill="none" xmlns="http://www.w3.org/2000/svg">
<path d="M270.234 448.043L292.029 461.473C283.64 386.435 278.537 311.099 286.096 234.612L303.23 243.551C294.48 329.034 306.879 414.517 320.432 500C287.882 490.553 274.4 471.317 270.234 448.043ZM268.785 439.34C262.321 369.511 258.341 298.361 263.426 224.985C265.016 226.305 266.951 226.771 267.616 225.04C268.581 222.526 265.972 216.816 263.858 216.816C263.091 216.816 262.463 215.515 262.463 213.926C262.463 210.623 263.009 210.452 266.894 212.531C272.203 215.372 268.96 206.566 266.799 204.532C262.634 200.763 263.02 197.751 267.521 198.88C272.094 200.028 271.067 198.478 267.883 191.749C266.779 189.4 265.296 187.271 264.358 184.3C262.172 174.856 263.578 173.258 268.865 169.505C278.618 162.629 276.925 154.33 271.016 148.102C263.836 140.008 267.921 138.226 273.662 132.833C277.559 138.329 287.85 146.364 286.399 152.66C285.535 160.961 286.55 167.676 287.376 176.064L306.13 184.035L300.293 234.723L281.657 226.043C273.229 300.309 274.717 374.575 283.824 448.841L268.785 439.34ZM302.537 175.973C291.656 171.066 291.923 171.56 290.846 154.333C290.336 146.168 289.342 142.023 287.162 138.961C283.222 133.427 282.889 123.65 286.419 117.093C292.18 106.393 288.785 53.7553 282.001 48.5904C274.642 38.8348 279.017 28.5591 281.724 22.6809C285.858 13.7353 287.482 11.526 289.517 12.0796C290.932 12.4641 293.862 13.1728 296.029 13.6545C299.326 14.3874 301.139 16.9425 307.147 29.3243C315.581 46.7037 316.462 49.8816 319.481 73.794C323.374 104.632 322.075 182.511 317.675 182.018L302.537 175.973ZM296.039 20.2535C286.535 18.9435 287.931 18.3848 282.889 35.2872C283.342 35.6443 301.414 39.7908 304.832 40.322C306.582 36.186 298.113 20.9464 296.039 20.2535Z" fill="white"/>
<path d="M214.058 421.431L180.971 427.086L200.666 414.477L177.796 397.163L103.84 426.772L185.396 369.879C199.547 383.784 222.237 401.279 248.019 407.759L252.2 433.293C238.815 430.68 226.151 426.627 214.058 421.431ZM329.896 429.356L325.735 406.202C394.598 392.849 426.435 306.703 420.204 288.028C389.757 312.342 382.055 376.628 322.893 385.387C318.648 347.422 316.576 309.457 316.716 271.491L465.81 166.334L429.224 213.675C435.139 222.586 437.983 232.726 440.287 243.082L477.822 215.073L442.777 258.439L442.519 279.749C440.162 371.465 389.505 410.02 329.896 429.356ZM417.523 258.122C417.037 251.965 413.951 236.259 410.422 232.415L396.981 248.386L401.358 270.213L417.523 258.122ZM34.4721 425.235L129.575 319.744L126.314 301.385L85.0529 332.853L125.518 276.13C132.272 197.183 181.983 140.914 261.212 121.949C261.589 122.326 259.586 125.062 256.76 128.028C249.801 135.332 248.477 138.196 249.848 142.976C250.983 146.934 250.834 147.05 239.924 150.685C205.16 167.857 152.231 189.782 151.693 300.969L168.539 283.718C168.93 231.737 195.762 182.963 245.302 168.029C248.523 167.126 248.672 167.334 247.567 171.196C246.916 173.47 246.523 177.281 246.693 179.666C247.644 192.966 247.468 207.534 246.324 210.363C245.51 212.375 245.565 214.839 246.469 216.865C247.329 218.793 247.437 221.902 246.733 224.465L243.133 274.779L34.1818 425.81C34.1565 425.711 34.249 425.235 34.4721 425.235ZM200.745 355.254L242.811 325.008L246.039 385.543C227.695 377.475 213.257 366.966 200.745 355.254ZM320.089 205.881C320.85 200.33 321.534 199.168 324.063 199.13C330.386 199.035 335.777 191.835 337.286 181.472C337.835 177.697 338.699 174.637 339.205 174.672C340.935 174.793 360.134 188.391 360.579 189.81L319.453 220.205C318.745 215.661 319.495 210.297 320.089 205.881ZM339.402 155.597L340.097 129.808C355.327 135.17 369.008 142.468 381.315 151.485L445 121.423L375.017 175.308C364.107 166.813 352.498 159.719 339.402 155.597ZM339.192 93.3804L381.256 76.7649L339.764 109.522L339.192 93.3804Z" fill="white" fill-opacity="0.5"/>
</svg>
