<svg width="512" height="512" viewBox="0 0 512 512" fill="none" xmlns="http://www.w3.org/2000/svg">
<path d="M389.656 168.608L389.934 182.776C385.632 187.395 383.389 192.95 381.785 198.795L375.581 193.98L377.063 159.163L389.656 168.608Z" fill="white" fill-opacity="0.501961"/>
<path d="M359.419 147.014L334.695 129.142L334.787 164.515L346.547 173.312C348.815 161.891 353.2 153.25 359.419 147.014Z" fill="white" fill-opacity="0.501961"/>
<path d="M325.912 249.42L323.031 261.337C309.304 256.877 299.155 360.64 287.673 410.494L287.542 241.956C287.858 239.421 289.193 237.362 291.909 237.191L311.783 130.907C317.853 100.427 325.201 100.099 324.617 133.919L319.102 241.956C322.616 243.487 324.663 246.146 325.912 249.42Z" fill="white" fill-opacity="0.501961"/>
<path d="M354.329 274.432L365.067 183.026C367.906 148.066 361.979 151.332 353.416 179.904L329.971 269.194C322.462 273.85 321.432 282.105 320.019 290.147L295.661 411.935C309.042 409.955 321.993 410.036 333.638 416.387L357.079 296.826C357.909 290.01 360.691 283.453 354.329 274.432Z" fill="white"/>
<path d="M354.329 435.245L342.019 421.101L364.116 307.492C365.38 298.579 370.143 287.526 365.591 277.837L390.21 206.86C400.118 179.022 409.121 176.639 402.258 212.098L384.972 291.98C390.953 298.673 388.744 306.9 387.067 315.028L354.329 435.245Z" fill="white" fill-opacity="0.501961"/>
<path d="M356.817 470.34L357.734 447.161L394.532 319.612C396.576 311.837 399.581 303.977 396.103 296.433L422.163 235.801C436.1 206.083 443.285 200.657 434.866 240.122L414.568 312.147C420.365 318.451 418.597 324.983 416.401 331.529L373.055 458.816C372.358 460.641 372.27 461.852 369.65 460.912C363.68 460.55 364.419 465.63 368.472 466.019C372.012 466.756 371.462 472.46 367.424 472.174L356.817 470.34Z" fill="white"/>
<path d="M213.59 423.266C207.7 423.265 201.868 424.249 196.427 426.161C190.985 428.072 186.041 430.874 181.876 434.406C177.712 437.938 174.408 442.132 172.154 446.747C169.9 451.362 168.74 456.308 168.74 461.304C168.74 466.299 169.9 471.245 172.154 475.86C174.408 480.476 177.712 484.669 181.876 488.201C186.041 491.733 190.985 494.535 196.427 496.447C201.868 498.358 207.7 499.342 213.59 499.342C222.986 499.336 232.144 496.828 239.769 492.17C247.394 487.512 253.102 480.941 256.086 473.384C258.95 481.099 264.639 487.84 272.328 492.626C280.016 497.413 289.303 499.996 298.84 500C304.73 500 310.563 499.016 316.005 497.105C321.446 495.193 326.391 492.391 330.556 488.858C334.72 485.325 338.024 481.132 340.278 476.516C342.531 471.9 343.691 466.953 343.69 461.958C343.69 456.962 342.53 452.016 340.276 447.401C338.022 442.786 334.718 438.592 330.554 435.06C326.389 431.528 321.445 428.726 316.003 426.815C310.562 424.903 304.73 423.92 298.84 423.92C289.448 423.925 280.295 426.431 272.672 431.084C265.049 435.738 259.341 442.303 256.353 449.855C253.483 442.143 247.79 435.408 240.1 430.626C232.411 425.845 223.124 423.267 213.59 423.266ZM212.157 438.038C222.605 438.076 235.294 442.833 246.458 459.995C235.39 483.03 213.946 485.894 201.149 483.568C178.696 476.052 180.849 446.861 201.149 439.697C204.324 438.729 208.069 438.022 212.157 438.038ZM299.192 438.038C303.28 438.022 307.024 438.729 310.2 439.697C330.5 446.861 332.653 476.052 310.2 483.568C297.403 485.894 275.958 483.03 264.891 459.995C276.055 442.833 288.744 438.077 299.192 438.038Z" fill="white" fill-opacity="0.501961"/>
<path d="M255.283 429.779C250.25 422.246 242.539 416.386 231.58 412.557L231.578 231.064C231.856 223.462 233.34 214.651 241.579 208.652L251.95 74.5699C254.532 55.8423 260.568 55.9002 262.691 74.5699L271.951 208.652C279.199 214.708 279.044 222.984 279.544 231.064L280.1 412.557C269.049 415.287 260.413 420.633 255.283 429.779Z" fill="white"/>
<path d="M122.868 170.965L122.59 185.133C126.892 189.752 129.135 195.307 130.739 201.153L136.943 196.337L135.461 161.52L122.868 170.965Z" fill="white" fill-opacity="0.501961"/>
<path d="M155.462 147.538L180.186 129.666L180.094 165.039L168.334 173.836C166.066 162.415 161.681 153.774 155.462 147.538Z" fill="white" fill-opacity="0.501961"/>
<path d="M207.873 108.739L238.894 86.793C235.505 99.9986 234.949 112.538 235.745 124.758L217.133 138.648C214.373 128.533 212.66 117.953 207.873 108.739Z" fill="white" fill-opacity="0.501961"/>
<path d="M275.563 86.0522C277.081 98.55 279.102 111.006 277.785 123.74L299.453 139.574C301.298 129.155 303.263 118.766 307.047 108.832L275.563 86.0522Z" fill="white" fill-opacity="0.501961"/>
<path d="M186.874 250.206L189.755 262.123C203.482 257.662 212.845 358.807 224.327 408.661L224.458 230.694L204.291 129.073C197.807 104.411 192.065 106.01 191.457 132.085L193.684 242.742C190.17 244.273 188.122 246.932 186.874 250.206Z" fill="white" fill-opacity="0.501961"/>
<path d="M157.671 272.599L146.933 181.193C144.094 146.233 150.021 149.499 158.584 178.071L182.029 267.361C189.537 272.017 190.568 280.272 191.981 288.314L216.339 410.101C202.958 408.122 190.007 408.203 178.362 414.554L154.921 294.992C154.091 288.177 151.308 281.62 157.671 272.599Z" fill="white"/>
<path d="M157.671 433.411L169.981 419.268L147.883 305.659C146.619 296.746 141.857 285.692 146.409 276.004L121.79 205.027C111.881 177.189 102.879 174.805 109.742 210.265L127.028 290.147C121.047 296.839 123.256 305.067 124.933 313.195L157.671 433.411Z" fill="white" fill-opacity="0.501961"/>
<path d="M155.183 468.507L154.266 445.328L117.468 317.778C115.424 310.004 112.419 302.144 115.897 294.6L89.8368 233.968C75.9 204.25 68.715 198.824 77.1342 238.289L97.4321 310.314C91.6347 316.617 93.4033 323.15 95.5988 329.695L138.945 456.983C139.642 458.808 139.729 460.019 142.35 459.078C148.32 458.717 147.581 463.797 143.528 464.185C139.988 464.923 140.538 470.626 144.576 470.34L155.183 468.507Z" fill="white"/>
<path d="M122.575 109.43V145.574L257.196 47.0958L391.556 145.835V108.644L257.196 12L122.575 109.43Z" fill="white" fill-opacity="0.501961"/>
</svg>
