<svg width="512" height="512" viewBox="0 0 512 512" fill="none" xmlns="http://www.w3.org/2000/svg">
<path d="M250.91 76.6821C152.417 76.6821 72.3641 156.215 72.3641 254.175C72.3641 275.561 76.182 296.065 83.1718 315.058L97.7816 312.288C90.8502 294.241 87.0456 274.655 87.0456 254.175C87.0456 164.196 160.3 91.3636 250.91 91.3636C269.319 91.3636 287.015 94.3681 303.522 99.9137L316.932 89.2457C296.502 81.1437 274.224 76.6821 250.91 76.6821ZM415.466 185.275L404.723 197.85C411.224 215.398 414.778 234.371 414.778 254.175C414.778 344.153 341.52 416.982 250.91 416.982C235.979 416.982 221.525 414.994 207.787 411.288L208.159 426.503C221.862 429.858 236.176 431.653 250.91 431.653C349.403 431.653 429.445 352.134 429.445 254.175C429.445 229.746 424.466 206.464 415.466 185.275Z" fill="white" fill-opacity="0.497024"/>
<path d="M251.684 26.6929C202.143 26.6929 156.226 42.2124 118.676 68.5949L111.642 59.8621C44.8385 107.819 -5.09955 206.056 17.522 306.036L44.2624 301.774C40.5289 286.194 38.5432 269.947 38.5432 253.239C38.5432 137.206 133.813 43.2019 251.684 43.2019C264.487 43.2019 277.022 44.3118 289.199 46.4377L292.281 30.2298C279.1 27.9052 265.535 26.6929 251.684 26.6929Z" fill="white"/>
<path d="M393.775 440.42L401.704 451.241C475.071 402.687 520.534 287.446 490.753 192.836L456.853 200.081C499.662 373.251 347.163 486.81 221.62 460.902L219.171 481.961C293.652 493.835 347.258 472.727 393.775 440.42Z" fill="white"/>
<path d="M111.946 305.278L123.879 322.132C113.517 329.298 100.131 348.43 111.499 361.807L146.998 396.262C164.964 413.39 180.671 396.626 196.517 381.943L210.985 395.665L190.103 393.875L189.208 458.31L161.316 423.557L134.469 481.578L129.397 419.679L32.7454 473.375L100.163 381.943L29.0166 381.645L93.153 353.753L44.3795 331.678L103.892 326.756L111.946 305.278Z" fill="white" fill-opacity="0.497024"/>
<path d="M132.134 320.936C152.882 339.208 172.482 358.002 190.141 377.678C179.312 385.03 163.721 397.389 154.071 389.807L120.11 357.006C112.309 347.847 125.833 332.95 132.134 320.936Z" fill="white"/>
<path d="M137.751 150.605L119.852 177.75L189.059 216.828L201.888 206.984L211.732 215.04C187.437 241.482 166.856 268.851 147.297 296.477L153.411 300.505L179.215 290.063L207.553 312.886L201.44 338.54L218.891 358.676C247.188 335.885 275.734 313.447 302.117 287.977L309.427 295.582L305.848 310.5L353.429 367.921L375.205 339.733L341.793 261.277L329.412 262.918C318.113 217.587 289.799 189.077 243.499 178.349L239.174 170.142L137.751 150.605ZM249.465 196.244C269.627 202.164 297.469 231.195 297.645 241.142L238.281 263.216L225.75 251.136L249.465 196.244Z" fill="white"/>
<path d="M317.78 176.557C347.991 135.177 389.36 106.88 430.839 78.7122L436.955 89.6004L407.124 172.978C392.564 194.081 375.17 212.823 358.35 232.043C349.788 209.018 335.476 191.243 317.78 176.557Z" fill="white"/>
<path d="M304.952 166.266L271.989 150.008L316.586 110.482C340.879 90.5765 378.016 77.7357 409.36 61.7085L418.906 66.3323C371.855 93.3771 334.935 127.709 304.952 166.266Z" fill="white"/>
<path d="M424.597 54.8404C433.26 58.6772 438.378 65.4692 441.999 73.5083C452.63 53.8352 448.885 40.8737 424.597 54.8404Z" fill="white"/>
</svg>
