<svg width="512" height="512" viewBox="0 0 512 512" fill="none" xmlns="http://www.w3.org/2000/svg">
<path d="M295.889 116.017L293.655 117.565C295.852 127.811 292.766 133.328 286.262 135.788L138.403 190.807L136.169 184.787C124.804 183.77 112.894 183.516 113.988 195.62C115.056 201.107 124.579 200.696 116.567 203.527L97.3137 210.405L91.6386 221.925L18.2247 249.088C10.714 252.014 11.3366 255.87 13.2389 261.297L26.3941 296.373L39.4208 282.844L30.8629 260.868C29.2549 256.352 31.563 252.978 36.4504 251.41L64.0138 241.319C67.9572 239.798 72.4921 240.463 73.7576 243.93L78.3257 256.624C79.6775 261.05 78.9948 265.529 75.1566 268.765L75.7291 268.54L105.988 256.849L106.14 256.679C103.886 254.287 103.276 251.611 107.627 249.304L121.977 241.205C121.344 235.648 125.957 236.454 128.683 235.874C136.481 210.837 157.449 210.072 181.637 215.242L302.674 169.166C305.346 158.999 310.401 150.408 322.276 146.3L343.25 138.735C346.887 137.694 347.795 138.032 349.097 140.969L350.271 144.299L361.911 140.087L357.269 130.285L341.278 136.819L332.682 136.477L333.027 127.192L340.42 123.237L336.465 119.11L314.801 128.05C308.253 131.229 301.092 132.075 299.844 127.537L295.889 116.017Z" fill="white" fill-opacity="0.5"/>
<path d="M395.497 180.219L399.634 156.516L404.106 175.746L413.274 166.467L411.821 180.778L450.393 168.367L414.616 186.48L427.026 194.753L415.398 196.43L426.132 213.872L403.882 197.884C414.031 193.936 407.451 174.948 395.497 180.219Z" fill="white" fill-opacity="0.5"/>
<path d="M380.872 222.517L378.638 224.065C380.836 234.311 377.75 239.827 371.246 242.287L223.387 297.306L221.152 291.286C209.788 290.27 197.877 290.016 198.972 302.12C200.04 307.606 209.563 307.196 201.551 310.026L182.297 316.905L176.622 328.424L103.208 355.588C95.6974 358.513 96.32 362.37 98.2223 367.796L112.149 404.931C115.507 412.59 120.478 412.925 126.592 408.886L168.543 375.274C175.525 370.765 196.786 372.837 200.175 383.613C192.192 394.997 227.723 406.489 221.497 397.025L226.483 371.234L235.079 364.528L252.098 357.994C258.218 356.03 262.162 356.966 268.603 356.622C272.426 352.015 279.501 354.583 274.278 357.308L275.654 372.093L283.047 375.875L317.088 362.811L317.775 347.85H315.023C313.823 349.292 311.684 349.132 312.789 345.788C313.128 344.884 313.92 344.256 315.713 344.24L319.84 321.718C320.884 318.723 323.11 316.123 328.263 314.498L351.644 306.074C358.114 302.953 356.857 309.033 369.011 307.45L379.155 302.978C390.069 297.58 392.872 306.4 394.799 313.295C399.043 330.713 406.177 340.958 421.103 334.096L408.211 299.368C405.441 292.613 411.248 291.033 415.087 289.397L430.561 283.722L432.109 269.623L428.154 260.855L428.841 253.121L446.894 246.587L442.253 236.785L426.261 243.318L417.666 242.976L418.01 233.691L425.403 229.737L421.448 225.609L399.785 234.55C393.236 237.728 386.076 238.575 384.827 234.036L380.872 222.517ZM257.647 343.387C257.159 348.7 254.577 353.089 250.109 355.485L238.318 360.41C222.986 362.831 223.243 344.066 230.598 341.322L246.887 334.695C254.571 330.988 258.575 335.648 257.647 343.387ZM158.741 350.429L163.309 363.123C164.674 367.592 163.97 372.118 160.032 375.361L136.82 394.96C131.168 399.36 129.279 402.664 126.592 394.96L115.846 367.367C114.238 362.852 116.546 359.477 121.434 357.91L148.997 347.818C152.941 346.297 157.476 346.963 158.741 350.429ZM207.138 358.254L206.367 363.412C205.02 370.054 200.276 370.364 194.76 366.333L192.225 364.227C189.155 361.593 187.612 358.454 192.61 355.804L198.63 352.322C203.374 349.504 207.561 354.633 207.138 358.254Z" fill="white"/>
<path d="M440.309 233.305L444.807 207.532L449.67 228.443L459.639 218.352L458.058 233.913L500 220.419L461.097 240.114L474.592 249.11L461.948 250.933L473.619 269.899L449.427 252.514C460.462 248.221 453.307 227.574 440.309 233.305Z" fill="white"/>
<path d="M352.747 126.328L357.245 100.555L362.108 121.465L372.077 111.375L370.497 126.936L412.439 113.441L373.536 133.136L387.03 142.132L374.387 143.956L386.058 162.921L361.865 145.536C372.9 141.243 365.745 120.597 352.747 126.328Z" fill="white" fill-opacity="0.5"/>
<path d="M337.467 170.571L335.233 172.119C337.43 182.365 334.344 187.881 327.84 190.341L179.981 245.36L177.747 239.34C166.383 238.324 154.472 238.07 155.567 250.174C156.634 255.66 166.158 255.25 158.146 258.08L138.892 264.959L133.217 276.478L59.8028 303.642C52.2921 306.567 52.9147 310.424 54.817 315.85L67.9722 350.926L80.9989 337.397L72.441 315.421C70.8331 310.906 73.1411 307.531 78.0285 305.964L105.592 295.872C109.535 294.351 114.07 295.016 115.336 298.483L119.904 311.177C121.256 315.603 120.573 320.082 116.735 323.319L117.307 323.094L147.567 311.402L147.718 311.232C145.464 308.84 144.855 306.165 149.205 303.858L163.555 295.758C162.922 290.201 167.535 291.007 170.261 290.428C178.06 265.391 199.028 264.626 223.215 269.795L344.252 223.72C346.924 213.553 351.979 204.961 363.854 200.853L384.828 193.288C388.465 192.247 389.373 192.585 390.675 195.523L391.849 198.852L403.489 194.641L398.848 184.839L382.856 191.372L374.26 191.03L374.605 181.745L381.998 177.79L378.043 173.663L356.379 182.604C349.831 185.782 342.67 186.628 341.422 182.09L337.467 170.571Z" fill="white" fill-opacity="0.5"/>
</svg>
