<svg width="512" height="512" viewBox="0 0 512 512" fill="none" xmlns="http://www.w3.org/2000/svg">
<path d="M95.4016 341.292L88.0024 279.832L118.079 304.896C128.158 376.86 152.011 392.813 177.94 360.248L228.242 411.915C228.013 491.826 293.169 489.652 292.885 411.915L354.225 352.344C378.266 367.343 388.708 332.833 388.487 310.968L426.787 279.832L418.942 341.292L260.755 500L95.4016 341.292ZM177.94 338.313L177.939 284.315L188.403 266.461L203.777 281.643C203.219 308.368 203.077 308.163 210.119 324.01L228.658 358.718L228.242 388.496L177.94 338.313ZM292.441 358.718L310.502 324.01L316.33 313.866L316.801 294.86L317.271 275.855L323.424 269.817L329.576 263.779L335.633 276.001C341.607 288.058 341.69 288.436 341.724 303.943C341.744 312.589 342.761 322.201 343.1 325.451L344.442 338.313L292.441 388.496V358.718ZM392.408 280.439C386.852 295.202 394.527 275.672 397.118 270.714L401.827 261.698L401.743 239.961C401.653 216.386 399.822 208.525 393.989 206.674C392.322 206.145 390.959 205.26 390.959 204.708C390.959 204.156 403.036 191.647 417.796 176.91C440.532 154.212 444.518 147.798 443.878 151.481L431.724 239.35L392.408 280.439ZM81.7304 239.35L71.0308 151.481L103.31 182.574L104.759 247.264L118.079 275.465L81.7304 239.35Z" fill="white" fill-opacity="0.501961"/>
<path d="M79.4242 481.79L133 459.612L68.0596 364.601L199.755 481.79H79.4242ZM312.796 481.79L442.869 364.601L377.962 459.612L431.473 481.79H312.796ZM241.521 356.668L216.341 309.519V234.89H235.161C245.187 234.89 245.752 238.774 254.205 250.83H259.09C259.09 250.407 259.065 236.331 259.09 235.614H261.988C262.004 236.315 261.988 250.345 261.988 250.83H267.399C275.217 238.748 275.816 234.918 286.641 234.89H305.461V309.519L279.182 356.668C278.993 399.781 280.2 449.092 260.756 464.244C239.256 450.841 241.055 401.39 241.521 356.668ZM239.905 296.691L239.756 333.9C248.334 333.831 248.507 333.941 248.685 315.918C248.814 296.264 248.648 296.461 239.905 296.691ZM281.601 296.612C274.914 296.661 273.61 296.843 273.643 315.918C273.417 334.038 274.308 334.041 281.601 334.083L281.601 296.612ZM248.685 275.655V269.668H273.643V276.189H281.601V264.007C281.533 256.601 281.56 256.612 274.893 256.626H248.685C239.977 256.784 239.951 256.655 239.905 264.007V275.805L248.685 275.655ZM256.766 12H264.164V222.572H256.766V12ZM361.976 36.8614H368.058L368.677 200.111H361.977L361.976 36.8614ZM153.566 49.4032L153.534 174.143L147.508 174.027L147.508 49.4032L153.566 49.4032Z" fill="white"/>
<path d="M354.442 284.743L340.241 258.152V216.063H350.855C356.51 216.063 356.828 218.254 361.595 225.053H364.35C364.35 224.815 364.335 216.876 364.35 216.472H365.985C365.992 216.867 365.985 224.78 365.985 225.053H369.036C373.446 218.239 373.784 216.079 379.888 216.064H390.503V258.152L375.682 284.743C375.575 309.057 376.256 336.867 365.29 345.413C353.165 337.854 354.179 309.965 354.442 284.743ZM353.531 250.918L353.447 271.902C358.285 271.862 358.382 271.925 358.482 261.762C358.555 250.677 358.46 250.788 353.531 250.918ZM377.046 250.873C373.275 250.899 372.539 251.003 372.558 261.761C372.431 271.98 372.933 271.982 377.046 272.005L377.046 250.873ZM358.482 239.053V235.677H372.558V239.355H377.046V232.485C377.005 228.308 377.023 228.314 373.263 228.322H358.482C353.571 228.411 353.556 228.341 353.531 232.485V239.139L358.482 239.053Z" fill="white"/>
<path d="M135.498 281.671L115.642 244.49V185.638H130.483C138.389 185.638 138.835 188.701 145.501 198.208H149.353C149.353 197.875 149.332 186.774 149.353 186.209H151.638C151.649 186.762 151.638 197.826 151.638 198.208H155.905C162.071 188.68 162.543 185.66 171.08 185.638H185.921V244.49L165.198 281.671C165.049 315.67 166 354.556 150.667 366.505C133.712 355.935 135.131 316.939 135.498 281.671ZM134.224 234.374L134.106 263.717C140.871 263.66 141.007 263.747 141.148 249.537C141.25 234.037 141.116 234.193 134.224 234.374ZM167.105 234.312C161.832 234.349 160.803 234.494 160.83 249.536C160.652 263.825 161.354 263.827 167.105 263.86L167.105 234.312ZM141.148 217.785V213.063H160.83V218.206H167.105V208.599C167.048 202.759 167.073 202.768 161.816 202.779H141.148C134.281 202.904 134.26 202.806 134.224 208.599V217.904L141.148 217.785Z" fill="white"/>
</svg>
