<svg width="512" height="512" viewBox="0 0 512 512" fill="none" xmlns="http://www.w3.org/2000/svg">
<path d="M179.791 215.79V200.373C180.778 188.696 186.147 176.898 192.358 171.112C199.487 163.751 195.545 149.32 195.798 128.872L209.078 123.801C223.199 139.832 219.946 141.796 231.016 141.983H299.146C309.909 123.045 309.886 122.043 326.131 127.139C325.729 137.761 322.877 165.591 328.976 171.051C342.097 184.891 339.486 199.035 339.865 215.791L179.791 215.79Z" fill="white"/>
<path d="M99.6889 175.099C106.735 -8.5833 381.156 10.6878 392.132 129.399C459.155 121.292 493.231 199.219 472.573 246.076C484.185 257.233 493.762 271.945 500 284.186H352.963C353.143 267.039 354.924 234.448 346.156 227.14C352.408 220.6 350.754 210.853 350.75 202.905C350.55 188.52 348.987 172.599 338.609 162.813C328.689 146.959 343.02 121.752 322.888 113.028C308.954 106.866 303.315 108.77 293.298 123.02L288.439 129.932H232.532C226.641 123.821 221.402 114.989 213.533 111.458C204.941 109.212 193.066 113.047 186.062 120.034C176.109 131.942 191.196 149.683 177.587 165.564C165.37 179.367 161.131 213.988 172.683 227.543C167.411 240.28 167.325 260.051 166.693 284.186H12C12.6969 222.81 58.6748 179.001 99.6889 175.099Z" fill="white" fill-opacity="0.501961"/>
<path d="M179.791 236.164V290.735H213.182L185.405 352.262H179.791V473.367H339.865V352.262H305.266L332.546 290.735H339.865V236.164H179.791ZM262.594 290.735L233.995 352.262H197.375L226.157 290.735H262.594ZM315.099 290.735L287.162 352.262H251.096L279.473 290.735H315.099Z" fill="white"/>
</svg>
