<svg width="512" height="512" viewBox="0 0 512 512" fill="none" xmlns="http://www.w3.org/2000/svg">
<path d="M270.892 174.765L313.005 131.882H260.12L262.27 136.041C264.788 140.91 267.79 166.309 266.047 167.997L266.307 171.274C266.811 171.398 266.875 171.988 266.878 172.642C268.044 173.478 269.205 174.276 270.892 174.765Z" fill="white" fill-opacity="0.5"/>
<path d="M280.084 369.796C282.371 367.457 284.556 364.555 284.939 363.347C285.323 362.14 287.653 360.19 290.119 359.015L294.602 356.877L311.621 373.519H275.926L280.084 369.796Z" fill="white" fill-opacity="0.5"/>
<path d="M242.576 455.685C237.673 454.487 232.706 452.715 231.538 451.746C226.244 447.352 231.695 440.526 242.315 438.248C246.577 437.334 250.194 435.562 251.974 433.515C253.538 431.715 255.425 430.243 256.165 430.243C258.642 430.243 257.557 427.684 251.157 418.439C240.281 402.727 236.506 399.055 232.131 399.93C228.842 400.588 228.222 400.207 227.469 397.069C226.991 395.078 224.8 390.908 222.601 387.802L218.602 382.155L222.336 381.307C224.39 380.841 230.586 379.083 236.105 377.401C256.572 371.162 266.622 370.189 262.78 374.82C261.57 376.277 261.967 378.104 264.572 383.086C266.411 386.604 269.129 393.385 270.612 398.155C272.096 402.926 276.61 413.752 280.644 422.215C289.123 440.002 290.656 447.36 286.754 451.549C284.963 453.471 282.509 454.326 278.779 454.326C275.816 454.326 272.352 454.882 271.081 455.562C266.77 457.869 251.781 457.934 242.576 455.685Z" fill="white"/>
<path d="M191.75 309.829C192.006 307.99 192.934 304.377 193.81 301.802C195.079 298.069 195.041 296.44 193.622 293.774C190.464 287.843 192.216 278.731 197.761 272.253C202.352 266.888 202.514 266.398 200.438 264.103C197.88 261.277 186.462 260.875 175.228 263.216C161.035 266.173 146.893 264.988 129.342 259.374C117.678 255.644 113.477 253.651 110.944 250.641C107.473 246.515 106.667 240.151 108.916 234.633C109.605 232.943 110.552 229.211 111.021 226.341C111.532 223.212 113.4 219.595 115.685 217.309C120.871 212.124 127.756 212.204 139.266 217.586C144.939 220.238 148.564 221.244 149.579 220.447C152.353 218.271 158.225 217.471 161.709 218.795C166.919 220.776 167.064 218.475 162.313 209.202C157.653 200.106 156.746 190.96 159.073 176.513L160.18 169.632L155.892 168.689C153.358 168.132 149.594 165.519 146.692 162.302C143.991 159.307 139.53 154.533 136.779 151.693C134.029 148.853 131.418 144.89 130.976 142.885C130.535 140.881 130.036 138.673 129.869 137.978L12 253.514L132.475 373.519H177.549L176.671 371.038C174.611 363.97 174.331 359.237 175.734 355.214C176.836 352.052 176.835 349.612 175.732 345.928C174.516 341.87 174.661 339.647 176.506 334.093C175.885 328.347 179.148 326.654 182.31 324.855C190.71 322.08 189.458 315.201 191.75 309.829Z" fill="white" fill-opacity="0.5"/>
<path d="M266.174 110.218L307.233 98.8193L295.643 106.477H499.999V113.151H295.959L307.233 122.377L266.174 110.218Z" fill="white"/>
<path d="M418.282 244.917L404.685 252.296H499.999V260.324H404.685L418.282 269.56L372.61 255.676L418.282 244.917Z" fill="white"/>
<path d="M151.816 54.6675L149.593 56.4343L178.038 85.0122C177.228 84.9888 175.399 84.0853 173.971 83.0049C168.479 78.851 149.463 82.447 141.246 89.1929C136.816 92.8302 135.619 103.948 139.229 107.937C140.703 109.565 141.873 113.193 142.114 116.883C142.337 120.297 143.286 124.317 144.225 125.815C145.273 127.487 145.58 130.085 145.018 132.55C143.379 139.75 143.633 141.248 146.496 141.248C148.215 141.248 149.713 142.583 150.595 144.901C151.358 146.909 152.395 148.866 152.901 149.249C153.407 149.632 154.502 151.147 155.334 152.619C156.308 154.34 157.978 155.165 160.017 154.929C166.154 154.218 172.079 154.378 172.98 155.279C174.42 156.721 173.608 178.164 171.999 181.171C169.486 185.866 170.202 197.983 173.22 201.82C174.692 203.691 175.898 205.706 175.898 206.298C175.898 206.89 178.359 209.883 181.368 212.949L186.841 218.525L175.251 225.522C166.022 231.097 162.877 232.365 159.798 231.75C157.672 231.324 155.571 231.56 155.131 232.271C153.717 234.56 152.36 233.669 150.131 228.996C147.459 223.391 143.477 221.88 139.04 224.788C135.932 226.824 135.76 226.796 135.76 224.231C135.76 222.219 134.879 221.524 132.337 221.524C129.962 221.524 126.878 223.654 122.24 228.491C116.446 234.534 115.613 236.084 115.959 240.197C116.334 244.66 116.979 245.253 126.904 250.29L137.447 255.642L156.337 255.601C169.504 255.573 181.409 254.592 195.627 252.362C206.846 250.603 216.468 249.609 217.011 250.151C217.554 250.694 217.984 254.559 217.969 258.741C217.942 265.623 217.338 267.197 211.634 275.3C204.978 284.757 204.064 287.649 207.338 288.906C210.113 289.97 209.85 294.856 206.461 305.183L203.578 313.966V313.83H118.767L134.063 304.512L92.4907 316.517L134.063 329.778L118.767 319.744H202.796L202.274 323.614C201.906 324.572 200.553 329.106 199.266 333.691C197.113 341.365 196.806 341.785 195.41 338.984C193.378 334.908 189.74 334.356 188.6 337.948C187.641 340.97 189.169 346.043 193.557 354.403C196.416 359.851 196 362.137 192.654 359.36C191.077 358.051 190.182 358.024 188.706 359.249C185.227 362.135 188.763 368.338 196.453 372.84C202.526 376.396 204.182 376.778 210.684 376.12C225.989 374.571 253.335 368.356 258.113 365.341C259.621 364.389 262.964 363.179 265.54 362.653C271.517 361.435 273.819 359.557 272.897 356.651C271.884 353.462 287.204 345.599 300.017 342.733C309.644 340.58 309.783 340.587 313.785 343.546C316.469 345.53 318.317 348.477 319.281 352.308C320.938 358.889 324.52 362.008 330.422 362.008C333.704 362.008 334.992 361.104 336.995 357.384C339.299 353.105 339.359 351.791 337.783 339.883C336.473 329.992 335.501 326.652 333.588 325.457L331.853 319.687L500 316.517L330.101 313.861L328.897 309.858C327.655 303.645 325.415 302.51 318.325 304.495C314.989 305.429 310.094 307.915 307.447 310.018C303.136 313.444 301.606 313.841 292.784 313.841C287.366 313.841 282.933 313.611 282.933 313.329C282.933 313.047 287.899 309.202 293.97 304.786C311.276 292.197 310.553 294.667 302.898 274.374C299.29 264.807 295.706 255.044 295.698 253.884C299.5 237.996 331.426 240.818 328.854 236.659L305.654 199.137L275.752 194.594L274.222 200.534C273.851 201.972 279.561 202.906 277.99 207.404C277.469 208.898 275.633 206.389 275.428 206.528C274.624 207.05 273.699 208.316 273.37 209.341C272.856 210.94 262.864 196.132 262.864 193.771L261.05 186.837L271.412 191.713L260.257 183.223L500 179.484L259.496 174.623L271.412 167.622L257.659 172.717L252.704 152.678L251.794 142.035L242.066 132.276C236.716 126.909 231.742 122.516 231.013 122.516L190.389 82.3775L188.071 84.0986L226.551 125.676L151.816 54.6675ZM193.473 99.9291C194.171 100.133 196.645 102.527 201.932 107.767C207.482 113.267 212.023 117.931 212.023 118.133C212.023 118.336 209.582 118.503 206.601 118.503C201.574 118.503 201.043 118.139 199.248 113.486C198.184 110.726 196.081 106.058 194.575 103.115C193.46 100.934 192.93 99.7703 193.473 99.9291ZM262.11 320.6C263.628 320.638 260.957 322.135 256.174 323.925C251.391 325.714 247.176 327.155 246.808 327.128C244.733 326.978 259.819 320.542 262.11 320.6Z" fill="white"/>
<path d="M340.857 131.882L295.75 175.604C302.99 178.199 308.704 181.743 305.76 190.682L307.28 192.456C313.881 189.68 323.029 194.657 322.485 204.493L338.196 226.54C346.23 236.248 344.734 244.284 333.508 250.614L310.194 257.836L322.105 290.273C340.027 291.407 341.208 304.186 344.151 315.741L346.432 320.809C351.181 335.052 361.37 359.362 338.323 373.519H456.413L335.916 253.655L457.68 131.384L340.857 131.882Z" fill="white" fill-opacity="0.5"/>
</svg>
