<svg width="512" height="512" viewBox="0 0 512 512" fill="none" xmlns="http://www.w3.org/2000/svg">
<path d="M382.334 474.471C379.38 473.189 371.244 466.672 364.254 459.99C353.716 449.915 349.743 447.209 341.002 444.154C326.427 439.058 326.185 438.634 328.488 422.166C330.274 409.398 330.766 408.21 336.253 403.407C339.475 400.587 343.88 397.888 346.042 397.41C348.203 396.932 353.863 395.127 358.619 393.4C363.375 391.673 370.45 389.14 374.341 387.771C378.232 386.402 384.208 383.263 387.621 380.794C391.034 378.325 395.747 376.305 398.093 376.305C403.451 376.305 409.217 382.874 412.876 393.144C414.351 397.285 418.603 407.041 422.325 414.823C426.093 422.702 429.928 433.678 430.98 439.588C433.247 452.332 431.735 455.629 420.294 462.885C414.522 466.545 390.154 477.141 388.148 476.863C387.904 476.829 385.288 475.752 382.334 474.471ZM60.1247 464.961C50.3514 455.207 46.6278 452.907 27.3982 444.749C23.7866 443.216 18.8342 439.878 16.393 437.33C12.1716 432.924 11.9569 431.99 12.005 418.258C12.0649 401.179 14.8067 388.871 19.5427 384.422C24.9969 379.298 39.9738 377.738 69.6832 379.199C101.979 380.786 104.837 381.996 103.096 393.339C102.477 397.373 101.82 412.347 101.637 426.615C101.232 458.055 100.539 459.913 86.3403 467.612C70.1207 476.406 71.7566 476.571 60.1247 464.961ZM114.887 467.771C111.387 464.937 111.377 464.821 113.989 456.959C115.441 452.587 116.456 446.451 116.245 443.322C116.035 440.193 116.537 437.008 117.362 436.244C118.187 435.48 125.777 432.294 134.228 429.163C148.996 423.692 162.097 421.753 162.097 425.038C162.097 425.9 164.631 429.41 167.727 432.837C170.823 436.264 173.118 440.308 172.826 441.823C172.027 445.976 158.322 455.793 142.372 463.639C126.947 471.228 120.376 472.215 114.887 467.771ZM446.824 442.784C444.62 441 441.722 435.249 439.51 428.272L435.845 416.714L446.979 405.755C453.103 399.728 461.142 393.457 464.844 391.819C468.545 390.182 475.167 385.173 479.558 380.689C488.522 371.535 490.068 371.787 491.949 382.707C494.088 395.124 491.502 407.763 483.881 422.135C477.369 434.416 476.335 435.546 467.842 439.672C455.335 445.748 451.233 446.355 446.824 442.784ZM169.72 430.005C163.295 424.263 164.453 420.971 173.386 419.587C183.993 417.943 190.754 415.54 196.187 411.484C201.884 407.232 202.989 406.942 202.937 409.714C202.868 413.353 181.688 434.476 178.108 434.476C176.247 434.476 172.472 432.464 169.72 430.005ZM115.325 420.144C113.184 417.944 112.635 397.755 114.372 385.084C115.327 378.112 115.83 377.476 123.412 373.652C130.754 369.949 170.299 347.621 177.691 343.005C183.391 339.445 183.341 343.365 177.551 354.006C174.407 359.785 169.599 372.287 166.867 381.788C164.135 391.29 160.165 401.338 158.045 404.118C150.312 414.256 120.484 425.446 115.325 420.144ZM428.723 400.117C428.266 399.378 426.011 393.542 423.711 387.146C421.411 380.751 418.559 374.123 417.373 372.418C416.187 370.712 415.217 368.053 415.217 366.508C415.217 362.805 430.149 339.871 439.035 329.926C442.898 325.602 448.447 318.689 451.367 314.563C454.287 310.437 457.429 307.311 458.35 307.616C459.271 307.922 461.191 312.359 462.616 317.476C464.041 322.594 466.426 329.611 467.916 333.07C470.331 338.678 470.413 340.807 468.677 352.722C467.606 360.072 465.72 368.562 464.487 371.589C461.593 378.692 437.637 401.396 432.997 401.433C431.103 401.451 429.179 400.856 428.723 400.117ZM314.705 390.605C309.813 383.734 310.801 364.552 317.246 341.259C320.315 330.168 323.455 327.94 330.699 331.713C333.517 333.181 337.943 334.823 340.535 335.362C346.422 336.586 347.177 339.617 347.428 363.02C347.618 380.784 346.636 384.166 341.287 384.166C339.883 384.166 335.252 386.642 330.995 389.669C321.584 396.36 318.912 396.513 314.705 390.605ZM495.398 383.302C495.398 378.797 491.326 370.016 489.238 370.016C486.402 370.016 486.358 365.497 489.097 355.737L491.929 345.648L495.418 353.362C499.668 362.755 500.849 370.647 499.426 380.135C498.282 387.764 495.398 390.031 495.398 383.302ZM362.225 375.508C357.295 372.055 356.067 359.28 359.173 343.784C361.449 332.437 362.199 330.983 368.997 324.753C373.045 321.043 380.148 315.492 384.781 312.416C389.414 309.341 397.402 302.129 402.533 296.39C407.663 290.65 412.372 286.466 412.996 287.09C413.621 287.715 412.993 295.132 411.599 303.573C409.34 317.264 405.333 342.927 403.245 357.074C402.567 361.667 401.29 362.784 391.165 367.636C382.329 371.871 367.479 377.877 365.846 377.877C365.715 377.877 364.085 376.811 362.225 375.508ZM22.4952 365.789C18.9627 362.837 18.0868 357.575 18.7139 343.072C18.983 336.848 20.0082 334.754 25.711 328.774C29.3859 324.921 34.244 319.699 36.5068 317.17C38.7696 314.641 44.6539 310.531 49.583 308.037C58.9649 303.291 74.0553 300.639 74.0553 303.738C74.0553 304.687 72.0161 309.552 69.5238 314.55C66.6644 320.284 64.7012 327.118 64.2034 333.07C63.7659 338.302 62.01 344.954 60.2606 348.006C58.526 351.032 56.2699 356.152 55.2472 359.382C54.2245 362.613 52.9087 365.548 52.3232 365.905C51.7378 366.262 45.5537 367.022 38.5808 367.595C27.6742 368.49 25.4267 368.238 22.4952 365.789ZM67.6925 366.169C65.2804 363.757 65.9401 359.413 69.9213 351.491C71.971 347.412 74.1722 342.307 74.8127 340.145C78.5673 327.473 84.6285 321.64 104.713 311.371C111.363 307.97 115.095 307.274 128.95 306.847C140.501 306.492 145.509 306.887 145.944 308.193C146.283 309.21 144.115 313.809 141.126 318.412C138.138 323.015 133.674 330.474 131.208 334.988C128.741 339.502 122.624 348.824 117.613 355.704L108.504 368.214L88.8471 367.941C78.036 367.79 68.5164 366.993 67.6925 366.169ZM178.307 365.877C177.737 364.392 179.414 359.507 182.287 354.28C185.018 349.313 187.252 343.731 187.252 341.877C187.252 339.471 190.026 336.711 196.929 332.25C208.133 325.008 211.575 324.29 209.951 329.533C207.812 336.438 200.952 348.891 195.444 355.867C185.895 367.959 180.35 371.199 178.307 365.877ZM333.464 329.671C328.45 326.217 327.23 324.411 327.2 320.395C327.169 316.196 339.887 292.622 342.669 291.724C344.292 291.2 344.479 291.923 343.455 294.759C342.237 298.134 342.127 314.808 343.244 326.782C343.782 332.551 339.488 333.819 333.464 329.671ZM471.432 328.013C470.03 326.463 467.016 320.021 464.735 313.698C460.682 302.464 460.653 302.105 463.424 297.983C464.984 295.664 467.56 290.936 469.149 287.477C471.845 281.609 472.182 281.384 474.194 284.116C478.489 289.948 479.405 321.141 475.487 328.143C474.076 330.664 473.824 330.656 471.432 328.013ZM121.322 302.534C119.577 301.41 119.48 300.579 120.896 298.873C125.338 293.521 151.855 283.547 161.641 283.547C166.38 283.547 166.219 286.783 161.296 290.48C159.127 292.109 155.958 295.697 154.255 298.453C151.179 303.429 151.064 303.465 137.368 303.725C129.784 303.87 122.563 303.333 121.322 302.534ZM76.2907 300.642C75.5798 299.492 71.9656 299.164 65.9788 299.707C60.9092 300.166 56.7614 299.998 56.7614 299.334C56.7614 297.914 72.8357 290.669 79.3305 289.162C84.7173 287.912 97.638 289.623 97.638 291.586C97.638 292.353 96.7536 292.999 95.6728 293.024C94.5919 293.046 90.9285 295.17 87.5318 297.74C80.9336 302.732 78.0439 303.479 76.2907 300.642ZM388.689 297.149C385.965 293.867 394.714 277.928 406.003 265.608C414.973 255.818 419.465 253.365 418.915 258.555C418.787 259.762 417.794 265.231 416.707 270.707C415.199 278.31 413.953 280.962 411.437 281.922C409.625 282.613 405.094 286.799 401.367 291.224C394.364 299.539 391.704 300.782 388.689 297.149ZM254.893 220.015C247.994 213.685 241.124 208.95 236.413 207.282C207.525 197.048 206.118 195.392 206.118 171.598C206.118 154.676 208.503 144.183 213.012 141.267C219.955 136.776 236.349 134.67 263.083 134.833C289.369 134.994 289.393 134.997 293.568 139.172C297.524 143.129 297.652 143.727 295.963 150.431C294.694 155.473 294.603 163.794 295.648 179.337C297.005 199.521 296.36 209.539 293.394 214.338C291.603 217.236 271.159 230.093 268.343 230.093C266.985 230.093 260.932 225.558 254.893 220.015ZM313.026 221.737C310.208 220.288 309.212 218.625 309.507 215.864C309.734 213.746 310.361 206.822 310.902 200.477L311.885 188.94L323.737 183.539C344.994 173.852 357.047 171.554 357.047 177.189C357.047 178.411 359.523 181.299 362.55 183.607C365.576 185.915 368.052 189.039 368.052 190.549C368.052 196.053 350.761 209.552 330.765 219.659C321.558 224.312 318.689 224.648 313.026 221.737ZM368.052 183.384C363.656 181.768 360.191 177.738 360.191 174.242C360.191 171.225 361.503 170.501 369.997 168.83C381.126 166.641 386.392 164.269 390.703 159.506C392.348 157.688 394.292 156.201 395.023 156.201C398.265 156.201 395.597 160.988 386.041 172.315C376.294 183.869 373.704 185.462 368.052 183.384ZM309.588 172.46C306.742 169.31 305.948 161.996 306.427 143.366L306.738 131.318L319.708 123.506C326.842 119.209 340.814 110.31 350.758 103.729C367.177 92.8633 372.769 90.0527 372.769 92.6663C372.769 93.175 370.587 98.3042 367.92 104.065C365.253 109.825 362.126 118.429 360.971 123.185C359.815 127.941 357.766 136.387 356.417 141.954C353.438 154.244 347.074 161.471 332.894 168.668C320.171 175.126 313.042 176.286 309.588 172.46ZM212.694 122.705C209.751 119.572 209.262 117.243 209.262 106.344C209.262 93.7443 209.32 93.5655 215.944 85.3324C229.336 68.6895 241.03 60.2819 254.069 57.9219C262.368 56.4199 263.297 58.6493 258.627 68.8513C255.81 75.0041 254.347 81.0838 254.115 87.6003C253.926 92.9043 252.696 99.3664 251.382 101.96C250.068 104.555 247.779 110.392 246.295 114.933C243.313 124.055 243.448 123.983 226.451 125.461C217.065 126.276 215.814 126.026 212.694 122.705ZM257.924 120.735C256.534 119.061 256.681 116.961 258.545 111.825C259.887 108.129 262.762 100.153 264.935 94.0996C269.389 81.6902 274.927 75.7542 290.747 66.4356C299.637 61.1992 301.586 60.7061 317.166 59.7529C326.417 59.1868 334.309 59.0459 334.702 59.4396C335.096 59.8335 333.387 63.5481 330.904 67.6945C328.421 71.8409 324.096 80.0916 321.293 86.0295C317.423 94.227 304.187 115.725 299.52 121.393C299.264 121.704 290.209 122.176 279.398 122.442C264.061 122.819 259.342 122.444 257.924 120.735ZM370.672 117.42C368.672 115.419 369.645 110.461 373.555 102.747C375.717 98.4806 377.485 93.3169 377.485 91.2716C377.485 88.5787 379.925 85.7454 386.33 81.0002C396.903 73.167 399.993 72.6023 398.53 78.7709C396.668 86.6258 393.319 93.5083 386.014 104.497C378.241 116.188 373.464 120.212 370.672 117.42ZM244.625 55.6C248.566 49.223 271.721 41.842 280.391 44.1993L284.702 45.3714L276.596 51.3948C268.771 57.2099 268.268 57.3557 262.042 55.6125C257.404 54.3142 254.356 54.277 251.191 55.4801C245.692 57.571 243.381 57.6131 244.625 55.6ZM308.919 54.8608C306.488 53.0826 307.088 52.2817 314.726 47.1154C319.412 43.9462 327.741 39.9559 333.237 38.2481C343.032 35.2042 352.33 34.1735 352.33 36.1316C352.33 36.6754 350.031 39.7974 347.221 43.0694C344.411 46.3415 341.05 50.4278 339.753 52.15C337.838 54.6921 334.971 55.4283 324.513 56.0627C315.534 56.6073 310.81 56.2431 308.919 54.8608Z" fill="white"/>
</svg>
