<svg width="512" height="512" viewBox="0 0 512 512" fill="none" xmlns="http://www.w3.org/2000/svg">
<path d="M251.047 86.6211V194.344C235.587 195.343 221.038 202.003 210.178 213.051C199.318 224.099 192.91 238.76 192.176 254.234V252.498H84.6953V259.164H192.176V259.088C192.661 274.743 198.959 289.656 209.843 300.92C220.727 312.183 235.415 318.989 251.045 320.01V425.379H258.115V320C273.915 319.231 288.847 312.548 299.946 301.277C311.046 290.007 317.499 274.974 318.025 259.164H425.049V252.498H317.857C316.707 237.181 310 222.811 298.999 212.092C287.998 201.372 273.459 195.04 258.117 194.287V86.6211H251.047ZM255.412 215.35C266.505 215.35 277.144 219.741 284.988 227.558C292.832 235.374 297.24 245.975 297.24 257.029C297.24 262.503 296.159 267.923 294.057 272.98C291.955 278.038 288.874 282.633 284.99 286.503C281.106 290.374 276.494 293.445 271.419 295.539C266.345 297.634 260.905 298.713 255.412 298.713C249.919 298.713 244.479 297.635 239.404 295.54C234.329 293.445 229.718 290.375 225.833 286.504C221.949 282.633 218.868 278.038 216.766 272.981C214.664 267.924 213.582 262.503 213.582 257.029C213.583 245.975 217.99 235.373 225.835 227.557C233.679 219.74 244.319 215.349 255.412 215.35Z" fill="white"/>
<path d="M356.45 244.806L367.939 238.326C376.364 280.006 361.824 316.519 325.815 348.201C292.077 376.625 215.085 368.788 182.063 345.55L194.73 337.891C222.919 359.952 277.498 369.261 315.799 338.186C346.587 312.893 361.752 282.314 356.45 244.806Z" fill="white" fill-opacity="0.5"/>
<path d="M376.621 209.694L386.828 198.862C400.353 209.232 403.398 260.28 402.762 261.038C402.723 279.602 398.012 296.708 391.723 313.32L357.771 336.441C370.395 317.202 385.863 288.627 385.265 260.413C386.695 238.6 382.131 224.182 376.621 209.694Z" fill="white" fill-opacity="0.5"/>
<path d="M261.326 117.667C177.776 117.14 93.674 164.824 12 256.779C179.402 441.933 336.988 442.006 500 258.652C422.769 163.978 342.306 118.178 261.326 117.667ZM260.288 131.341C334.471 131.742 408.379 173.013 481.644 258.652C333.186 422.906 182.059 427.083 30.2007 256.779C106.919 174.021 183.749 130.927 260.288 131.341Z" fill="white"/>
<path d="M153.636 180.442L118.288 204.892C112.728 220.53 109.421 237.371 109.745 256.147C109.46 277.62 112.636 297.642 124.474 314.031L136.257 302.543C131.67 287.648 127.297 272.672 127.714 255.853C129.415 212.468 141.599 196.647 153.636 180.442Z" fill="white" fill-opacity="0.5"/>
<path d="M155.1 266.662L141.561 274.161C139.477 242.714 142.298 211.175 169.889 179.179C206.361 142.076 264.373 145.211 289.033 151.475C306.153 153.518 317.215 160.481 328.193 167.514L314.862 175.429C303.8 168.157 295.089 164.243 286.742 160.849C240.18 143.842 194.407 171.254 180.512 188.135C155.113 216.227 151.212 241.886 155.1 266.662Z" fill="white" fill-opacity="0.5"/>
</svg>
