<svg width="512" height="512" viewBox="0 0 512 512" fill="none" xmlns="http://www.w3.org/2000/svg">
<path d="M218.432 219.768L216.828 185.448C189.599 206.587 185.434 238.607 183.791 245.909C198.882 242.102 206.939 228.557 218.432 219.768Z" fill="white"/>
<path d="M219.908 228.372C219.165 227.369 218.381 226.829 217.414 228.372C209.551 245.798 187.438 258.461 186.115 261.259C178.277 268.975 176.004 295.689 171.259 311.836C175.254 333.286 185.242 349.942 192.238 368.991C193.685 371.691 195.863 372.476 199.496 369.445L239.187 334.403C243.687 323.682 235.521 312.82 235.898 288.249L223.878 250.372C223.392 242.963 223.564 235.493 219.908 228.372Z" fill="white"/>
<path d="M148.108 259.862L141.131 288.729C131.038 291.019 121.852 296.126 115.792 310.941C118.239 300.907 119.378 290.945 125.415 280.711C131.684 273.186 139.977 266.56 148.108 259.862Z" fill="white"/>
<path d="M131.228 302.651C135.092 297.982 137.423 299.025 138.939 303.104C141.443 317.546 144.729 331.179 156.347 339.393C165.087 347.046 172.053 371.95 177.617 389.285C168.693 397.828 159.108 409.974 150.834 414.865C144.666 419.168 139.308 418.258 134.636 412.94L111.783 387.761C112.617 370.503 111.013 352.896 114.669 336.04C117.475 324.349 122.24 313.063 131.228 302.651Z" fill="white"/>
<path d="M117.62 47.1546L136.671 35.3608L135.084 235.856C121.21 201.806 126.781 164.374 125.558 128.124L117.62 47.1546Z" fill="white"/>
<path d="M191.558 15.7423L208.342 12L205.847 157.382C192.306 111.202 195.947 62.9995 191.558 15.7423Z" fill="white"/>
<path d="M298.299 14.3271L320.592 19.9403L301.667 153.373C295.478 106.686 298.734 60.6298 298.299 14.3271Z" fill="white"/>
<path d="M384.34 50.4917L400.217 62.9209C399.867 130.063 403.346 200.695 376.857 244.022C385.971 181.98 379.856 123.866 384.34 50.4917Z" fill="white"/>
<path d="M315.282 255.702H323.672C320.997 234.393 324.291 220.437 310.744 185.733C310.525 183.936 306.942 182.896 306.208 185.733L299.744 216.465C311.163 226.34 310.966 242.18 315.282 255.702Z" fill="white"/>
<path d="M265.583 327.219C264.6 330.957 261.266 330.311 264.62 338.606C271.854 352.539 286.78 364.274 299.582 376.615C303.113 380.077 307.097 380.259 311.61 376.615C324.8 364.832 327.398 349.517 334.063 335.559C336.939 329.251 337.241 321.132 331.978 309.097L308.082 266.918L297.016 233.56C296.152 231.014 294.856 227.558 293.007 233.4L265.583 327.219Z" fill="white"/>
<path d="M362.931 328.262C383.52 311.369 386.752 295.048 388.19 278.786C391.188 286.642 394.254 294.244 389.954 329.625C378.407 333.727 367.338 336.97 362.931 328.262Z" fill="white"/>
<path d="M356.672 338.826L328.095 389.404L328.548 400.971C338.236 407.121 344.678 417.363 349.459 429.699C357.036 437.149 366.447 427.923 370.869 422.964C380.272 409.838 380.538 395.019 384.822 380.945C387.607 371.406 391.178 362.259 391.558 351.516C391.857 349.425 392.013 341.904 386.185 342.856C374.906 344.396 365.394 342.401 356.672 338.826Z" fill="white"/>
<path d="M169.037 427.695C164.311 435.371 161.818 442.84 166.23 449.666L199.669 492.967C204.418 499.034 211.839 501.094 221.72 499.463L268.069 484.868C274.477 482.896 281.196 481.317 290.762 483.345C302.102 486.693 311.098 487.428 314.978 482.463C322.271 473.215 321.821 461.62 324.681 451.029C326.465 446.827 327.294 441.909 324.28 434.11C318.003 421.775 300.056 410.994 295.252 404.841L285.469 390.808C282.081 386.771 277.466 388.42 276.248 386.639L264.621 365.148C257.862 356.028 242.985 357.396 236.314 364.026L208.329 392.091C192.5 405.517 178.966 411.841 169.037 427.695Z" fill="white"/>
</svg>
