<svg width="512" height="512" viewBox="0 0 512 512" fill="none" xmlns="http://www.w3.org/2000/svg">
<path d="M256.011 93.9143L221.613 470.794L211.249 468.792L206.177 232.192L168.204 459.186L160.631 457.186L150.406 300.908L126.763 440.414L119.987 438.016L108.106 349.507L92.9015 413.675L86.1076 403.43L86.4137 374.96L75.5876 345.635L64.7086 374.799L64.4113 392.135L54.1137 401.851L42.5675 390.424L21.4327 382.373L28.3213 402.675L40.5701 416.216L23.2209 432.973L19.541 450.586L36.4563 447.219L66.9791 416.71C69.2897 422.173 72.6922 427.771 76.4971 432.737L51.3874 457.662L38.3965 483.021L64.059 472.049L89.4506 446.702C93.5434 450.746 97.8247 454.791 102.97 458.836L102.666 483.642L113.365 500L125.499 485.071L126.074 470.695C167.479 491.992 211.414 496.53 256 496.745C300.587 496.53 344.52 491.992 385.925 470.695L386.502 485.071L398.636 500L409.335 483.642L409.031 458.836C414.176 454.791 418.457 450.746 422.55 446.702L447.942 472.049L473.602 483.021L460.613 457.662L435.504 432.737C439.309 427.771 442.711 422.173 445.022 416.71L475.544 447.219L492.46 450.586L488.78 432.973L471.429 416.216L483.679 402.675L490.568 382.373L469.433 390.424L457.887 401.851L447.589 392.135L447.292 374.799L436.413 345.635L425.587 374.96L425.893 403.43L419.099 413.675L403.895 349.507L392.014 438.016L385.238 440.414L361.595 300.908L351.368 457.186L343.796 459.186L305.823 232.192L300.752 468.792L290.388 470.794L256.011 93.9143Z" fill="white"/>
<path d="M217.274 12L233.957 79.3859L223.419 273.517L208.794 133.579L217.274 12Z" fill="white" fill-opacity="0.501859"/>
<path d="M176.519 116.409L189.988 212.494L171.535 342.436L161.639 263.496L176.519 116.409Z" fill="white" fill-opacity="0.501859"/>
<path d="M126.21 206.856L138.905 275.435L126.474 357.545L113.761 308.899L126.21 206.856Z" fill="white" fill-opacity="0.501859"/>
<path d="M294.727 12L278.044 79.3859L288.581 273.517L303.207 133.579L294.727 12Z" fill="white" fill-opacity="0.501859"/>
<path d="M335.481 116.409L322.013 212.494L340.466 342.436L350.362 263.496L335.481 116.409Z" fill="white" fill-opacity="0.501859"/>
<path d="M385.791 206.856L373.096 275.435L385.527 357.545L398.24 308.899L385.791 206.856Z" fill="white" fill-opacity="0.501859"/>
</svg>
