<svg width="512" height="512" viewBox="0 0 512 512" fill="none" xmlns="http://www.w3.org/2000/svg">
<path d="M256.436 41.5V42.2695C240.906 237.315 227.985 371.896 85.1055 433.5H141.025C187.182 396.381 236.791 356.697 256.467 180.789C276.143 356.697 325.755 396.381 371.912 433.5H427.832C284.953 371.896 272.029 237.315 256.499 42.2695V41.5C256.488 41.6308 256.478 41.754 256.467 41.8848C256.457 41.754 256.447 41.6308 256.436 41.5Z" fill="white"/>
<path d="M175 262.75C180.32 273.172 186.35 283.31 188.5 295C190.047 309.434 188.951 322.398 184.5 333.5C163.269 363.438 145.22 380.008 127.25 396.25C116.05 405.852 104.363 412.041 92.5 417C105.209 402.876 119.407 390.24 127.75 371.75C132.395 358.998 128.267 345.368 126.75 332C132.1 340.584 139.303 344.534 141 362.25C158.052 348.447 150.718 323.002 149.75 300.5C160.029 314.01 162.019 320.645 164.25 338.5C169.77 331.207 175.238 323.81 177.5 310C181.322 289.595 176.608 277.725 175 262.75Z" fill="white" fill-opacity="0.501859"/>
<path d="M256.313 230.5L256.321 234.361C252.644 281.546 244.637 321.954 227.776 356.4H245.705C251.468 340.815 255.464 325.056 256.469 310C257.474 325.056 261.471 340.815 267.233 356.4H285.162C268.317 321.988 260.299 281.643 256.617 234.518L256.625 230.5C256.576 231.179 256.516 231.843 256.465 232.52C256.414 231.846 256.362 231.176 256.313 230.5ZM223.651 364.381C220.431 370.287 216.926 376.011 213.111 381.557H234.924C237.657 375.907 240.237 370.166 242.6 364.381H223.651ZM270.338 364.381C272.701 370.166 275.28 375.907 278.014 381.557H299.826C296.011 376.011 292.507 370.287 289.287 364.381H270.338ZM206.498 390.588C202.653 395.528 198.533 400.32 194.117 404.965H222.526C225.212 400.283 227.849 395.481 230.393 390.588H206.498ZM282.545 390.588C285.089 395.481 287.726 400.283 290.412 404.965H318.82C314.404 400.32 310.285 395.528 306.44 390.588H282.545ZM184.465 414.449C181.203 417.447 177.801 420.38 174.251 423.249H211.344C213.203 420.336 215.067 417.504 216.922 414.449H184.465ZM296.016 414.449C297.871 417.504 299.734 420.336 301.594 423.249H338.688C335.138 420.38 331.735 417.447 328.473 414.449H296.016Z" fill="white"/>
<path d="M256.401 361.561V361.85C246.235 383.686 242.072 400.304 218.463 433.828H160.658L147.211 445.785L61.4746 445.355L51.9082 450.879L62.1543 456.795H152.857L161.719 447.934H230.117L256.467 398.039L282.82 447.934H351.219L360.08 456.795H450.783L461.029 450.879L451.463 445.355L365.727 445.785L352.279 433.828H294.475C270.865 400.304 266.7 383.686 256.534 361.85V361.561C256.511 361.609 256.49 361.656 256.467 361.705C256.445 361.656 256.424 361.609 256.401 361.561Z" fill="white" fill-opacity="0.501859"/>
<path d="M256.467 418.854L236.967 458.086H171.719L163.961 464.771L171.955 471.527H340.982L348.977 464.771L341.219 458.086H275.971L256.467 418.854Z" fill="white" fill-opacity="0.501859"/>
<path d="M337.937 262.75C332.618 273.172 326.587 283.31 324.437 295C322.89 309.434 323.987 322.398 328.437 333.5C349.669 363.438 367.717 380.008 385.687 396.25C396.887 405.852 408.574 412.041 420.437 417C407.728 402.876 393.53 390.24 385.187 371.75C380.542 358.998 384.67 345.368 386.187 332C380.838 340.584 373.634 344.534 371.937 362.25C354.886 348.447 362.219 323.002 363.187 300.5C352.908 314.01 350.918 320.645 348.687 338.5C343.167 331.207 337.699 323.81 335.437 310C331.615 289.595 336.329 277.725 337.937 262.75Z" fill="white" fill-opacity="0.501859"/>
</svg>
