<svg width="512" height="512" viewBox="0 0 512 512" fill="none" xmlns="http://www.w3.org/2000/svg">
<path d="M137.268 251.818V268.65L169.971 268.562V251.906L137.268 251.818Z" fill="white"/>
<path d="M34.75 251.5L19.2246 259.969H18.25L18.7363 260.234L18.25 260.5H19.2246L34.75 268.969H98.25V251.5H34.75Z" fill="white"/>
<path d="M373.44 251.818V259.811V260.658V268.65L340.737 268.562V260.658V259.811V251.906L373.44 251.818Z" fill="white"/>
<path d="M475.958 251.5L491.483 259.969H492.458L491.972 260.234L492.458 260.5H491.483L475.958 268.969H412.458V251.5H475.958Z" fill="white"/>
<path d="M119.071 26.5156L85 54.864L103.899 73.6299L119.071 59.7884L178.164 109.564L247.371 109.165V142.174L267.069 142.167V109.165L336.276 109.564L395.368 59.7884L410.541 73.6299L429.44 54.864L395.368 26.5156H119.071ZM145.024 47.544H369.416L319.773 88.2699H194.667L145.024 47.544Z" fill="white" fill-opacity="0.501859"/>
<path d="M247.371 353.953V402.835L178.164 402.435L119.071 452.212L103.899 438.37L85 457.136L119.071 485.484H395.368L429.44 457.136L410.541 438.37L395.368 452.212L336.276 402.435L267.069 402.835V353.957L247.371 353.953ZM194.667 423.73H319.773L369.416 464.456H145.024L194.667 423.73Z" fill="white" fill-opacity="0.501859"/>
<path d="M12 75.0938L18.5215 95.124L142.762 218.433H112.151L66.6339 172.916L46.9364 164.664L53.8571 184.628L100.439 231.21V290.269L53.8571 336.851L46.9364 356.814L66.6339 348.563L112.151 303.045H142.762L18.5215 426.354L12 446.385L33.228 438.199L127.989 342.707V371.987L92.3205 407.522L84.7343 427.619L105.496 419.899L146.622 379.972V323.941L165.986 304.576V284.945H118.539V236.533H165.986V216.902L146.622 197.538V141.506L105.496 101.579L84.7343 93.8596L92.3205 113.956L127.989 149.492V178.772L33.228 83.2789L12 75.0938Z" fill="white"/>
<path d="M200.99 196.906L162.061 158.076V184.428L182.091 202.861L187.714 196.639L200.99 196.906Z" fill="white"/>
<path d="M232.567 164.916C221.622 164.99 216.233 175.277 216.191 182.985V215.453L204.805 215.453L189.088 231.168V315.679L205.651 331.49H308.419L324.982 315.679V231.168L309.265 215.453H297.879V182.985C298.103 175.943 292.714 164.99 281.503 164.916H232.567ZM237.65 179.032H276.421C282.26 178.994 283.925 182.56 283.951 185.243L283.761 215.453H230.309L230.119 185.243C230.216 181.901 232.069 179.065 237.65 179.032ZM257.035 245.796C266.159 245.859 273.524 253.27 273.53 262.395C273.526 269.866 268.533 276.415 261.329 278.399L271.756 304.277H242.314L252.741 278.399C245.537 276.415 240.545 269.866 240.54 262.395C240.546 253.27 247.911 245.859 257.035 245.796Z" fill="white"/>
<path d="M168.572 331.678L181.089 344.194L162.173 364.24L162.267 337.324L168.572 331.678Z" fill="white"/>
<path d="M500 75.0938L493.479 95.124L369.238 218.433H399.849L445.366 172.916L465.064 164.664L458.143 184.628L411.561 231.21V290.269L458.143 336.851L465.064 356.814L445.366 348.563L399.849 303.046H369.238L493.479 426.355L500 446.385L478.772 438.2L384.011 342.707V371.987L419.68 407.522L427.266 427.619L406.504 419.9L365.378 379.972V323.941L346.014 304.576V284.945H393.461V236.533H346.014V216.902L365.378 197.538V141.506L406.504 101.579L427.266 93.8596L419.68 113.956L384.011 149.492V178.772L478.772 83.2789L500 75.0938Z" fill="white"/>
<path d="M311.011 196.905L349.94 158.076V184.428L329.91 202.861L324.287 196.639L311.011 196.905Z" fill="white"/>
<path d="M343.428 331.678L330.911 344.194L349.827 364.24L349.733 337.324L343.428 331.678Z" fill="white"/>
</svg>
