<svg width="512" height="512" viewBox="0 0 512 512" fill="none" xmlns="http://www.w3.org/2000/svg">
<path d="M94.5278 376.576C71.7594 369.298 55.1622 352.279 47.3932 328.245C44.0939 318.039 43.633 299.631 46.4627 291.081C48.2715 285.617 48.0465 284.757 42.6758 276.61C35.6936 266.019 31.2241 254.396 27.9573 238.333C26.5938 231.629 24.7408 222.526 23.8395 218.104C20.0073 199.303 26.0212 172.438 37.9344 155.14C48.9623 139.128 70.2097 123.158 84.4875 120.149C88.6721 119.267 89.7256 119.78 92.1459 123.877C96.0795 130.536 105.6 137.662 114.664 140.731C124.261 143.981 128.533 143.994 139.883 140.81L148.888 138.283L163.99 145.633C172.296 149.676 180.126 152.984 181.391 152.984C182.954 152.984 183.315 153.884 182.519 155.798C181.875 157.345 180.982 162.048 180.534 166.249C179.913 172.081 179.067 173.887 176.958 173.887C172.642 173.887 155.692 185.536 149.525 192.742C142.494 200.957 132.523 217.73 129.674 226.138C120.345 253.669 119.978 255.388 121.992 262.111C123.063 265.684 125.613 270.63 127.66 273.102C130.484 276.514 131.464 279.876 131.728 287.06C132.028 295.23 131.525 297.099 128.05 300.728C115.686 313.639 111.989 348.147 119.977 376.081C120.961 379.518 120.582 379.694 112.383 379.612C107.637 379.564 99.6022 378.198 94.5278 376.576ZM405.93 343.922C405.794 327.37 401.594 312.353 394.504 303.065C390.074 297.262 389.157 294.664 389.157 287.926C389.157 280.713 389.794 279.191 394.785 274.485C399.874 269.685 400.409 268.349 400.381 260.524C400.319 243.343 385.692 209.395 371.018 192.375C367.967 188.836 360.645 183.118 354.747 179.669C348.849 176.219 343.759 172.964 343.436 172.436L335.742 152.984C337.013 152.984 351.969 149.676 360.275 145.634L375.377 138.283L384.383 140.81C395.747 143.998 399.662 143.979 409.869 140.683C421.13 137.046 429.925 129.039 435.563 117.293L440.269 107.488L447.936 115.363C463.714 131.567 470.869 156.166 466.535 179.303C464.786 188.637 464.83 188.842 470.534 198.082C477.109 208.735 484.015 226.614 484.041 233.05C484.05 235.442 485.212 241.017 486.623 245.439C490.217 256.705 490.204 279.894 486.595 292.068C477.3 323.44 453.292 346.799 422.182 354.741C405.684 358.953 406.057 359.2 405.93 343.922ZM195.904 108.375C195.607 106.832 196.714 101.587 198.363 96.7173C204.211 79.4527 198.415 61.555 183.507 50.8447C179.306 47.8266 174.982 43.4099 173.897 41.0298C171.597 35.9824 171.162 36.4077 186.91 28.31C235.841 3.14996 292.354 7.29088 338.31 39.4036L347.76 46.0067L343.155 49.2483C325.348 61.7856 318.624 83.11 327.114 100.128C329.024 103.956 329.022 111.178 327.112 111.178C326.799 111.178 323.206 108.827 319.128 105.953L311.713 100.727H261.532H211.352L204.755 105.953C197.12 112 196.628 112.135 195.904 108.375Z" fill="white" fill-opacity="0.501961"/>
<path d="M229.17 498.47C212.596 496.666 209.651 495.324 208.747 489.162C208.328 486.308 208.752 484.129 209.752 484.016L310.449 484.213C312.345 484.212 312.784 485.546 312.287 489.799C311.566 495.975 312.434 495.418 290.271 498.47L229.17 498.47ZM225.151 471.25C205.182 469.395 185.428 464.95 180.728 461.253C168.167 451.373 160.047 434.639 166.594 432.127H356.959C356.908 436.371 347.477 455.405 340.616 460.582C327.935 470.15 270.476 475.459 225.151 471.25ZM160.795 421.504V408.641H360.214V421.504H160.795ZM155.179 394.165C125.895 377.661 125.867 328.837 146.737 305.735H374.084C394.544 321.221 394.453 392.632 366.247 394.218L155.179 394.165ZM147.971 280.008H373.263V294.088H147.971V280.008ZM138.065 259.853L141.433 246.661C146.065 228.519 147.044 226.228 156.067 212.435C162.098 203.215 166.066 199.071 172.732 195.031C188.814 185.284 190.116 185.142 263.238 185.142H329.756L339.76 190.141C352.542 196.527 362.96 207.547 371.121 223.312C377.879 236.366 385.097 258.012 383.81 261.365C381.778 266.661 371.265 267.145 258.418 267.145H146.543L138.065 259.853ZM196.934 173.887L198.31 163.477C199.18 157.661 200.535 156.379 204.611 155.564C245.587 155.605 273.63 155.564 316.967 155.564C319.73 155.573 321.432 157.446 322.402 159.907L326.797 173.887H196.934ZM147.167 117.966L140.594 121.808C129.086 128.535 114.736 125.771 107.34 115.402C104.593 111.551 103.742 108.081 103.703 100.572C103.66 92.374 102.959 89.9464 99.419 85.7399C93.5056 78.7122 91.2181 70.6158 92.0188 59.5469C93.5894 37.8332 114.909 23.2951 136.37 29.3037C146.841 32.2355 157.998 43.4979 160.577 53.7405C161.87 58.8752 163.331 61.3335 165.09 61.3335C169.76 61.3335 178.123 67.6968 180.762 73.2592C184.161 80.4209 183.949 87.996 180.129 95.9035C175.972 104.511 176.067 105.482 182.343 118.58C190.046 134.654 190.635 136.923 187.071 136.822L147.167 117.966ZM335.742 136.015C335.252 135.526 337.653 128.832 341.076 121.142C348.281 104.96 348.446 103.549 344.135 95.0995C342.367 91.6326 340.92 86.5606 340.92 83.8284C340.92 74.561 349.046 63.9303 357.95 61.549C361.297 60.6538 362.802 59.046 363.519 55.6022C364.864 49.1308 368.816 41.9258 373.327 37.7168C378.977 32.4455 390.745 27.6382 398 27.6382C405.254 27.6382 417.02 32.444 422.677 37.7168C436.04 50.1724 436.627 72.9264 423.942 86.7859C421.117 89.8728 420.605 92.1351 421.033 99.6491C421.646 110.408 417.657 117.74 408.452 122.771C401.396 126.628 389.254 125.907 382.967 121.259L378.591 118.024L335.742 136.015ZM215.737 116.326H303.697C307.347 117.242 315.538 128.283 314.185 130.473H209.205C209.417 122.23 211.357 119.714 215.737 116.326Z" fill="white"/>
<path d="M210.268 138.562H222.098C223.656 138.562 224.91 139.817 224.91 141.375V144.991C224.91 146.549 223.656 147.804 222.098 147.804H210.268C208.709 147.804 207.455 146.549 207.455 144.991V141.375C207.455 139.817 208.709 138.562 210.268 138.562Z" fill="white"/>
<path d="M238.103 138.563H249.933C251.491 138.563 252.745 139.817 252.745 141.375V144.992C252.745 146.55 251.491 147.804 249.933 147.804H238.103C236.544 147.804 235.29 146.55 235.29 144.992V141.375C235.29 139.817 236.544 138.563 238.103 138.563Z" fill="white"/>
<path d="M269.799 138.563H281.629C283.187 138.563 284.442 139.817 284.442 141.375V144.992C284.442 146.55 283.187 147.804 281.629 147.804H269.799C268.241 147.804 266.986 146.55 266.986 144.992V141.375C266.986 139.817 268.241 138.563 269.799 138.563Z" fill="white"/>
<path d="M299.416 138.563H311.246C312.804 138.563 314.059 139.817 314.059 141.375V144.992C314.059 146.55 312.804 147.804 311.246 147.804H299.416C297.858 147.804 296.604 146.55 296.604 144.992V141.375C296.604 139.817 297.858 138.563 299.416 138.563Z" fill="white"/>
</svg>
