<svg width="512" height="512" viewBox="0 0 512 512" fill="none" xmlns="http://www.w3.org/2000/svg">
<path d="M29.9628 400.257C34.5743 397.314 35.4759 395.916 35.4759 391.708C38.2429 362.156 72.1244 359.281 86.8569 380.218L132.874 370.937C138.826 369.674 138.054 372.832 130.144 382.099C115.07 399.759 115.6 398.549 115.6 415.294C116.058 433.676 110.449 442.536 92.9895 444.809C75.7424 443.374 94.656 453.092 67.559 466.318C19.5286 483.264 -1.30728 419.735 29.9628 400.257ZM452.712 469.674C442.585 466.981 434.418 460.942 429.858 452.773C426.101 446.045 425.44 445.571 418.709 444.773C396.89 440.311 396.421 429.537 396.4 415.294C400.554 396.034 379.331 380.576 375.463 371.17L425.143 380.218C440.599 356.753 475.93 366.201 476.524 391.708C476.524 395.916 477.426 397.314 482.037 400.257C520.942 428.241 483.432 476.689 452.712 469.674Z" fill="white" fill-opacity="0.501961"/>
<path d="M275.847 474.136C237.474 474.656 222.383 457.321 229.432 426.811C236.971 393.981 292.29 399.596 291.993 431.031C289.696 446.969 288.091 446.234 302.31 448.477C323.63 452.21 344.888 463.992 353.017 483.703L334.852 498.178C317.81 476.699 301.089 473.591 275.847 474.136ZM170.731 394.932C169.778 388.061 171.28 353.268 176.625 337.08C177.855 330.796 204.131 330.362 203.762 333.483L194.132 415.888L170.731 394.932ZM318.028 337.506C317.54 330.628 343.67 330.127 344.787 334.393C346.986 354.817 354.634 390.158 348.162 396.593C348.162 396.593 333.511 413.486 327.377 415.591L318.028 337.506ZM213.372 396.185C213.379 391.112 218.81 343.357 219.916 338.64C234.265 313.524 289.599 311.685 302.187 338.64L308.064 396.185C308.327 407.608 286.595 403.106 281.344 401.187C270.678 397.133 251.584 397.134 241.298 401.188C233.686 403.18 213.489 408.157 213.372 396.185ZM220.859 319.747C216.657 315.274 218.021 312.231 227.459 305.025C238.023 296.958 246.131 294.939 265.496 295.554C281.946 296.076 282.203 296.139 290.128 301.597C304.856 311.741 307.433 316.882 300.087 321.469C296.486 323.718 293.252 322.322 285.031 314.972L279.514 310.038H242.703L236.487 315.727C228.117 323.388 225.027 324.183 220.859 319.747ZM140.929 304.532C127.117 269.046 130.121 237.634 129.191 199.742C142.352 162.601 369.351 156.736 392.725 199.389C391.837 233.901 397.285 297.077 371.118 310.722C337.305 320.994 308.012 309.942 284.018 290.926H238.033C217.353 309.529 172.017 329.072 140.929 304.532ZM231.742 284.311H290.549L297.899 288.664C301.942 291.058 308.393 295.477 312.234 298.483C320.042 304.595 332.083 307.929 341.695 306.639C349.094 305.647 355.217 299.84 358.126 291.056C361.927 279.577 368.121 225.652 367.212 211.948C365.848 191.376 364.445 190.37 333.804 187.984C293.052 184.811 222.963 185.207 176.945 188.87C166.388 189.711 164.205 190.378 160.406 193.927L156.029 198.016C156.685 233.471 156.223 299.608 176.611 306.055C198.698 311.422 215.361 296.986 231.742 284.311ZM275.448 259.069C273.531 258.297 269.231 251.003 269.231 248.521C269.231 247.661 271.482 247.64 275.153 248.465C282.137 250.034 285.301 248.671 296.738 239.167C311.385 227.366 348.614 209.648 359.51 219.007C361.19 220.552 357.86 224.769 354.959 224.769C352.613 224.769 330.978 234.477 330.978 235.53C330.978 235.894 335.278 235.847 340.534 235.425C354.334 234.317 353.706 236.049 334.627 251.71L325.985 258.804C318.704 257.698 310.82 257.649 303.956 254.882C300.014 253.224 298.281 253.423 289.685 256.524C285.118 257.89 278.676 260.411 275.448 259.069ZM188.192 251.952C168.373 234.714 168.227 234.339 181.757 235.425C187.013 235.847 191.313 235.947 191.313 235.647C191.313 234.491 174.022 226.447 168.121 224.858C162.522 223.351 159.983 220.158 163.012 218.435C165.057 217.272 196.419 221.414 200.869 223.435C207.688 226.531 220.752 234.948 228.067 240.957C237.483 248.692 240.574 250.031 246.464 248.926C252.289 247.833 253.163 249.802 249.301 255.315C246.471 259.355 241.526 259.505 230.87 255.875C224.201 253.603 222.211 253.457 218.511 254.972C210.835 257.394 204.098 257.917 196.098 258.828L188.192 251.952ZM161.175 300.012C154.48 291.367 146.382 247.745 147.867 214.478L148.78 206.392C145.996 209.031 142.953 212.061 142.583 214.478C141.089 241.866 145.568 278.638 155.344 300.012C157.495 304.542 159.235 305.579 162.298 305.605C164.577 305.626 164.441 304.948 161.175 300.012ZM364.432 303.79C366.026 301.799 372.339 283.809 375.05 273.534C380.784 251.802 381.692 217.509 376.695 211.356C374.508 208.663 374.336 209.5 374.172 223.601C373.843 251.997 366.911 289.539 359.231 304.525C358.274 306.392 362.87 305.743 364.432 303.79ZM95.6957 200.443C92.3015 193.486 81.1904 189.498 81.0508 182.059C81.4606 173.37 102.597 169.687 103.066 162.397C97.7082 155.356 83.574 140.063 90.9744 134.256L129.343 109.752C176.063 80.8765 185.562 24.4737 262.616 22.8228C341.005 25.9205 355.408 86.7138 408.161 116.725C439.415 133.781 440.928 135.324 423.919 158.031C414.396 168.611 437.395 176.431 444.826 181.695C442.845 190.294 434.892 197.029 428.908 204.475C428.412 221.693 433.423 240.203 435.111 256.35L404.084 254.906L403.751 194.632L370.087 169.2C355.099 109.243 305.698 82.2781 272.233 119.529C263.514 128.32 260.625 127.261 252.998 119.529C211.359 83.9703 154.296 118.989 152.661 170.565L117.805 199.319L115.967 254.829L88.3737 256.97C93.1149 245.473 98.0801 210.88 95.6957 200.443Z" fill="white"/>
</svg>
