<svg width="512" height="512" viewBox="0 0 512 512" fill="none" xmlns="http://www.w3.org/2000/svg">
<path fill-rule="evenodd" clip-rule="evenodd" d="M500 275.284L438.16 330.402L416.65 373.421L446.226 378.799C447.613 412.617 336.547 429.884 256 429.884C175.453 429.884 64.3867 412.617 65.7741 378.799L95.3499 373.421L73.8402 330.402L12 275.284L64.4298 353.256L14.6887 361.322L49.6419 373.421C28.6243 394.146 85.0682 440.468 256 440.468C426.932 440.468 483.376 394.146 462.358 373.421L497.311 361.322L447.57 353.256L500 275.284Z" fill="white" fill-opacity="0.51"/>
<path fill-rule="evenodd" clip-rule="evenodd" d="M282.215 89.763C282.215 89.763 302.632 66.0607 334.813 81.3137C366.995 96.5668 364.221 117.994 364.221 117.994C364.221 117.994 419.276 141.276 419.276 186.863C419.276 227.071 385.73 243.019 385.73 243.019C385.73 243.019 406.694 292.666 356.938 342.422C303.148 396.212 233.818 350.567 233.818 350.567C233.818 350.567 212.118 371.265 182.18 360.565C152.243 349.864 150.468 320.992 150.468 320.992C150.468 320.992 93.8968 300.301 96.2413 251.085C98.3358 207.142 130.303 197.311 130.303 197.311C130.303 197.311 107.796 126.76 168.84 88.2613C229.883 49.7618 282.215 89.763 282.215 89.763ZM262.914 147.953C296.834 151.719 320.664 182.358 320.664 198.656C320.664 202.842 323.352 202.857 323.352 212.099C323.352 225.375 319.319 224.036 319.319 230.92C319.319 233.771 316.145 234.953 315.286 234.953C314.426 234.953 315.374 236.436 315.286 238.986C315.255 239.891 316.11 240.934 316.63 241.675C317.615 243.076 317.975 241.898 317.975 249.741C317.975 254.895 322.008 255.342 320.664 259.151C319.428 262.652 306.178 285.134 303.187 284.694C300.194 284.255 300.677 282.005 297.81 282.005C294.941 282.005 287.055 286.268 287.055 294.105C287.055 299.252 287.532 299.003 285.71 300.826L268.772 311.581C265.954 311.581 267.923 308.892 266.083 308.892C264.242 308.892 266.085 311.581 262.05 311.581C261.585 311.581 261.197 311.413 260.851 311.162L258.923 309.313C258.575 309.061 258.189 308.892 257.724 308.892C255.863 308.892 257.521 312.926 252.639 312.926C247.758 312.926 249.454 307.548 247.262 307.548C243.174 307.548 248.692 311.581 240.54 311.581C239.11 311.581 239.159 310.157 237.851 310.237C236.543 310.316 226.231 302.649 224.408 300.826C222.585 299.003 223.064 299.252 223.064 294.105C223.064 286.268 215.176 282.005 212.309 282.005C209.441 282.005 211.267 284.654 206.931 284.694C205.227 284.71 188.678 263.678 188.11 260.496C187.684 258.11 192.143 254.895 192.143 249.741C192.143 241.898 192.504 243.076 193.488 241.675C194.008 240.934 194.863 239.891 194.832 238.986C194.745 236.436 195.692 234.953 194.832 234.953C193.972 234.953 190.799 233.771 190.799 230.92C190.799 224.036 186.766 225.375 186.766 212.099C186.766 202.857 189.455 202.842 189.455 198.656C189.455 181.27 218.45 147.57 256 147.57L262.914 147.953Z" fill="white"/>
<path fill-rule="evenodd" clip-rule="evenodd" d="M253.984 255.119C259.236 255.119 262.05 266.453 262.05 273.94C262.05 278.918 263.879 280.854 264.738 282.006C267.781 286.087 264.508 290.072 262.05 290.072C258.704 290.072 258.674 283.35 253.984 283.35C250.637 283.35 251.06 288.727 248.606 288.727C246.153 288.727 242.622 286.964 244.573 280.661C245.692 277.048 247.262 273.69 247.262 269.907C247.262 268.386 247.314 255.119 253.984 255.119Z" fill="white"/>
<path fill-rule="evenodd" clip-rule="evenodd" d="M228.441 231.592C220.025 231.592 211.657 235.551 206.185 241.918C200.509 248.52 199.861 256.006 207.344 261.488C209.171 262.827 211.213 263.925 213.361 264.649C215.61 265.405 218.007 265.711 220.375 265.873C229.376 266.492 242.046 260.308 245.326 251.439C248.77 242.129 237.188 231.592 228.441 231.592Z" fill="white"/>
<path fill-rule="evenodd" clip-rule="evenodd" d="M283.559 231.592C291.975 231.592 300.343 235.551 305.815 241.918C311.491 248.52 312.139 256.006 304.656 261.488C302.829 262.827 300.787 263.925 298.639 264.649C296.39 265.405 293.993 265.711 291.625 265.873C282.623 266.492 269.954 260.308 266.674 251.439C263.23 242.129 274.811 231.592 283.559 231.592Z" fill="white"/>
</svg>
