<svg width="512" height="512" viewBox="0 0 512 512" fill="none" xmlns="http://www.w3.org/2000/svg">
<path d="M257.058 138.791C170.089 138.53 100.099 208.576 100.131 295.845C100.141 322.112 105.279 343.706 116.972 366.626C139.327 410.442 182.467 442.398 230.075 450.41C260.964 455.608 295.301 450.812 323.842 437.31C358.508 420.911 389.19 387.47 402.821 351.231C441.273 249.003 365.878 139.118 257.058 138.791ZM367.563 215.749H303.282L291.005 241.677H382.154C384.757 247.25 386.547 253.075 388.003 259.01H285.136L283.229 263.055H311.193L301.269 283.565H392.842C394.102 289.765 393.934 295.189 392.842 301.053H291.405L276.656 325.455H389.552C388.722 331.81 386.852 337.776 384.135 343.513H268.259L252.268 368.835H372.059C311.58 453.22 194.878 452.882 140.898 368.835H222.959L231.476 343.513H128.578C125.626 339.253 122.734 331.166 122.224 325.455H235.173L239.125 312.817H198.874L202.431 301.053H119.831C118.981 295.114 119.162 289.324 120.608 283.565H206.822L213.464 259.01H124.831C126.12 252.882 128.338 247.367 130.703 241.677H216.578L223.692 215.749H145.108C200.456 139.138 306.29 138.556 367.563 215.749Z" fill="white"/>
<path d="M232.51 126.116L256.373 12L280.203 126.116C264.414 124.704 248.537 124.44 232.51 126.116Z" fill="white"/>
<path d="M230.335 382.285L250.182 298.097H212.037L241.428 210.619H292.448L261.885 272.01H295.337L230.335 382.285Z" fill="white"/>
<path d="M380.863 411.465C392.788 399.48 402.222 386.388 408.096 371.715L490.281 456.775L380.863 411.465Z" fill="white"/>
<path d="M104.596 371.683C110.968 386.412 120.224 399.568 131.828 411.444L21.7197 456.907L104.596 371.683Z" fill="white"/>
<path d="M437.248 387.867C451.333 360.116 459.28 328.685 459.28 295.385C459.156 194.197 385.203 108.453 285.661 94.0835M227.437 94.1323C128.211 108.839 54.6631 194.463 54.5693 295.385C54.5694 327.778 62.0997 358.398 75.4751 385.588M110.063 435.454C146.94 474.589 199.098 499.001 256.925 499.001C314.952 499.001 367.268 474.416 404.167 435.043" stroke="white" stroke-opacity="0.501961" stroke-width="1.99809"/>
<path d="M223.082 119.396C182.391 127.144 145.675 148.839 119.258 180.744C92.8403 212.649 78.3751 252.767 78.353 294.189C78.3868 318.758 83.5057 343.054 93.3875 365.549L97.3232 361.147C88.2858 339.873 83.5985 317.005 83.5375 293.891C83.5801 253.98 97.4064 215.309 122.678 184.418C147.949 153.527 183.114 132.313 222.225 124.363L223.082 119.396ZM290.238 119.556L291.064 124.151C330.239 132.077 365.466 153.309 390.772 184.246C416.077 215.184 429.903 253.922 429.903 293.891C429.878 317.617 424.977 341.085 415.505 362.838L418.777 366.606C429.01 343.831 434.338 319.158 434.415 294.189C434.38 252.873 419.977 212.855 393.672 180.994C367.368 149.132 330.801 127.412 290.238 119.556ZM371.588 423.21C339.953 451.389 299.085 466.994 256.72 467.073C214.767 467.023 174.259 451.747 142.721 424.083L137.07 426.049C169.747 455.692 212.266 472.145 256.384 472.22C300.99 472.139 343.941 455.316 376.736 425.08L371.588 423.21Z" fill="white"/>
</svg>
