<svg width="512" height="512" viewBox="0 0 512 512" fill="none" xmlns="http://www.w3.org/2000/svg">
<path d="M181.985 27.0016C180.808 26.9977 179.477 27.0044 177.962 27.0146C167.414 27.0862 163.872 27.8261 153.744 32.0629C145.771 35.3982 138.232 37.3552 130.757 38.03C124.64 38.5822 117.969 39.9516 115.93 41.0733C113.891 42.1949 107.595 43.5552 101.939 44.097C92.4145 45.0093 91.3186 45.4852 87.1088 50.5398C84.6088 53.5415 77.7251 61.1837 71.8121 67.5222C65.899 73.8607 61.0441 79.9989 61.0226 81.1638C61.0012 82.3286 58.2374 88.2865 54.8796 94.4034C42.8735 116.275 41.5101 119.491 40.3323 128.759C39.6759 133.924 37.6706 144.349 35.8749 151.928C33.1535 163.413 31.7729 166.521 27.5857 170.588C19.613 178.331 17.5838 184.87 18.7621 199.015C19.6266 209.393 19.226 213.045 15.8818 225.321L12 239.575L19.3617 262.266C28.9002 291.664 32.3143 304.923 33.4789 317.084C33.9994 322.52 35.7823 332.195 37.4389 338.585C39.0954 344.975 41.731 357.211 43.2973 365.775C48.6115 394.828 55.5768 409.698 69.9613 422.693C73.2267 425.643 76.6357 428.056 77.5359 428.056C78.436 428.056 83.9393 432.613 89.7654 438.183C95.5916 443.753 102.526 449.805 105.175 451.629C107.824 453.454 110.382 456.503 110.86 458.407C111.474 460.854 113.103 462.109 116.423 462.688C119.006 463.139 126.457 464.602 132.982 465.942C139.507 467.282 149.851 468.639 155.968 468.959C162.085 469.279 169.425 470.079 172.279 470.734C180.338 472.585 193.771 472.049 196.519 469.767C198.187 468.383 198.972 465.417 198.972 460.499C198.972 453.627 197.39 451.31 195.162 454.916C193.991 456.81 159.234 455.472 153.001 453.293C150.962 452.581 146.292 451.592 142.622 451.095C138.952 450.598 134.319 448.949 132.328 447.43L128.709 444.672L134.552 435.687C138.498 429.621 141.384 426.681 143.437 426.638C147.138 426.56 150.036 423.879 150.036 420.534C150.036 417.455 137.195 405.403 134.761 406.197C133.782 406.517 132.301 408.835 131.468 411.35C130.635 413.865 127.546 419.488 124.604 423.845C121.661 428.201 118.825 433.597 118.304 435.837L117.357 439.912L112.352 436.63L107.347 433.35L112.039 427.867C118.299 420.555 121.878 410.028 121.869 398.951C121.86 387.267 124.117 384.887 131.463 388.844C136.401 391.503 136.625 391.502 139.581 388.826C143.509 385.272 143.441 384.761 138.319 379.277C134.424 375.108 133.168 374.672 125.055 374.672C117.731 374.672 115.337 375.324 111.95 378.237C108.118 381.533 107.774 382.728 107.363 394.176C106.791 410.077 106.313 412.093 101.834 417.415L98.1176 421.831L90.0261 417.447C79.7585 411.886 66.9938 396.788 71.2342 395.219C72.8732 394.613 75.5203 389.808 78.0746 382.805C81.7507 372.725 82.854 371.124 87.4368 369.209C90.9441 367.743 94.8937 367.351 99.5926 367.997C105.918 368.867 106.775 368.611 109.005 365.208C110.876 362.352 111.114 360.555 110.004 357.635C108.938 354.831 109.039 353.656 110.384 353.245C124.406 348.963 131.541 345.338 131.985 342.271C132.796 336.659 129.528 334.215 122.675 335.309C119.373 335.836 115.193 337.233 113.386 338.415C111.58 339.598 107.962 340.566 105.347 340.566C99.3412 340.566 95.1678 344.271 95.1678 349.605C95.1678 354.767 94.8548 354.946 83.6246 356.217C74.8837 357.206 74.4079 357.098 74.4079 354.103C74.4079 352.367 75.8148 349.538 77.5359 347.817C80.034 345.319 80.4862 343.564 79.7754 339.119C79.0428 334.538 79.5276 332.86 82.5081 329.644C84.5001 327.495 87.0803 325.736 88.2427 325.736C89.4052 325.736 91.1874 324.735 92.2027 323.512C94.8757 320.291 99.2091 320.767 106.587 325.091C114.295 329.608 119.43 329.416 120.116 324.585C120.709 320.404 111.728 310.906 107.18 310.906C103.61 310.906 102.793 305.358 105.905 302.246C107.245 300.906 107.614 294.679 107.265 279.335C106.789 258.463 106.737 258.178 101.656 249.016C93.4823 234.275 87.3177 232.901 85.8272 245.486C84.5471 256.295 82.7084 259.006 76.6648 259.006C70.1583 259.006 52.1643 248.044 52.1643 244.08C52.1643 242.579 52.9376 239.653 53.8826 237.579C55.3141 234.437 55.1524 233.312 52.9116 230.836C49.2878 226.832 46.4566 227.095 41.4401 231.901C38.0805 235.119 36.713 235.614 34.6867 234.344C30.0013 231.408 30.7035 226.401 36.4679 221.65C39.9418 218.786 41.7833 216.003 41.7833 213.617C41.7833 211.609 42.8365 208.36 44.1228 206.397C45.4091 204.434 46.2426 201.286 45.9757 199.404C45.5571 196.453 44.7255 196.027 39.9304 196.309C34.7303 196.614 34.3695 196.361 34.3695 192.412C34.3695 190.089 35.3995 187.334 36.659 186.288C38.5813 184.693 39.3498 184.962 41.4466 187.961C42.8205 189.926 47.1869 194.523 51.1499 198.177C61.1235 207.372 61.9021 209.202 58.7809 216.124C56.6113 220.935 56.4977 222.526 58.0532 226.281C60.9293 233.225 63.3496 234.583 67.7283 231.714C70.5245 229.882 71.4428 227.993 71.4428 224.076C71.4428 221.214 72.4437 216.478 73.6671 213.55C77.4635 204.464 76.6575 202.044 67.0614 193.698C62.2055 189.474 55.7988 182.485 52.8247 178.166L47.418 170.314L50.6916 165.885C53.6045 161.945 58.4074 157.773 63.5402 154.722C64.6496 154.062 66.6288 156.51 69.0121 161.49C73.2294 170.304 76.7306 174.722 81.5349 177.293C85.107 179.205 85.1652 179.137 86.9155 171.148C87.5327 168.331 86.6044 164.697 83.9026 159.366C80.7257 153.096 80.1504 150.345 80.8268 144.634C82.8592 127.473 99.6125 108.512 119.299 101.092C123.191 99.6246 126.676 98.7245 127.043 99.0911C128.708 100.757 116.693 115.482 108.069 122.345C101.093 127.896 97.6929 131.865 95.4436 137.094C91.372 146.559 89.2276 164.69 89.2724 189.271L89.3093 209.329L95.5761 219.665C99.0224 225.35 103.51 230.897 105.549 231.992C111.442 235.157 143.344 233.411 152.047 229.446C159.724 225.949 165.086 225.57 169.338 228.225C173.036 230.534 176.893 228.433 178.807 223.066C181.201 216.352 179.423 215.007 166.675 213.895C156.731 213.028 153.526 213.354 146.161 215.978C141.359 217.689 131.998 219.49 125.357 219.98L113.282 220.868L109.576 215.099C106.231 209.891 105.78 207.305 104.936 188.567C103.452 155.604 107.327 142.638 122.605 129.448C126.923 125.72 133.654 118.311 137.565 112.985C143.739 104.576 145.299 103.301 149.399 103.301C151.997 103.301 156.569 104.324 159.559 105.573C165.843 108.199 167.831 107.485 167.831 102.604C167.831 98.9547 160.326 91.4384 156.683 91.4384C153.244 91.4384 152.957 89.0933 155.625 82.7756C157.923 77.3356 158.852 76.6005 164.514 75.7419C172.027 74.6027 178.557 76.9202 182.71 82.1999C185.174 85.3318 185.625 88.233 185.619 100.907C185.613 113.956 185.131 116.854 181.911 123.201C177.082 132.72 177.233 135.517 182.739 138.589C186.577 140.73 187.142 141.764 186.447 145.379C185.995 147.724 185.625 150.487 185.625 151.52C185.625 152.553 182.483 156.894 178.642 161.167C173.159 167.265 168.627 170.342 157.554 175.482C144.848 181.379 142.708 181.935 135.966 181.092C129.557 180.292 128.081 180.601 125.679 183.256C123.325 185.857 123.15 186.964 124.593 190.131C126.282 193.839 126.541 193.894 139.286 193.233C157.559 192.286 169.611 188.366 183.253 178.935C189.549 174.583 195.662 169.649 196.836 167.972C198.576 165.489 198.972 156.983 198.972 122.151C198.972 96.3958 198.379 78.2751 197.484 76.6021C196.49 74.7449 196.49 73.5193 197.484 72.905C198.343 72.3738 198.972 64.5236 198.972 54.3021C198.972 36.8588 198.913 36.5509 194.645 31.774C190.93 27.6161 190.225 27.0286 181.985 27.0016ZM177.269 39.0922C179.18 38.9603 179.896 39.6849 181.259 40.7887C184.335 43.2796 186.909 52.1194 187.044 60.6667C187.114 65.0889 186.315 65.4883 182.193 63.0909C178.524 60.9564 147.729 59.6808 140.398 61.3596C137.135 62.1067 132.935 62.3407 131.064 61.8788C124.924 60.363 130.447 56.4819 149.256 49.1018C167.585 41.9102 174.085 39.312 177.269 39.0922ZM111.779 55.9312C113.056 55.995 112.757 56.6386 111.427 57.8884C109.035 60.1361 93.1016 62.4422 94.3923 60.3539C94.8337 59.6396 98.5576 58.3334 102.668 57.4518C107.646 56.3842 110.501 55.8674 111.779 55.9312ZM110.115 73.7847C114.206 73.827 118.618 74.1632 123.344 74.7948L132.982 76.0829L115.93 84.4851C94.912 94.8419 76.9217 110.305 70.7759 123.296C68.0575 129.042 64.9863 132.715 60.0712 136.097L53.1788 140.839L54.1063 133.004C54.7961 127.18 57.195 121.509 63.4534 110.899C68.0833 103.05 73.4261 93.4957 75.3267 89.668C80.6552 78.9366 92.3846 73.6017 110.115 73.7847ZM33.2074 249.022C33.2655 249.011 33.3364 249.012 33.4224 249.029C34.5692 249.245 38.3071 251.974 47.7417 258.954C53.8725 263.489 61.7663 268.152 65.2845 269.313L71.6817 271.422L66.766 273.744C61.3984 276.279 59.9707 280.208 58.5746 296.285C58.0506 302.319 58.532 305.969 60.3036 309.395C62.0323 312.738 62.4703 315.857 61.7807 319.939C60.7814 325.854 60.136 326.211 53.648 324.416C50.1917 323.459 49.881 322.592 49.082 311.589C48.3619 301.674 38.9162 264.963 33.4854 250.977C33.0426 249.837 32.8002 249.101 33.2074 249.022ZM92.585 266.419C93.8949 266.419 92.9542 295.82 91.601 297.174C91.1163 297.658 90.7191 300.575 90.7191 303.656C90.7191 309.368 86.8664 313.874 81.9802 313.874C80.7986 313.874 78.6103 314.979 77.1188 316.328C74.5509 318.652 74.4078 318.552 74.3927 314.473C74.3838 312.104 73.3829 306.89 72.1683 302.887C69.2195 293.166 69.2464 288.074 72.2422 289.223C79.4136 291.975 83.6059 279.258 77.0428 274.661C73.8605 272.432 73.988 272.352 80.7377 272.352C86.1221 272.352 88.1541 271.671 89.5808 269.387C90.5995 267.755 91.9513 266.419 92.585 266.419ZM59.8714 335.481C61.0148 335.448 61.0617 336.901 61.0617 341.339C61.0617 347.999 59.7162 349.588 57.0084 346.127C53.7145 341.917 53.9271 337.947 57.5341 336.304C58.6056 335.816 59.3517 335.496 59.8714 335.481ZM58.5637 363.607C59.4673 363.641 61.58 363.803 64.0268 364.037C70.8108 364.684 71.153 365.717 66.8724 372.643C65.1747 375.39 63.5681 377.637 63.3035 377.637C62.9499 377.637 58.0967 364.569 58.0967 363.618C58.0967 363.598 58.2625 363.596 58.5637 363.607Z" fill="white"/>
<path d="M267.185 129.274V75.8496C304.379 75.824 305.445 129.101 267.185 129.274Z" fill="white"/>
<path d="M130.216 161.027C125.488 157.307 125.299 154.73 129.452 150.577C132.022 148.007 133.74 147.591 138.87 148.294C148.006 149.546 152.417 144.587 154.357 130.883C156.511 115.676 164.14 109.383 171.786 116.506L174.817 119.33L171.442 129.682C169.586 135.376 167.456 141.278 166.708 142.799C165.96 144.32 164.071 148.191 162.511 151.401C157.111 162.514 138.978 167.919 130.216 161.027Z" fill="white"/>
<path d="M280.537 175.761C280.54 174.649 284.19 170.923 288.647 167.48C304.744 155.048 313.409 137.157 308.445 126.602C306.451 122.36 306.449 121.269 308.433 116.648C320.157 87.2058 294.699 60.3372 267.185 59.8841V36.5708C276.869 36.9212 295.92 37.412 302.524 42.912C311.693 54.7659 320.019 67.1257 327.504 79.9898C331.325 87.2368 332.113 117.783 328.778 129.395C323.932 146.277 310.603 165.9 299.258 172.858C293.101 176.634 280.529 178.583 280.537 175.761Z" fill="white"/>
<path d="M178.211 266.496C178.211 259.945 178.733 258.758 183.075 255.447C185.75 253.407 189.587 251.079 191.601 250.275C194.131 249.266 194.472 248.784 192.703 248.719C187.45 248.527 185.723 242.817 186.166 227.106C186.395 218.96 187.392 210.793 188.381 208.958C190.344 205.314 194.39 204.599 197.192 207.401C199.481 209.689 199.684 245.044 197.417 246.446C196.343 247.109 196.371 248.021 197.507 249.389C198.412 250.48 198.945 254.257 198.692 257.784C198.32 262.953 197.679 264.197 195.386 264.202C193.821 264.205 192.259 265.058 191.913 266.096C191.365 267.74 181.204 273.835 179.012 273.835C178.571 273.835 178.211 270.532 178.211 266.496Z" fill="white"/>
<path d="M348.042 176.568C347.803 176.545 347.662 176.551 347.625 176.587C347.212 177 345.859 187.056 344.617 198.933C342.88 215.532 342.733 222.321 343.978 228.275C344.869 232.536 346.235 240.813 347.015 246.668C348.718 259.462 353.325 266.448 362.472 270.108C367.517 272.126 387.185 275.452 422.147 280.2C447.696 283.67 478.532 277.347 483.943 267.527C487.23 261.563 500 231.778 500 230.076C500 225.862 486.939 217.059 472.886 211.801C457.23 205.944 355.455 177.286 348.042 176.568ZM386.382 198.208L448.981 212.403C459.757 214.847 461.199 218.894 457.798 231.134C454.411 243.324 446.404 260.511 442.51 263.952C439.269 266.816 431.582 267.989 422.89 266.947C398.656 264.043 382.737 261.835 380.873 261.119C377.103 259.673 370.988 248.974 365.811 234.766C363.091 227.301 360.437 220.114 359.913 218.798C359.23 217.079 361.933 213.843 369.508 207.307C378.866 199.233 380.906 196.966 386.382 198.208Z" fill="white"/>
<path d="M136.047 306.555C126.626 303.858 126.5 303.721 122.81 292.172C119.835 282.859 119.757 275.555 122.525 265.159C125.605 253.587 132.702 247.143 142.366 247.143C152.164 247.143 152.449 257.125 142.761 261.001C135.559 263.883 135.371 264.193 134.382 274.821C133.419 285.171 135.241 289.249 142.761 293.572C147.829 296.485 148.342 296.516 153.214 294.204C156.032 292.867 162.975 291.37 168.645 290.878C174.314 290.385 181.761 289.273 185.194 288.406C188.628 287.539 196.9 286.585 198.972 287.105V299.56C198.188 300.045 188.588 301.876 179.381 303.399C170.173 304.921 160.762 306.9 158.466 307.796C152.935 309.954 146.717 309.61 136.047 306.555Z" fill="white"/>
<path d="M310.887 353.541L294.913 260.166L267.185 263.792V234.707C267.185 209.959 267.514 205.622 269.389 205.622C270.602 205.622 272.501 203.453 273.61 200.802C275.44 196.429 276.506 195.815 285.123 194.17L294.619 192.358L308.403 207.846L315.973 200.795L307.223 181.775C319.65 172.526 327.578 158.479 332.873 141.623L339.866 148.616L321.115 353.541C320.073 362.947 312.487 362.962 310.887 353.541Z" fill="white"/>
<path d="M192.073 360.299C187.961 359.496 185.17 352.705 186.326 346.314C187.133 341.847 186.704 340.959 182.35 338.081C178.508 335.542 174.943 334.787 165.606 334.536C159.081 334.361 152.574 334.717 151.144 335.327C149.715 335.938 146.879 336.019 144.842 335.507C141.658 334.708 141.138 333.738 141.138 328.599C141.138 323.115 141.589 322.432 146.58 320.346C149.74 319.026 153.625 318.474 155.848 319.029C157.952 319.555 165.013 320.536 171.538 321.208C178.062 321.88 186.737 323.383 190.815 324.549L198.972 326.667V360.299H192.073Z" fill="white"/>
<path d="M188.051 421.705C186.629 417.981 185.625 410.994 185.625 404.818C185.625 395.287 185.15 393.593 180.642 387.038C172.652 375.423 172.464 372.524 179.461 368.837C184.901 365.97 189.337 368.074 194.36 375.902L198.972 383.088V428.057H194.724C191.088 428.057 190.128 427.142 188.051 421.705Z" fill="white"/>
<path d="M289.754 484.421C287.004 483.998 290.911 429.872 290.911 425.45C290.911 422.498 288.534 411.033 285.627 399.973C282.721 388.912 279.692 377.36 278.897 374.301C277.577 369.225 277.004 368.741 272.318 368.741H267.185V337.773C267.185 306.911 267.198 306.801 270.522 305.91C272.357 305.419 276.307 305.007 279.301 304.996C284.065 304.979 284.843 305.484 285.536 309.054L297.285 372.448L299.086 381.345L319.828 382.828L319.746 393.308C319.65 405.519 315.944 413.196 308.693 416.199C305.747 417.419 304.251 419.096 304.237 421.193C304.182 429.81 300.715 486.107 293.406 484.983L289.754 484.421Z" fill="url(#paint0_linear_219_8130)"/>
<path d="M227.329 35.0869H238.911V475.91H227.329V35.0869Z" fill="url(#paint1_radial_219_8130)"/>
<path d="M169.313 451.836C163.326 451.124 162.64 450.647 162.64 447.201C162.64 445.088 161.792 442.333 160.755 441.079C159.337 439.364 159.263 437.764 160.455 434.626C162.918 428.151 160.614 415.144 155.031 403.997C149.868 393.69 148.994 388.883 151.586 385.053C152.819 383.231 154.932 384.767 163.253 393.533C174.963 405.869 175.99 408.958 174.467 427.253C173.627 437.331 173.852 439.631 175.837 441.279C178.234 443.269 179.155 451.175 177.099 452.119C176.487 452.4 172.984 452.273 169.313 451.836Z" fill="white"/>
<defs>
<linearGradient id="paint0_linear_219_8130" x1="290.805" y1="310.817" x2="297.585" y2="413.269" gradientUnits="userSpaceOnUse">
<stop stop-color="white"/>
<stop offset="1" stop-color="white" stop-opacity="0"/>
</linearGradient>
<radialGradient id="paint1_radial_219_8130" cx="0" cy="0" r="1" gradientUnits="userSpaceOnUse" gradientTransform="translate(233.081 255.67) rotate(0.458776) scale(237.877 333.799)">
<stop stop-color="white"/>
<stop offset="1" stop-color="white" stop-opacity="0"/>
</radialGradient>
</defs>
</svg>
