<svg width="512" height="512" viewBox="0 0 512 512" fill="none" xmlns="http://www.w3.org/2000/svg">
<path d="M279.735 417.865L275.447 394.039L272.144 382.525C270.327 376.193 268.333 369.334 267.714 367.283C266.645 363.743 266.027 363.553 255.578 363.553H244.569L240.199 378.843L235.829 394.133L231.698 417.865L233.763 495.868H225.546L217.194 417.865C209.353 412.253 201.949 406.278 201.948 394.133V385.994V377.855L212.644 377.417C222.596 377.009 223.415 376.719 224.437 373.249C225.042 371.198 228.373 353.329 231.841 333.541L238.147 297.561H255.649H273.151L279.456 333.541C282.924 353.329 286.256 371.198 286.86 373.249C287.88 376.712 288.711 377.01 298.493 377.414C308.688 377.835 309.046 377.979 309.58 381.889C309.883 384.111 309.787 387.942 309.367 390.404C309.105 399.663 310.763 408.968 294.9 417.865L281.913 495.868H275.244L279.735 417.865ZM199.976 346.026C199.486 341.719 196.001 304.968 192.231 264.357C188.461 223.747 184.143 177.43 182.635 161.432C180.158 135.155 180.116 132.092 182.202 129.734C185.384 126.136 186.542 126.45 187.718 131.226C189.431 138.186 196.108 148.337 205.265 157.903L214.024 167.054L209.151 176.935L204.279 186.816L208.399 190.905L212.519 194.995L220.139 187.037L227.759 179.08L237.284 180.877C246.074 182.535 246.974 183.07 248.956 187.813C250.856 192.362 251.657 192.897 255.939 192.481C259.898 192.097 261.014 191.174 262.091 187.394C263.31 183.116 264.127 182.643 273.196 180.972L282.985 179.168L290.955 187.039L298.924 194.91L302.95 190.884L306.975 186.859L301.961 176.494L296.947 166.13L306 156.25C311.619 150.118 316.643 142.72 319.245 136.747C321.551 131.454 324.257 127.123 325.259 127.123C331.919 127.123 331.426 135.022 312.29 334.839L310.468 353.858H306.339C301.561 353.858 303.217 360.889 291.983 292.912L284.747 249.12L272.808 250.331C257.669 251.868 253.204 251.875 238.378 250.386L226.328 249.175L217.633 301.517L208.938 353.858H204.903C201.142 353.858 200.807 353.324 199.976 346.026ZM61.463 270.141C50.4299 268.732 36.6283 264.063 31.9974 260.171C30.3442 258.782 25.5564 249.925 21.358 240.491C9.93667 214.824 10.4297 217.025 15.1237 212.659C21.1201 207.082 33.5824 201.191 52.0953 195.183C73.3199 188.295 162.635 163.057 167.544 162.56L171.325 162.178L173.955 186.045C175.915 203.824 176.173 210.856 174.97 213.616C174.081 215.653 172.736 223.372 171.981 230.77C170.869 241.669 169.832 245.326 166.514 250.054C160.113 259.174 154.692 261.081 121.895 265.747C85.3129 270.953 74.172 271.763 61.463 270.141ZM114.625 254.55C125.324 253.257 135.556 251.249 137.364 250.086C139.172 248.923 142.343 245.085 144.41 241.557C148.069 235.314 158.653 209.006 159.175 204.858C159.319 203.719 154.575 198.517 148.633 193.297C138.272 184.195 137.509 183.808 129.987 183.831C125.471 183.843 108.538 187.312 90.073 192.002C48.9378 202.452 49.5056 201.899 57.0356 224.175C62.1717 239.37 66.7622 248.641 71.4918 253.37C74.506 256.384 76.4903 256.899 85.0971 256.899C90.6391 256.899 103.927 255.842 114.625 254.55ZM427.191 270.833C410.191 268.94 365.856 262.484 360.812 261.166C353.333 259.212 345.853 253.637 342.806 247.745C341.52 245.257 339.843 237.195 339.081 229.829C338.319 222.464 337.002 215.14 336.154 213.556C335.063 211.518 335.346 203.572 337.118 186.426C338.496 173.09 339.811 161.947 340.04 161.666C340.571 161.011 437.548 188.363 459.262 195.292C477.811 201.211 490.732 207.533 496.249 213.388L500 217.37L490.719 238.253C482.225 257.364 480.931 259.418 475.471 262.453C464.9 268.331 441.383 272.413 427.191 270.833ZM439.817 253.358C444.707 248.469 449.982 237.58 454.678 222.682C458.069 211.923 458.385 209.467 456.856 205.775C455.872 203.4 453.462 200.846 451.5 200.1C442 196.488 386.893 183.807 380.696 183.807C374.445 183.807 372.664 184.629 364.991 191.052C350.539 203.151 350.554 203.125 353.832 210.817C355.368 214.421 357.804 221.062 359.245 225.574C362.917 237.069 370.324 249.019 374.884 250.805C378.163 252.089 388.045 253.66 407.053 255.92C409.515 256.212 417.097 256.553 423.903 256.675C435.096 256.878 436.615 256.561 439.817 253.358ZM227.672 159.761C213.563 155.688 193.001 124.246 190.005 102.166C188.328 89.7985 190.181 66.6891 193.361 60.3239C194.476 58.0937 201.579 47.7379 209.147 37.3108C221.435 20.3805 223.501 18.2264 228.463 17.1732C236.161 15.5394 279.499 15.923 283.672 17.6618C285.547 18.4436 293.444 27.7856 301.219 38.422C318.837 62.5211 320.313 66.8357 319.499 91.8457C318.964 108.273 318.457 111.017 314.082 121.157C303.962 144.61 289.658 159.233 275.156 160.95C266.197 162.012 265.275 160.118 272.559 155.616C279.014 151.626 291.858 138.019 295.117 131.717C298.849 124.499 299.864 111.652 297.042 107.345C294.996 104.222 295.013 103.437 297.206 99.4647C298.914 96.3727 299.62 91.482 299.567 83.1192C299.504 73.2228 298.817 69.8813 295.541 63.5435C290.507 53.8061 279.901 44.4532 270.263 41.2519C260.219 37.9159 242.378 38.8815 233.952 43.217C227.106 46.7398 216.888 57.218 213.037 64.6637C209.167 72.1488 208.487 87.7852 211.622 97.2245C213.519 102.935 213.768 105.459 212.554 106.672C209.974 109.252 210.668 122.753 213.72 129.361C217.63 137.827 224.756 146.223 233.735 152.944C237.994 156.131 241.701 159.345 241.975 160.085C242.606 161.793 234.039 161.599 227.672 159.761ZM246.184 110.031C238.798 107.397 233.575 102.526 230.126 95.0525C226.63 87.477 226.63 80.253 230.126 72.6775C240.52 50.1571 270.777 50.1571 281.171 72.6775C282.686 75.9592 283.925 80.9935 283.925 83.865C283.925 95.4313 274.67 107.529 263.434 110.649C256.27 112.639 253.189 112.528 246.184 110.031Z" fill="url(#paint0_linear_219_8148)"/>
<defs>
<linearGradient id="paint0_linear_219_8148" x1="255.729" y1="315.933" x2="254.879" y2="466.258" gradientUnits="userSpaceOnUse">
<stop stop-color="white"/>
<stop offset="1" stop-color="white" stop-opacity="0"/>
</linearGradient>
</defs>
</svg>
