<svg width="512" height="512" viewBox="0 0 512 512" fill="none" xmlns="http://www.w3.org/2000/svg">
<path d="M411.154 262.483L415.169 249.083L404.105 237.415C366.25 197.496 363.931 195.958 355.731 195.958H348.088L395.283 147.649L500 251.579V350.569L411.154 262.483Z" fill="white" fill-opacity="0.501961"/>
<path d="M395.283 122.559L318.817 195.958H292.272V121.061L395.283 18.04L500 122.671V223.104L395.283 122.559Z" fill="white" fill-opacity="0.501961"/>
<path d="M52.8788 230.813C51.1268 230.813 49.9603 231.398 48.2083 232.566L20.1753 253.006C18.4233 254.758 16.6709 257.095 16.6709 259.431V290.966H32.4406L41.1995 311.99L33.0246 333.013H16.6709V344.694C16.6709 347.03 18.4233 349.365 20.7593 351.117L49.3764 372.141C50.5444 373.309 52.295 373.893 54.047 373.893H89.6708V358.709H85.5843L87.3346 355.205H89.6708V311.99L101.936 290.966H125.879L144.931 253.123L146.156 250.67H30.1043L34.7749 245.997H148.489L156.068 230.813H52.8788ZM51.1286 258.262H73.319L84.4162 279.285L73.319 299.725H51.1286L40.0314 278.701L51.1286 258.262ZM26.6 261.181C30.6879 261.181 33.6067 264.102 33.6067 268.19C33.0227 271.694 30.1039 275.198 26.6 275.198C23.096 275.198 19.5912 272.278 19.5912 268.19C19.5912 264.686 22.512 261.181 26.6 261.181ZM114.199 261.181C118.287 261.181 121.208 264.102 121.208 268.19C121.208 271.694 118.287 275.198 114.199 275.198C110.111 275.198 107.191 271.694 107.191 268.19C107.191 264.686 110.111 261.181 114.199 261.181ZM62.2238 304.982C65.7278 304.982 69.2306 307.902 69.2306 311.99C69.2306 316.078 66.3118 318.997 62.2238 318.997C58.7198 318.997 55.2151 316.078 55.2151 311.99C55.2151 308.486 58.1358 304.982 62.2238 304.982ZM51.1286 324.838H73.319L84.4162 345.862L73.319 366.886H51.1286L40.0314 345.862L51.1286 324.838Z" fill="white"/>
<path d="M26.0159 311.99C26.0159 313.37 25.8347 314.737 25.4825 316.012C25.1303 317.288 24.6141 318.446 23.9634 319.423C23.3126 320.399 22.5401 321.173 21.6898 321.701C20.8396 322.23 19.9283 322.501 19.008 322.501C17.1493 322.501 15.3668 321.394 14.0526 319.423C12.7383 317.451 12 314.777 12 311.99C12 310.609 12.1813 309.242 12.5335 307.967C12.8856 306.691 13.4018 305.533 14.0526 304.556C14.7033 303.58 15.4759 302.806 16.3261 302.278C17.1764 301.749 18.0877 301.478 19.008 301.478C19.9283 301.478 20.8396 301.749 21.6898 302.278C22.5401 302.806 23.3126 303.58 23.9634 304.556C24.6141 305.533 25.1303 306.691 25.4825 307.967C25.8347 309.242 26.0159 310.609 26.0159 311.99Z" fill="white" fill-opacity="0.501961"/>
<path d="M69.8159 279.286C69.8159 280.666 69.5591 282.033 69.0602 283.309C68.5612 284.584 67.8299 285.743 66.9081 286.719C65.9862 287.695 64.8917 288.469 63.6872 288.998C62.4827 289.526 61.1917 289.798 59.8879 289.798C57.2549 289.798 54.7296 288.69 52.8678 286.719C51.0059 284.748 49.96 282.074 49.96 279.286C49.96 276.498 51.0059 273.824 52.8678 271.853C54.7296 269.881 57.2549 268.774 59.8879 268.774C61.1917 268.774 62.4827 269.046 63.6872 269.574C64.8917 270.102 65.9862 270.877 66.9081 271.853C67.8299 272.829 68.5612 273.988 69.0602 275.263C69.5591 276.539 69.8159 277.905 69.8159 279.286Z" fill="white" fill-opacity="0.501961"/>
<path d="M69.8159 345.862C69.8159 347.242 69.5591 348.609 69.0602 349.884C68.5612 351.16 67.8299 352.319 66.9081 353.295C65.9862 354.271 64.8917 355.045 63.6872 355.573C62.4827 356.102 61.1917 356.374 59.8879 356.374C57.2549 356.374 54.7296 355.266 52.8678 353.295C51.0059 351.323 49.96 348.65 49.96 345.862C49.96 343.074 51.0059 340.4 52.8678 338.428C54.7296 336.457 57.2549 335.35 59.8879 335.35C61.1917 335.35 62.4827 335.622 63.6872 336.15C64.8917 336.678 65.9862 337.452 66.9081 338.428C67.8299 339.405 68.5612 340.563 69.0602 341.839C69.5591 343.114 69.8159 344.481 69.8159 345.862Z" fill="white" fill-opacity="0.501961"/>
<path d="M143.983 199.278H165.007L173.767 207.454H152.159L143.983 199.278Z" fill="white"/>
<path d="M91.4238 208.622L104.856 194.022H63.9759C59.3039 194.022 55.2159 198.11 55.2159 202.782V214.462L51.1279 222.054L90.8398 222.054V208.622H91.4238Z" fill="white"/>
<path d="M95.5118 211.542L95.5117 222.054L175.519 222.054L172.599 217.382V211.542L95.5118 211.542Z" fill="white"/>
<path d="M132.304 194.022H110.112L97.8477 207.454H146.319L132.304 194.022ZM129.384 205.118C126.464 205.118 124.712 202.782 124.712 200.446C124.712 198.11 127.048 195.774 129.384 195.774C132.304 195.774 134.056 198.11 134.056 200.446C134.056 202.782 131.72 205.118 129.384 205.118Z" fill="white"/>
<path d="M183.112 172.414C179.024 172.414 176.104 172.998 173.768 173.582L203.551 212.71C205.887 212.126 208.223 211.542 208.223 211.542V198.694C208.223 198.694 216.399 199.278 216.399 194.022C215.815 186.43 191.871 172.414 183.112 172.414Z" fill="white"/>
<path d="M135.807 173.582C133.471 172.998 131.719 172.414 131.719 172.414C111.279 172.414 110.111 189.35 110.111 189.35H135.223C135.223 187.598 135.807 186.43 138.143 185.262C136.391 181.174 135.807 177.086 135.807 173.582Z" fill="white"/>
<path d="M169.679 174.166H141.063H140.479C140.479 177.67 141.063 180.59 142.231 184.094C145.151 183.51 149.239 183.51 155.079 183.51C169.095 183.51 178.439 195.19 178.439 195.19C178.439 195.19 190.703 219.134 193.623 216.798C195.375 215.63 197.127 214.462 199.463 213.294L169.679 174.166Z" fill="white"/>
<path d="M377.215 345.446C377.215 350.369 373.113 355.292 367.369 355.292C362.446 355.292 357.523 351.189 357.523 345.446C357.523 340.522 361.626 335.599 367.369 335.599C372.292 335.599 377.215 340.522 377.215 345.446ZM133.52 314.266H355.061L362.446 320.83H126.956L133.52 314.266ZM261.522 377.446L278.753 406.985L261.522 436.523H227.88L210.649 406.985L227.88 377.446H261.522ZM235.265 345.446C235.265 340.522 239.368 335.599 245.111 335.599C250.855 335.599 254.958 339.702 254.958 345.446C254.958 350.369 250.855 355.292 245.111 355.292C239.368 355.292 235.265 350.369 235.265 345.446ZM122.033 355.292C117.11 355.292 112.187 351.189 112.187 345.446C112.187 340.522 116.289 335.599 122.033 335.599C127.777 335.599 131.879 339.702 131.879 345.446C131.059 350.369 126.956 355.292 122.033 355.292ZM187.675 484.114L156.495 484.114L140.905 454.575L156.495 425.036H187.675L203.265 454.575L187.675 484.114ZM162.239 406.985C162.239 402.062 166.341 397.139 172.085 397.139C177.008 397.139 181.931 401.241 181.931 406.985C181.931 412.728 177.829 416.831 172.085 416.831C167.162 416.831 162.239 412.728 162.239 406.985ZM187.675 389.754H156.495L140.905 360.215L156.495 331.497H187.675L203.265 361.036L187.675 389.754ZM204.906 472.627L207.367 467.704H282.035L284.496 472.627H204.906ZM332.087 484.114H300.907L286.137 454.575L301.727 425.036L332.907 425.036L347.677 454.575L332.087 484.114ZM307.471 406.985C307.471 402.062 311.574 397.139 317.317 397.139C323.061 397.139 327.164 401.241 327.164 406.985C327.164 412.728 323.061 416.831 317.317 416.831C311.574 416.831 307.471 412.728 307.471 406.985ZM332.087 389.754H300.907L285.317 360.215L300.907 330.676H332.087L347.677 360.215L332.087 389.754ZM382.139 436.523H361.626L350.138 406.985L361.626 377.446H382.139V336.42C382.193 331.885 379.069 326.854 376.395 324.112L337.01 295.394C335.369 293.753 332.907 292.932 330.446 292.932H158.957C156.495 292.932 154.854 293.753 152.392 295.394L113.007 324.112C110.546 326.574 108.084 329.856 108.084 333.138L108.084 377.446L130.238 377.446L142.546 406.985L131.059 436.523H108.084V452.934C108.084 456.216 110.546 459.498 113.828 461.96L154.033 491.499C155.674 493.14 158.136 493.96 160.598 493.96H330.446C332.907 493.96 334.548 493.14 337.01 491.499L377.215 461.96C380.498 459.498 382.139 456.216 382.139 452.934V436.523Z" fill="white"/>
<path d="M259.06 406.985C259.06 410.902 257.504 414.658 254.734 417.428C251.965 420.198 248.208 421.754 244.291 421.754C240.374 421.754 236.617 420.198 233.847 417.428C231.078 414.658 229.521 410.902 229.521 406.985C229.521 405.045 229.904 403.125 230.646 401.333C231.388 399.541 232.476 397.913 233.847 396.541C235.219 395.17 236.847 394.082 238.639 393.34C240.431 392.597 242.351 392.215 244.291 392.215C246.23 392.215 248.151 392.597 249.943 393.34C251.735 394.082 253.363 395.17 254.734 396.541C256.106 397.913 257.194 399.541 257.936 401.333C258.678 403.125 259.06 405.045 259.06 406.985Z" fill="white" fill-opacity="0.501961"/>
<path d="M121.212 406.985C121.212 408.924 120.957 410.845 120.463 412.637C119.968 414.429 119.242 416.057 118.328 417.428C117.414 418.8 116.328 419.888 115.134 420.63C113.939 421.372 112.659 421.754 111.366 421.754C108.754 421.754 106.25 420.198 104.403 417.428C102.557 414.658 101.52 410.902 101.52 406.985C101.52 405.045 101.774 403.125 102.269 401.333C102.764 399.541 103.489 397.913 104.403 396.541C105.318 395.17 106.403 394.082 107.598 393.34C108.792 392.597 110.073 392.215 111.366 392.215C112.659 392.215 113.939 392.597 115.134 393.34C116.328 394.082 117.414 395.17 118.328 396.541C119.242 397.913 119.968 399.541 120.463 401.333C120.957 403.125 121.212 405.045 121.212 406.985Z" fill="white" fill-opacity="0.501961"/>
<path d="M388.702 406.985C388.702 410.902 387.665 414.658 385.818 417.428C383.972 420.198 381.467 421.754 378.856 421.754C376.245 421.754 373.74 420.198 371.894 417.428C370.047 414.658 369.01 410.902 369.01 406.985C369.01 405.045 369.264 403.125 369.759 401.333C370.254 399.541 370.979 397.913 371.894 396.541C372.808 395.17 373.893 394.082 375.088 393.34C376.283 392.597 377.563 392.215 378.856 392.215C380.149 392.215 381.429 392.597 382.624 393.34C383.819 394.082 384.904 395.17 385.818 396.541C386.733 397.913 387.458 399.541 387.953 401.333C388.448 403.125 388.702 405.045 388.702 406.985Z" fill="white" fill-opacity="0.501961"/>
<path d="M182.751 361.036C182.751 362.975 182.39 364.896 181.689 366.688C180.988 368.479 179.961 370.108 178.666 371.479C177.37 372.851 175.833 373.938 174.14 374.681C172.448 375.423 170.634 375.805 168.802 375.805C165.103 375.805 161.555 374.249 158.939 371.479C156.323 368.709 154.854 364.953 154.854 361.036C154.854 357.118 156.323 353.362 158.939 350.592C161.555 347.822 165.103 346.266 168.802 346.266C170.634 346.266 172.448 346.648 174.14 347.39C175.833 348.133 177.37 349.221 178.666 350.592C179.961 351.963 180.988 353.592 181.689 355.384C182.39 357.175 182.751 359.096 182.751 361.036Z" fill="white" fill-opacity="0.501961"/>
<path d="M182.751 454.575C182.751 456.515 182.39 458.435 181.689 460.227C180.988 462.019 179.961 463.647 178.666 465.019C177.37 466.39 175.833 467.478 174.14 468.22C172.448 468.962 170.634 469.344 168.802 469.344C165.103 469.344 161.555 467.788 158.939 465.019C156.323 462.249 154.854 458.492 154.854 454.575C154.854 450.658 156.323 446.901 158.939 444.132C161.555 441.362 165.103 439.806 168.802 439.806C170.634 439.806 172.448 440.188 174.14 440.93C175.833 441.672 177.37 442.76 178.666 444.132C179.961 445.503 180.988 447.131 181.689 448.923C182.39 450.715 182.751 452.636 182.751 454.575Z" fill="white" fill-opacity="0.501961"/>
<path d="M334.548 361.036C334.548 364.953 333.079 368.709 330.463 371.479C327.847 374.249 324.299 375.805 320.599 375.805C316.9 375.805 313.352 374.249 310.736 371.479C308.12 368.709 306.65 364.953 306.65 361.036C306.65 357.118 308.12 353.362 310.736 350.592C313.352 347.822 316.9 346.266 320.599 346.266C324.299 346.266 327.847 347.822 330.463 350.592C333.079 353.362 334.548 357.118 334.548 361.036Z" fill="white" fill-opacity="0.501961"/>
<path d="M334.548 454.575C334.548 458.492 333.079 462.249 330.463 465.019C327.847 467.788 324.299 469.344 320.599 469.344C316.9 469.344 313.352 467.788 310.736 465.019C308.12 462.249 306.65 458.492 306.65 454.575C306.65 450.658 308.12 446.901 310.736 444.132C313.352 441.362 316.9 439.806 320.599 439.806C324.299 439.806 327.847 441.362 330.463 444.132C333.079 446.901 334.548 450.658 334.548 454.575Z" fill="white" fill-opacity="0.501961"/>
<path d="M286.957 248.624H316.496L328.804 260.111H298.444L286.957 248.624Z" fill="white"/>
<path d="M213.11 261.752L231.982 241.239H174.546C167.981 241.239 162.238 246.983 162.238 253.547V269.958L156.494 280.624L212.29 280.624V261.752H213.11Z" fill="white"/>
<path d="M218.855 265.855L218.854 280.624L331.266 280.624L327.163 274.06V265.855L218.855 265.855Z" fill="white"/>
<path d="M270.548 241.239H239.368L222.137 260.111H290.24L270.548 241.239ZM266.445 256.829C262.342 256.829 259.881 253.547 259.881 250.265C259.881 246.983 263.163 243.701 266.445 243.701C270.548 243.701 273.009 246.983 273.009 250.265C273.009 253.547 269.727 256.829 266.445 256.829Z" fill="white"/>
<path d="M341.933 210.88C336.189 210.88 332.087 211.7 328.805 212.521L370.651 267.496C373.933 266.675 377.215 265.855 377.215 265.855V247.803C377.215 247.803 388.703 248.624 388.703 241.239C387.882 230.572 354.241 210.88 341.933 210.88Z" fill="white"/>
<path d="M275.47 212.521C272.188 211.7 269.727 210.88 269.727 210.88C241.008 210.88 239.367 234.675 239.367 234.675H274.65C274.65 232.213 275.47 230.572 278.752 228.931C276.291 223.188 275.47 217.444 275.47 212.521Z" fill="white"/>
<path d="M323.06 213.341H282.855H282.034C282.034 218.264 282.855 222.367 284.496 227.29C288.598 226.47 294.342 226.47 302.547 226.47C322.24 226.47 335.368 242.88 335.368 242.88C335.368 242.88 352.599 276.522 356.702 273.239C359.163 271.598 361.625 269.957 364.907 268.316L323.06 213.341Z" fill="white"/>
</svg>
