<svg width="512" height="512" viewBox="0 0 512 512" fill="none" xmlns="http://www.w3.org/2000/svg">
<path d="M313.78 453.98C316.919 448.809 355.366 397.354 355.78 397.768C347.803 415.571 340.734 428.675 331.194 447.357C327.804 448.456 310.879 458.869 313.78 453.98ZM428.635 387.864C437.372 402.593 444.996 426.713 455.78 424.193L428.635 387.864ZM369.512 373.119C360.871 372.352 324.596 392.589 303.986 401.91C321.74 388.96 363.604 363.031 356.945 358.667C354.36 353.965 306.746 355.487 281.254 354.962C307.048 350.404 335.132 350.761 357.81 332.685C368.355 323.759 339.188 277.583 332.883 266.792C340.547 275.625 361.598 302.517 368.936 297.42C373.569 292.805 369.393 266.558 368.816 247.311C370.683 263.163 386.589 306.92 399.01 306.377C421.06 304.238 443.562 278.897 465.441 262.918C453.101 279.418 446.552 296.054 439.79 312.686C458.052 311.803 472.088 306.427 489.055 302.922C477.927 309.049 447.033 328.616 446.627 333.312C447.331 337.727 478.755 338.807 498.21 340.907C484.141 341.709 434.807 343.13 434.002 349.865C432.194 356.586 463.034 373.082 480.889 386.506C458.136 375.949 434.082 366.009 412.74 364.882C411.358 379.082 412.379 393.562 414.177 408.122C406.888 397.85 399.964 385.609 391.486 378.77C386.565 388.881 382.384 399.635 378.362 409.903C377.469 399.958 374.715 374.224 369.512 373.119ZM258.875 388.398C259.566 387.707 314.153 371.526 315.416 371.638C317.905 371.858 276.263 391.783 273.443 391.721C268.575 391.103 262.506 390.721 258.875 388.398ZM87.6777 312.616L297.742 307.868L115.784 150.371L113.03 136.357L125.542 135.656L252.873 156.244C284.804 161.688 283.813 165.711 252.393 163.147L142.853 154.738C141.794 155.091 308.031 285.904 322.519 296.191C326.179 298.789 336.761 316.468 336.761 320.468C336.761 323.268 323.195 326.969 312.15 327.488L87.6777 312.616ZM499.842 317.742C501.823 321.464 484.659 323.533 479.197 323.997C486.048 322.093 498.105 316.178 499.842 317.742ZM318.261 281.022C309.979 273.661 301.935 264.059 303.881 257.832C304.23 257.482 318.875 274.869 329.564 288.322C334.141 294.083 329.885 291.334 318.261 281.022ZM402.562 286.005L410.822 233.039L416.41 247.563L402.562 286.005ZM308.789 183.468C308.408 189.236 309.171 197.455 306.038 201.803C302.795 196.5 306.488 189.073 308.789 183.468ZM307.459 177.356C299.401 180.722 294.269 185.344 287.091 190.777C289.945 185.72 292.8 180.663 295.654 175.605C290.065 176.599 284.488 177.669 278.946 178.896C284.531 174.759 292.693 170.461 294.491 165.142C295.425 158.722 285.777 151.107 273.927 141.109C280.46 143.133 291.174 147.801 293.526 145.503C295.762 143.793 289.562 134.403 287.024 128.853L301.285 141.058L303.093 126.715C303.658 130.788 306.862 145.281 309.67 145.195C314.507 145.307 316.281 133.474 319.466 126.739C318.921 135.153 318.291 145.358 317.746 153.772L333.407 149.914L324.177 161.58L337.853 162.753C333.948 164.618 325.799 167.072 325.115 170.714C325.003 174.287 334.782 183.644 340.282 191.296C334.193 186.761 324.903 176.533 322.015 177.356C318.36 179.035 322.915 193.268 323.365 201.225C320.649 195.536 314.242 174.494 307.459 177.356ZM50.7134 171.555C48.8239 185.638 59.0918 169.72 63.6288 146.119C56.173 167.742 54.936 160.474 50.7134 171.555ZM80.5544 175.373C80.8808 162.882 78.9898 140.842 72.0571 133.601C65.5966 128.896 41.161 142.478 22.6478 152.813C31.2376 144.81 48.8785 130.658 46.578 125.031C45.7126 121.076 29.8221 123.291 17.1719 124.917C27.7651 120.501 46.0878 116.283 45.2003 111.608C44.8008 107.49 28.7121 104.385 18.7979 101.418C30.4514 101.977 53.691 107.243 56.1722 104.543C59.6551 101.824 40.6861 85.2355 31.3628 75.2845C39.72 80.1871 65.1098 101.265 69.9236 98.6476C71.5132 98.0376 73.9783 82.2795 74.7387 73.5529L85.1986 92.3306C90.1912 87.3392 94.5862 82.0489 95.531 75.0336L95.7017 100.299L140.79 90.1787C131.182 93.9002 108.991 100.932 102.495 108.726C99.6309 113.131 130.134 116.63 142.778 121.337C125.184 117.998 99.5925 117.94 95.2602 124.361C89.8635 131.391 99.0627 151.85 103.651 164.894C99.6659 156.381 91.6835 141.307 87.4709 142.088C82.0154 143.477 82.5565 164.138 80.5544 175.373ZM340.45 132.743C343.142 134.767 332.789 139.911 327.089 143.786C330.497 141.28 337.688 130.705 340.45 132.743ZM276.159 132.538C271.587 129.498 270.753 128.474 272.85 128.469C274.391 128.466 277.408 130.297 279.555 132.538C284.446 137.643 283.84 137.643 276.159 132.538ZM12.0752 112.294C12.0752 112.294 19.7983 112.335 24.2303 113.212C20.4057 113.623 11.07 114.621 12.0752 112.294ZM60.2202 77.8811C59.2672 72.8823 48.054 53.3629 54.011 57.2236C58.9214 63.1876 61.2386 70.0492 60.9568 77.9295C60.5516 78.3346 60.2202 78.3153 60.2202 77.8811Z" fill="white"/>
</svg>
