<svg width="512" height="512" viewBox="0 0 512 512" fill="none" xmlns="http://www.w3.org/2000/svg">
<path d="M213.099 466.995C143.721 463.057 85.8538 450.829 50.796 432.699C29.7729 421.828 22.8606 412.921 18.5449 391.143C15.595 376.257 10.9154 337.491 12.2266 338.802C12.6244 339.2 15.7047 346.658 19.0718 355.375C22.4388 364.092 25.8859 371.224 26.7319 371.224C27.6335 371.224 27.8651 369.85 27.2916 367.904C24.7157 359.165 24.6157 284.712 27.1834 287.381C27.4368 287.644 29.0398 296.102 30.7458 306.177C37.2897 344.821 44.9936 359.848 53.7651 351.076C59.6023 345.239 60.4528 333.919 56.0192 321.073C54.4816 316.619 53.4736 312.724 53.7793 312.418C54.0849 312.113 57.9049 315.433 62.2681 319.796C69.3281 326.856 72.7417 332.948 75.9954 344.296C76.8883 347.411 82.3183 346.343 84.7925 342.567C86.7844 339.527 86.9033 337.333 85.588 327.876C84.7376 321.762 84.5583 315.364 85.1896 313.657C86.0943 311.211 88.4711 315.907 96.4162 335.836C102.017 349.884 105.921 361.644 105.204 362.304C104.494 362.956 101.257 364.325 98.0113 365.345C82.2229 370.308 67.8271 380.129 63.2817 389.039C60.1314 395.214 59.512 403.72 61.8892 408.162C63.8099 411.75 75.1596 418.439 79.3286 418.439C82.2866 418.439 82.5188 417.707 82.5188 408.379C82.5188 398.231 85.9939 383.028 88.3136 383.028C89.0034 383.028 89.9761 385.205 90.4752 387.865C93.2441 402.625 126.894 438.683 134.997 435.574C140.457 433.478 133.017 415.903 120.09 400.365C115.533 394.887 112.132 390.405 112.532 390.405C112.932 390.405 116.136 391.643 119.652 393.156C129.59 397.431 140.85 407.197 151.575 420.842L161.389 433.328L163.87 423.301C165.234 417.787 167.962 408.987 169.932 403.745L173.513 394.216L174.49 401.344C176.379 415.122 193.945 443.522 200.579 443.522C203.036 443.522 203.513 442.512 203.541 437.252C203.556 433.803 204.886 428.087 206.492 424.549C208.097 421.011 209.41 417.892 209.41 417.617C209.41 417.342 205.392 415.989 200.48 414.611C189.268 411.465 179.9 404.934 179.9 400.263C179.9 392.22 194.549 384.48 216.516 380.914C238.942 377.275 246.297 376.838 246.297 379.144C246.297 380.623 242.319 381.686 231.911 382.988C212.878 385.37 199.962 389.671 195.338 395.166C192.596 398.425 192.058 400.113 193.125 402.107C194.871 405.369 199.69 408.542 206.459 410.887C211.481 412.627 211.754 412.522 216.385 407.074L221.147 401.471L219.579 407.208C217.629 414.345 218.536 415.028 231.495 416.177C236.796 416.647 243.597 417.282 246.608 417.587C249.665 417.898 252.635 417.394 253.331 416.447C254.018 415.514 257.13 408.18 260.248 400.15L265.918 385.549L268.575 390.559C270.036 393.315 273.014 400.383 275.192 406.267C277.371 412.15 279.606 416.964 280.16 416.964C281.785 416.964 298.447 413.915 301.184 413.117C303.047 412.574 303.806 410.413 304.135 404.715L304.579 397.045L307.937 403.333L311.296 409.622L315.64 407.376C322.577 403.788 323.664 400.247 319.388 395.166C314.773 389.681 301.244 385.141 282.912 382.926C268.061 381.132 267.675 381.016 269.06 378.774C270.788 375.978 306.449 381.201 318.867 386.068C328.209 389.73 334.826 395.588 334.826 400.197C334.826 403.973 328.311 409.503 319.65 413.076L314.065 415.381L317.615 422.443C319.567 426.327 321.659 431.165 322.263 433.194C323.685 437.972 328.796 443.524 331.763 443.517C337.464 443.506 343.7 437.504 348.961 426.971C354.725 415.434 360.729 406.635 362.838 406.635C363.555 406.635 362.812 410.573 361.187 415.386C359.561 420.2 358.443 426.341 358.701 429.035L359.171 433.932L368.299 433.924C375.252 433.917 378.413 433.177 381.566 430.823C386.805 426.912 389.025 419.777 386.635 414.531C385.671 412.415 385.089 410.476 385.342 410.223C385.595 409.97 389.889 411.788 394.884 414.264C406.909 420.224 420.949 421.61 426.196 417.356C429.085 415.014 429.885 412.778 430.351 405.751C430.692 400.615 430.04 394.175 428.761 390.039C427.569 386.185 427.097 383.031 427.712 383.031C428.883 383.031 441.078 396.158 446.35 403.094C450.574 408.653 454.34 407.103 454.34 399.806C454.34 391.834 448.364 382.772 439.013 376.566C431.395 371.509 410.846 362.374 407.09 362.374C406.124 362.374 405.661 361.544 406.063 360.53C419.686 326.074 421.191 322.888 426.445 317.372C432.556 310.956 437.245 301.572 438.979 292.289C440.076 286.411 440.085 286.404 441.227 290.617C441.858 292.944 444.144 307.219 446.307 322.34C450.282 350.118 451.766 355.85 454.536 354.137C459.925 350.807 470.746 308.94 474.334 277.534C475.223 269.76 475.521 269.13 476.783 272.37C481.014 283.234 485.699 320.245 487.661 358.316C488.194 368.663 489.127 377.129 489.734 377.129C491.383 377.129 495.483 361.39 497.882 345.851L500 332.127L499.246 351.308C497.761 389.076 492.394 410.367 481.754 420.694C448.597 452.878 328.62 473.554 213.099 466.995ZM234.1 437.291C240.241 434.224 249.248 425.745 249.248 423.032C249.248 422.369 242.964 421.384 235.284 420.844C227.603 420.304 220.3 419.471 219.053 418.993C217.17 418.27 216.788 419.627 216.788 427.029C216.788 440.823 221.47 443.598 234.1 437.291ZM300.229 433.924C301.151 430.682 302.337 425.807 302.865 423.091L303.825 418.151L294.611 419.139C280.393 420.664 280.175 420.782 281.98 425.96C284.107 432.062 292.744 440.936 295.954 440.318C297.534 440.013 299.209 437.508 300.229 433.924ZM240.379 347.358C231.17 324.372 222.725 303.347 221.611 300.636C218.563 293.213 221.249 295.894 233.899 312.902C240.221 321.401 245.614 328.135 245.883 327.866C246.495 327.253 256.625 64.7471 256.625 49.4863C256.625 46.0155 256.916 43.4664 257.271 43.8216C257.626 44.1768 259.29 81.3035 260.968 126.325C266.77 282.03 268.598 327.62 269.057 328.079C269.311 328.333 275.004 321.189 281.709 312.205C288.414 303.22 294.097 296.067 294.339 296.309C294.803 296.773 260.647 382.852 258.42 386.832C257.478 388.515 252.526 377.681 240.379 347.358ZM110.656 340.258C103.149 321.459 97.2787 305.806 97.6104 305.474C97.9421 305.142 102.106 310.163 106.864 316.631C111.622 323.099 115.685 328.221 115.894 328.013C116.102 327.804 118 280.175 120.112 222.169C122.223 164.163 124.149 116.04 124.39 115.228C124.939 113.382 126.025 139.205 129.789 243.595C131.427 289.04 132.925 326.747 133.116 327.389C133.307 328.031 137.664 322.886 142.797 315.954C147.931 309.023 152.394 303.352 152.715 303.352C153.036 303.352 152.042 306.506 150.506 310.36C132.825 354.727 126.328 370.8 125.403 372.463C124.725 373.684 119.087 361.372 110.656 340.258ZM373.59 338.467C366.102 319.659 360.172 304.073 360.412 303.833C360.652 303.592 364.749 308.697 369.516 315.178C374.282 321.658 378.623 326.96 379.161 326.96C379.699 326.96 380.61 312.85 381.184 295.606C383.846 215.656 387.874 119.97 388.607 119.237C389.054 118.79 389.427 123.018 389.437 128.631C389.471 146.26 396.652 325.831 397.353 326.533C397.72 326.9 401.822 322.149 406.469 315.975C411.115 309.802 415.145 304.979 415.424 305.258C416.2 306.033 389.233 372.702 388.152 372.682C387.632 372.674 381.079 357.275 373.59 338.467ZM145.057 354.057C145.615 352.544 148.494 345.137 151.454 337.599C156.8 323.985 156.866 323.9 161.208 324.854C165.542 325.806 165.57 325.771 164.335 320.854C161.117 308.036 165.18 292.878 178.109 269.468C184.887 257.196 185.074 257.006 185.421 262.038C186.832 282.493 198.312 306.365 210.3 313.775C214.02 316.074 216.16 319.524 220.334 329.953C223.253 337.245 225.64 343.87 225.64 344.675C225.64 345.481 221.823 346.146 217.156 346.153C202.254 346.176 159.73 352.112 146.848 355.97C144.595 356.644 144.242 356.268 145.057 354.057ZM347.368 351.974C331.801 348.84 308.564 346.141 297.143 346.141C292.712 346.141 289.086 345.605 289.086 344.95C289.086 344.295 291.321 338.218 294.053 331.446L299.021 319.132L306.797 318.988C316.869 318.802 319.016 316.017 323.712 297.055C327.733 280.815 330.504 275.288 336.36 271.829C342.799 268.025 343.318 268.749 341.246 278.638C338.358 292.422 338.765 305.823 342.31 313.639C345.807 321.348 347.691 322.859 351.36 320.895C353.494 319.753 354.308 320.146 355.386 322.843C356.129 324.701 359.363 332.695 362.571 340.608L368.405 354.994L364.526 354.821C362.392 354.726 354.671 353.445 347.368 351.974ZM234.521 300.033C232.912 296.729 232.876 294.122 234.331 285.983C236.899 271.609 238.894 269.477 238.788 281.22C238.74 286.495 238.205 293.798 237.599 297.45L236.498 304.09L234.521 300.033ZM276.852 292.028C276.374 285.715 276.209 280.326 276.483 280.051C276.758 279.777 277.785 284.305 278.765 290.115C279.9 296.847 280.034 301.19 279.133 302.091C278.232 302.992 277.405 299.343 276.852 292.028Z" fill="white"/>
</svg>
