<svg width="512" height="512" viewBox="0 0 512 512" fill="none" xmlns="http://www.w3.org/2000/svg">
<path d="M208.43 311.659L238.12 350.477L253.144 45.8203L266.682 350.477L297.366 311.659L253.144 419.752L208.43 311.659ZM74.1338 260.066L96.5251 287.473L107.737 85.8094L119.168 287.473L142.824 261.038L107.737 341.777L74.1338 260.066ZM368.905 260.066L391.291 287.473L402.428 85.8094L414.064 287.473L437.63 260.066L402.428 341.757L368.905 260.066Z" fill="white"/>
<path d="M142.892 317.619C141.574 317.5 141.36 322.587 142.892 322.805C170.605 326.604 188.283 334.665 188.328 343.522C188.329 356.209 152.703 366.495 108.756 366.495C64.8099 366.495 29.1842 356.209 29.1845 343.522C29.2169 335.074 45.3078 327.313 71.0825 323.313C72.8578 323.18 72.9081 317.778 71.0825 317.938C35.2939 322.274 12.0066 332.385 12 343.59C11.9985 358.958 55.149 371.416 108.379 371.416C161.608 371.416 204.759 358.958 204.757 343.59C204.746 332.071 180.148 321.744 142.892 317.619Z" fill="white"/>
<path d="M307.29 377.482C305.117 377.287 304.765 385.673 307.29 386.032C352.981 392.297 382.128 405.587 382.203 420.19C382.204 441.108 323.466 458.066 251.01 458.065C178.553 458.066 119.816 441.108 119.816 420.19C119.87 406.261 146.399 393.465 188.895 386.871C191.822 386.65 191.905 377.745 188.895 378.008C129.889 385.158 91.4943 401.828 91.4834 420.302C91.4809 445.639 162.625 466.179 250.387 466.179C338.149 466.179 409.293 445.639 409.29 420.302C409.271 401.309 368.715 384.283 307.29 377.482Z" fill="white"/>
<path d="M438.134 317.619C436.816 317.5 436.603 322.587 438.134 322.805C465.847 326.604 483.526 334.665 483.571 343.522C483.571 356.209 447.946 366.495 403.999 366.495C360.053 366.495 324.427 356.209 324.427 343.522C324.461 335.074 340.55 327.313 366.325 323.313C368.101 323.18 368.151 317.778 366.325 317.938C330.537 322.274 307.249 332.385 307.243 343.59C307.241 358.958 350.392 371.416 403.621 371.416C456.851 371.416 500.001 358.958 500 343.59C499.989 332.071 475.39 321.744 438.134 317.619Z" fill="white"/>
</svg>
