<svg width="512" height="512" viewBox="0 0 512 512" fill="none" xmlns="http://www.w3.org/2000/svg">
<path d="M242.61 250.3V28.9277H235.449V250.3L12 250.3V257.459H235.449M235.449 276.902V483.072H242.61V276.902M321.197 257.459H466.144V250.3H324.772" fill="white" fill-opacity="0.987988"/>
<path d="M325.001 107.937L339.193 82.5173C344.983 72.5738 360.974 80.6159 355.687 90.9223L341.068 117.135L325.001 107.937Z" fill="white"/>
<path d="M239.904 75.8252C192.237 75.8252 146.523 94.7608 112.817 128.466C79.1118 162.172 60.1763 207.886 60.1763 255.553C60.1763 303.22 79.1118 348.934 112.817 382.64C146.523 416.345 192.237 435.281 239.904 435.281C287.571 435.281 333.285 416.345 366.991 382.64C400.696 348.934 419.632 303.22 419.632 255.553C419.585 230.405 414.262 205.546 404.005 182.585L387.958 194.526C395.745 213.682 399.765 234.159 399.798 254.837C399.797 297.497 382.851 338.41 352.686 368.574C322.52 398.739 281.608 415.685 238.948 415.685C196.289 415.685 155.376 398.738 125.212 368.574C95.047 338.409 78.1005 297.497 78.1002 254.837C78.0999 212.178 95.0462 171.265 125.211 141.1C155.376 110.935 196.288 93.9879 238.948 93.9876C258.402 94.0518 277.684 97.6447 295.856 104.592C297.927 95.8318 298.479 93.499 300.155 86.4196C280.824 79.471 260.445 75.8876 239.904 75.8252Z" fill="white" fill-opacity="0.951952"/>
<path d="M500 35.4321L319.142 189.426L336.423 204.56L469.92 110.258L500 35.4321ZM336.423 204.56L236.596 273.811L293.265 175.453C273.89 164.595 252.932 151.864 241.568 142.063C239.802 140.546 237.188 140.546 235.421 142.063C213.305 161.139 154.586 191.549 142.562 197.039C141.229 197.643 140.389 198.982 140.416 200.446C142.116 286.076 232.887 375.671 238.495 375.671C244.013 375.671 331.992 288.917 336.423 204.56ZM293.265 175.453L301.512 180.028L328.231 119.231L293.265 175.453ZM301.512 180.028L281.594 223.002L319.142 189.426C313.965 186.745 307.904 183.52 301.512 180.028Z" fill="white"/>
</svg>
