<svg width="512" height="512" viewBox="0 0 512 512" fill="none" xmlns="http://www.w3.org/2000/svg">
<path d="M260.43 138.154C259.291 138.154 258.153 138.549 257.235 139.336C234.241 159.117 173.192 190.649 160.692 196.342C159.306 196.968 158.432 198.358 158.459 199.877C160.227 288.671 254.599 381.578 260.43 381.578C266.26 381.578 360.644 288.657 362.399 199.863C362.433 198.352 361.559 196.976 360.18 196.35C347.707 190.671 286.626 159.124 263.625 139.336C262.707 138.549 261.568 138.154 260.43 138.154ZM252.828 188.275L283.115 191.047L265.918 239.562L289.119 245.199L245.438 337.217L257.813 263.086L231.397 257.463L252.828 188.275Z" fill="white"/>
<path d="M255.906 77.9873C121.629 77.9884 12.7773 203.253 12.7769 357.774C13.1967 363.819 14.0017 369.702 15.823 375.158C59.9539 431.933 196.75 432.937 256.353 434.013C318.33 433.737 505.979 424.315 499.037 357.774C499.036 203.252 390.183 77.9872 255.906 77.9873ZM254.717 94.6982C377.226 94.7322 478.63 204.3 486.368 344.998C446.305 319.895 390.22 308.47 347.226 303.587L345.554 315.447C416.747 324.713 459.236 344.581 459.338 366.433C459.338 397.57 368.541 422.811 256.537 422.811C144.532 422.811 53.735 397.57 53.7348 366.433C53.809 345.692 94.8454 326.636 160.576 316.822L161.857 304.335C119.912 309.29 63.5541 317.824 23.174 347.424C29.8392 205.817 131.483 94.8748 254.717 94.6982Z" fill="white" stroke="white" stroke-width="1.55343"/>
</svg>
