<svg width="512" height="512" viewBox="0 0 512 512" fill="none" xmlns="http://www.w3.org/2000/svg">
<path d="M57.4807 288.552L113.778 379.168L57.2051 389.316L113.031 410.768C88.1631 420.49 74.6278 432.523 74.614 444.92C74.615 475.34 154.352 500 252.714 500C351.076 500 430.814 475.34 430.815 444.92C430.695 432.706 417.453 420.852 393.171 411.22L454.795 389.316L397.812 379.787L454.795 288.552L385.013 351.47L353.388 413.631C385.39 421.667 403.698 433.124 403.761 445.153C403.762 468.597 335.804 487.603 251.974 487.603C168.144 487.603 100.187 468.597 100.187 445.153C100.207 432.078 121.771 419.735 158.639 411.695L127.26 351.47L57.4807 288.552Z" fill="white" fill-opacity="0.501961"/>
<path d="M256.347 12L156.519 212.082L216.958 151.114L231.891 314.035H281.394L296.359 151.114L355.116 212.082L256.347 12ZM234.75 343.574L238.884 416.699C199.432 419.235 171.197 429.789 171.15 442.016C171.152 456.325 209.411 467.924 256.605 467.925C303.801 467.925 342.06 456.325 342.062 442.016C342.058 429.662 313.283 419.027 273.321 416.61L277.879 343.574H234.75Z" fill="white"/>
<path d="M293.721 258.355L292.299 263.601C308.71 265.9 322.759 269.832 332.653 274.893C342.547 279.954 347.836 285.916 347.847 292.017C347.847 296.048 345.541 300.04 341.061 303.764C336.582 307.489 330.015 310.873 321.738 313.723C313.46 316.574 303.633 318.835 292.817 320.378C282.002 321.92 270.41 322.714 258.704 322.714C246.997 322.714 235.405 321.92 224.59 320.377C213.775 318.835 203.948 316.573 195.671 313.723C187.393 310.872 180.827 307.488 176.347 303.764C171.868 300.04 169.562 296.048 169.562 292.017C169.578 286.239 174.328 280.58 183.268 275.691C192.207 270.801 204.972 266.88 220.095 264.377L218.841 258.791C201.285 261.802 186.329 266.792 175.819 273.145C165.309 279.497 159.705 286.935 159.698 294.54C159.699 304.869 170.015 314.774 188.376 322.077C206.737 329.381 231.64 333.484 257.607 333.484C283.573 333.484 308.476 329.381 326.838 322.077C345.199 314.774 355.515 304.869 355.516 294.54C355.508 286.741 349.614 279.122 338.597 272.671C327.579 266.219 311.946 261.232 293.721 258.355Z" fill="white"/>
</svg>
