<svg width="512" height="512" viewBox="0 0 512 512" fill="none" xmlns="http://www.w3.org/2000/svg">
<path d="M173.217 226.289C168.853 224.184 168.126 216.641 171.979 213.443C173.369 212.29 174.456 208.69 174.456 205.241C174.456 201.314 175.581 198.076 177.572 196.274C179.286 194.723 183.064 187.16 185.967 179.467C189.562 169.941 193.703 162.63 198.95 156.546L206.654 147.611L213.654 154.434C220.558 161.163 220.611 161.302 217.562 164.645C215.862 166.509 213.274 170.405 211.81 173.302C210.346 176.199 205.477 183.421 200.989 189.35C193.572 199.149 192.725 201.184 191.689 211.696C190.777 220.952 189.932 223.457 187.456 224.243C185.755 224.782 184.363 225.917 184.363 226.764C184.363 228.809 177.868 228.532 173.217 226.289Z" fill="white"/>
<path d="M202.616 432.643C201.686 431.508 197.593 425.749 193.52 419.846C175.886 394.283 175.229 391.76 185.334 388.425C188.433 387.402 190.968 386.212 190.968 385.78C190.968 385.349 189.159 382.333 186.948 379.08C183.361 373.801 183.178 372.789 185.245 369.673C188.501 364.765 198.379 357.222 204.212 355.189C206.917 354.246 209.131 352.388 209.131 351.061C209.131 349.734 208.439 349.076 207.594 349.599C200.415 354.036 210.43 326.889 222.73 308.572C243.55 277.568 243.976 276.759 245.616 265.097C246.483 258.938 248.747 248.116 250.648 241.05C253.808 229.302 253.913 227.341 251.874 218.15C250.261 210.882 248.722 207.734 246.312 206.781C244.017 205.872 242.468 206.245 241.33 207.981C234.813 217.918 233.928 218.497 229.082 215.99C222.042 212.35 213.638 202.043 215.078 198.815C215.742 197.325 216.195 194.101 216.084 191.652C215.938 188.411 216.874 186.885 219.525 186.044C221.528 185.409 228.604 180.869 235.25 175.954C250.401 164.751 251.105 164.503 254.547 169.162L257.373 172.988L256.312 168.034C254.724 160.615 251.848 153.999 250.211 153.999C249.413 153.999 248.76 154.711 248.76 155.581C248.76 156.451 245.456 159.099 241.418 161.465C232.286 166.817 231.169 166.306 217.06 150.325C195.125 125.479 190.19 117.937 188.354 106.456C185.914 91.1983 194.852 80.9469 212.162 79.15C220.527 78.2815 231.367 74.9724 235.299 72.087C236.568 71.1556 226.311 59.8794 224.194 59.8793C220.843 59.8793 223.068 48.3754 228.387 38.2044C230.765 33.6559 233.193 27.5695 233.781 24.6793C234.75 19.9219 235.549 19.3334 242.219 18.4637C246.271 17.9358 251.518 16.5663 253.88 15.4214C257.63 13.6037 259.201 13.86 266.265 17.4419C270.714 19.6981 275.561 22.9249 277.035 24.6124C279.995 28.0009 282.701 47.1673 280.676 50.4059C279.974 51.5295 279.332 56.2411 279.251 60.8759L279.103 69.3032L288.982 65.2888C297.646 61.7686 299.366 61.5444 302.96 63.4666C312.073 68.3415 341.706 64.5282 343.707 58.223C344.837 54.6634 335.884 40.0647 332.571 40.0647C329.478 40.0647 321.414 31.4394 321.414 28.1314C321.414 26.4488 322.916 22.1295 324.75 18.5329C327.133 13.8623 329.138 11.9956 331.768 12C337.645 12.0125 345.979 18.0078 347.175 23.0884C347.769 25.614 352.509 33.6248 357.708 40.8903C369.979 58.0388 370.951 60.0305 370.951 68.0269C370.951 72.8755 370.267 74.7404 368.489 74.7404C367.135 74.7404 355.432 78.9325 342.482 84.0561C329.533 89.1799 315.594 94.2738 311.507 95.3759C302.583 97.7827 301.041 102.313 306.59 109.819C312.146 117.334 312.682 126.277 308.155 135.942L304.339 144.089L308.671 165.143C311.477 178.785 312.665 188.655 312.043 193.176C311.181 199.437 311.486 200.305 315.01 201.621C321.609 204.086 349.417 208.727 351.155 207.653C352.053 207.098 352.788 204.921 352.788 202.815C352.788 197.543 356.404 194.711 359.736 197.372C363.439 200.328 367.649 214.4 367.649 223.819C367.649 234.713 363.564 249.855 357.621 260.992C353.03 269.595 352.816 270.849 353.837 283.095C354.665 293.021 354.332 297.332 352.423 301.407C347.299 312.347 344.112 323.487 343.912 331.153C343.458 348.579 331.332 345.299 316.8 323.82C303.106 303.579 303.647 304.983 307.829 300.532C311.13 297.018 311.256 296.303 309.079 293.425C305.442 288.617 305.962 286.575 312.976 278.137C316.508 273.887 319.92 268.682 320.557 266.57C321.195 264.458 324.275 257.115 327.402 250.253C330.529 243.391 332.863 237.551 332.588 237.276C332.313 237.001 325.079 236.622 316.514 236.434L300.94 236.092L297.794 243.344C293.572 253.079 285.1 273.611 285.093 274.126C285.09 274.353 286.202 274.539 287.564 274.539C288.926 274.539 290.041 275.013 290.041 275.592C290.041 276.172 285.783 282.56 280.578 289.789C274.34 298.452 268.964 304.029 264.805 306.151C259.905 308.651 258.718 310.074 259.494 312.52C260.044 314.252 259.33 317.445 257.908 319.616C256.486 321.786 253.058 329.766 250.291 337.349C245.424 350.683 245.296 351.744 246.398 369.626C247.5 387.528 247.424 388.151 244.02 389.231C241.1 390.158 240.498 391.658 240.468 398.079C240.424 407.454 236.19 417.302 229.195 424.297C226.333 427.159 223.992 430.672 223.992 432.104C223.992 434.184 222.011 434.708 214.15 434.708C208.279 434.708 203.625 433.874 202.616 432.643Z" fill="white"/>
<path d="M211.608 456.868C165.806 453.578 151.157 452.155 134.826 449.41C91.754 442.172 76.3642 433.967 82.7386 421.64C85.7583 415.801 92.8568 412.412 112.518 407.424C127.485 403.628 162.111 398.695 163.568 400.153C163.959 400.544 164.738 402.72 165.299 404.988C166.304 409.05 166.047 409.166 148.509 412.583C129.067 416.37 113.36 422.272 113.36 425.791C113.36 432.013 134.015 438.661 167.359 443.171C199.567 447.527 282.161 449.31 317.062 446.403C344.479 444.12 372.348 439.225 385.221 434.431C402.37 428.046 403.287 424.982 389.584 419.855C365.942 411.009 342.11 407.542 288.75 405.185C271.238 404.411 256.444 403.311 255.873 402.741C255.302 402.17 256.184 400.212 257.833 398.39C260.508 395.434 262.908 395.078 280.15 395.078C317.449 395.078 373.207 400.917 399.847 407.614C426.154 414.227 435.541 421.697 429.373 431.11C423.173 440.573 390.754 449.055 342.88 453.74C317.608 456.213 231.17 458.273 211.608 456.868Z" fill="white"/>
<path d="M186.014 499.012C121.349 493.891 93.127 489.705 68.3071 481.552C39.1825 471.985 37.6428 458.368 64.5802 448.59C78.0023 443.718 80.0445 443.687 90.5336 448.199L98.8671 451.784L92.491 455.001C84.8787 458.841 80.3314 462.621 80.3468 465.098C80.3531 466.092 82.9059 468.641 86.02 470.761C124.488 496.956 337.231 501.272 410.034 477.335C427.245 471.676 434.079 466.397 430.225 461.738C428.956 460.204 424.386 457.311 420.068 455.308L412.218 451.667L421.889 448.141C427.208 446.201 432.969 444.636 434.693 444.662C439.108 444.73 459.371 453.149 463.38 456.582C467.856 460.414 467.678 467.912 463.007 472.286C451.071 483.463 405.482 493.029 342.88 497.492C308.663 499.931 209.73 500.89 186.014 499.012Z" fill="white" fill-opacity="0.501961"/>
</svg>
