<svg width="512" height="512" viewBox="0 0 512 512" fill="none" xmlns="http://www.w3.org/2000/svg">
<path d="M159.141 48.5098L129.172 60.111L128.365 97.8828L381.002 98.1074V60.111L351.662 48.6406L159.141 48.5098ZM223.565 102.998V181.771C223.443 188.063 223.49 187.981 228.566 188.201H283.28C288.174 188.245 288.317 188.255 288.422 181.771V102.998H223.565ZM223.127 192.412V213.244L230.038 220.777L233.797 233.123H275.432L280.125 220.777L288.422 213.244V192.412H223.127ZM197.154 263.162C188.751 263.162 181.939 270.157 181.939 278.787C181.94 283.554 184.059 288.06 187.695 291.023L178.291 315.445L172.369 316.602L157.463 354.994L178.352 363.189L191.078 324.111L187.471 318.816L195.705 294.324C196.187 294.377 196.67 294.405 197.154 294.41C205.556 294.41 212.367 287.415 212.367 278.787C212.368 270.158 205.557 263.163 197.154 263.162ZM197.072 270.92C200.806 270.92 203.832 273.946 203.832 277.68C203.832 281.413 200.806 284.44 197.072 284.439C193.339 284.44 190.312 281.413 190.312 277.68C190.312 273.946 193.339 270.92 197.072 270.92ZM241.846 276.238L237.797 288.812H271.678L269.156 276.238H241.846ZM271.678 294.359L237.797 294.402C233.689 294.441 233.679 294.455 233.605 301.516V358.666H276.916V301.512C276.845 294.369 276.847 294.364 271.678 294.359ZM282.172 326.535L281.807 341.205L321.355 346.096L315.443 331.072L282.172 326.535ZM228.457 327.822L195.791 331.773L190.465 346.096L228.717 341.205L228.457 327.822ZM158.062 335.822L122.826 340.449L152.057 352.119L158.062 335.822ZM353.533 336.146L360.492 351.695L388.684 340.156L353.533 336.146ZM402.445 344.959C401.893 344.945 401.28 345.012 400.561 345.123C394.928 345.991 343.049 365.025 338.891 367.75C335.251 370.135 334.667 373.073 337.342 375.535C338.302 376.419 351.976 382.358 367.729 388.734C383.481 395.11 397.94 400.388 399.861 400.461C403.673 400.607 431.564 390.032 434.529 387.316C436.013 385.958 434.349 383.285 425.84 373.353C420.052 366.598 412.941 357.337 410.035 352.773C406.105 346.6 404.84 345.019 402.445 344.959ZM110.256 345.531C105.655 345.416 103.549 348.139 99.0488 353.984L74.3359 385.455L108.848 400.457C112.124 400.591 170.096 378.031 172.402 375.725C173.153 374.974 173.556 372.897 173.299 371.109C172.798 367.631 170.67 366.669 131.617 352.275C120.316 347.947 114.315 345.633 110.256 345.531ZM180.691 364.258C179.914 389.309 167.656 389.529 153.971 394.283L355.154 394.311C340.885 389.438 327.335 387.825 329.74 364.258L180.691 364.258ZM367.67 400.582C365.515 400.582 364.495 407.45 366.322 409.652C367.257 410.778 375.88 418.021 385.486 425.748C404.76 441.251 404.279 441.116 414.842 433.881C421.359 429.417 429.201 419.033 429.201 414.867C429.201 413.396 427.905 411.02 426.32 409.586C423.5 407.034 423.215 407.058 412.699 410.779C406.792 412.87 401.014 414.575 399.861 414.564C398.709 414.555 391.283 411.405 383.359 407.564C375.436 403.724 368.376 400.582 367.67 400.582ZM141.213 401.029C139.329 401.054 135.767 402.776 126.811 407.219C118.678 411.253 110.762 414.553 109.219 414.553C107.676 414.553 102.546 412.982 97.8183 411.061C87.4625 406.853 86.2858 406.794 82.7715 410.309C80.4738 412.606 80.2675 413.723 81.4883 417.225C83.6391 423.395 93.0168 433.386 99.8164 436.752C103.092 438.373 106.174 439.699 106.668 439.699C108.617 439.701 145.588 408.692 145.588 407.055C145.588 406.093 144.691 404.087 143.594 402.596C142.869 401.61 142.343 401.014 141.213 401.029ZM148.793 402.426L150.166 408.141C151.834 415.082 153.695 416.723 161.266 417.934C169.011 419.172 170.736 420.855 170.736 427.168V433.414H198.398L215.236 449.482H295.287L312.125 433.414H339.787V427.168C339.787 420.855 341.513 419.174 349.258 417.936C357.008 416.696 358.917 414.957 360.002 408.146L360.912 402.436L148.793 402.426ZM89.9746 414.553C93.4571 414.553 107.867 428.595 107.867 431.988C107.867 436.433 101.746 434.006 94.3808 426.641C86.3845 418.644 84.8936 414.553 89.9746 414.553ZM421.334 414.553C425.575 414.553 423.646 418.893 416.02 426.52C408.929 433.61 402.656 436.39 402.656 432.441C402.656 427.048 415.702 414.553 421.334 414.553ZM145.686 422.633L131.316 434.424C111.161 450.961 110.484 451.347 104.516 449.699C99.793 448.343 95.2854 445.399 91.2246 442.395C88.673 447.329 84.6896 456.186 88.6406 457.373L114.52 462.904C119.165 463.872 120.145 463.709 123.51 461.908C125.097 461.059 134.799 454.102 145.072 446.449C168.026 429.349 169.041 426.135 152.273 423.621L145.686 422.633ZM362.801 422.936C361.745 422.936 357.706 423.617 353.826 424.449C347.745 425.753 346.771 426.421 346.771 429.295C346.771 431.919 350.312 435.302 363.385 445.174C372.521 452.073 382.108 459.022 384.689 460.615C387.271 462.209 390.641 463.227 392.178 462.879C393.715 462.53 400.316 461.493 406.848 460.574C413.379 459.655 419.823 458.332 421.168 457.635C424.162 456.083 424.297 452.06 421.531 446.713L419.447 442.684L411.352 446.859C401.082 452.156 400.49 451.942 380.334 435.598C371.746 428.634 363.857 422.936 362.801 422.936Z" fill="white"/>
<path d="M388.684 177.244L352.167 246.573L389.037 313.786L436.492 320.137L397.328 246.397L438.08 171.246L388.684 177.244Z" fill="white" fill-opacity="0.5"/>
<path d="M449.017 169.305L487.122 164.366L443.019 246.574L485.535 325.43L447.782 321.549L408.09 246.397L449.017 169.305Z" fill="white" fill-opacity="0.5"/>
<path d="M500 161.544L453.251 246.044L499.294 328.958L500 291.911L474.597 247.103L500 199.294V161.544Z" fill="white" fill-opacity="0.5"/>
<path d="M123.316 176.73L159.833 246.06L122.963 313.273L75.5082 319.624L114.672 245.884L73.9204 170.732L123.316 176.73Z" fill="white" fill-opacity="0.5"/>
<path d="M62.9831 168.792L24.8782 163.853L68.9811 246.06L26.4658 324.916L64.218 321.035L103.911 245.884L62.9831 168.792Z" fill="white" fill-opacity="0.5"/>
<path d="M12.0001 161.031L58.749 245.531L12.7056 328.445L12.0001 291.398L37.4032 246.59L12.0001 198.78V161.031Z" fill="white" fill-opacity="0.5"/>
<path d="M312.195 263.162C320.598 263.162 327.41 270.157 327.41 278.787C327.409 283.554 325.29 288.06 321.654 291.023L331.058 315.445L336.98 316.602L351.886 354.994L330.998 363.189L318.271 324.111L321.878 318.816L313.644 294.324C313.163 294.377 312.679 294.405 312.195 294.41C303.793 294.41 296.983 287.415 296.982 278.787C296.981 270.158 303.793 263.163 312.195 263.162ZM312.277 270.92C308.543 270.92 305.517 273.946 305.517 277.68C305.517 281.413 308.543 284.44 312.277 284.439C316.01 284.44 319.037 281.413 319.037 277.68C319.037 273.946 316.01 270.92 312.277 270.92Z" fill="white"/>
<path d="M292.187 243.334H218.904C213.348 243.334 208.844 247.839 208.844 253.394C208.844 258.95 213.348 263.454 218.904 263.454H292.187C297.743 263.454 302.247 258.95 302.247 253.394C302.247 247.839 297.743 243.334 292.187 243.334Z" fill="white"/>
<path d="M312.195 238.096C320.598 238.096 327.41 231.1 327.41 222.471C327.409 217.704 325.29 213.198 321.654 210.234L331.058 185.813L336.98 184.655L366.636 111.729H343.372L318.271 177.146L321.878 182.442L313.644 206.934C313.163 206.881 312.679 206.853 312.195 206.847C303.793 206.848 296.983 213.842 296.982 222.47C296.981 231.099 303.793 238.095 312.195 238.096ZM312.454 229.1C308.72 229.101 305.694 226.074 305.694 222.341C305.694 218.607 308.72 215.581 312.454 215.581C316.187 215.581 319.214 218.607 319.213 222.341C319.214 226.074 316.187 229.101 312.454 229.1Z" fill="white"/>
<path d="M199.219 238.096C190.816 238.096 184.004 231.1 184.004 222.471C184.005 217.704 186.124 213.198 189.76 210.234L180.355 185.813L174.434 184.655L144.778 111.729H168.042L193.143 177.146L189.536 182.442L197.77 206.934C198.251 206.881 198.735 206.853 199.219 206.847C207.621 206.848 214.431 213.842 214.432 222.47C214.432 231.099 207.621 238.095 199.219 238.096ZM198.96 229.1C202.694 229.101 205.72 226.074 205.72 222.341C205.72 218.607 202.694 215.581 198.96 215.581C195.227 215.581 192.2 218.607 192.201 222.341C192.2 226.074 195.227 229.101 198.96 229.1Z" fill="white"/>
<path d="M173.532 101.311H132.659C130.726 101.311 129.159 102.878 129.159 104.811C129.159 106.744 130.726 108.311 132.659 108.311H173.532C175.465 108.311 177.032 106.744 177.032 104.811C177.032 102.878 175.465 101.311 173.532 101.311Z" fill="white"/>
<path d="M377.436 101.311H336.563C334.63 101.311 333.063 102.878 333.063 104.811C333.063 106.744 334.63 108.311 336.563 108.311H377.436C379.369 108.311 380.936 106.744 380.936 104.811C380.936 102.878 379.369 101.311 377.436 101.311Z" fill="white"/>
</svg>
