<svg width="512" height="512" viewBox="0 0 512 512" fill="none" xmlns="http://www.w3.org/2000/svg">
<path d="M102.099 133.575L118.798 276.525C143.636 275.636 144.491 275.727 153.774 289.636L204.205 359.928H311.874L356.84 289.636C366.069 277.345 371.45 276.254 395.506 276.494L411.965 133.575C372.666 118.87 334.404 115.55 296.447 115.555L276.494 156.06H237.604L217.842 115.555C178.996 116.034 140.026 115.692 102.099 133.575ZM213.66 176.655C229.52 177.12 243.157 185.078 252.896 199.703C258.647 208.339 259.601 209.1 261.222 206.349C266.72 197.019 276.787 186.27 283.961 182.066C291.173 177.841 293.788 177.29 306.643 177.304C322.814 177.321 328.258 179.354 337.92 188.985C351.978 202.997 355.934 229.452 346.832 248.57C342.184 258.333 329.778 270.682 308.155 287.072C296.511 295.897 280.83 307.828 273.309 313.583L259.632 324.046L227.237 299.683C175.001 260.4 167.194 250.646 167.476 224.998C167.648 209.308 171.814 198.486 181.331 189C189.07 181.286 195.912 178.03 206.732 176.917C209.083 176.676 211.395 176.589 213.66 176.655Z" fill="white"/>
<path d="M219.465 103.169C178.637 102.652 139.117 107.676 100.992 118.607L99.9961 97.5414L191.775 55.2637L213.672 15.4199H300.257L322.574 55.2637L414.836 93.7258L412.589 118.37C373.065 108.249 333.54 102.35 294.015 103.169L273.339 145.766H242.136L219.465 103.169Z" fill="white"/>
<path d="M167.705 379.631C164.282 366.947 160.322 359.153 141.24 327.549C128.898 307.107 118.387 289.636 118.798 289.636H141.85L197.986 368.019L316.38 367.782L369.611 289.636H394.016C395.096 289.636 384.169 308.984 372.134 328.76C355.297 356.423 349.521 367.465 347.086 376.642C339.187 417.051 316.32 428.849 286.873 447.352L234.185 447.294C203.881 429.005 173.618 412.315 167.705 379.631Z" fill="white"/>
<path d="M251.547 496.579C146.543 496.748 -45.8225 471.657 77.7484 394.651L13.981 368.908L84.6112 355.096L12 242.985L99.2399 320.414L133.012 389.653C-0.375216 448.763 119.385 482.645 251.547 484.631C381.517 486.161 489.633 450.71 380.63 391.975L413.234 323.535L499.774 243.961L429.629 354.828L500 369.457L436.219 394.46C563.51 493.549 338.606 496.604 251.547 496.579Z" fill="white" fill-opacity="0.5"/>
</svg>
