<svg width="512" height="512" viewBox="0 0 512 512" fill="none" xmlns="http://www.w3.org/2000/svg">
<path d="M473.513 159.2H350.709V39.4706H291.313V12.0018L378.001 12V131.769H500V225.3H472.709L473.513 159.2Z" fill="white" fill-opacity="0.5"/>
<path d="M12 131.769H133.999V12.002H220.682L220.684 39.4707H161.249V159.2H102.652C87.8053 159.186 87.6805 153.093 80.1037 144.174C72.8666 148.108 62.4757 149.61 56.7738 155.815C53.7563 158.781 45.357 159.306 39.224 159.2V225.3H12.0001L12 131.769Z" fill="white" fill-opacity="0.5"/>
<path d="M205.076 87.1392V205.099C202.057 205.108 198.019 204.843 195.961 207.929C191.327 214.715 184.005 217.334 181.402 224.491C178.283 232.113 167.357 239.946 159.423 240.599C153.83 237.952 153.796 228.524 147.837 226.602C143.001 224.328 139.22 213.314 135.678 205.099H88.2507V212.952C88.2507 219.634 88.8865 221.306 92.2707 223.535L96.2883 226.181C96.6183 245.651 98.025 267.488 92.2707 283.991C89.2847 290.702 88.5173 296.839 88.249 306.901H205.076V423.781C205.665 424.373 211.643 424.861 218.359 424.861C229.482 424.861 230.712 424.535 232.157 421.224C233.716 417.653 234.245 417.591 261.879 417.591C289.514 417.591 290.043 417.653 291.601 421.224C292.89 424.176 294.475 424.861 300.04 424.861H306.894V306.901H418.175C419.778 302.88 421.477 298.133 420.522 293.98C417.944 283.687 417.776 281.049 419.704 281.049C421.098 281.049 420.334 279.358 419.083 277.065C415.926 269.868 416.576 245.865 416.487 221.333C424.744 215.326 423.69 213.904 423.72 205.099H306.894V102.13L300.866 94.6407C294.211 86.3738 289.287 85.0232 286.776 90.7753C285.215 94.352 284.721 94.4111 256.253 94.4111C227.785 94.4111 227.289 94.352 225.728 90.7753C224.325 87.5619 222.97 87.1396 214.071 87.1396L205.076 87.1392ZM232.404 214.63L240.689 217.913C247.022 220.422 249.953 220.823 253.121 219.613C258.561 217.534 258.667 217.556 258.648 220.855C258.639 222.41 260.207 228.192 262.131 233.701L265.631 243.716L261.368 250.19C258.144 255.088 257.345 257.859 258.086 261.582C259.022 266.289 258.672 266.679 249.977 270.544C244.978 272.766 239.954 274.584 238.812 274.584C237.67 274.584 233.607 271.892 229.783 268.603C221.614 261.575 214.595 247.356 216.037 240.757C216.553 238.397 215.886 233.842 214.554 230.638C211.717 223.816 212.094 223.329 224.233 218.131L232.404 214.63Z" fill="white"/>
<path d="M291.313 470.914H350.709L350.709 349.762H472.708C472.749 339.375 471.348 311.035 475.164 304.899C476.534 302.931 477.142 301.093 476.719 299.972C474.919 296.377 472.693 296.001 472.708 291.548H500L499.998 377.192H445.999C443.546 368.41 437.126 356.626 429.308 359.449C421.374 361.622 417.001 357.668 408.895 354.357C404.976 356.434 388.001 362.768 387.63 366.588C386.339 370.909 380.728 374.41 378.001 377.192V499.999H291.315L291.313 470.914Z" fill="white" fill-opacity="0.5"/>
<path d="M133.999 377.192H65.485C63.0691 376.908 60.7456 373.211 59.1503 370.311C48.0979 376.189 45.4007 377.192 34.094 377.192H12V291.548H39.2239V349.762H161.249V470.914H211.201L213.936 476.015C217.037 481.8 221.013 486.375 223.731 487.287C224.745 487.628 226.014 490.627 226.55 493.953L227.525 500L133.999 499.999V377.192Z" fill="white" fill-opacity="0.5"/>
</svg>
