<svg width="512" height="512" viewBox="0 0 512 512" fill="none" xmlns="http://www.w3.org/2000/svg">
<path d="M237.849 415.633H216.95L191.53 383.359L204.203 364.075L196.858 359.387H134.459L123.587 350.117V321.342L160.1 321.342V304.905H123.587V275.661L192.635 240.279L216.573 203.892H304.997L328.84 240.279C331.312 240.793 382.867 266.971 394.653 274.44C398.171 276.669 398.31 277.8 398.31 290.406V304.905H358.608V321.342H398.31L398.309 350.117L386.614 359.387H324.374L317.362 364.075L330.101 383.359L303.942 415.633H269.279V488.619H256.873V415.633H250.078V499.999H237.849L237.849 415.633ZM275.369 350.973C297.834 340.098 304.527 309.941 288.729 290.775C278.557 278.436 258.052 273.03 243.879 278.952C235.805 282.326 226.153 291.476 222.737 298.996C218.995 307.232 218.745 322.583 222.217 330.907C225.609 339.039 233.807 347.49 241.984 351.284C251.185 355.553 266.197 355.413 275.369 350.973ZM293.712 215.471L227.096 215.486L212.721 240.279L308.895 240.279L293.712 215.471ZM124.12 410.671C116.697 408.202 113.781 404.8 113.781 399.209C113.781 394.419 115.752 390.848 124.12 380.477L134.459 367.664L186.568 367.661V383.359L159.203 410.671H124.12ZM335.449 385.284V367.661L386.614 367.66L397.407 380.481C425.856 413.747 385.349 410.507 361.536 410.671C352.84 402.209 344.145 393.746 335.449 385.284ZM353.645 154.264L320.561 154.264L320.56 124.488H353.645V91.2794H384.249V124.488H418.16V154.264H384.249V186.523H353.645V154.264ZM150.175 114.562H93.8398V67.4175H150.175V12.0005H197.321V67.4175H254.482V114.562H197.321V168.325H150.175V114.562Z" fill="white"/>
<path d="M168.858 418.832L163.464 424.226C161.548 449.747 162.293 474.557 168.65 497.872C181.975 477.252 196.7 457.449 203.71 433.146L195.827 418.832C199.242 430.663 195.369 447.067 170.725 476.504C165.077 457.576 165.111 438.313 168.858 418.832Z" fill="white"/>
<path d="M352.51 418.437L357.904 423.83C359.821 449.351 359.075 474.162 352.718 497.476C339.393 476.857 324.668 457.054 317.658 432.751L325.541 418.437C322.126 430.268 325.999 446.671 350.643 476.109C356.291 457.18 356.257 437.918 352.51 418.437Z" fill="white"/>
</svg>
