<svg width="512" height="512" viewBox="0 0 512 512" fill="none" xmlns="http://www.w3.org/2000/svg">
<path d="M201.564 472.771C211.96 421.953 223.261 370.534 214.713 319.339C204.765 267.907 177.755 219.189 115.951 203.657C132.474 168.963 159.953 150.702 189.671 135.799C177.685 181.631 182.552 216.844 240.79 233.777L255.153 319.339L270.695 233.777C314.715 220.421 339.412 193.75 320.814 135.803C349.447 156.274 376.185 178.098 394.909 205.647C344.645 224.008 300.137 270.116 295.116 319.339C289.811 354.039 295.224 422.288 307.397 472.771C310.487 487.705 309.471 489.642 294.165 500C286.907 483.641 274.886 474.146 256.3 474.111C256.3 474.111 220.324 472.884 216.846 500C200.317 489.017 197.907 486.513 201.564 472.771ZM260.71 416.013L255.153 365.522L249.739 416.507C240.934 468.688 271.098 466.589 260.71 416.013ZM180.153 439.98C167.499 362.523 62.0433 381.433 26.6479 324.793C60.4523 292.32 72.5087 248.042 73.3943 197.699C84.5486 197.699 151.881 233.526 151.881 239.461C142.003 282.861 146.814 318.915 204.421 328.573C212.821 357.152 206.43 425.288 180.153 439.98ZM186.161 334.818C148.599 328.237 126.169 289.651 132.448 250.977C107.794 252.802 87.1904 260.149 72.8964 276.101C72.8964 276.101 105.421 264.495 117.333 276.584C100.272 283.291 79.5173 297.675 75.962 314.824C84.5547 309.183 99.6815 300.534 119.715 302.124C102.071 311.4 91.8877 324.407 88.2427 340.683C106.127 328.259 125.308 324.479 145.189 325.361C130.805 330.58 119.313 356.178 123.091 357.595C133.914 343.226 148.819 338.908 165.754 339.584C154.489 347.078 156.714 357.071 157.745 366.842C163.22 354.543 173.149 344.054 186.161 334.818ZM232.546 170.724H277.171L255.153 221.115L232.546 170.724ZM285.975 170.646L311.008 159.383L259.749 221.115L285.975 170.646ZM199.167 159.383L223.827 170.724L250.546 221.115L199.167 159.383ZM232.002 164.188L234.768 148.035H274.484L276.574 164.188H232.002ZM199.167 153.084L209.223 140.698L228.362 148.035L223.772 164.188L199.167 153.084ZM278.857 148.035L304.025 140.698L310.525 153.084L285.314 164.188L278.857 148.035ZM234.769 140.616L209.223 137.007L234.768 133.665H274.484L304.025 137.102C305.115 137.251 284.199 139.007 274.484 140.764L234.769 140.616Z" fill="white"/>
<path d="M411.178 122.197C409.712 94.8701 493.282 71.625 472.915 12C411.585 65.1765 343.803 79.5525 262.901 63.373C268.73 98.3959 301.822 116.518 325.97 127.644C370.797 145.295 387.623 175.406 407.645 199.105C430.254 174.954 412.112 147.191 411.178 122.197Z" fill="white"/>
<path d="M96.5818 122.197C98.0478 94.8701 14.4773 71.625 34.8441 12C96.174 65.1765 163.957 79.5525 244.858 63.373C239.029 98.3959 205.938 116.518 181.789 127.644C136.963 145.295 120.136 175.406 100.114 199.105C77.5059 174.954 95.6479 147.191 96.5818 122.197Z" fill="white"/>
<path d="M331.847 439.981C344.501 362.523 449.956 381.433 485.352 324.793C451.547 292.32 439.491 248.042 438.605 197.699C427.451 197.699 360.118 233.526 360.118 239.461C369.997 282.861 365.186 318.916 307.579 328.573C299.179 357.152 305.57 425.288 331.847 439.981ZM325.838 334.818C363.401 328.237 385.831 289.651 379.552 250.978C404.205 252.802 424.809 260.149 439.103 276.101C439.103 276.101 406.579 264.495 394.667 276.584C411.728 283.291 432.482 297.675 436.038 314.824C427.445 309.183 412.318 300.535 392.285 302.124C409.929 311.401 420.112 324.407 423.757 340.683C405.873 328.259 386.691 324.479 366.811 325.361C381.195 330.58 392.687 356.178 388.909 357.595C378.086 343.226 363.181 338.908 346.246 339.584C357.511 347.078 355.286 357.071 354.255 366.842C348.78 354.544 338.85 344.055 325.838 334.818Z" fill="white"/>
</svg>
