<svg width="512" height="512" viewBox="0 0 512 512" fill="none" xmlns="http://www.w3.org/2000/svg">
<path d="M273.89 12C272.72 12.0012 271.057 13.0891 268.841 15.2122C265.135 18.7634 263.42 19.3239 256.264 19.3239C249.401 19.3239 247.071 18.6316 242.69 15.2902C235.739 9.98781 233.959 11.2722 235.078 20.7921C235.675 25.8769 235.264 30.3383 233.816 34.4415C232.633 37.7937 231.666 41.8121 231.666 43.3726C231.666 48.1987 236.023 55.6914 239.316 56.5249C241.039 56.9611 244.714 59.2574 247.482 61.6287C254.047 67.2526 257.425 67.1342 264.738 61.0241C268.051 58.2561 271.655 55.992 272.746 55.992C275.433 55.992 279.118 48.5225 279.118 43.0756C279.118 40.6383 278.243 36.5512 277.174 33.9928C275.971 31.1131 275.486 26.2717 275.9 21.2829C276.42 15.0149 275.84 11.9981 273.89 12ZM266.446 36.6806C267.611 36.7486 268.803 37.1302 269.865 37.9065C272.082 39.5275 272.079 39.8185 269.829 42.0687C266.858 45.0402 262.054 45.2194 260.972 42.3994C259.706 39.1007 262.952 36.4767 266.446 36.6806ZM246.183 36.8154C248.465 36.8724 250.708 37.9728 251.409 39.8001C251.852 40.9565 251.314 42.4735 250.21 43.1725C247.223 45.0643 245.088 44.7634 242.393 42.0687C240.143 39.8185 240.141 39.5275 242.358 37.9065C243.43 37.1223 244.814 36.7812 246.183 36.8154Z" fill="white"/>
<path d="M187.538 236.156L227.846 240.787H279.187L322.899 236.156L288.855 230.165H221.991L187.538 236.156Z" fill="white" fill-opacity="0.5"/>
<path d="M261.576 247.676H250.406V295.437H261.576V247.676Z" fill="white" fill-opacity="0.5"/>
<path d="M187.265 307.785L227.573 312.415H278.914L322.626 307.785L288.583 301.793H221.718L187.265 307.785Z" fill="white" fill-opacity="0.5"/>
<path d="M251.342 69.3413L251.342 83.6892L256.376 79.1642L261.093 83.6892V69.3413C257.43 70.7321 254.748 70.6462 251.342 69.3413Z" fill="white" fill-opacity="0.5"/>
<path d="M272.376 92.2155L282.317 101.476L376.688 61.3032L272.376 92.2155Z" fill="white" fill-opacity="0.5"/>
<path d="M239.421 92.3517L229.48 101.339L135.518 63.8906L239.421 92.3517Z" fill="white" fill-opacity="0.5"/>
<path d="M220.402 189.724L256.198 131.773L290.856 189.724H220.402Z" fill="white"/>
<path d="M256.376 88.8516L382.43 188.987L256.376 102.514L129.569 188.987C162.958 157.03 216.999 119.899 256.376 88.8516Z" fill="white"/>
<path d="M303.034 189.724L262.135 131.773L344.62 204.767L303.034 189.724Z" fill="white"/>
<path d="M166.956 205.208L250.38 131.773L205.065 189.724L166.956 205.208Z" fill="white"/>
<path d="M220.402 201.225H290.856L286.253 222.795L224.591 222.795L220.402 201.225Z" fill="white"/>
<path d="M295.073 222.795L303.034 201.225L344.62 216.016L331.604 230.8L295.073 222.795Z" fill="white"/>
<path d="M166.956 216.347L206.55 201.225L215.582 222.795L179.846 230.8L166.956 216.347Z" fill="white"/>
<path d="M295.233 319.8L332.752 311.799L344.673 326.388L308.042 339.272L295.233 319.8Z" fill="white"/>
<path d="M166.514 326.388L177.176 311.799L215.405 319.8L205.065 339.272L166.514 326.388Z" fill="white"/>
<path d="M218.729 339.272L224.016 319.8H286.158L290.99 339.272H218.729Z" fill="white"/>
<path d="M262.023 411.586L308.042 349.249L344.673 336.762L262.023 411.586Z" fill="white"/>
<path d="M166.514 336.382L205.065 349.716L250.033 411.586L166.514 336.382Z" fill="white"/>
<path d="M220.162 353.205L290.622 352.751L256.198 411.586L220.162 353.205Z" fill="white"/>
<path d="M129.569 356.288L256.198 442.804L382.43 356.288L256.198 455.16L129.569 356.288Z" fill="white"/>
<path d="M250.862 476.711L247.729 479.848L254.74 500H257.805L264.348 479.848L261.276 476.711V462.141L256.198 466.568L250.862 462.141V476.711Z" fill="white" fill-opacity="0.5"/>
<path d="M281.99 444.786L271.783 453.933L375.682 468.955L281.99 444.786Z" fill="white" fill-opacity="0.5"/>
<path d="M229.992 445.074L239.525 453.548L136.493 468.666L229.992 445.074Z" fill="white" fill-opacity="0.5"/>
<path d="M256.376 112.867L139.861 212.243V329.907L256.198 430.824L371.349 329.907V212.243L256.376 112.867ZM256.376 119.18L366.065 214.639V327.938L256.198 423.399L145.322 327.938V214.639L256.376 119.18Z" fill="url(#paint0_radial_219_8316)"/>
<defs>
<radialGradient id="paint0_radial_219_8316" cx="0" cy="0" r="1" gradientUnits="userSpaceOnUse" gradientTransform="translate(255.606 271.845) rotate(46.1475) scale(197.336 204.157)">
<stop stop-color="white" stop-opacity="0.501961"/>
<stop offset="1" stop-color="white"/>
</radialGradient>
</defs>
</svg>
