<svg width="512" height="512" viewBox="0 0 512 512" fill="none" xmlns="http://www.w3.org/2000/svg">
<path d="M449.146 370.067C321.025 428.354 193.084 428.231 62.9192 370.069L62.9185 425.654C198.636 507.311 326.929 502.193 449.146 425.654V370.067ZM154.605 415.34C165.829 415.34 174.927 423.958 174.926 434.588C174.926 445.217 165.828 453.833 154.605 453.833C143.383 453.833 134.285 445.217 134.285 434.588C134.284 423.958 143.382 415.34 154.605 415.34ZM356.83 415.581C368.053 415.58 377.152 424.197 377.152 434.827C377.153 445.457 368.054 454.075 356.83 454.074C345.606 454.074 336.508 445.456 336.509 434.827C336.51 424.197 345.607 415.581 356.83 415.581ZM256.052 421.296L285.221 447.88L256.052 475.337L227.848 447.88L256.052 421.296Z" fill="white"/>
<path d="M153.161 60.6918V12L256.052 68.4816L354.081 12V60.7554L256.052 117.349L153.161 60.6918Z" fill="white" fill-opacity="0.8"/>
<path d="M175.924 149.885V118.843L256.051 164.04L338.692 118.843V149.658L256.051 196.777L175.924 149.885Z" fill="white" fill-opacity="0.7"/>
<path d="M190.699 228.258V204.029L256.052 239.67L322.087 204.029V228.236L256.052 265.954L190.699 228.258Z" fill="white" fill-opacity="0.6"/>
<path d="M78.082 333.195C104.428 300.545 181.579 279.617 218.202 284.391C225.403 286.502 222.284 294.779 218.072 296.181C189.305 300.891 141.831 321.594 121.246 349.391L78.082 333.195Z" fill="white" fill-opacity="0.5"/>
<path d="M62.9194 365.104V349.961C193.413 417.561 322.028 412.637 449.146 349.961C449.659 349.961 449.146 361.585 449.146 365.104C316.958 424.375 188.356 421.957 62.9194 365.104Z" fill="white"/>
<path d="M62.6255 446.827V431.685C196.545 511.617 325.06 506.334 448.853 431.685C449.365 431.685 448.853 443.308 448.853 446.827C315.978 519.145 187.399 516.289 62.6255 446.827Z" fill="white"/>
<path d="M435.212 333.455C408.866 300.804 331.715 279.877 295.092 284.651C287.89 286.762 291.009 295.039 295.221 296.441C323.989 301.15 371.463 321.854 392.048 349.651L435.212 333.455Z" fill="white" fill-opacity="0.5"/>
</svg>
