<svg width="512" height="512" viewBox="0 0 512 512" fill="none" xmlns="http://www.w3.org/2000/svg">
<path d="M288.679 253.93L308.26 305.022L325.14 292.418L293.855 253.93H288.679Z" fill="white"/>
<path d="M223.182 253.93L203.601 305.022L186.721 292.418L218.006 253.93H223.182Z" fill="white"/>
<path d="M239.163 258.206L220.032 307.047H291.83L272.249 257.531C261.22 259.51 250.191 259.828 239.163 258.206Z" fill="white"/>
<path d="M213.955 323.478H295.656V372.994H213.955V323.478Z" fill="white"/>
<path d="M223.407 230.673C245.688 236.276 267.969 234.904 290.25 230.354L262.877 12H247.28L223.407 230.673Z" fill="white"/>
<path d="M312.532 323.457V367.86L353.274 338.577V329.983L383.035 277.781L390.993 305.473L419.958 303.882L435.078 276.031L413.115 207.278C411.291 202.202 409.097 199.679 402.293 201.23C392.889 204.4 383.699 208.177 375.555 214.917C369.005 220.424 371.993 225.686 373.327 230.991C374.771 236.919 375.247 239.122 372.691 243.246L337.677 305.792L312.532 323.457Z" fill="white"/>
<path d="M199.089 322.717V367.12L158.346 337.836V329.242L128.585 277.04L120.628 304.733L91.6622 303.141L76.543 275.29L98.5057 206.537C100.329 201.462 102.524 198.938 109.328 200.489C118.732 203.659 127.921 207.436 136.065 214.176C142.616 219.683 139.627 224.945 138.293 230.25C136.849 236.178 136.374 238.382 138.93 242.505L173.943 305.051L199.089 322.717Z" fill="white"/>
<path d="M247.796 432.382C255.031 442.113 259.836 440.729 265.462 432.382C275.058 415.401 268.257 403.631 257.305 403.098C245.498 402.963 235.544 415.679 247.796 432.382Z" fill="white"/>
<path d="M206.303 388.296L223.859 451.319H288.905L304.884 388.296H206.303ZM255.593 394.6C275.535 394.86 288.9 417.738 269.097 438.715C257.415 450.798 255.492 450.534 244.114 438.715C224.507 417.817 233.548 397.019 255.593 394.6Z" fill="white" fill-opacity="0.5"/>
<path d="M441.125 295.606L430.303 322.026C428.285 324.785 428.021 325.693 423.6 325.846L395.926 326.801L435.077 489.769C444.386 488.218 434.179 493.644 452.237 492.356C461.487 491.432 465.635 484.273 465.316 473.854C462.442 412.997 458.967 352.306 441.125 295.606Z" fill="white"/>
<path d="M70.8749 296.049L81.6971 322.469C83.7147 325.228 83.979 326.136 88.4 326.289L116.074 327.243L76.9226 490.212C67.6136 488.661 77.821 494.087 59.7627 492.799C50.513 491.875 46.3652 484.716 46.684 474.297C49.5574 413.439 53.0326 352.749 70.8749 296.049Z" fill="white"/>
<path d="M241.414 462.797C242.539 462.797 271.123 462.797 271.123 462.797L260.545 492.732H251.992L241.414 462.797Z" fill="white"/>
<path d="M210.804 432.863L215.53 449.968C208.987 445.198 207.746 439.433 210.804 432.863Z" fill="white" fill-opacity="0.5"/>
<path d="M300.608 431.737C303.766 441.23 306.885 442.118 296.557 449.293L300.608 431.737Z" fill="white" fill-opacity="0.5"/>
<path d="M312.649 387.961L306.91 409.23C314.157 402.345 321.426 395.302 327.504 397.189C330.805 397.919 331.029 396.155 333.131 393.362L351.924 360.389L312.649 387.961Z" fill="white" fill-opacity="0.5"/>
<path d="M199.365 387.838L205.104 409.108C197.857 402.223 190.588 395.179 184.51 397.066C181.209 397.797 180.985 396.032 178.883 393.24L160.09 360.267L199.365 387.838Z" fill="white" fill-opacity="0.5"/>
<path d="M289.129 499.034H379.158L338.924 488.253L391.987 432.188L289.129 499.034Z" fill="white" fill-opacity="0.5"/>
<path d="M221.851 500H131.822L172.056 489.219L118.993 433.153L221.851 500Z" fill="white" fill-opacity="0.5"/>
<path d="M327.173 404.783C316.351 409.293 308.235 416.508 310.463 434.067L327.333 434.226C336.454 433.22 337.343 425.299 335.449 422.29C330.804 416.769 329.455 410.698 327.173 404.783Z" fill="white"/>
<path d="M186 404.796C196.822 409.305 204.938 416.521 202.71 434.08L185.84 434.238C176.719 433.232 175.83 425.311 177.724 422.302C182.369 416.781 183.718 410.711 186 404.796Z" fill="white"/>
<path d="M151.61 51.5898L133.829 123.838L180.644 238.175L151.61 51.5898Z" fill="white" fill-opacity="0.5"/>
<path d="M361.245 51.5894L379.026 123.838L332.21 238.175L361.245 51.5894Z" fill="white" fill-opacity="0.5"/>
</svg>
