<svg width="512" height="512" viewBox="0 0 512 512" fill="none" xmlns="http://www.w3.org/2000/svg">
<path d="M255.488 12.0005L233.194 152.032C209.312 158.042 187.142 168.33 170.297 191.931L41.5298 129.032L158.718 209.924C145.838 241.1 147.111 269.167 158.406 295.036L41.5298 382.029L168.888 315.533C183.023 333.825 206.681 347.519 233.194 354.023L255.488 500L275.124 356.057C297.545 353.758 317.115 340.439 335.047 317.879L455.834 382.029L345.219 301.921C358.475 271.973 361.456 242.255 348.191 212.896L455.834 129.032L337.043 193.22C322.569 173.487 302.502 158.637 275.124 152.424L255.488 12.0005ZM252.838 186.231C291.552 186.231 322.935 217.614 322.935 256.328C322.935 295.042 291.552 326.425 252.838 326.425C214.125 326.425 182.741 295.042 182.741 256.328C182.741 217.614 214.125 186.231 252.838 186.231Z" fill="white"/>
<path d="M356.64 161.264L343.966 167.209C333.843 156.732 320.225 149.749 307.824 141.55C324.501 147.473 341.905 152.233 356.64 161.264Z" fill="white"/>
<path d="M151.678 160.325L164.351 166.271C174.475 155.794 188.092 148.811 200.493 140.611C183.816 146.535 166.412 151.294 151.678 160.325Z" fill="white"/>
<path d="M149.789 347.575L130.76 355.32C155.634 368.546 179.776 382.749 209.752 389.173L208.867 372.357C187.267 367.148 168.505 357.398 149.789 347.575Z" fill="white"/>
<path d="M353.982 352.4L373.011 360.144C348.137 374.337 312.71 388.731 282.734 393.777L285.832 376.075C294.342 376.257 328.789 364.89 353.982 352.4Z" fill="white"/>
<path d="M411.548 197.334L397.608 206.628C420.035 225.189 442.29 243.897 460.669 265.927C443.997 286.268 424.422 303.222 404.246 319.474L417.522 328.989C441.999 308.899 462.722 287.558 481.911 265.706C461.692 240.334 437.014 218.041 411.548 197.334Z" fill="white"/>
<path d="M100.451 195.891L114.391 205.184C91.9645 223.745 69.7093 242.453 51.3301 264.484C68.7096 283.056 76.4052 290.631 95.6276 309.268L82.3516 318.783C60.0646 297.129 45.8358 284.863 30.0889 264.262C50.3073 238.89 74.9846 216.597 100.451 195.891Z" fill="white"/>
<path d="M133.194 218.134L114.386 232.737C108.42 255.379 111.746 276.162 117.484 296.462L132.309 286.727C125.133 264.609 128.782 241.41 133.194 218.134Z" fill="white" fill-opacity="0.5"/>
<path d="M377.776 218.355L390.61 228.755C396.576 251.396 391.922 285.898 386.184 306.198L371.359 296.462C374.635 282.458 381.284 241.705 373.104 221.911L377.776 218.355Z" fill="white" fill-opacity="0.5"/>
</svg>
