<svg width="512" height="512" viewBox="0 0 512 512" fill="none" xmlns="http://www.w3.org/2000/svg">
<path d="M211.233 76.4575L187.706 85.5454V396.046L211.435 405.033L211.233 76.4575Z" fill="white"/>
<path d="M298.93 76.458L322.458 85.5458V396.047L298.729 405.034L298.93 76.458Z" fill="white"/>
<path d="M12 318.322C73.0248 365.961 118.913 416.626 211.351 457.982H28.565L106.535 433.42L12 318.322Z" fill="white"/>
<path d="M500 318.41C438.975 366.048 393.087 416.714 300.649 458.07H483.435L405.466 433.508L500 318.41Z" fill="white"/>
<path d="M138.808 116.972V362.876C125.78 350.712 129.66 340.793 120.815 330.603C114.728 318.659 98.5344 325.483 100.251 294.332L100.32 177.028C100.416 168.73 101.736 168.116 106.184 163.979L121.1 150.102C133.231 141.129 131.695 125.873 138.808 116.972Z" fill="white"/>
<path d="M373.534 119.042V364.946C380.421 350.925 382.539 338.15 391.527 332.673C395.757 330.153 412.237 323.268 412.091 296.401L412.022 179.097C411.926 170.799 410.606 170.186 406.158 166.048L391.242 152.171C379.111 143.199 380.647 127.943 373.534 119.042Z" fill="white"/>
<path d="M256.268 269.204C272.153 269.204 285.029 256.327 285.029 240.443C285.029 224.558 272.153 211.682 256.268 211.682C240.384 211.682 227.507 224.558 227.507 240.443C227.507 256.327 240.384 269.204 256.268 269.204Z" fill="white"/>
<path d="M162.738 326.471C169.638 326.471 175.231 320.877 175.231 313.977C175.231 307.077 169.638 301.484 162.738 301.484C155.838 301.484 150.244 307.077 150.244 313.977C150.244 320.877 155.838 326.471 162.738 326.471Z" fill="white"/>
<path d="M163.084 176.304C169.984 176.304 175.577 170.711 175.577 163.811C175.577 156.911 169.984 151.317 163.084 151.317C156.184 151.317 150.59 156.911 150.59 163.811C150.59 170.711 156.184 176.304 163.084 176.304Z" fill="white"/>
<path d="M348.155 176.019C355.055 176.019 360.648 170.425 360.648 163.525C360.648 156.625 355.055 151.032 348.155 151.032C341.255 151.032 335.661 156.625 335.661 163.525C335.661 170.425 341.255 176.019 348.155 176.019Z" fill="white"/>
<path d="M348.155 326.817C355.055 326.817 360.648 321.224 360.648 314.324C360.648 307.424 355.055 301.83 348.155 301.83C341.255 301.83 335.661 307.424 335.661 314.324C335.661 321.224 341.255 326.817 348.155 326.817Z" fill="white"/>
<path d="M245.195 426.28C254.501 435.365 257.355 435.79 267.615 426.137C285.158 404.305 270.344 395.567 257.19 395.149C246.589 394.502 225.965 404.333 245.195 426.28Z" fill="white"/>
<path d="M246.061 60.8862C255.367 51.8017 258.221 51.376 268.48 61.0292C286.024 82.8611 271.21 91.5991 258.056 92.0171C247.455 92.6637 226.831 82.8331 246.061 60.8862Z" fill="white"/>
</svg>
