<svg width="512" height="512" viewBox="0 0 512 512" fill="none" xmlns="http://www.w3.org/2000/svg">
<path d="M174.879 472.414C171.686 471.571 169.187 466.454 163.52 449.153C159.561 437.067 159.05 434.21 160.397 431.692C162.436 427.883 161.163 424.422 157.725 424.422C154.692 424.422 149.876 413.774 151.268 410.146C152.213 407.684 162.311 402.752 166.498 402.707C168.045 402.692 172.631 400.191 176.691 397.152C180.75 394.113 185.735 391.288 187.77 390.874C191.913 390.031 196.157 383.916 197.618 376.684C198.127 374.162 198.834 371.065 199.188 369.801C199.798 367.624 205.672 363.999 225.219 353.736C232.681 349.818 234.147 349.469 236.912 350.948C239.679 352.429 241.02 352.107 247.636 348.372C256.638 343.292 256.947 342.944 260.953 333.367C262.673 329.256 265.495 324.164 267.224 322.051C268.954 319.938 270.369 317.101 270.369 315.747C270.369 311.527 277.078 289.892 283.404 273.714C286.733 265.198 289.178 257.95 288.837 257.608C288.495 257.267 286.13 258.578 283.581 260.522C281.032 262.466 278.51 264.057 277.977 264.057C275.71 264.057 257.527 247.451 255.729 243.739C253.802 239.761 253.908 239.492 260.809 230.819C264.686 225.948 269.369 220.773 271.217 219.319C274.357 216.849 275.015 216.806 281.248 218.657C284.916 219.746 291.155 222.139 295.112 223.974C300.261 226.362 302.452 226.835 302.82 225.638C303.102 224.718 304.801 220.698 306.595 216.706C308.39 212.713 310.506 206.598 311.298 203.116C312.089 199.634 313.882 193.268 315.281 188.97C317.655 181.679 317.669 181.148 315.502 181.043C311.828 180.863 308.076 180.309 303.55 179.277C298.631 178.155 291.736 182.301 276.011 195.835C270.725 200.384 265.18 204.759 263.688 205.557C262.196 206.356 260.39 209.127 259.675 211.716C257.735 218.744 248.806 229.086 245.439 228.206C243.906 227.805 241.05 228.7 238.838 230.276C235.709 232.503 234.545 232.726 232.948 231.4C231.853 230.491 230.957 228.614 230.957 227.227C230.957 225.841 229.4 220.568 227.496 215.51C225.592 210.452 224.348 205.087 224.731 203.588C225.114 202.088 229.118 197.253 233.629 192.841C241.128 185.507 241.829 184.324 241.829 179.01C241.829 171.693 245.766 168.214 255.569 166.865L262.463 165.917L261.597 161.302C260.531 155.62 263.71 148.294 268.31 145.832C270.462 144.68 273.837 144.392 278.27 144.98C284.345 145.786 285.175 145.563 287.114 142.603C289.806 138.495 300.448 133.223 303.603 134.434C306.258 135.452 321.833 133.005 332.438 129.904C338.797 128.044 339.885 128.057 343.859 130.04C349.358 132.783 349.032 132.831 350.465 129.063C352.199 124.5 374.247 114.685 377.502 117.026C384.018 121.712 385.088 120.942 385.277 111.428C385.482 101.11 386.706 98.4252 395.202 89.658C405.436 79.0976 407.518 78.1842 420.792 78.4351C432.968 78.6652 435.87 80.1295 439.863 88.0591C440.993 90.3032 443.297 93.6683 444.983 95.5369C451.584 102.852 449.164 116.368 440.099 122.823C436.882 125.114 436.171 126.61 436.171 131.086C436.171 135.147 435.235 137.543 432.532 140.407C430.531 142.527 428.7 145.683 428.464 147.42C427.571 153.967 426.554 156.086 423.109 158.568C419.567 161.12 419.564 161.12 416.514 157.295L413.462 153.468L411.19 156.936C409.456 159.582 409.233 161.232 410.249 163.904C411.216 166.448 411.053 168.461 409.653 171.267C408.593 173.391 406.867 178.473 405.817 182.559C403.954 189.813 403.989 190.085 407.29 194.022C409.15 196.241 411.669 198.123 412.889 198.207C414.108 198.29 416.653 198.463 418.545 198.59C421.013 198.757 422.419 199.975 423.523 202.9C425.401 207.873 429.317 208.245 436.123 204.096C440.131 201.653 442.105 201.356 449.374 202.101C455.821 202.761 457.954 202.55 458.072 201.239C458.158 200.284 458.371 198.891 458.545 198.143C458.718 197.396 458.953 195.728 459.067 194.437C459.181 193.147 460.863 191.049 462.805 189.777C465.731 187.86 466.804 187.755 469.065 189.168C471.382 190.614 472.246 190.447 474.788 188.058C476.811 186.158 480.434 184.968 485.953 184.391L494.122 183.537L497.084 191.659C501.273 203.148 500.992 208.938 495.968 214.659C491.634 219.596 491.066 221.256 493.25 222.606C493.997 223.068 494.609 224.889 494.609 226.653C494.609 229.305 493.609 230.098 488.833 231.231C476.63 234.128 460.981 238.388 453.159 240.944C438.578 245.707 426.343 248.078 425.273 246.348C424.553 245.182 421.722 245.225 414.028 246.518C402.802 248.404 395.693 247.11 389.194 241.998C386.091 239.557 385.995 239.569 384.35 242.609C383.427 244.314 381.666 249.426 380.438 253.968L378.205 262.227L381.706 266.308C383.632 268.553 387.959 272.272 391.323 274.574C394.686 276.875 403.211 283.706 410.266 289.754C417.321 295.802 423.589 300.75 424.196 300.75C424.802 300.75 426.532 299.516 428.04 298.009C430.6 295.449 431.049 295.407 434.84 297.367C446.061 303.17 450.102 321.801 442.599 333.138C440.537 336.254 437.992 338.803 436.943 338.803C435.77 338.803 433.69 342.859 431.542 349.335C428.276 359.183 428.172 360.274 429.945 366.119C431.648 371.735 431.595 372.909 429.427 377.671C428.099 380.586 425.251 385.244 423.098 388.021C420.944 390.798 418.084 394.62 416.741 396.515C415.398 398.409 413.452 399.959 412.416 399.959C409.891 399.959 409.325 402.67 409.072 415.975C408.876 426.312 409.218 427.888 413.241 435.206C417.157 442.329 418.178 443.266 422.839 444.011C429.12 445.015 433.453 448.983 433.453 453.73C433.453 455.648 434.124 458.471 434.944 460.004C436.117 462.196 435.962 463.266 434.216 465.011C432.453 466.774 429.279 467.213 418.795 467.144C404.279 467.048 396.789 464.665 389.474 457.813C385.925 454.489 385.382 454.355 383.254 456.281C381.143 458.192 380 458.149 371.154 455.826C365.781 454.416 360.477 452.508 359.366 451.586C356.319 449.057 356.917 442.398 361.329 429.735C367.406 412.29 369.497 407.79 373.582 403.357C378.796 397.699 379.505 394.937 376.512 391.944C375.128 390.559 373.23 389.172 372.295 388.86C369.916 388.067 373.218 346.294 375.831 344.125C376.818 343.306 380.06 342.309 383.034 341.91C388.815 341.135 390.429 339.092 389.184 334.129C388.567 331.673 385.678 329.997 375.249 326.048C364.21 321.867 359.439 320.679 350.371 319.855C349.897 319.811 349.224 318.284 348.876 316.46C348.406 314.005 349.765 311.287 354.107 305.994C357.332 302.062 359.73 298.603 359.434 298.307C358.479 297.352 346.885 305.98 343.573 310.111C341.806 312.316 338.83 316.757 336.962 319.98C335.093 323.203 326.433 333.015 317.718 341.785C302.254 357.346 301.888 357.854 302.526 362.876C304.11 375.342 287.742 388.829 272.775 387.391C264.397 386.586 258.138 388.419 258.138 391.678C258.138 395.929 254.821 398.572 246.916 400.62C242.613 401.735 235.445 404.489 230.987 406.739C226.528 408.99 221.409 410.831 219.61 410.831C216.146 410.831 206.364 420.997 196.363 434.991C191.302 442.072 191.249 442.279 192.206 451.214C192.739 456.192 194.053 461.604 195.125 463.241C196.624 465.529 196.732 466.964 195.593 469.442C194.283 472.294 193.138 472.689 185.693 472.856C181.064 472.96 176.197 472.762 174.879 472.414ZM338.121 122.871L365.501 43.296C365.501 39.0064 367.439 37.8718 370.148 40.581C371.33 41.7624 372.296 42.984 372.296 43.296L344.916 122.871H338.121Z" fill="white"/>
<path d="M136.516 468.799C132.093 462.048 124.918 437.639 125.281 430.576C125.6 424.38 125.37 423.769 122.815 424.024C120.548 424.25 119.577 422.989 117.844 417.568C115.717 410.916 115.73 410.801 118.893 408.312C124.808 403.763 133.005 404.369 138.543 400.035C138.543 399.406 139.418 398.555 140.487 398.145C141.7 397.68 141.189 399.23 139.128 402.267C134.933 408.449 134.973 412.547 139.342 424.02L154.852 470.921C149.28 471.374 139.336 472.796 136.516 468.799ZM335.595 455.104C323.78 451.84 322.983 450.983 323.682 442.299C324.481 432.372 334.392 407.476 339.752 401.933C344.83 396.682 344.796 394.175 339.594 390.103L335.431 386.845L339.833 345.35C340.392 344.446 343.797 343.367 347.4 342.953C353.344 342.27 353.99 341.85 354.386 338.402C354.753 335.195 355.283 334.746 357.783 335.513C361.723 336.723 361.608 336.463 360.182 340.961C357.854 348.302 355.539 386.594 357.085 392.178C358.327 396.662 358.027 398.374 354.708 405.769C349.083 418.303 342.398 439.025 342.398 443.929C342.398 446.291 342.967 450.206 343.662 452.631C344.303 458.885 337.608 455.658 335.595 455.104ZM139.514 391.805L212.986 221.793C227.176 237.319 220.355 249.703 237.002 246.965C239.552 246.325 240.409 246.813 241.158 249.332C248.73 259.813 256.508 266.322 266.189 275.608C261.073 296.098 253.057 315.286 243.709 334.047L235.634 334.836C227.787 335.603 220.27 338.927 196.302 352.229C189.061 356.247 185.813 360.981 183.322 371.15C182.508 374.472 180.968 377.69 179.583 377.813C177.514 377.995 173.702 380.499 170.722 383.247C166.754 387.647 146.548 393.283 139.514 391.805ZM130.838 121.359H134.395L27.1244 391.805H23.5674L130.838 121.359ZM152.378 121.359H157.92L41.6764 391.805H36.1344L152.378 121.359ZM173.168 121.359H183.391L67.1474 391.805H56.9244L173.168 121.359ZM199.472 121.359H210.373L94.1294 391.805H83.2284L199.472 121.359ZM225.883 121.359H240.267L124.023 391.805H109.639L225.883 121.359ZM289.792 205.892C288.659 205.172 289.606 203.687 292.85 201.098C295.435 199.036 297.55 197.589 297.55 197.883C297.55 198.177 296.878 200.344 296.058 202.698C294.564 206.982 292.868 207.847 289.792 205.892ZM255.758 121.359H291.287L284.858 125.436C281.322 127.678 276.768 129.516 274.739 129.52C263.135 129.543 249.915 139.198 248.078 148.988C247.564 151.731 246.609 153.975 245.956 153.975C245.304 153.975 244.435 154.156 243.254 154.61L255.758 121.359ZM319.474 101.152L340.417 42.458H344.873L323.93 101.152H319.474Z" fill="white" fill-opacity="0.501961"/>
</svg>
