<svg width="512" height="512" viewBox="0 0 512 512" fill="none" xmlns="http://www.w3.org/2000/svg">
<path d="M191.588 435.503L12 177.9H500L325.102 438.121L286.357 444.927L252.324 446.498L222.48 444.927L191.588 435.503Z" fill="url(#paint0_linear_219_8399)"/>
<path d="M234.84 481.618C214.435 479.038 204.871 474.418 187.102 458.557C182.067 454.064 181.165 452.533 181.907 449.738C183.81 442.561 184.695 442.264 192.694 446.116C206.72 452.87 220.079 454.628 257.466 454.64C299.272 454.655 319.278 451.585 327.64 443.877C330.421 441.313 331.013 441.219 332.839 443.045C333.973 444.179 335.468 447.086 336.162 449.505C337.391 453.79 337.159 454.116 327.126 462.187C312.988 473.56 306.359 477.188 295.287 479.611C283.902 482.103 248.084 483.292 234.84 481.618ZM200.105 387.615C198.978 385.791 200.631 383.202 202.274 384.218C203.953 385.256 203.942 388.997 202.26 388.997C201.544 388.997 200.575 388.375 200.105 387.615ZM189.278 379.782C188.771 379.275 188.356 375.795 188.356 372.048C188.356 367.561 187.456 363.971 185.721 361.533C183.534 358.462 183.288 356.777 184.278 351.645C184.935 348.242 185.523 342.348 185.585 338.547C185.687 332.327 186.143 331.355 190.137 328.823L194.576 326.01L194.504 312.016C194.462 303.877 193.788 297.247 192.892 296.168C191.425 294.401 189.965 278.74 191.215 278.175C191.543 278.027 193.492 279.006 195.545 280.351C199.784 283.129 204.026 282.852 204.622 279.758C205.063 277.467 191.592 266.433 190.134 267.891C188.998 269.027 181.446 261.876 181.446 259.665C181.446 255.177 169.129 257.382 164.754 262.654C161.25 266.875 153.802 262.837 153.802 256.717C153.802 254.722 152.657 253.659 149.917 253.111C145.606 252.249 142.744 247.495 142.744 241.196C142.744 239.038 141.827 235.504 140.705 233.342C138.71 229.497 139.073 219.697 141.302 217.221C141.835 216.629 143.933 217.452 145.964 219.05C149.399 221.751 154.709 222.346 154.324 219.986C154.231 219.415 153.714 215.07 153.175 210.329L152.195 201.711L148.918 205.512C145.568 209.398 142.744 210.467 142.744 207.85C142.744 203.195 146.015 186.239 147.192 184.794C149.265 182.248 151.165 184.136 150.239 187.823C149.162 192.116 151.763 193.475 155.887 190.772C157.728 189.567 160.112 188.58 161.186 188.58C162.26 188.58 163.967 187.582 164.978 186.363C166.521 184.505 166.462 183.526 164.616 180.31C163.405 178.2 162.712 174.916 163.076 173.013C164.055 167.894 161.045 167.012 156.724 171.152C151.906 175.768 150.502 175.714 151.674 170.957C152.913 165.933 161.891 149.879 163.463 149.879C165.79 149.879 166.275 152.44 164.632 156.046C163.278 159.018 163.369 160.039 165.146 161.815C167.102 163.772 167.624 163.764 170.725 161.733C172.606 160.5 175.091 159.855 176.248 160.299C177.648 160.836 179.352 159.486 181.343 156.265C183.883 152.155 184.07 150.999 182.579 148.613C181.194 146.395 181.181 145.445 182.517 144.109C185.096 141.53 184.555 140.204 180.923 140.204C179.081 140.204 176.759 141.526 175.64 143.21C174.334 145.177 172.844 145.91 171.333 145.33C169.358 144.572 169.264 143.886 170.687 140.596C173.642 133.766 182.875 120.853 184.805 120.853C187.563 120.853 188.503 124.548 186.734 128.431C184.499 133.336 187.256 136.499 191.917 134.376C194.274 133.302 196.205 133.276 198.429 134.29C200.936 135.432 202.255 135.192 204.802 133.129C206.568 131.699 208.899 130.529 209.982 130.529C212.71 130.529 218.753 134.656 218.817 136.562C218.919 139.606 230.321 146.269 235.351 146.224C240.125 146.181 253.579 143.874 262.994 141.484C266.844 140.507 266.137 140.397 259.539 140.947C254.978 141.326 248.136 142.021 244.335 142.49C240.534 142.959 237.874 142.86 238.425 142.27C238.975 141.68 236.798 139.526 233.587 137.484C230.376 135.441 225.424 130.924 222.582 127.445C217.539 121.271 217.474 121.047 219.864 118.094C221.212 116.431 224.003 114.972 226.067 114.852C229.463 114.654 229.82 114.127 229.821 109.303C229.822 105.132 230.273 104.145 231.895 104.767C234.525 105.776 234.505 105.55 231.343 98.4301C229.899 95.1789 228.042 90.7995 227.217 88.6982C225.829 85.1637 225.301 84.944 220.167 85.7649C217.115 86.253 214.618 86.2939 214.618 85.8558C214.618 85.4177 216.173 83.3814 218.073 81.3307C222.378 76.6855 222.396 75.5029 218.185 73.9018C212.96 71.9153 211.89 68.7171 214.19 61.9668C215.296 58.7193 217.089 55.3255 218.174 54.4251C219.259 53.5248 220.147 50.7426 220.147 48.2426C220.147 42.2041 226.221 37.0425 234.851 35.7484C238.37 35.2207 242.41 33.6281 243.829 32.2092C248.115 27.9231 253.153 28.9373 258.478 35.1582C261.08 38.199 263.986 40.6869 264.935 40.6869C267.658 40.6869 273.001 47.1302 274.973 52.7917C277.313 59.5095 277.268 60.1242 274.519 59.0692C272.421 58.264 272.315 59.6141 273.298 74.6622C273.889 83.7231 274.323 92.8819 274.262 95.0151C274.17 98.2159 274.609 98.748 276.774 98.061C278.645 97.4673 280.676 98.634 283.855 102.128L288.314 107.027L294.113 94.2413C303.537 73.4624 313.771 56.6102 321.166 49.6929C324.92 46.1817 328.605 43.6887 329.356 44.1528C331.921 45.738 330.722 47.4811 324.598 51.0702C320.983 53.1886 316.806 57.3184 314.404 61.1493C300.49 83.3374 291.417 104.9 292.729 112.663C293.711 118.477 291.289 124.175 282.135 137.585C276.695 145.555 276.656 145.58 266.037 147.885C260.183 149.156 250.833 151.42 245.261 152.916C235.471 155.545 235.036 155.552 232.36 153.13C229.628 150.657 229.614 150.676 231.358 154.502C233.359 158.893 233.14 158.899 254.701 153.883C272.559 149.729 278.776 147.208 281.198 143.138C282.385 141.144 285.589 135.863 288.318 131.402C291.048 126.941 293.464 122.77 293.687 122.133C294.154 120.804 314.056 125.75 315.978 127.672C316.72 128.414 318.56 128.447 320.389 127.752C322.114 127.096 323.86 126.893 324.268 127.3C324.675 127.708 325.723 127.6 326.596 127.06C327.667 126.398 326.936 124.777 324.348 122.075C321.472 119.074 320.907 117.676 322.09 116.493C323.968 114.614 327.72 116.789 338.734 126.142C343.668 130.331 345.509 132.697 344.379 133.395C343.456 133.966 341.209 133.865 339.386 133.172C337.562 132.478 335.865 131.911 335.614 131.911C335.363 131.911 333.979 134.291 332.54 137.2C330.07 142.192 330.051 142.778 332.199 147.646C335.665 155.501 336.618 156.009 342.672 153.225C345.602 151.878 348.225 150.607 348.502 150.4C348.779 150.194 347.69 148.354 346.083 146.31C342.367 141.586 342.399 140.204 346.223 140.204C349.856 140.204 365.276 156.125 365.276 159.875C365.276 162.691 361.153 163.172 358.632 160.651C357.329 159.347 356.45 159.495 354.619 161.326C352.415 163.53 352.487 164.064 355.823 170.251C358.068 174.417 360.448 176.993 362.307 177.272C364.922 177.663 365.149 177.231 364.369 173.331C363.612 169.55 363.851 169.017 366.112 169.436C372.358 170.593 378.832 194.041 373.224 195.196C371.823 195.485 370.805 194.869 370.805 193.734C370.805 191.002 365.777 186.726 363.917 187.875C362.186 188.945 362.825 195.057 365.114 199.334C365.95 200.897 366.242 204.139 365.762 206.538C364.91 210.797 364.999 210.889 369.521 210.452C373.147 210.102 374.327 209.255 374.96 206.549C376.954 198.018 385.076 206.026 386.227 217.657C386.668 222.123 386.445 222.427 382.899 222.184C378.164 221.86 378.014 223.47 382.554 225.9C384.872 227.141 386.007 228.923 386.004 231.316C386 235.136 381.328 243.868 379.291 243.868C378.615 243.868 377.669 245.83 377.189 248.228C376.71 250.627 375.609 253.442 374.744 254.485C373.449 256.045 372.893 255.823 371.607 253.235C369.716 249.425 365.001 248.47 362.567 251.403C361.59 252.58 358.697 253.543 356.137 253.543C352.029 253.543 350.89 254.435 346.435 261.145C341.473 268.619 337.475 270.683 334.108 267.51C333.355 266.8 331.468 266.781 329.685 267.465C326.063 268.855 325.532 273.555 328.792 275.379C330.81 276.509 330.787 277.044 328.532 281.322C327.084 284.071 326.04 289.04 326.019 293.282C325.991 299.012 325.464 300.704 323.518 301.321C322.162 301.752 320.696 303.523 320.261 305.258C319.427 308.582 311.925 312.977 307.087 312.977C302.68 312.977 299.327 315.356 298.372 319.162C297.639 322.085 296.782 322.599 293.127 322.308C289.48 322.019 288.618 322.532 287.908 325.417C286.709 330.29 282.905 329.993 283.481 325.071C284.063 320.092 280.771 320.012 276.917 324.912C273.091 329.775 273.293 331.443 278.204 335.575C280.487 337.497 281.796 339.415 281.112 339.838C279.255 340.985 273.063 337.369 273.685 335.501C274.544 332.925 268.673 327.966 265.328 328.442C263.227 328.741 262.174 329.987 261.88 332.524C261.535 335.505 260.901 336.042 258.425 335.45C256.757 335.051 254.383 333.467 253.15 331.928C250.496 328.618 246.408 329.582 246.408 333.519C246.408 336.273 249.857 338.451 252.062 337.088C252.753 336.661 253.319 337.592 253.319 339.157C253.319 341.253 252.43 342.003 249.945 342.003C245.059 342.003 244.102 344.735 247.937 347.739C251.18 350.279 251.192 350.372 248.563 352.387C247.087 353.517 244.831 354.443 243.549 354.443C242.267 354.443 240.444 355.376 239.497 356.516C236.833 359.727 235.351 358.986 235.351 354.443C235.351 351.182 234.744 350.296 232.514 350.296C230.606 350.296 229.205 351.652 228.233 354.443C227.438 356.723 226.226 358.589 225.54 358.589C223.287 358.589 224.236 361.555 227.278 364.018C231.032 367.058 229.793 369.186 223.865 369.878C219.71 370.363 219.323 370.111 219.867 367.267C220.467 364.129 220.068 363.881 213.927 363.568C212.118 363.476 211.3 362.605 211.56 361.047C211.822 359.475 210.753 358.366 208.407 357.777C205.627 357.079 205.048 356.287 205.737 354.119C206.359 352.157 206.07 351.53 204.742 351.967C203.712 352.305 202.658 354.398 202.399 356.618C201.894 360.954 199.776 363.093 196.995 362.074C194.601 361.196 194.836 362.733 197.555 365.737C199.686 368.092 199.677 368.448 197.419 370.942C196.087 372.414 195.422 374.307 195.942 375.149C197.822 378.191 191.843 382.348 189.278 379.782ZM190.436 354.175C190.186 350.784 187.737 349.326 186.271 351.697C185.567 352.837 188.264 356.287 190.544 357.162C190.607 357.186 190.558 355.842 190.436 354.175ZM222.911 347.45C222.911 346.734 222.289 346.149 221.529 346.149C220.769 346.149 220.147 347.119 220.147 348.304C220.147 349.489 220.769 350.074 221.529 349.604C222.289 349.135 222.911 348.165 222.911 347.45ZM239.497 347.45C239.497 346.734 238.564 346.149 237.424 346.149C235.287 346.149 234.678 347.78 236.235 349.336C237.339 350.441 239.497 349.192 239.497 347.45ZM312.058 308.842C312.538 307.329 312.544 305.463 312.07 304.696C309.827 301.067 303.706 305.256 305.275 309.346C306.482 312.491 311.007 312.155 312.058 308.842ZM317.187 244.278C321.626 239.943 322.428 238.262 322.428 233.296C322.428 228.268 322.968 227.173 326.212 225.618C328.294 224.621 330.193 222.785 330.433 221.539C330.976 218.719 321.131 203.06 319.832 204.678C319.311 205.327 316.491 210.9 313.565 217.064C308.373 228 308.269 228.524 309.235 238.833C309.779 244.643 310.612 249.396 311.085 249.396C311.558 249.396 314.304 247.093 317.187 244.278ZM207.417 238.322C210.578 234.318 210.579 234.291 208.41 222.158C204.707 201.446 202.035 189.962 200.92 189.962C198.333 189.962 195.341 199.85 194.645 210.695C194.23 217.157 193.507 225.637 193.037 229.54C192.307 235.601 192.609 237.062 195.107 239.56C199.113 243.566 203.637 243.111 207.417 238.322ZM278.812 127.418C283.239 123.204 287.534 112.28 283.875 114.542C283.034 115.062 282.345 116.969 282.345 118.78C282.345 120.591 281.723 122.457 280.963 122.926C280.176 123.413 279.581 122.222 279.581 120.162C279.581 115.504 277.534 116.793 274.032 123.656C269.2 133.129 271.177 134.685 278.812 127.418ZM203.622 376.442C204.834 374.177 204.697 373.048 202.98 371.15C199.624 367.442 200.208 362.935 204.173 361.94C208.925 360.748 210.834 362.404 210.142 367.119C209.702 370.115 210.248 371.551 212.231 372.612C214.129 373.628 214.484 374.48 213.443 375.521C212.402 376.562 211.431 376.545 210.128 375.463C208.726 374.3 207.881 374.58 206.602 376.627C204.274 380.354 201.617 380.189 203.622 376.442ZM219.837 133.286C215.36 130.474 213.56 128.528 214.111 127.093C215.386 123.77 217.685 124.819 223.436 131.35C229.706 138.47 228.836 138.938 219.837 133.286Z" fill="white"/>
<path d="M259.018 425.035C252.861 425.035 246.956 425.524 242.603 426.395C238.249 427.266 235.803 428.446 235.803 429.678C235.802 430.288 236.401 430.892 237.567 431.455C238.734 432.019 240.443 432.531 242.599 432.962C244.755 433.393 247.315 433.735 250.132 433.969C252.949 434.202 255.968 434.322 259.018 434.322C262.067 434.322 265.086 434.202 267.903 433.969C270.721 433.735 273.28 433.393 275.436 432.962C277.592 432.531 279.302 432.019 280.468 431.455C281.634 430.892 282.234 430.288 282.232 429.678C282.232 428.446 279.786 427.266 275.432 426.395C271.079 425.524 265.174 425.035 259.018 425.035ZM258.52 427.254C260.17 427.254 261.804 427.319 263.328 427.445C264.853 427.572 266.238 427.757 267.405 427.99C268.572 428.224 269.497 428.501 270.128 428.806C270.76 429.111 271.084 429.438 271.084 429.768C271.084 430.098 270.76 430.424 270.128 430.729C269.497 431.034 268.572 431.311 267.405 431.545C266.238 431.778 264.853 431.964 263.328 432.09C261.804 432.216 260.17 432.281 258.52 432.281C256.869 432.281 255.235 432.216 253.71 432.09C252.185 431.964 250.8 431.778 249.633 431.545C248.466 431.312 247.54 431.035 246.909 430.73C246.278 430.425 245.953 430.098 245.953 429.768C245.953 429.437 246.278 429.111 246.909 428.806C247.54 428.501 248.466 428.224 249.633 427.99C250.8 427.757 252.185 427.572 253.71 427.445C255.235 427.319 256.869 427.254 258.52 427.254Z" fill="white"/>
<path d="M258.848 419.584C252.268 419.584 245.752 419.843 239.673 420.347C233.595 420.851 228.071 421.589 223.419 422.519C218.766 423.45 215.076 424.555 212.558 425.771C210.041 426.986 208.745 428.289 208.746 429.605C208.747 432.263 214.027 434.811 223.422 436.69C232.818 438.569 245.561 439.625 258.848 439.625C272.135 439.625 284.878 438.569 294.274 436.69C303.67 434.811 308.95 432.263 308.951 429.605C308.952 428.289 307.656 426.986 305.139 425.77C302.621 424.555 298.93 423.45 294.278 422.519C289.625 421.589 284.102 420.85 278.022 420.347C271.943 419.843 265.428 419.584 258.848 419.584ZM257.795 421.961C268.042 421.961 277.869 422.775 285.115 424.224C292.361 425.673 296.432 427.638 296.434 429.688C296.434 430.702 295.435 431.707 293.494 432.645C291.552 433.583 288.706 434.435 285.118 435.152C281.53 435.87 277.27 436.439 272.582 436.828C267.894 437.216 262.869 437.416 257.795 437.416C252.72 437.416 247.696 437.216 243.008 436.828C238.319 436.439 234.06 435.87 230.472 435.152C226.884 434.435 224.038 433.583 222.096 432.645C220.155 431.707 219.156 430.702 219.156 429.688C219.158 427.638 223.229 425.673 230.475 424.224C237.721 422.775 247.548 421.961 257.795 421.961Z" fill="white"/>
<path d="M311.5 427.303C313.895 428.581 315.127 429.934 315.137 431.299C315.137 432.8 313.658 434.287 310.785 435.674C307.912 437.062 303.7 438.322 298.392 439.384C293.083 440.445 286.781 441.288 279.845 441.862C272.908 442.437 265.474 442.732 257.967 442.732C242.805 442.732 228.264 441.528 217.543 439.384C206.822 437.239 200.799 434.331 200.799 431.299C200.82 430.028 201.9 428.768 203.994 427.568C194.934 429.94 190.011 432.84 189.979 435.824C189.978 437.617 191.742 439.391 195.171 441.047C198.6 442.703 203.627 444.208 209.963 445.475C216.3 446.743 223.823 447.748 232.102 448.434C240.381 449.12 249.255 449.473 258.217 449.473C267.178 449.473 276.052 449.12 284.331 448.434C292.61 447.748 300.133 446.742 306.469 445.475C312.805 444.208 317.832 442.703 321.26 441.047C324.689 439.391 326.454 437.616 326.453 435.824C326.449 432.727 321.175 429.722 311.5 427.303Z" fill="white"/>
<defs>
<linearGradient id="paint0_linear_219_8399" x1="252.324" y1="446.498" x2="256.622" y2="316.642" gradientUnits="userSpaceOnUse">
<stop stop-color="#FFFFEA" stop-opacity="0.501961"/>
<stop offset="1" stop-color="white" stop-opacity="0"/>
</linearGradient>
</defs>
</svg>
