<svg width="512" height="512" viewBox="0 0 512 512" fill="none" xmlns="http://www.w3.org/2000/svg">
<path d="M281.192 459.887C281.192 458.614 281.886 457.573 282.735 457.573C283.583 457.573 284.277 458.614 284.277 459.887C284.277 461.16 283.583 462.201 282.735 462.201C281.886 462.201 281.192 461.16 281.192 459.887ZM282.735 449.199C282.735 448.629 283.812 446.079 285.128 443.533C286.445 440.988 287.118 437.63 286.623 436.073C285.652 433.013 288.581 425.173 290.696 425.173C292.747 425.173 292.201 441.305 290.063 443.854C287.369 447.065 282.735 450.446 282.735 449.199ZM398.618 432.116L387.948 395.876L414.305 367.713L452.46 376.465L463.784 414.542L434.734 442L398.618 432.116ZM305.877 423.66C305.877 421.682 307.245 420.26 309.754 419.631C311.886 419.095 314.295 417.52 315.107 416.13C316.279 414.122 316.592 414.569 316.63 418.308C316.686 423.907 314.278 426.716 309.425 426.716C306.917 426.716 305.877 425.82 305.877 423.66ZM330.603 407.022C330.634 403 331.97 399.662 335.031 395.97L339.417 390.681L340.061 396.199C340.595 400.772 339.837 402.665 335.634 407.251L330.562 412.785L330.603 407.022ZM353.704 378.791C353.704 372.488 354.482 369.774 357.084 367.004C360.811 363.037 360.721 364.583 359.983 317.645C359.767 303.901 360.043 291.925 360.596 291.031C363.826 285.804 364.504 292.461 364.504 329.391C364.504 364.971 364.187 370.115 361.629 376.083C360.048 379.771 357.618 383.733 356.229 384.885C353.945 386.781 353.704 386.2 353.704 378.791ZM435.208 355.244L430.483 337.059L442.416 323.472L461.297 328.253L465.34 346.609L452.509 360.222L435.208 355.244ZM281.192 346.724C281.192 341.883 281.836 340.51 284.426 339.832C291.41 338.006 294.722 343.229 289.291 347.503C282.011 353.232 281.192 353.153 281.192 346.724ZM310.208 315.52L306.054 312.419L305.951 283.941L305.848 255.463H310.491H315.134V287.091C315.134 304.486 314.96 318.697 314.748 318.67C314.536 318.644 312.493 317.226 310.208 315.52ZM329.068 285.896L329.019 253.844L333.006 252.328C335.198 251.495 337.644 251.215 338.441 251.708C339.268 252.219 339.828 264.813 339.746 281.057C339.667 296.755 339.001 309.138 338.26 308.681C336.908 307.845 335.392 309.197 331.33 314.862C329.38 317.581 329.111 314.145 329.068 285.896ZM289.31 304.448C289.601 301.696 288.798 300.875 285.434 300.488L281.192 300V252.468C281.192 226.325 280.758 202.766 280.227 200.114C279.403 195.994 279.714 195.293 282.364 195.293C288.24 195.293 290.449 201.577 290.449 218.29C290.449 226.755 289.833 234.062 289.081 234.527C286.386 236.192 285.484 246.382 287.863 248.279C290.661 250.511 293.251 307.919 290.553 307.919C289.667 307.919 289.108 306.357 289.31 304.448ZM352.44 247.749C352.541 231.202 352.92 219.649 353.283 222.076C353.874 226.036 354.403 226.395 358.451 225.586L362.961 224.684V238.159C362.961 249.604 362.53 251.904 360.105 253.419C358.107 254.667 356.984 257.768 356.367 263.742C355.882 268.439 354.759 273.531 353.871 275.058C352.71 277.053 352.307 269.367 352.44 247.749ZM376.951 271.166C376.894 269.196 378.641 264.522 380.833 260.781C384.381 254.727 385.055 249.13 383.076 242.143C383.045 242.03 381.629 241.574 379.932 241.131C378.144 240.663 376.847 239.026 376.847 237.238C376.847 233.265 382.117 234.37 385.379 239.028C388.612 243.643 388.189 250.118 384.063 259.171C382.092 263.496 379.709 268.77 378.768 270.891L377.055 274.748L376.951 271.166ZM333.648 239.263C332.043 237.33 332.266 236.949 335.002 236.949C336.884 236.949 338.276 237.933 338.276 239.263C338.276 240.536 337.667 241.578 336.922 241.578C336.177 241.578 334.704 240.536 333.648 239.263ZM305.877 221.356C305.877 217.619 306.415 216.769 308.317 217.499C309.659 218.014 311.742 218.435 312.946 218.435C314.251 218.435 315.134 219.991 315.134 222.292C315.134 225.549 314.414 226.149 310.505 226.149C306.356 226.149 305.877 225.653 305.877 221.356ZM329.019 222.292C329.019 220.75 330.562 219.978 333.648 219.978C336.733 219.978 338.276 220.75 338.276 222.292C338.276 223.835 336.733 224.607 333.648 224.607C330.562 224.607 329.019 223.835 329.019 222.292ZM386.347 218.435C386.347 216.314 386.697 215.446 387.125 216.507C387.553 217.567 387.553 219.303 387.125 220.364C386.697 221.425 386.347 220.557 386.347 218.435ZM402.402 208.726C402.982 207.205 403.844 206.348 404.319 206.823C404.794 207.298 404.32 208.543 403.266 209.59C401.742 211.102 401.565 210.925 402.402 208.726ZM329.019 176.008C329.019 158.612 329.391 144.38 329.845 144.38C330.299 144.38 332.382 145.501 334.473 146.872L338.276 149.363V178.499V207.636H333.648H329.019V176.008ZM307.579 203.138C305.9 202.075 305.258 195.109 304.666 171.534L303.906 141.294H308.749H313.591V161.118C313.591 172.021 314.04 186.254 314.589 192.746C315.512 203.663 315.367 204.548 312.66 204.526C311.051 204.513 308.764 203.889 307.579 203.138ZM352.161 182.125C352.161 160.374 352.252 159.748 355.168 161.309C361.58 164.74 362.961 169.004 362.961 185.36C362.961 200.589 362.865 201.013 359.032 202.759C356.87 203.744 354.44 204.55 353.632 204.55C352.767 204.55 352.161 195.308 352.161 182.125ZM403.074 196.815C403.074 195.106 403.893 192.397 404.894 190.795C406.35 188.464 406.198 187.094 404.134 183.944C402.046 180.759 401.881 179.184 403.269 175.693C404.487 172.632 405.22 172.051 405.794 173.694C406.239 174.966 407.283 177.743 408.114 179.865C410.441 185.809 410.389 192.622 407.985 196.45C405.28 200.757 403.074 200.921 403.074 196.815ZM289.252 191.875C289.061 190.42 286.823 186.857 284.277 183.958L279.649 178.686V158.447V138.209H284.326C286.898 138.209 289.345 139.102 289.764 140.194C290.183 141.286 290.317 153.956 290.062 168.35C289.806 182.744 289.442 193.331 289.252 191.875ZM401.532 153.637C401.532 147.114 402.972 145.938 406.198 149.825C407.696 151.63 407.748 153.082 406.42 155.997C403.82 161.703 401.532 160.598 401.532 153.637ZM399.989 124.323C399.989 120.929 400.636 118.152 401.428 118.152C403.511 118.152 404.989 123.808 403.846 127.409C402.196 132.608 399.989 130.842 399.989 124.323ZM386.225 112.624C386.299 110.826 386.665 110.461 387.157 111.691C387.603 112.805 387.548 114.136 387.036 114.648C386.523 115.161 386.158 114.25 386.225 112.624ZM385.093 94.1717C384.591 92.8622 384.524 91.4462 384.946 91.0249C385.367 90.6035 386.082 91.6749 386.535 93.4056C387.496 97.0821 386.428 97.6497 385.093 94.1717ZM417.562 91.7862L398.78 87.3452L393.871 69.3191L404.876 58.3057L422.462 62.1961L427.81 81.1644L417.562 91.7862ZM376.543 84.8876C375.863 79.0658 377.112 77.2184 380.777 78.6249C383.487 79.6648 383.735 85.9616 381.166 88.5298C378.197 91.4993 377.225 90.734 376.543 84.8876ZM356.018 52.0894L351.39 49.5272L355.774 49.01C360.806 48.4163 361.902 49.0924 361.169 52.339C360.714 54.3558 360.055 54.3238 356.018 52.0894ZM277.615 43.0912C275.919 41.3951 276.491 37.3787 278.878 34.225C280.617 31.9274 281.562 31.6837 283.262 33.0945C284.454 34.0836 286.653 34.4231 288.149 33.849C292.719 32.0953 289.979 36.8719 284.925 39.4681C282.447 40.7409 280.026 42.3134 279.543 42.9626C279.061 43.6118 278.193 43.6696 277.615 43.0912ZM307.878 36.6704C302.408 35.8922 301.188 27.1255 306.55 27.1255C309.483 27.1255 312.369 31.1223 311.781 34.369C311.44 36.2516 310.176 36.9972 307.878 36.6704ZM327.48 34.3514C327.477 32.2056 328.467 31.6634 331.706 32.0372C337.888 32.7508 338.318 37.5412 332.179 37.3217C328.733 37.1985 327.482 36.408 327.48 34.3514Z" fill="white" fill-opacity="0.501961"/>
<path d="M264.606 492C262.697 487.6 261.135 482.082 261.135 479.737C261.135 477.393 259.33 469.557 257.124 462.325C254.023 452.158 251.762 447.784 247.155 443.037C243.878 439.661 240.399 434.972 239.423 432.616C238.096 429.412 236.237 428.084 232.035 427.337C221.138 425.402 206.193 416.22 199.489 407.341C196.057 402.795 190.787 397.137 187.777 394.768C181.275 389.649 176.025 381.717 175.36 376.009C175.096 373.745 173.419 368.587 171.632 364.549C169.496 359.718 168.47 354.448 168.635 349.147C168.773 344.716 168.889 331.023 168.893 318.719C168.899 296.97 168.807 296.334 165.564 295.844C161.716 295.263 160.038 291.531 156.886 276.546C155.657 270.706 153.209 263.901 151.444 261.423C146.967 255.135 145.053 247.38 146.828 242.713C148.736 237.695 158.276 231.785 162.371 233.085C165.166 233.972 165.48 233.386 165.48 227.294C165.48 221.987 164.611 219.704 161.476 216.776C152.442 208.336 149.051 194.448 151.715 176.805C153.069 167.838 153.021 163.44 151.502 157.107C149.658 149.422 149.821 148.09 154.336 133.938C156.971 125.68 159.978 115.533 161.019 111.389C162.249 106.489 164.574 102.365 167.667 99.5942C170.283 97.2509 176.176 91.963 180.764 87.8432C186.501 82.6906 190.487 77.3242 193.535 70.6488C197.017 63.023 199.453 60.0018 204.91 56.5411C208.729 54.1191 214.421 51.6558 217.558 51.0672C221.719 50.2867 226.3 47.1112 234.489 39.3327C248.162 26.3448 252.057 25.6099 260.343 34.4539C263.962 38.3169 265.635 41.4817 265.378 43.9776C264.778 49.7909 261.527 49.5408 255.753 43.2372L250.463 37.4617L245.107 41.547C242.161 43.7939 238.363 47.5807 236.668 49.962C233.428 54.5112 226.157 58.7823 219.212 60.2156C213.099 61.4772 205.614 68.4786 202.425 75.9178C199.675 82.3339 191.261 91.7553 178.311 102.92C173.163 107.359 171.368 110.321 169.442 117.561C166.869 127.232 163.99 135.927 160.734 143.865C159.083 147.888 159.093 149.85 160.785 154.979C162.245 159.403 162.471 163.799 161.565 170.15C158.455 191.949 160.518 202.723 169.681 212.523C172.716 215.77 173.702 218.79 174.347 226.823C175.347 239.286 172.886 243.12 163.887 243.12C154.728 243.12 153.556 246.166 159.011 255.795C161.552 260.279 164.469 268.114 165.494 273.205C167.764 284.484 168.564 286.038 173.319 288.402C176.88 290.173 177.112 291.213 178.377 311.045C179.278 325.163 179.157 334.57 178.001 340.363C176.22 349.292 177.008 354.426 181.487 363.088C182.866 365.754 183.994 370.061 183.994 372.659C183.994 376.503 186.75 380.322 198.802 393.174C213.892 409.267 222.16 414.997 236.43 419.252C241.489 420.761 244.188 422.712 246.458 426.505C248.166 429.358 253.502 436.052 258.315 441.38C268.573 452.734 269.26 455.476 268.549 482.258L268.078 500L264.606 492ZM237.517 341.861L248.169 341.883C264.541 340.762 272.076 354.248 259.978 354.136C250.124 352.406 245.842 347.954 237.517 341.861ZM259.071 311.656C266.03 312.675 266.548 317.15 265.763 323.658C261.602 321.729 250.536 309.588 259.071 311.656ZM206.45 314.476C204.579 310.048 199.668 310.386 196.11 308.573C184.316 303.303 171.371 257.031 179.167 244.213C184.048 235.744 182.451 229.043 182.451 219.082C212.823 219.691 221.329 216.877 230.621 214.125C240.458 211.247 257.703 191.554 265.763 190.665V301.748C251.356 301.151 236.881 309.174 225.362 317.238C216.934 323.013 209.832 325.916 206.45 314.476ZM239.474 250.905C241.394 249.691 241.28 248.98 238.703 246.095C235.696 242.73 235.696 242.716 238.764 243.614C240.461 244.11 243.864 244.998 246.326 245.587L250.802 246.658L249.726 239.933C249.135 236.234 248.34 232.897 247.96 232.517C245.799 230.356 216.427 226.236 202.893 226.196C186.311 226.147 184.567 226.987 189.633 232.585C191.49 234.637 194.399 235.406 200.306 235.406C212.746 235.406 214.319 236.671 206.816 240.639C203.29 242.503 200.17 244.733 199.883 245.595C199.596 246.456 201.631 248.29 204.406 249.67C210.047 252.477 235.568 253.376 239.474 250.905ZM187.851 206.702C186.154 206.272 182.886 205.193 180.589 204.304C171.861 200.927 167.795 177.689 173.803 165.527C176.248 160.579 178.866 158.619 190.758 152.834C210.272 143.342 238.421 136.666 258.932 136.666H265.763V177.702L260.314 179.673C257.316 180.757 251.123 185.475 246.551 190.158C235.893 201.074 223.224 206.067 204.051 206.908C196.838 207.224 189.548 207.132 187.851 206.702ZM278.35 39.4681C278.35 37.3467 278.7 36.4789 279.128 37.5396C279.556 38.6003 279.556 40.3359 279.128 41.3966C278.7 42.4573 278.35 41.5895 278.35 39.4681Z" fill="white"/>
<path d="M158.872 131.224L131.988 139.406L84.0645 91.775L102.474 30.1174L166.469 12L209.425 55.8324C192.768 83.7904 168.689 100.986 158.872 131.224Z" fill="white" fill-opacity="0.501961"/>
<path d="M86.9864 132.393L53.966 140.575L46.6606 170.966L68.869 194.343L100.721 185.284L108.61 155.186L86.9864 132.393Z" fill="white" fill-opacity="0.501961"/>
</svg>
