<svg width="512" height="512" viewBox="0 0 512 512" fill="none" xmlns="http://www.w3.org/2000/svg">
<path d="M384.015 75.4317C384.015 77.8474 383.54 80.2394 382.615 82.4712C381.691 84.703 380.336 86.7309 378.628 88.4391C376.919 90.1472 374.892 91.5022 372.66 92.4266C370.428 93.3511 368.036 93.8269 365.62 93.8269C360.742 93.8269 356.063 91.8888 352.613 88.4391C349.163 84.9893 347.225 80.3104 347.225 75.4317C347.225 73.0161 347.701 70.624 348.625 68.3922C349.55 66.1604 350.905 64.1326 352.613 62.4244C354.321 60.7163 356.349 59.3613 358.581 58.4369C360.812 57.5124 363.205 57.0366 365.62 57.0366C368.036 57.0366 370.428 57.5124 372.66 58.4369C374.892 59.3613 376.919 60.7163 378.628 62.4244C380.336 64.1326 381.691 66.1604 382.615 68.3922C383.54 70.624 384.015 73.0161 384.015 75.4317Z" fill="white"/>
<path d="M486.017 256.61C486.017 261.489 484.079 266.168 480.629 269.618C477.18 273.068 472.501 275.006 467.622 275.006C462.743 275.006 458.065 273.068 454.615 269.618C451.165 266.168 449.227 261.489 449.227 256.61C449.227 251.732 451.165 247.053 454.615 243.603C458.065 240.153 462.743 238.215 467.622 238.215C472.501 238.215 477.18 240.153 480.629 243.603C484.079 247.053 486.017 251.732 486.017 256.61Z" fill="white"/>
<path d="M65.34 256.61C65.34 259.026 64.8642 261.418 63.9398 263.65C63.0154 265.882 61.6604 267.91 59.9522 269.618C58.2441 271.326 56.2162 272.681 53.9844 273.605C51.7526 274.53 49.3606 275.006 46.9449 275.006C42.0662 275.006 37.3874 273.068 33.9376 269.618C30.4879 266.168 28.5498 261.489 28.5498 256.61C28.5498 251.732 30.4879 247.053 33.9376 243.603C37.3874 240.153 42.0662 238.215 46.9449 238.215C51.8236 238.215 56.5025 240.153 59.9522 243.603C63.402 247.053 65.34 251.732 65.34 256.61Z" fill="white"/>
<path d="M156.069 29.4785L111.215 56.3913L112.83 77.9203L29.4496 223.503L12 231.585V283.704L27.0709 290.164L114.803 441.946V455.94L160.846 482.522L175.623 471.189H344.091L352.524 478.365L399.35 452.352L398.452 437.281L484.57 289.805L500 283.345L499.641 230.959L482.955 222.705L402.04 82.7649L403.116 60.1575L357.366 33.0664L345.527 43.2947H174.369L156.069 29.4785ZM175.838 83.8767L337.647 83.3834C331.304 53.7859 359.693 38.1371 379.616 50.9567C404.046 64.2347 390.516 102.438 366.955 101.533L445.826 237.328C459.406 221.287 494.365 225.255 494.728 256.974C492.367 285.769 460.263 291.048 446.714 275.137L366.901 412.799C384.617 416.347 401.228 443.383 376.548 462.872C352.524 478.365 324.806 453.917 335.177 430.413H178.767C188.16 455.472 164.343 478.886 139.384 466.06C113.171 449.77 129.535 414.552 146.512 415.869L65.9901 276.401C48.204 292.661 19.1271 282.189 17.7822 257.118C16.811 234.916 46.4954 217.613 65.9901 238.289L145.553 99.5186C112.57 88.6008 122.556 58.7107 134.5 49.7168C154.092 33.3988 192.224 56.1683 175.838 83.8767Z" fill="white"/>
<path d="M172.539 443.226C172.539 448.105 170.601 452.784 167.151 456.234C163.702 459.683 159.023 461.621 154.144 461.621C149.265 461.621 144.587 459.683 141.137 456.234C137.687 452.784 135.749 448.105 135.749 443.226C135.749 440.811 136.225 438.419 137.149 436.187C138.074 433.955 139.429 431.927 141.137 430.219C142.845 428.511 144.873 427.156 147.105 426.231C149.336 425.307 151.728 424.831 154.144 424.831C156.56 424.831 158.952 425.307 161.184 426.231C163.415 427.156 165.443 428.511 167.151 430.219C168.86 431.927 170.215 433.955 171.139 436.187C172.063 438.419 172.539 440.811 172.539 443.226Z" fill="white"/>
<path d="M380.214 440.308C380.214 445.187 378.276 449.866 374.826 453.315C371.376 456.765 366.697 458.703 361.818 458.703C356.94 458.703 352.261 456.765 348.811 453.315C345.361 449.866 343.423 445.187 343.423 440.308C343.423 435.43 345.361 430.751 348.811 427.301C352.261 423.851 356.94 421.913 361.818 421.913C366.697 421.913 371.376 423.851 374.826 427.301C378.276 430.751 380.214 435.43 380.214 440.308Z" fill="white"/>
<path d="M171.144 72.6593C171.144 75.075 170.668 77.467 169.744 79.6988C168.819 81.9306 167.464 83.9585 165.756 85.6666C164.048 87.3747 162.02 88.7297 159.788 89.6542C157.556 90.5786 155.164 91.0544 152.749 91.0544C150.333 91.0544 147.941 90.5786 145.709 89.6542C143.477 88.7297 141.449 87.3747 139.741 85.6666C138.033 83.9585 136.678 81.9306 135.754 79.6988C134.829 77.467 134.354 75.075 134.354 72.6593C134.354 70.2436 134.829 67.8516 135.754 65.6198C136.678 63.388 138.033 61.3601 139.741 59.652C141.449 57.9438 143.477 56.5888 145.709 55.6644C147.941 54.74 150.333 54.2642 152.749 54.2642C155.164 54.2642 157.556 54.74 159.788 55.6644C162.02 56.5888 164.048 57.9438 165.756 59.652C167.464 61.3601 168.819 63.388 169.744 65.6198C170.668 67.8516 171.144 70.2436 171.144 72.6593Z" fill="white"/>
<path d="M81.7534 243.329H142.98L187.509 182.777L208.314 268.536L257.03 123.405L301.432 273.357L318.156 177.448L359.207 243.329L431.414 243.329L348.117 99.3008H165.942L81.7534 243.329Z" fill="white"/>
<path d="M81.7534 272.761H156.068L177.418 242.44L206.841 351.881L257.076 205.481L303.185 386.149L331.173 243.158L350.011 272.761L430.746 272.761L348.397 415.034H164.859L81.7534 272.761Z" fill="white"/>
</svg>
