<svg width="512" height="512" viewBox="0 0 512 512" fill="none" xmlns="http://www.w3.org/2000/svg">
<path d="M254.551 69.6602L206.659 99.1189V168.992L169.689 187.667V230.586L153.929 239.447V131.598L98.6953 163.726V345.211L254.551 445.944L409.906 345.211V163.726L352.716 131.598V239.447L338.458 230.586V187.667L300.657 168.992V99.1189L254.551 69.6602ZM254.551 162.215L316.806 238.791H288.012V300.147H360.87V344.375L254.551 412.861L153.929 348.207V300.825H222.76L222.733 235.065H197.383L254.551 162.215Z" fill="white"/>
<path d="M169.234 317.485L169.248 340.451L254.55 393.842L342.529 339.604V317.485L271.657 317.485V225.913L286.533 225.936L254.55 181.413L223.827 225.913H242.309L241.454 317.485H169.234Z" fill="white" fill-opacity="0.5"/>
<path d="M59.9261 232.726V143.126L142.751 91.9742V58.0991L29.6079 127.543V232.726H59.9261Z" fill="white" fill-opacity="0.5"/>
<path d="M452.074 233.306V143.706L369.249 92.5548V58.6797L482.392 128.124V233.306H452.074Z" fill="white" fill-opacity="0.5"/>
<path d="M60.4125 281.948V371.548L143.237 422.699V456.574L30.0942 387.13V281.948H60.4125Z" fill="white" fill-opacity="0.5"/>
<path d="M451.506 282.801V372.401L368.681 423.552V457.427L481.824 387.984V282.801H451.506Z" fill="white" fill-opacity="0.5"/>
<path d="M163.443 431.854V444.01L254.551 500L344.308 444.614V431.911L254.551 488.144L163.443 431.854Z" fill="white"/>
<path d="M162.772 80.1466V67.9903L253.88 12.0005L343.637 67.3862V80.0894L253.88 23.8568L162.772 80.1466Z" fill="white"/>
</svg>
