<svg width="512" height="512" viewBox="0 0 512 512" fill="none" xmlns="http://www.w3.org/2000/svg">
<path d="M42.3359 372.132V322.171L52.147 322.171L52.1466 365.902L207.406 465.528L207.406 447.45H301.592L301.592 465.528L456.489 366.117V322.171H465.332V372.153L290.492 484.301V455.989L217.541 455.989V484.301L42.3359 372.132ZM74.1299 352.546L74.1295 319.224H84.5418L84.5421 344.795L124.519 370.62L171.225 356.073H339.362L385.292 370.62L424.41 345.187V319.224H435.855V352.957L315.323 427.974H193.406L74.1299 352.546Z" fill="white" fill-opacity="0.5"/>
<path d="M158.067 306.591L157.127 297.352L211.806 310.448L233.271 302.362H277.861L298.794 310.448L353.622 297.352L351.682 306.591L299.614 320.606L277.861 314.51H233.271L211.121 320.606L158.067 306.591ZM213.331 290.577L232.264 279.431H276.936L295.838 290.577V298.554L275.151 289.592H233.626L213.303 298.548L213.331 290.577ZM68.7214 283.016L80.3883 239.401L144.926 233.737L144.971 241.735L108.31 245.507L101.884 257.323H141.084L137.083 277.732L142.558 289.095L68.7214 283.016ZM157.054 277.364L152.034 266.055L158.171 221.86C157.944 221.27 188.302 207.345 205.523 205.692C209.982 205.492 216.783 206.682 221.697 211.117L219.935 239.13L204.458 238.629L159.551 256.692L204.196 247.25L224.713 247.747L226.924 211.486C241.812 218.193 268.879 218.401 283.586 211.486L285.521 247.747L306.033 247.258L351.015 257.132L310.718 240.125H292.393L289.206 211.117C294.724 208.036 299.823 206.211 304.42 205.894C312.768 205.683 337.109 214.416 352.582 221.434L359.435 266.055L352.827 277.364L305.98 283.681L278.889 269.968H231.726L206.021 283.681L157.054 277.364ZM170.293 271.325C168.99 268.465 167.512 267.64 163.692 267.64C159.902 267.64 158.77 268.261 158.77 270.342C158.77 274.229 160.037 275.009 166.353 275.009C171.811 275.009 171.924 274.904 170.293 271.325ZM352.038 270.868C353.215 267.666 352.972 267.491 347.945 267.92C344.318 268.23 341.876 269.474 340.347 271.79C338.097 275.195 338.107 275.201 344.44 274.737C349.502 274.366 351.041 273.583 352.038 270.868ZM204.823 229.682V212.053L171.397 222.107H193.918L192.823 235.653L204.823 229.682ZM315.622 235.653V222.107H337.862L304.344 212.053V229.682L315.622 235.653ZM43.4582 281.04C26.6159 279.385 23.8148 260.595 19.5665 248.652C11.433 225.629 11.1202 224.222 12.8482 218.438C15.1438 210.753 21.7716 200.045 22.5782 201.414L46.0201 241.206L73.2864 240.338L59.3004 281.718L43.4582 281.04Z" fill="white"/>
<path d="M443.279 283.429L430.83 238.836L367.074 234.15L367.029 242.148L403.69 245.919L410.116 257.736H370.916L374.917 278.145L369.443 289.508L443.279 283.429ZM468.542 281.453C485.384 279.798 488.185 261.008 492.434 249.065C500.567 226.042 500.88 224.635 499.152 218.851C496.856 211.166 491.011 201.827 489.422 201.827C482.801 202.8 477.019 228.452 466.371 241.228L438.518 240.164L452.7 282.131L468.542 281.453Z" fill="white"/>
<path d="M465.332 139.867V186.736H456.489V146.097L301.592 46.4724V64.548L207.406 64.5478V46.4724L52.147 145.74V186.736H42.3359V139.703L217.541 27.6992V56.0114H290.492V27.6992L465.332 139.867ZM435.087 155.724V189.684H424.41V163.496L384.698 139.636L337.992 153.441H169.855L123.925 139.636L84.5418 163.496V189.684L74.1295 189.684V155.724L193.894 81.2215H315.811L435.087 155.724Z" fill="white" fill-opacity="0.5"/>
<path d="M159.369 319.393V314.408L176.376 318.318L180.872 325.551L159.369 319.393Z" fill="white"/>
<path d="M349.903 319.393V314.408L332.896 318.318L328.4 325.551L349.903 319.393Z" fill="white"/>
</svg>
