<svg width="512" height="512" viewBox="0 0 512 512" fill="none" xmlns="http://www.w3.org/2000/svg">
<path d="M251.912 52.7188C251.546 51.2336 251.396 41.8754 251.58 31.9227L251.914 13.827L255.735 13.4592L259.557 13.0913L259.238 33.8898L258.918 54.6883L255.749 55.0538C253.252 55.3417 252.437 54.846 251.912 52.7188Z" fill="white"/>
<path d="M263.297 94.1417C260.763 93.6537 260.67 93.182 260.67 80.8262V68.0166L269.718 68.7932C274.694 69.2204 279.133 69.899 279.581 70.3012C280.03 70.7035 279.532 76.4175 278.474 82.9991L276.552 94.9656L271.238 94.8066C268.315 94.7192 264.741 94.42 263.297 94.1417Z" fill="white"/>
<path d="M236.04 94.6738C234.938 91.8408 232.175 70.1595 232.861 69.7354C233.386 69.4112 237.493 68.8376 241.989 68.4607L250.163 67.7754V80.6506C250.163 93.0159 250.059 93.5538 247.536 94.2299C244.971 94.9174 236.265 95.2536 236.04 94.6738Z" fill="white"/>
<path d="M205.681 87.9506C203.617 81.5239 202.259 75.9349 202.663 75.5306C203.902 74.2921 220.343 70.6719 221.148 71.4603C222.344 72.6299 225.627 95.4629 224.715 96.2633C223.732 97.1261 213.664 99.6355 211.186 99.6355C209.996 99.6355 208.232 95.8909 205.681 87.9506Z" fill="white"/>
<path d="M292.775 98.7919C289.565 97.8268 286.861 96.9652 286.766 96.8771C286.415 96.5492 290.687 72.7316 291.187 72.2317C291.624 71.7947 302.452 74.1593 306.979 75.6806C308.475 76.1831 301.332 100.001 299.58 100.352C299.048 100.459 295.986 99.757 292.775 98.7919Z" fill="white"/>
<path d="M186.152 107.424C184.563 105.448 175.445 87.0383 175.445 85.8046C175.445 84.7084 188.619 78.6212 190.991 78.6216C192.182 78.6218 200.693 102.991 199.731 103.645C199.537 103.777 196.65 104.988 193.315 106.338C188.774 108.175 186.976 108.448 186.152 107.424Z" fill="white"/>
<path d="M156.416 112.391C152.691 107.24 149.359 102.28 149.009 101.37C148.588 100.273 150.869 98.1323 155.78 95.0166C159.854 92.4325 163.838 90.3132 164.634 90.3071C165.874 90.2979 177.093 110.365 177.17 112.728C177.19 113.361 164.091 121.939 163.337 121.787C163.254 121.77 160.14 117.542 156.416 112.391Z" fill="white"/>
<path d="M134.664 127.152L125.052 117.489L131.861 112.073C135.606 109.095 139.028 106.654 139.466 106.649C140.469 106.638 154.431 125.902 154.431 127.297C154.431 127.864 152.146 130.237 149.354 132.571L144.277 136.815L134.664 127.152Z" fill="white"/>
<path d="M454.469 256.076V252.573H477.234H500V256.076V259.578H477.234H454.469V256.076Z" fill="white"/>
<path d="M12 256.686V252.573H33.0883H54.1767L53.8108 256.367L53.445 260.162L32.7225 260.48L12 260.799L12 256.686Z" fill="white"/>
<path d="M228.878 307.381L228.565 280.466L201.369 280.237L174.173 280.008L174.172 256.659L174.17 233.31L201.659 232.997L229.149 232.684V204.686V176.688H253.665H278.182V204.707V232.726H306.809H335.436L335.12 256.367L334.804 280.009L306.785 280.238L278.766 280.468L278.453 307.382L278.139 334.295H253.666H229.192L228.878 307.381Z" fill="white"/>
<path d="M148.619 335.279C108.823 281.93 114.1 209.896 161.228 163.139C180.202 144.315 205.218 131.359 231.119 126.944C246.075 124.395 272.451 125.21 285.303 128.619C297.953 131.974 312.068 137.769 321.143 143.335C328.618 147.919 328.982 148.353 329.325 153.071C329.523 155.787 329.317 158.009 328.863 158.009C328.411 158.009 325.197 156.121 321.722 153.815C312.008 147.366 297.394 140.943 284.562 137.48C274.138 134.668 270.925 134.342 253.665 134.349C232.631 134.357 226.028 135.551 207.504 142.695C183.256 152.046 159.902 172.311 146.804 195.368C123.163 236.981 126.159 290.966 154.203 328.701C158.111 333.96 158.711 335.531 158.236 339.257C157.929 341.665 157.042 343.635 156.265 343.635C155.488 343.635 152.047 339.875 148.619 335.279Z" fill="white" fill-opacity="0.501961"/>
<path d="M382.938 377.762C378.617 373.408 375.081 369.16 375.081 368.323C375.081 367.485 377.651 363.821 380.792 360.179C415.862 319.521 427.077 257.787 409.071 204.517C402.457 184.95 388.811 161.948 374.8 146.747L369.996 141.536L357.984 153.508C351.377 160.092 345.66 165.168 345.279 164.787C344.898 164.406 342.836 149.985 340.696 132.74C335.085 87.5116 335.13 87.9596 336.179 87.9739C340.19 88.0285 411.683 97.322 412.22 97.8585C412.598 98.2363 407.276 104.194 400.393 111.098L387.879 123.651L392.102 127.696C406.133 141.134 424.695 171.89 432.679 194.926C440.47 217.408 442.219 228.914 442.147 257.243C442.09 280.02 441.801 283.586 439.018 295.769C432.123 325.955 418.828 353.332 400.182 375.741C395.908 380.877 392.047 385.215 391.603 385.38C391.159 385.545 387.259 382.117 382.938 377.762Z" fill="white"/>
<path d="M237.338 386.685C221.126 384.808 199.429 377.267 186.244 368.927C181.955 366.214 181.282 365.236 181.282 361.717C181.282 359.477 181.851 357.645 182.545 357.645C183.24 357.645 186.786 359.372 190.425 361.482C200.138 367.113 212.064 372.106 223.311 375.251C232.006 377.683 235.763 378.029 253.665 378.051C272.63 378.073 274.933 377.838 285.77 374.761C320.255 364.97 348.787 341.989 364.273 311.53C371.324 297.662 377.416 272.337 377.416 256.897C377.416 233.274 368.357 204.662 354.848 185.618C350.506 179.496 349.835 177.795 350.288 174.061C350.581 171.654 351.419 169.686 352.152 169.688C354.268 169.697 365.829 186.132 371.618 197.36C381.066 215.688 385.588 234.961 385.588 256.897C385.588 322.967 334.716 379.362 268.452 386.751C255.851 388.156 249.941 388.144 237.338 386.685Z" fill="white" fill-opacity="0.501961"/>
<path d="M363.027 395.09C359.383 390 356.402 385.541 356.402 385.182C356.402 384.05 365.097 376.389 366.419 376.356C368.147 376.312 382.67 391.156 382.67 392.966C382.67 394.615 372.501 404.344 370.777 404.344C370.159 404.344 366.671 400.179 363.027 395.09Z" fill="white"/>
<path d="M343.433 419.261C342.657 417.799 340.266 413.341 338.121 409.355C335.976 405.37 334.22 401.421 334.22 400.58C334.22 399.319 345.565 391.501 347.395 391.501C347.908 391.501 359.631 406.764 361.436 409.782C362.122 410.929 356.856 414.851 346.245 421.096C345.414 421.586 344.271 420.84 343.433 419.261Z" fill="white"/>
<path d="M135.751 418.861C118.735 416.702 103.089 414.916 100.982 414.893C94.0318 414.817 95.2072 412.077 107.045 400.76C113.202 394.874 118.239 389.544 118.239 388.916C118.239 388.288 115.032 384.278 111.111 380.006C90.7826 357.853 74.3578 324.472 67.7843 291.95C63.9168 272.815 63.9393 238.9 67.8317 220.468C74.8946 187.025 90.2111 156.2 112.012 131.554L118.042 124.736L126.897 133.463C131.767 138.263 135.751 142.914 135.751 143.799C135.751 144.684 133.317 148.112 130.342 151.416C110.618 173.326 96.7859 204.646 92.4805 237.147C90.7738 250.031 91.6686 275.85 94.2669 288.692C99.8747 316.406 115.625 347.711 133.226 366.128L137.428 370.524L149.977 358.014C156.878 351.134 162.729 345.74 162.977 346.029C163.405 346.527 168.201 383.417 170.787 406.095C171.446 411.874 172.28 418.047 172.64 419.813C173.463 423.844 175.402 423.894 135.751 418.861Z" fill="white"/>
<path d="M318.027 431.46C317.439 430.351 315.624 425.088 313.994 419.763L311.029 410.081L317.577 407.186C322.702 404.919 324.347 404.613 325.146 405.776C325.929 406.917 332.493 419.897 335.155 425.571C335.612 426.544 332.919 428.027 325.077 431.118C319.463 433.331 319.03 433.352 318.027 431.46Z" fill="white"/>
<path d="M288.684 440.849C288.682 440.356 287.88 435.019 286.902 428.989C285.924 422.96 285.321 417.83 285.562 417.589C286.086 417.065 298.87 413.684 300.324 413.684C301.506 413.684 309.066 435.725 308.186 436.604C307.654 437.137 300.507 439.075 291.9 441.021C290.134 441.421 288.687 441.343 288.684 440.849Z" fill="white"/>
<path d="M209.885 439.75C206.033 438.827 202.506 437.699 202.048 437.245C201.248 436.45 207.565 416.314 209.155 414.594C209.843 413.85 221.699 416.352 222.826 417.48C223.724 418.377 219.183 440.94 218.057 441.181C217.415 441.318 213.738 440.674 209.885 439.75Z" fill="white"/>
<path d="M260.67 432.488V419.521H267.596C275.524 419.521 275.002 418.787 277.047 432.813C278.608 443.515 278.3 443.992 269.813 444.02C266.816 444.028 263.532 444.356 262.517 444.746C260.901 445.366 260.67 443.832 260.67 432.488Z" fill="white"/>
<path d="M237.904 444.356C234.051 444.11 230.558 443.544 230.141 443.098C229.723 442.652 230.266 437.033 231.347 430.612L233.312 418.937L240.862 419.341C245.014 419.563 248.825 420.134 249.331 420.611C249.838 421.088 250.1 426.685 249.915 433.05C249.534 446.155 250.587 445.164 237.904 444.356Z" fill="white"/>
<path d="M251.595 478.186L251.913 457.464L255.708 457.098L259.502 456.732V477.82V498.909H255.389H251.276L251.595 478.186Z" fill="white"/>
</svg>
