<svg width="512" height="512" viewBox="0 0 512 512" fill="none" xmlns="http://www.w3.org/2000/svg">
<path d="M59.6343 110.934L252.519 267.574L402.289 111.757L369.917 76.7988H471.398V177.027L437.494 145.706L257.952 309.538L59.6343 110.934ZM99.629 266.338L140.645 258.501L76.4362 194.572L146.037 238.947L175.415 274.201L148.09 279.632L99.629 266.338ZM336.149 274.352L378.887 237.926L456.324 196.422L377.434 258.398L417.536 265.258L359.386 279.398L336.149 274.352Z" fill="white"/>
<path d="M459.202 328.199V337.884C470.776 345.548 476.78 353.79 476.859 362.122C476.859 370.29 471.164 378.378 460.099 385.924C449.033 393.471 432.814 400.327 412.368 406.103C391.922 411.879 367.648 416.46 340.933 419.586C314.219 422.712 285.586 424.32 256.67 424.32C227.755 424.32 199.122 422.711 172.408 419.586C145.693 416.46 121.42 411.878 100.974 406.103C80.5274 400.327 64.3086 393.47 53.2434 385.924C42.1782 378.378 36.4832 370.29 36.4836 362.122C36.5752 354.702 41.3665 347.346 50.6309 340.403L50.5648 329.094C25.3872 340.192 12.0033 353.096 12 366.278C12.0001 375.329 18.3114 384.291 30.5736 392.654C42.8359 401.016 60.8089 408.614 83.4665 415.014C106.124 421.414 133.022 426.491 162.626 429.955C192.23 433.418 223.958 435.201 256.001 435.201C320.714 435.201 382.776 427.94 428.534 415.014C474.293 402.088 500 384.557 500 366.278C499.947 352.728 485.756 339.483 459.202 328.199Z" fill="white" fill-opacity="0.978979"/>
<path d="M97.8686 304.159C76.8075 312.998 65.5456 323.409 65.5195 334.064C65.5199 348.287 85.5218 361.927 121.125 371.984C156.728 382.041 205.016 387.691 255.367 387.691C305.717 387.691 354.005 382.041 389.609 371.984C425.212 361.927 445.214 348.287 445.214 334.064C445.148 324.283 435.614 314.694 417.643 306.334C424.799 311.749 428.483 317.481 428.52 323.261C428.52 336.166 410.372 348.542 378.068 357.667C345.764 366.792 301.95 371.919 256.266 371.919C233.645 371.919 211.245 370.66 190.346 368.215C169.447 365.77 150.457 362.186 134.462 357.667C118.466 353.149 105.778 347.785 97.1214 341.882C88.4647 335.978 84.0091 329.651 84.0091 323.261C84.0186 316.695 88.733 310.197 97.8686 304.159Z" fill="white" fill-opacity="0.978979"/>
<path d="M205.808 273.607C172.955 276.58 144.293 282.423 123.952 290.293C103.611 298.164 92.6425 307.655 92.6274 317.4C92.6285 329.601 109.788 341.302 140.331 349.93C170.874 358.557 212.299 363.404 255.493 363.404C298.687 363.404 340.112 358.557 370.655 349.93C401.198 341.302 418.358 329.601 418.359 317.4C418.323 307.917 407.916 298.67 388.56 290.922C369.205 283.175 341.847 277.306 310.231 274.119L284.852 299.498C298.715 301.17 310.534 303.956 318.842 307.509C327.149 311.063 331.579 315.227 331.582 319.485C331.582 322.34 329.591 325.167 325.724 327.804C321.856 330.442 316.188 332.838 309.041 334.857C301.895 336.875 293.411 338.477 284.074 339.569C274.737 340.661 264.73 341.224 254.624 341.224C234.213 341.224 214.639 338.933 200.207 334.857C185.775 330.78 177.667 325.251 177.667 319.485C177.686 314.979 182.661 310.586 191.906 306.913C201.15 303.241 214.207 300.471 229.268 298.986L205.808 273.607Z" fill="white" fill-opacity="0.978979"/>
</svg>
