<svg width="512" height="512" viewBox="0 0 512 512" fill="none" xmlns="http://www.w3.org/2000/svg">
<path d="M405.122 453.69L359.316 407.379L355.01 408.88C348.661 411.093 341.118 410.693 336.932 407.922C334.904 406.579 330.004 402.078 326.042 397.92L318.84 390.36L315.026 393.687C312.929 395.517 308.507 399.55 305.201 402.648L299.189 408.281L261.147 369.773C240.223 348.594 207.964 315.827 189.459 296.958C170.955 278.09 140.054 246.681 120.791 227.161L85.7666 191.671L100.77 177.451L115.774 163.231L99.02 145.843C89.8052 136.28 82.2659 128.062 82.2659 127.581C82.2659 127.1 85.1464 123.897 88.667 120.464L95.0681 114.221L112.321 132.425L129.574 150.628L144.452 136.167C152.635 128.213 159.792 121.912 160.356 122.164C160.92 122.416 175.542 137.116 192.848 154.829C210.154 172.543 240.725 203.734 260.784 224.143C344.374 309.193 372.125 337.656 372.125 338.34C372.125 338.737 367.996 342.926 362.949 347.647L353.772 356.231L360.55 363.352C364.277 367.269 368.474 371.858 369.876 373.55C373.014 377.337 373.899 387.883 371.471 392.562C369.723 395.932 371.069 397.454 419.209 446.534C446.454 474.312 468.745 497.705 468.745 498.519C468.745 499.405 465.164 500 459.836 500H450.928L405.122 453.69ZM326.455 363.344C340.791 349.797 352.521 338.284 352.521 337.76C352.521 337.237 346.861 331.174 339.942 324.287L327.363 311.767L322.088 316.598C319.188 319.255 313.943 324.128 310.434 327.427L304.055 333.425L300.76 329.918L297.466 326.411L308.908 315.535L320.35 304.66L315.992 299.931L311.634 295.201L300.89 305.882C294.981 311.756 289.47 316.562 288.644 316.562C287.818 316.562 285.979 315.278 284.559 313.708C282.012 310.894 282.138 310.691 293.474 299.296L304.971 287.738L300.75 283.693L296.529 279.649L292.668 283.016C290.545 284.868 285.156 289.865 280.692 294.121L272.576 301.859L269.871 298.359C268.383 296.433 267.152 294.428 267.135 293.903C267.12 293.377 272.149 288.37 278.314 282.776L289.525 272.604L285.028 267.964L280.531 263.324L274.167 269.306C257.396 285.072 257.879 284.74 254.666 282.734C253.035 281.715 251.701 280.166 251.701 279.291C251.701 278.416 256.581 272.928 262.547 267.096L273.393 256.493L268.573 251.521C265.923 248.786 263.24 246.548 262.613 246.548C261.985 246.548 258.801 247.766 255.536 249.255C237.942 257.279 193.413 275.954 191.875 275.954C190.892 275.954 190.088 276.345 190.088 276.823C190.088 278.099 298.069 387.977 299.324 387.977C299.909 387.977 312.118 376.892 326.455 363.344ZM433.795 257.703L386.941 211.598L361.99 236.424C348.266 250.079 336.424 261.462 335.674 261.719C333.026 262.628 322.251 253.296 308.062 237.806C295.727 224.339 293.709 221.465 293.709 217.361C293.709 212.941 297.172 209.177 340.135 166.904C365.669 141.779 387.033 121.222 387.612 121.222C388.19 121.222 409.832 142.198 435.706 167.834L482.748 214.446V259.203C482.748 283.819 482.275 303.926 481.698 303.884C481.12 303.842 459.564 283.062 433.795 257.703ZM434.511 147.685C409.136 122.733 387.734 102.319 386.951 102.319C386.168 102.319 365.328 122.483 340.64 147.128C315.952 171.773 295.293 191.937 294.731 191.937C294.169 191.937 293.709 171.735 293.709 147.044V102.151L339.398 57.0755C366.061 30.7704 386.16 12 387.665 12C389.18 12 408.957 30.6604 435.615 57.2438L480.987 102.488L482.02 146.64C482.589 170.982 482.513 191.299 481.85 191.922C481.188 192.543 459.886 172.636 434.511 147.685ZM34.814 140.987C31.4995 137.61 29.0054 133.937 29.2714 132.825C29.866 130.341 99.1946 64.5289 101.228 64.5183C102.031 64.5142 105.496 67.3828 108.93 70.893L115.173 77.2752L108.871 83.0437C105.406 86.2164 88.9244 101.933 72.2464 117.97C55.5685 134.007 41.6793 147.128 41.3816 147.128C41.0839 147.128 38.1285 144.364 34.814 140.987Z" fill="white"/>
</svg>
