<svg width="512" height="512" viewBox="0 0 512 512" fill="none" xmlns="http://www.w3.org/2000/svg">
<path d="M384.044 57.8812C376.997 55.6365 362.382 51.1586 351.564 47.9305C305.095 34.0624 300.249 32.3727 299.531 29.7876C297.608 22.8662 296.743 12.8748 298 12.1167C298.772 11.6513 304.021 12.6206 309.665 14.2707C315.308 15.9208 328.776 19.7385 339.593 22.7545C350.41 25.7704 365.417 30.0414 372.942 32.2455C380.467 34.4497 394.168 38.4235 403.39 41.0763L420.156 45.8996L414.506 50.5375C411.399 53.0883 406.156 56.7025 402.856 58.569L396.855 61.9626L384.044 57.8812Z" fill="white"/>
<path d="M219.024 106.598C195.508 100.079 170.322 93.0939 163.054 91.0762C155.785 89.0585 150.221 86.7888 150.689 86.0323C151.156 85.2758 153.64 83.5792 156.208 82.2619C158.776 80.9446 165.109 77.5132 170.283 74.6364C175.456 71.7597 185.461 66.1975 192.516 62.276L205.342 55.146L251.518 69.0478C276.914 76.6938 304.176 85.0613 312.1 87.6422L326.507 92.3346L320.651 96.4167C317.43 98.6619 311.771 103.042 308.074 106.151C302.823 110.567 299.795 111.804 294.23 111.804C290.313 111.804 282.563 113.324 277.009 115.182C271.454 117.04 265.755 118.536 264.344 118.506C262.933 118.476 242.539 113.117 219.024 106.598Z" fill="white" fill-opacity="0.501961"/>
<path d="M219.684 178.367C195.683 173.372 165.787 167.08 135.224 160.592C119.233 157.197 94.9911 152.125 81.3523 149.321C67.7134 146.517 55.2678 143.663 53.6954 142.978C51.6175 142.072 60.7278 136.17 87.0444 121.372L123.252 101.013L186.755 117.054L250.258 133.094L245.125 142.19C239.828 151.576 238.987 155.515 238.8 171.803C238.674 182.86 239.655 182.524 219.684 178.367Z" fill="white" fill-opacity="0.501961"/>
<path d="M447.336 201.908C439.077 198.615 437.883 197.534 437.543 193.033C435.811 170.095 433.247 139.912 431.516 122.065C430.375 110.307 429.428 100.229 429.41 99.6695C429.351 97.7342 449.169 80.5722 450.233 81.6369C451.239 82.6426 453.088 108.697 455.044 149.428C455.518 159.305 456.716 175.383 457.705 185.159C458.695 194.934 458.883 203.545 458.123 204.295C457.364 205.045 452.51 203.971 447.336 201.908Z" fill="white"/>
<path d="M284.179 268.92C282.59 261.393 278.026 231.97 278.026 229.256C278.026 226.861 278.666 226.829 283.784 228.968C291.845 232.336 316.37 231.516 324.051 227.621C327.261 225.994 330.186 224.961 330.551 225.326C331.999 226.774 338.327 264.138 337.299 265.166C336.694 265.771 331.383 266.559 325.497 266.916C319.611 267.273 313.641 268.024 312.23 268.585C310.819 269.145 307.356 269.776 304.534 269.987C301.712 270.199 296.17 270.957 292.219 271.672C285.564 272.877 284.972 272.675 284.179 268.92Z" fill="white" fill-opacity="0.501961"/>
<path d="M370.898 322.405L369.129 313.458L376.594 307.341C381.967 302.938 384.058 299.963 384.058 296.722C384.058 291.69 376.769 280.72 365.364 268.586C357.987 260.738 357.657 259.899 352.975 237.042C348.102 213.259 347.98 207.984 352.201 203.763C354.684 201.28 360.663 182.654 359.642 180.581C359.311 179.908 360.821 177.653 362.998 175.57C365.175 173.487 366.956 172.052 366.956 172.38C366.956 172.708 370.227 169.982 374.225 166.323C380.569 160.516 381.652 160.052 382.741 162.673C383.427 164.324 387.906 182.991 392.693 204.155C397.481 225.319 403.261 250.715 405.539 260.592C407.817 270.468 409.688 278.972 409.696 279.49C409.706 280.008 402.453 290.267 393.582 302.288C384.711 314.309 376.376 325.765 375.06 327.747C372.803 331.147 372.567 330.844 370.898 322.405Z" fill="white" fill-opacity="0.501961"/>
<path d="M305.451 417.873C305.417 415.49 303.478 402.022 301.142 387.944C297.36 365.144 297.183 362.162 299.523 360.638C300.969 359.698 307.69 354.812 314.459 349.781C321.228 344.751 328.306 339.989 330.187 339.199C332.068 338.409 337.071 335.413 341.303 332.542C345.536 329.67 349.182 327.891 349.405 328.588C349.628 329.285 350.918 335.627 352.272 342.681L354.734 355.508L347.979 364.914C322.898 399.835 313.577 412.572 309.807 417.075L305.512 422.206L305.451 417.873Z" fill="white" fill-opacity="0.501961"/>
<path d="M300.624 170.268C296.802 166.953 296.801 166.938 300.338 166.013C303.912 165.079 306.33 167.983 305.085 171.716C304.705 172.857 302.955 172.289 300.624 170.268Z" fill="white"/>
<path d="M427.885 52.2739L415.494 60.6337C408.68 65.2318 402.667 69.7031 402.132 70.5693C401.597 71.4355 398.098 71.7326 394.356 71.2306C386.177 70.1336 387.392 69.4028 348.406 98.8227C302.917 133.149 307.174 130.485 299.402 129.479C294.767 128.878 289.435 129.772 282.863 132.244C264.11 139.299 252.822 159.172 257.407 177.062L259.657 185.843L252.773 192.005C248.986 195.395 237.708 204.568 227.714 212.39L209.543 226.612L215.566 233.649C218.879 237.519 221.588 241.315 221.588 242.087C221.588 244.737 225.222 243.481 231.524 238.649C243.929 229.139 271.841 208.406 274.012 207.089C275.293 206.312 279.211 207.271 283.329 209.371C294.833 215.241 306.395 215.621 317.599 210.496C332.293 203.775 341.198 190.928 341.401 176.155C341.488 169.828 342.33 168.442 349.523 162.793C353.937 159.326 365.63 149.88 375.507 141.804C385.383 133.728 399.022 122.711 405.814 117.323C417.149 108.332 418.169 107.004 418.213 101.138C418.258 95.2789 419.336 93.8632 431.137 84.1774C438.218 78.3657 443.797 73.163 443.535 72.6135C443.273 72.064 439.647 67.2625 435.473 61.9439L427.885 52.2739ZM300.917 147.724C321.186 147.742 331.884 170.111 318.441 184.365C313.534 189.568 311.571 190.472 305.186 190.462C292.412 190.444 284.747 184.813 281.425 173.006C277.882 160.416 287.678 147.714 300.917 147.724Z" fill="white"/>
<path d="M74.7999 493.869C83.7328 484.224 99.1314 471.716 128.285 450.424C143.096 439.607 168.032 421.316 183.698 409.778C199.365 398.239 213.722 387.718 215.603 386.396C217.484 385.075 228.643 376.874 240.401 368.171C274.072 343.25 281.479 337.796 306.167 319.746C318.918 310.423 329.154 302.653 328.914 302.479C328.298 302.032 309.898 304.346 297.693 306.405C292.049 307.357 280.121 309.023 271.185 310.108C262.249 311.194 248.396 313.146 240.401 314.448C232.406 315.75 218.938 317.674 210.473 318.725C183.36 322.089 169.792 323.93 154.036 326.383C128.624 330.339 111.633 332.443 105.197 332.431C99.9154 332.422 98.3808 331.382 93.5673 324.553C90.5174 320.226 88.2529 316.047 88.535 315.267C88.8171 314.486 107.518 300.218 130.093 283.56C152.668 266.901 176.14 249.543 182.254 244.986C188.368 240.429 194.174 236.689 195.157 236.674C197.967 236.636 210.313 253.759 208.587 255.305C206.993 256.733 190.455 269.165 182.217 275.128C171.749 282.706 154.371 295.876 150.062 299.497C145.498 303.331 145.496 303.342 149.43 303.344C151.601 303.346 156.603 302.565 160.547 301.61C164.491 300.654 179.261 298.312 193.37 296.405C207.48 294.498 225.95 291.824 234.415 290.462C242.881 289.1 258.353 286.864 268.798 285.492C279.244 284.121 291.172 282.186 295.307 281.193C299.441 280.2 312.443 278.147 324.201 276.63C335.959 275.114 347.986 273.505 350.928 273.055C355.799 272.31 357.058 273.204 365.037 283.064C369.855 289.019 373.797 294.672 373.797 295.626C373.797 297.735 366.138 303.822 352.419 312.613C339.98 320.585 339.704 320.77 323.556 331.992C316.45 336.931 310.082 340.971 309.405 340.971C308.728 340.971 306.586 342.433 304.644 344.219C302.702 346.006 289.954 354.814 276.315 363.792C262.677 372.771 248.439 382.353 244.677 385.087C240.914 387.82 236.681 390.562 235.27 391.18C233.86 391.798 228.472 395.402 223.299 399.187C209.88 409.008 100.715 482.202 85.0594 491.877C77.847 496.333 71.3062 499.989 70.5244 500C69.7425 500.01 71.6664 497.252 74.7999 493.869Z" fill="white"/>
</svg>
