<svg width="512" height="512" viewBox="0 0 512 512" fill="none" xmlns="http://www.w3.org/2000/svg">
<path d="M255.998 12C140.257 12.0005 46.4306 105.828 46.4316 221.57C46.5397 296.885 87.054 366.351 152.555 403.527L164.847 392.697C100.002 359.409 59.1974 292.675 59.1196 219.785C59.1194 112.311 146.244 25.1868 253.718 25.1869C361.192 25.1868 448.316 112.311 448.316 219.785C448.222 290.39 409.893 355.405 348.16 389.671L348.083 409.535C419.887 374.413 465.458 301.503 465.568 221.57C465.569 105.827 371.741 11.9989 255.998 12ZM284.884 411.783C264.637 415.033 244.739 414.977 225.915 412.144L213.743 426.596C241.137 432.159 268.35 432.234 293.857 427.529L284.884 411.783Z" fill="white" fill-opacity="0.501961"/>
<path d="M150.779 95.1567C131.414 110.465 115.777 129.871 105.022 151.943C94.2673 174.016 88.6688 198.191 88.6396 222.685C88.6768 251.914 96.6436 280.6 111.712 305.759C126.78 330.919 148.399 351.633 174.321 365.748L185.961 354.85C161.308 342.312 140.625 323.318 126.176 299.947C111.727 276.577 104.068 249.731 104.04 222.35C104.056 202.052 108.266 181.97 116.413 163.334C124.559 144.698 136.471 127.899 151.419 113.964C151.099 104.826 150.991 101.404 150.779 95.1567ZM360.786 97.5223L357.898 113.169C373.128 127.108 385.284 143.998 393.609 162.783C401.934 181.568 406.249 201.845 406.284 222.35C406.252 249.135 398.919 275.417 385.055 298.438C371.191 321.46 351.306 340.373 327.489 353.192L338.815 363.215C363.529 348.752 384.01 328.194 398.248 303.557C412.487 278.92 419.994 251.051 420.032 222.685C420 198.818 414.68 175.247 404.445 153.626C394.211 132.004 379.309 112.855 360.786 97.5223Z" fill="white" fill-opacity="0.501961"/>
<path d="M168.509 139.695C146.778 161.801 134.623 191.396 134.622 222.204C134.651 241.177 139.294 259.865 148.162 276.697C157.03 293.529 169.862 308.011 185.579 318.926L189.782 308.07C175.998 298.074 164.787 285.02 157.051 269.96C149.316 254.9 145.273 238.256 145.25 221.37C145.301 193.949 155.937 167.579 174.993 147.632L168.509 139.695ZM342.181 141.453L334.122 147.94C352.973 167.864 363.474 194.104 363.507 221.37C363.502 237.696 359.74 253.807 352.505 268.486C345.271 283.166 334.752 296.031 321.745 306.109L322.285 320.012C338.401 309.139 351.587 294.547 360.699 277.503C369.811 260.459 374.574 241.477 374.575 222.204C374.52 192.208 362.943 163.35 342.181 141.453Z" fill="white" fill-opacity="0.501961"/>
<path d="M149.065 442.508L176.168 410.844C187.047 397.19 208.173 412.295 195.508 426.388L168.118 458.34L149.065 442.508Z" fill="white"/>
<path d="M144.639 448.277L133.098 461.426C129.119 461.164 124.652 466.066 125.585 469.878C126.604 475.367 123.234 475.37 120.085 475.649C116.216 475.768 107.719 475.397 107.875 478.199V492.956L114.919 500H127.865L130.448 497.417H142.625L144.756 499.548H157.92V498.054L163.153 493.091V476.855C163.263 475.004 160.48 474.818 160.068 476.855C158.279 481.115 155.648 478.483 155.504 476.855C155.167 474.228 156.369 471.788 158.457 469.878L163.153 465.05L144.639 448.277ZM144.862 469.849C147.084 469.887 149.687 471.177 152.578 474.607C156.361 479.511 154.547 485.039 148.117 482.29C145.348 481.884 143.907 483.187 142.898 485.043C138.525 493.48 135.956 482.223 136.638 478.402C136.918 475.751 139.973 469.766 144.862 469.849Z" fill="white"/>
<path d="M204.613 409.234C207.16 400.333 209.49 391.311 223.128 388.572C226.508 387.714 225.898 390.244 230.776 385.888L244.059 373.813C239.82 362.648 231.139 355.534 218.298 352.211L190.793 374.35L192.135 399.44L204.613 409.234Z" fill="white"/>
<path d="M362.08 442.508L334.977 410.843C324.098 397.189 302.972 412.294 315.638 426.388L343.027 458.34L362.08 442.508Z" fill="white"/>
<path d="M366.506 448.276L378.047 461.425C382.026 461.164 386.493 466.065 385.56 469.878C384.541 475.367 387.911 475.369 391.06 475.648C394.929 475.767 403.426 475.396 403.27 478.199V492.956L396.226 500H383.28L380.697 497.417H368.52L366.389 499.548H353.225V498.054L347.992 493.091V476.854C347.883 475.003 350.665 474.818 351.077 476.854C352.866 481.115 355.497 478.482 355.641 476.854C355.978 474.227 354.776 471.788 352.688 469.878L347.992 465.05L366.506 448.276ZM366.283 469.849C364.061 469.888 361.458 471.177 358.567 474.606C354.784 479.51 356.598 485.039 363.028 482.29C365.797 481.883 367.238 483.187 368.247 485.043C372.62 493.48 375.188 482.223 374.507 478.401C374.227 475.751 371.172 469.765 366.283 469.849Z" fill="white"/>
<path d="M306.533 409.234C303.986 400.333 301.656 391.311 288.018 388.572C284.638 387.714 285.247 390.244 280.37 385.888L267.087 373.813C271.326 362.648 280.007 355.534 292.848 352.211L320.353 374.35L319.011 399.439L306.533 409.234Z" fill="white"/>
<path d="M234.927 343.587C247.954 348.216 261.114 348.065 274.394 343.587L277.619 348.71C267.651 353.678 264.518 361.538 260.922 369.203H249.347C246.019 360.502 239.819 354.136 232.46 348.71L234.927 343.587Z" fill="white"/>
<path d="M236.824 198.621V203.746C219.2 203.445 213.683 223.809 214.433 241.108V323.285C214.271 345.235 294.224 346.717 293.74 323.285V241.108C294.5 220.819 288.844 204.026 272.496 204.312V198.621H236.824ZM249.961 227.836H259.623C266.759 227.836 272.502 233.579 272.502 240.715V285.796C272.502 292.932 266.759 298.678 259.623 298.678H249.961C242.826 298.678 237.083 292.932 237.083 285.796V240.715C237.083 233.579 242.826 227.836 249.961 227.836Z" fill="white"/>
<path d="M242.327 177.749H267.374V190.272H242.327V177.749Z" fill="white"/>
<path d="M239.671 169.021H269.461L284.641 135.436C288.273 125.593 291.15 122.454 303.805 122.343L328.472 122.343L339.857 114.184V86.1017L326.954 79.8399H283.123V62.7627C283.348 50.5326 264.226 50.086 263.958 62.7627V79.8399H244.984V67.5063H215.573V79.8399H181.229L168.896 86.1017V114.184L181.039 122.343H207.034C214.153 122.213 220.966 124.367 225.293 135.436L239.671 169.021Z" fill="white"/>
<path d="M215.952 62.0038C219.421 49.619 240.146 46.8388 244.319 62.0038H215.952Z" fill="white"/>
</svg>
