<svg width="512" height="512" viewBox="0 0 512 512" fill="none" xmlns="http://www.w3.org/2000/svg">
<path d="M232.498 12.1841V77.8841L214.419 97.0936L214.42 257.488C203.812 268.606 197.284 283.652 197.284 300.232C197.31 328.663 216.692 353.425 244.283 360.286V468.746H273.663V360.401C301.501 353.732 321.144 328.857 321.178 300.232C321.178 282.332 313.576 266.215 301.436 254.906V97.0935L284.924 77.8841V12.1841H232.498ZM309.769 12V66.6493L421.4 172.885L450.603 163.409L309.769 12ZM204.872 22.3701L61.3965 169.503L92.6786 179.803L206.56 75.9083L204.872 22.3701ZM259.287 266.261C276.958 266.261 291.283 280.586 291.283 298.257C291.284 315.929 276.958 330.255 259.287 330.256C241.614 330.256 227.288 315.93 227.288 298.257C227.289 280.586 241.615 266.26 259.287 266.261Z" fill="white"/>
<path d="M416.706 247.117L430.703 233.069V447.522L416.706 461.649V247.117Z" fill="white" fill-opacity="0.501961"/>
<path d="M87.417 448.569V234.117L101.976 248.165V462.696L87.417 448.569Z" fill="white" fill-opacity="0.501961"/>
<path d="M375.527 316.933H389.74V488.186L375.527 500V316.933Z" fill="white" fill-opacity="0.501961"/>
<path d="M125.553 488.187L125.553 316.72H141.271V500L125.553 488.187Z" fill="white" fill-opacity="0.501961"/>
</svg>
