<svg width="512" height="512" viewBox="0 0 512 512" fill="none" xmlns="http://www.w3.org/2000/svg">
<path d="M210.534 458.857L220.732 445.543C317.376 447.753 445.829 373.305 439.429 221.992L449.673 208.985L490.693 220.182V292.584L451.275 303.72C449.573 324.52 439.086 352.13 427.304 366.128L445.682 402.26L396.637 452.496L358.855 435.143C341.784 445.893 323.52 454.854 302.652 459.909L292.576 500H222.932L210.534 458.857ZM21.3081 291.144V218.846L63.0569 207.232C67.6225 186.513 74.4494 166.396 86.1356 147.575L65.7525 109.779L115.779 58.1143L148.818 78.2708C167.053 65.5461 186.765 55.7761 209.746 52.5434L220.346 12H290.213L302.126 53.5064L293.762 66.9427C120.556 63.703 80.8954 164.584 74.8263 291.655L62.4511 302.705L21.3081 291.144Z" fill="white" fill-opacity="0.501961"/>
<path d="M103.267 267.428C100.181 263.395 104.451 260.319 107.8 263.428C111.424 267.362 113.363 263.186 111.703 261.304L207.257 159.19C216.594 150.619 216.027 157.012 225.191 150.502C249.718 132.218 278.259 97.7747 293.237 95.1138C291.183 109.207 260.675 135.824 236.706 160.693C232.484 165.196 239.14 170.529 231.878 178.416L129.616 281.677C127.085 278.673 124.665 281.188 127.085 283.496C132.265 288.881 127.225 292.869 122.899 289.006L103.267 267.428Z" fill="white"/>
<path d="M133.74 300.409C130.653 296.376 134.924 293.3 138.272 296.409C141.897 300.343 143.836 296.166 142.175 294.284L237.73 192.17C242.513 187.439 249 188.386 255.664 183.483C280.191 165.199 308.732 130.755 323.71 128.094C321.656 142.187 291.147 168.805 267.179 193.674C262.957 198.176 266.667 206.01 262.351 211.397L160.089 314.657C157.558 311.654 155.138 314.168 157.558 316.476C162.738 321.861 157.698 325.85 153.372 321.986L133.74 300.409Z" fill="white"/>
<path d="M163.778 331.956C160.692 327.923 164.963 324.847 168.311 327.956C171.936 331.89 173.875 327.714 172.214 325.832L267.768 223.717C272.552 218.986 279.038 219.933 285.703 215.03C310.23 196.746 338.77 162.302 353.748 159.642C351.695 173.735 321.186 200.352 297.217 225.221C292.996 229.724 296.705 237.557 292.389 242.944L190.128 346.204C187.597 343.201 185.177 345.716 187.597 348.024C192.776 353.409 187.736 357.397 183.411 353.534L163.778 331.956Z" fill="white"/>
<path d="M194.298 363.206C191.212 359.173 195.482 356.096 198.83 359.205C202.455 363.14 204.394 358.963 202.733 357.081L298.288 254.967C303.071 250.236 307.772 251.183 314.436 246.28C338.964 227.995 367.504 193.552 382.482 190.891C380.428 204.984 351.705 231.601 327.737 256.47C323.515 260.973 327.225 268.806 322.909 274.194L220.647 377.454C218.116 374.45 215.696 376.965 218.116 379.273C223.296 384.658 218.256 388.647 213.93 384.783L194.298 363.206Z" fill="white"/>
<path d="M224.477 395.527C221.39 391.494 225.661 388.418 229.009 391.527C232.634 395.461 234.573 391.284 232.912 389.402L328.466 287.288C333.25 282.557 339.736 283.504 346.401 278.601C370.928 260.317 395.183 225.873 410.161 223.212C408.107 237.306 381.884 263.923 357.915 288.792C353.694 293.295 357.404 301.128 353.088 306.515L250.826 409.775C248.295 406.772 245.875 409.287 248.295 411.594C253.474 416.98 248.435 420.968 244.109 417.104L224.477 395.527Z" fill="white"/>
</svg>
