<svg width="512" height="512" viewBox="0 0 512 512" fill="none" xmlns="http://www.w3.org/2000/svg">
<path d="M223.836 417.648L227.899 270.627H246.416V406.25H260.839V270.627H278.437V417.648M153.806 226.684L182.905 223.439L163.33 191.742L192.166 197.002L186.676 167.015L198.82 175.725V244.607L153.806 226.684ZM305.753 179.088L324.3 168.128L319.007 198.074L346.779 193.154L329.285 224.216L358.194 226.841L305.55 244.713L305.753 179.088ZM305.753 164.786C305.753 155.713 305.663 155.443 311.32 150.963C314.493 148.45 317.089 146.769 317.089 147.227C317.089 148.681 306.348 174.04 305.753 174.04C305.44 174.04 305.753 169.876 305.753 164.786ZM196.197 155.51C194.134 148.714 194.516 146.794 197.271 150.113C198.232 151.27 198.811 154.369 198.558 156.999L198.82 161.781L196.197 155.51Z" fill="white" fill-opacity="0.5"/>
<path d="M220.454 483.589C220.454 470.762 219.982 466.787 218.291 465.384C216.622 463.999 216.127 460.165 216.127 448.621V433.653H286.8V467.547L303.163 467.095C315.122 466.768 320.937 466.088 322.044 464.649C324.88 460.966 330.615 460.658 334.819 463.964C339.216 467.423 339.798 471.86 336.477 476.601C333.551 480.779 325.784 480.952 322.136 476.922C319.818 474.36 317.694 474.037 303.163 474.037H286.8C286.8 482.691 286.8 491.346 286.8 500H220.455L220.454 483.589ZM187.282 429.206C187.282 417.23 187.709 428.725 198.099 400.86C208.634 372.605 208.916 371.508 208.916 358.761V345.673L234.877 345.673V360.06C234.877 374.444 234.876 374.451 226.224 394.594C221.464 405.675 217.57 415.413 217.57 416.235C217.57 417.056 220.541 415.632 224.172 413.071C230.643 408.505 231.132 408.403 248.96 407.929C271.548 407.328 278.39 408.312 283.908 412.955C287.166 415.696 288.242 417.824 288.242 421.522V426.442H252.771C218.033 426.442 217.283 426.379 216.514 423.435C214.789 416.84 213.286 424.734 213.265 440.504L213.243 456.73H187.282V429.206ZM295.027 456.424L295.027 440.072C295.027 424.193 292.837 420.414 277.54 387.06C272.662 376.423 272.377 374.969 272.377 360.682V345.673H298.339V361.539C299.142 375.921 299.833 378.053 309.695 403.881C320.02 430.921 318.969 427.678 319.252 440.072V456.424L295.027 456.424ZM237.377 346.395L251.182 346.395V375.241H237.377V346.395ZM257.128 375.241L257.233 346.395H269.493V375.241H257.128ZM207.474 271.396C206.68 270.906 206.031 266.079 206.031 260.67C206.031 247.236 206.505 246.946 226.634 248.047C235.531 248.533 244.919 249.362 247.497 249.887L252.185 250.843V270.314C246.465 271.745 240.711 272.117 234.877 272.117V339.905H208.916C208.435 317.068 210.696 281.668 207.474 271.396ZM272.377 272.117H267.234C262.391 272.117 258.911 272.326 257.423 270.314V250.843C260.147 249.53 267.394 248.812 278.419 248.129C289.503 247.443 295.076 247.689 298.25 249.004C302.561 250.789 302.665 251.064 302.665 260.599C302.665 267.95 302.13 270.571 300.502 271.196C297.37 274.431 298.339 339.905 298.339 339.905H272.377V272.117ZM210.3 179.628H220.455V240.387H210.3V179.628ZM233.435 71.6368H243.555V240.387H233.435V71.6368ZM257.954 77.2248H267.329V240.387H257.954V77.2248ZM282.473 128.481H294.012V240.387H282.473V128.481ZM210.3 150.523C210.3 139.397 210.167 139.369 214.736 126.583C219.956 139.255 220.092 139.316 220.455 150.523V161.06H210.3V150.523ZM287.185 69.7186C293.386 88.6244 293.338 88.6459 294.012 107.695H282.473C282.14 88.8074 282.139 88.7992 287.185 69.7186ZM257.954 57.2148C257.686 39.4324 257.655 39.5012 262.287 26.2918C266.789 39.1496 266.787 39.1005 267.329 57.2148H257.954ZM231.58 51.9948C231.431 31.2608 231.447 31.2949 237.835 13.4575C243.947 30.7725 243.915 30.8322 244.252 51.9948H231.58Z" fill="white"/>
</svg>
