<svg width="512" height="512" viewBox="0 0 512 512" fill="none" xmlns="http://www.w3.org/2000/svg">
<path fill-rule="evenodd" clip-rule="evenodd" d="M12 305.218V346.263L130.036 346.829V362.397L12 363.247V399.761H134.566L177.024 357.019H334.125L378.565 399.761H500V362.114H383.377V345.554H500V305.218H377.999L334.125 348.811H177.024L134.566 305.218H12Z" fill="white"/>
<path fill-rule="evenodd" clip-rule="evenodd" d="M12 105.659V290.216H138.811L182.12 333.732H330.701L374.885 290.216H500V105.659H456.69V126.89L486.694 150.95V276.629H319.122L295.345 301.821L271.001 276.629H239.581L215.238 301.821L190.328 276.629H23.0386V150.667L53.8932 129.437L53.3277 105.659H12Z" fill="white"/>
<path fill-rule="evenodd" clip-rule="evenodd" d="M21.7104 415.325H138.801L182.035 371.689H330.35L374.584 415.325L486.871 415.325L476.263 425.733H438.034V432.938H71.3484V425.733H32.9191L21.7104 415.325Z" fill="white"/>
<path fill-rule="evenodd" clip-rule="evenodd" d="M230.272 252.177L242.682 230.381H279.111L293.121 252.177H230.272Z" fill="white" fill-opacity="0.5"/>
<path fill-rule="evenodd" clip-rule="evenodd" d="M241.481 214.765L222.266 182.743L242.081 149.114H279.911L299.526 182.543L280.711 214.765H241.481Z" fill="white" fill-opacity="0.5"/>
<path fill-rule="evenodd" clip-rule="evenodd" d="M236.477 79.0625L222.266 102.68L241.881 134.507H280.111L299.526 102.68L285.515 79.0625H236.477Z" fill="white" fill-opacity="0.5"/>
<path fill-rule="evenodd" clip-rule="evenodd" d="M162.019 79.0625L168.631 94.8752L207.261 94.6746L214.861 79.0625H162.019Z" fill="white" fill-opacity="0.5"/>
<path fill-rule="evenodd" clip-rule="evenodd" d="M78.7549 79.0625L68.1472 95.0754V88.4709H47.3311V79.0625H78.7549Z" fill="white" fill-opacity="0.5"/>
<path fill-rule="evenodd" clip-rule="evenodd" d="M68.1472 109.286V136.307L47.3311 152.72V174.736H69.1474L88.3623 141.308L68.1472 109.286Z" fill="white" fill-opacity="0.5"/>
<path fill-rule="evenodd" clip-rule="evenodd" d="M47.3311 190.749V252.176H70.3484L88.7627 222.372L68.3468 190.149L47.3311 190.749Z" fill="white" fill-opacity="0.5"/>
<path fill-rule="evenodd" clip-rule="evenodd" d="M101.372 230.381L87.7617 252.177H151.811L138.001 230.381H101.372Z" fill="white" fill-opacity="0.5"/>
<path fill-rule="evenodd" clip-rule="evenodd" d="M170.612 252.177L151.018 222.372L169.231 190.547H207.861L225.875 222.171L207.261 252.177H170.612Z" fill="white" fill-opacity="0.5"/>
<path fill-rule="evenodd" clip-rule="evenodd" d="M168.631 175.134L151.018 141.309L168.631 108.884H207.261L225.875 141.309L207.261 175.134H168.631Z" fill="white" fill-opacity="0.5"/>
<path fill-rule="evenodd" clip-rule="evenodd" d="M101.373 214.765L80.5625 181.74L101.373 149.114H138.407L157.822 181.54L139.208 214.765H101.373Z" fill="white" fill-opacity="0.5"/>
<path fill-rule="evenodd" clip-rule="evenodd" d="M95.5679 79.0625L81.1567 102.68L101.373 134.507H138.801L157.816 102.68L145.607 79.0625H95.5679Z" fill="white" fill-opacity="0.5"/>
<path fill-rule="evenodd" clip-rule="evenodd" d="M301.328 79.0625L311.335 94.6746H349.164L358.772 79.0625H301.328Z" fill="white" fill-opacity="0.5"/>
<path fill-rule="evenodd" clip-rule="evenodd" d="M374.985 79.0625L361.975 102.68L380.989 134.507H419.019L438.434 102.68L425.424 79.0625H374.985Z" fill="white" fill-opacity="0.5"/>
<path fill-rule="evenodd" clip-rule="evenodd" d="M442.037 79.0625L449.442 89.0707H465.054L465.855 83.8667L460.851 79.0625H442.037Z" fill="white" fill-opacity="0.5"/>
<path fill-rule="evenodd" clip-rule="evenodd" d="M440.035 125.299L430.828 142.913L450.443 174.937H465.054V155.737L439.552 137.122L440.035 125.299Z" fill="white" fill-opacity="0.5"/>
<path fill-rule="evenodd" clip-rule="evenodd" d="M450.643 190.149L431.428 222.372L449.042 252.176H465.054V190.149L450.643 190.149Z" fill="white" fill-opacity="0.5"/>
<path fill-rule="evenodd" clip-rule="evenodd" d="M380.789 230.381C379.388 231.181 368.179 252.177 368.179 252.177H432.029L418.018 230.381H380.789Z" fill="white" fill-opacity="0.5"/>
<path fill-rule="evenodd" clip-rule="evenodd" d="M349.164 252.176L368.579 222.372L349.164 189.949H311.334L292.12 222.372L311.334 252.176H349.164Z" fill="white" fill-opacity="0.5"/>
<path fill-rule="evenodd" clip-rule="evenodd" d="M380.395 214.765L360.98 182.741L380.995 149.114H418.825L438.24 182.54L419.625 214.765H380.395Z" fill="white" fill-opacity="0.5"/>
<path fill-rule="evenodd" clip-rule="evenodd" d="M311.335 175.936L292.327 142.91L311.335 110.285L349.164 110.084L369.587 142.71L349.164 176.536L311.335 175.936Z" fill="white" fill-opacity="0.5"/>
</svg>
