<svg width="512" height="512" viewBox="0 0 512 512" fill="none" xmlns="http://www.w3.org/2000/svg">
<path d="M198.042 352.72C196.234 348.632 190.718 331.956 185.783 315.663C178.929 293.028 176.59 282.891 175.87 272.697C175.352 265.36 174.332 257.022 173.603 254.169C172.192 248.646 175.134 225.403 177.545 223.022C178.26 222.316 184.515 219.657 191.445 217.114C198.374 214.571 206.25 211.195 208.946 209.612C211.643 208.029 214.062 206.734 214.323 206.734C215.992 206.734 221.555 223.581 222.187 230.551C222.92 238.633 222.628 239.522 214.609 253.558C204.616 271.048 204.166 275.525 210.703 292.386C215.929 305.864 234.893 336.362 240.729 340.673C245.62 344.286 262.104 344.995 269.417 341.907C275.089 339.511 289.602 317.922 299.423 297.272C308.919 277.304 308.779 272.679 298.118 254.158C290.815 241.47 290.034 239.271 290.175 231.793C290.28 226.239 291.627 220.67 294.252 214.936C297.621 207.577 298.492 206.638 300.444 208.257C301.693 209.294 310.197 212.952 319.342 216.385L335.97 222.629L337.191 232.84C337.863 238.456 339.045 244.234 339.819 245.679C340.688 247.302 340.701 249.289 339.853 250.872C339.098 252.282 337.678 261.438 336.696 271.219C335.266 285.479 333.15 294.73 326.015 317.908C321.121 333.806 315.659 349.684 313.877 353.192L310.637 359.571L255.982 359.863L201.328 360.154L198.042 352.72ZM239.639 327.437C230.7 315.717 215.251 287.71 213.562 280.163C211.93 272.87 212.072 271.78 215.629 264.361C217.731 259.978 221.918 252.559 224.934 247.875C232.399 236.282 232.954 229.142 227.802 210.987C224 197.588 223.448 196.628 216.151 190.702C205.67 182.191 194.991 178.375 179.586 177.634C169.002 177.125 166.156 177.5 161.798 179.98C158.945 181.603 151.607 185.367 145.493 188.343C139.378 191.32 134.079 194.026 133.717 194.357C132.123 195.811 152.418 214.106 159.096 217.234L166.484 220.694L165.541 231.131C165.023 236.872 163.85 243.08 162.935 244.928C161.631 247.562 161.789 249.371 163.67 253.315C164.988 256.08 166.48 262.573 166.984 267.743C167.488 272.914 168.234 278.748 168.641 280.708C169.363 284.185 169.252 284.159 164.148 279.677C158.267 274.514 153.045 272.775 135.879 270.266C118.299 267.696 114.621 263.588 105.649 236.495C103.105 228.813 101.023 220.677 101.023 218.415C101.023 216.153 103.655 203.626 106.871 190.577C112.119 169.287 113.291 162.614 114.963 144.497C115.439 139.341 115.477 139.316 130.203 134.573C154.449 126.763 190.003 120.759 211.983 120.761L218.867 120.762L219.236 129.266C220.338 154.712 234.958 168.133 259.648 166.367C271.554 165.515 280.888 160.94 285.898 153.502C290.293 146.978 293.724 135.336 293.724 126.951V120.338L310.107 121.375C337.565 123.112 374.672 130.538 391.929 137.748C396.988 139.862 397.486 140.582 397.486 145.785C397.486 154.33 401.361 174.927 407.24 197.632L412.476 217.852L410.014 226.655C405.745 241.921 399.083 257.849 394.844 262.927C391.022 267.504 389.652 268.009 373.891 270.646C357.168 273.443 348.695 276.874 345.659 282.077C342.002 288.345 345.313 260.255 349.135 252.594C350.975 248.904 351.004 247.617 349.319 244.163C348.225 241.921 347.109 235.751 346.838 230.452L346.346 220.816L355.201 216.115C362.522 212.227 381.134 195.463 379.447 194.275C379.178 194.086 374.621 192.091 369.322 189.843C364.023 187.595 358.662 184.831 357.409 183.702C347.096 174.404 322.998 175.099 304.381 185.231C291.822 192.067 288.408 196.754 284.041 213.163C279.145 231.558 279.74 235.326 290.297 252.753C299.575 268.07 301.08 274.518 297.693 284.456C295.163 291.882 278.013 321.142 272.007 328.28C268.399 332.568 267.81 332.731 255.969 332.731H243.677L239.639 327.437ZM266.944 304.888C270.667 300.987 276.582 292.721 280.089 286.517L286.466 275.238L279.635 262.85C272.147 249.269 260.67 236.381 256.065 236.381C251.376 236.381 238.62 250.912 231.993 263.804L225.897 275.662L232.758 287.137C241.455 301.682 251.248 311.979 256.384 311.979C258.98 311.979 262.311 309.742 266.944 304.888ZM252.02 287.891C247.627 284.269 235.58 268.992 237.118 268.992C237.978 268.992 241.826 264.989 245.669 260.098C254.608 248.721 257.215 248.576 265.694 258.986C269.18 263.266 272.94 267.53 274.049 268.461C275.689 269.838 274.517 271.978 267.755 279.949C259.442 289.748 256.236 291.366 252.02 287.891ZM252.22 267.509C252.22 263.433 251.854 260.098 251.407 260.098C250.961 260.098 249.079 261.86 247.227 264.014L243.858 267.93L246.927 271.269C251.47 276.211 252.22 275.678 252.22 267.509ZM265.56 271.215L269.042 267.509L265.56 263.804C263.646 261.765 261.695 260.098 261.226 260.098C260.756 260.098 260.372 263.433 260.372 267.509C260.372 271.586 260.756 274.921 261.226 274.921C261.695 274.921 263.646 273.253 265.56 271.215ZM138.556 256.74C139.764 251.603 139.46 250.708 134.73 245.471C131.903 242.343 126.903 234.414 123.618 227.851L117.646 215.919L112.055 221.646L106.463 227.372L111.947 240.327C114.963 247.452 119.136 255.517 121.221 258.25C124.591 262.669 125.689 263.17 131.128 262.77C136.858 262.35 137.327 261.969 138.556 256.74ZM390.813 258.245C392.92 255.595 397.291 247.441 400.527 240.124L406.411 226.82L400.686 221.095L394.961 215.371L388.551 228.311C385.026 235.428 379.933 243.459 377.234 246.158C374.535 248.857 372.595 251.93 372.924 252.987C373.253 254.045 373.923 256.744 374.415 258.986C375.205 262.592 375.982 263.062 381.146 263.062C385.958 263.062 387.656 262.216 390.813 258.245ZM364.27 255.388C367.646 248.86 363.896 241.072 358.393 243.184C356.549 243.892 355.981 246.134 355.981 252.706C355.981 260.629 356.218 261.241 359.005 260.512C360.668 260.077 363.038 257.771 364.27 255.388ZM155.572 251.589C155.064 241.86 152.048 239.613 147.93 245.897C145.664 249.357 145.668 249.988 147.99 254.858C149.531 258.09 151.548 260.098 153.253 260.098C155.681 260.098 155.963 259.063 155.572 251.589ZM242.601 227.46C245.619 222.68 246.125 220.594 245.166 216.894L243.972 212.283L240.149 218.059C237.363 222.269 236.517 225.134 237.03 228.626C237.416 231.26 237.982 233.416 238.287 233.416C238.592 233.416 240.533 230.736 242.601 227.46ZM272.692 218.154C270.808 215.203 268.766 212.761 268.154 212.727C265.753 212.591 267.222 223.174 270.336 228.453L273.63 234.036L274.874 228.777C275.895 224.461 275.504 222.557 272.692 218.154ZM114.918 207.77C117.184 203.803 118.751 198.187 119.242 192.281C120.19 180.886 124.723 172.633 135.217 163.198C151.108 148.91 160.682 150.008 211.609 171.962C252.158 189.442 261.037 189.553 298.171 173.044C323.251 161.895 342.82 155.044 353.051 153.832C363.249 152.624 374.718 158.331 382.96 168.715C390.535 178.26 392.397 182.779 393.698 194.786C394.435 201.585 395.874 205.946 398.703 209.948C403.809 217.17 405.772 217.239 402.149 210.07C400.546 206.896 398.616 198.149 397.652 189.688C396.12 176.237 395.438 174.11 390.285 166.712C383.439 156.881 372.641 148.341 363.999 145.922C352.28 142.641 329.393 148.55 299.653 162.535C281.399 171.119 270.223 174.071 255.866 174.102C242.155 174.131 231.14 171.149 212.197 162.283C193.203 153.394 177.698 148.137 163.607 145.81C154.182 144.254 152.152 144.362 145.897 146.751C137.751 149.862 124.529 161.734 119.561 170.397C117.178 174.553 115.648 180.745 114.487 190.93C113.572 198.95 111.836 207.422 110.629 209.756C106.047 218.617 109.686 216.932 114.918 207.77ZM241.604 210.242C244.296 206.088 244.854 203.739 244.101 199.725L243.131 194.556L238.961 200.275C235.773 204.645 234.962 207.129 235.52 210.811C235.922 213.46 236.675 215.62 237.194 215.61C237.713 215.602 239.697 213.185 241.604 210.242ZM273.811 200.688C271.597 197.342 269.532 194.857 269.223 195.166C268.913 195.476 268.501 198.089 268.307 200.973C268.065 204.56 269.085 207.804 271.533 211.243L275.113 216.27L276.475 211.521C277.628 207.499 277.22 205.839 273.811 200.688ZM142.506 173.064C142.531 171.026 137.918 168.194 134.574 168.194C133.353 168.194 130.941 170.178 129.215 172.602L126.076 177.01L129.479 181.612L132.881 186.214L137.682 180.539C140.323 177.418 142.494 174.054 142.506 173.064ZM383.29 181.972L386.739 177.963L383.589 173.097C381.857 170.421 379.649 168.223 378.683 168.213C375.737 168.183 369.322 171.007 369.322 172.335C369.322 173.593 378.422 185.982 379.346 185.982C379.618 185.982 381.393 184.178 383.29 181.972ZM173.595 198.507C168.551 192.43 185.064 188.564 192.273 194.135C195.121 196.336 195.121 196.381 192.273 198.582C188.408 201.569 176.095 201.52 173.595 198.507ZM320.51 199.178C317.267 197.882 317.135 197.511 319.189 195.457C324.333 190.313 339.676 190.184 339.676 195.284C339.676 200.465 329.106 202.613 320.51 199.178ZM241.742 151.418C234.259 147.461 229.316 139.094 227.79 127.801L226.838 120.76H255.834H284.83L284.822 124.837C284.809 130.959 281.906 140.241 278.509 145.021C271.67 154.642 253.738 157.762 241.742 151.418Z" fill="white"/>
<path d="M182.541 495.415C180.599 492.765 167.741 476.409 153.968 459.068L128.927 427.538L121.508 376.37L114.09 325.202L130.087 308.585C138.886 299.445 146.527 291.776 147.068 291.541C148.97 290.716 163.241 303.155 165.579 307.677C166.881 310.194 167.73 312.424 167.466 312.631C166.622 313.294 141.857 334.633 139.989 336.307C138.582 337.568 138.807 346.957 141.024 379.468L143.857 421.016L161.135 452.842C170.638 470.346 180.394 488.17 182.814 492.45C187.822 501.305 187.715 502.472 182.541 495.415ZM330.632 489.856C333.851 483.742 343.54 465.797 352.163 449.98L367.841 421.22L370.018 388.464C371.215 370.447 372.552 351.687 372.989 346.774L373.784 337.841L362.552 328.245C356.374 322.967 349.636 317.239 347.579 315.515C343.946 312.472 343.907 312.248 346.238 307.741C348.488 303.39 362.49 290.98 364.638 291.432C365.176 291.546 372.839 299.133 381.666 308.292L397.715 324.946L390.18 376.462L382.646 427.978L356.305 460.913C341.817 479.027 328.797 495.451 327.371 497.411C325.945 499.37 327.413 495.971 330.632 489.856ZM78.8335 391.229L62.1616 362.188L63.2504 330.247L64.3392 298.305L78.0873 284.019L91.8354 269.733L97.1046 275.15C100.723 278.87 104.241 280.883 108.332 281.574L114.29 282.58L103.58 290.768C97.69 295.271 90.1302 301.052 86.7807 303.614L80.6906 308.273L78.989 330.508C78.0531 342.737 77.2979 354.743 77.3108 357.189C77.3238 359.635 81.6026 374.643 86.8195 390.541C92.0363 406.439 96.1248 419.632 95.905 419.858C95.6852 420.085 88.0031 407.202 78.8335 391.229ZM415.579 418.705C415.986 417.482 420.513 403.862 425.639 388.438L434.957 360.394L432.898 334.371L430.838 308.348L414.079 295.371L397.319 282.394L403.263 281.444C407.226 280.81 410.886 278.814 414.243 275.458L419.279 270.422L433.211 284.629C440.874 292.443 447.18 299.292 447.224 299.849C447.268 300.406 447.831 314.658 448.475 331.521L449.646 362.18L433.699 390.072C418.704 416.301 413.794 424.059 415.579 418.705ZM69.5781 208.64L61.1085 200.064L58.9466 153.588L56.7847 107.112L77.6671 77.9898C99.0833 48.1232 102.627 43.4885 99.7104 49.1636C98.7886 50.9569 92.3617 65.865 85.4284 82.2927L72.8223 112.161L75.8067 148.695C78.4966 181.626 79.0856 185.452 81.7776 187.482C84.6082 189.617 84.6525 190.121 82.6255 197.123C81.4492 201.186 79.9379 207.369 79.2672 210.863L78.0476 217.216L69.5781 208.64ZM430.432 202.682C427.104 189.81 427.102 189.723 430.018 187.488C432.614 185.499 433.212 181.835 435.232 155.594C436.486 139.289 437.885 122.945 438.341 119.274C439.086 113.261 437.778 109.328 425.105 79.4826C417.37 61.2675 411.257 46.594 411.521 46.8748C411.785 47.1556 421.724 60.9687 433.608 77.5707L455.216 107.756L454.525 116.111C454.145 120.706 453.116 141.475 452.239 162.265L450.643 200.064L443.015 207.846C438.819 212.126 435.025 215.628 434.582 215.628C434.14 215.628 432.272 209.802 430.432 202.682ZM138.976 105.494C138.218 101.455 139.95 95.1972 147.513 74.6473L157 48.868L183.997 30.6021C198.845 20.5558 211.249 12.5916 211.561 12.9039C211.874 13.2161 202.841 22.3295 191.489 33.1557L170.85 52.8398L163.22 75.7307C156.02 97.3344 155.722 98.8216 157.923 102.181L160.255 105.74L151.8 107.495C147.15 108.46 142.576 109.545 141.636 109.906C140.644 110.287 139.528 108.437 138.976 105.494ZM360.843 107.779L351.622 105.699L353.929 102.179C356.093 98.8756 355.794 97.3218 349.067 76.9417L341.899 55.2246L319.665 33.0017C307.436 20.7791 298.444 11.3444 299.684 12.0357C302.817 13.7828 351.997 46.7663 353.494 48.1246C354.164 48.7325 359.018 60.815 364.281 74.9746C371.169 93.5109 373.598 101.86 372.954 104.794C372.461 107.034 371.61 109.091 371.061 109.363C370.512 109.635 365.914 108.922 360.843 107.779Z" fill="white" fill-opacity="0.501961"/>
</svg>
