<svg width="512" height="512" viewBox="0 0 512 512" fill="none" xmlns="http://www.w3.org/2000/svg">
<path d="M213.819 295.884C208.846 290.591 210.029 287.331 216.924 287.331C219.611 287.331 223.347 285.939 225.228 284.237C228.914 280.901 230.063 283.298 226.491 286.87C225.304 288.057 224.407 291.591 224.496 294.724C224.699 301.891 219.947 302.407 213.819 295.884Z" fill="white"/>
<path d="M34.2729 19.939C25.4681 19.939 19.2217 26.0757 19.2217 34.7273C19.2217 40.7227 21.3646 43.533 40.7509 62.9699L62.0275 83.9253L45.3991 101.411V123.673L102.386 180.748H123.107L140.755 163.133L157.605 179.671L140.763 196.791V219.037L197.749 276.112H218.345L236.118 258.497L252.969 275.035L236.632 291.776L236.127 314.401L293.113 371.475L313.89 371.297L331.537 353.808L349.16 371.429L331.49 389.087V409.765L388.477 466.839H409.813L427.388 449.63L448.808 471.049C469.578 491.82 470.451 492.451 477.659 491.938C486.619 491.299 492.299 485.632 492.299 477.333C492.299 472.475 488.877 468.138 470.491 449.704L448.679 427.835L466.122 411.018V387.414L411.009 332.208H388.59L370.711 349.878L353.091 332.255L370.758 314.256V292.05L315.645 236.844L291.282 236.97L274.318 253.687L257.779 236.836L275.394 218.957V196.486L218.09 139.612H198.387L178.842 158.208L162.415 141.472L180.03 123.516V101.123L122.726 44.2483H102.155L83.8311 62.9891L62.2499 41.4626C43.1483 22.4109 39.934 19.939 34.2729 19.939ZM112.575 70.4257C118.613 70.4257 121.176 72.2733 136.594 87.7559C152.703 103.932 153.853 105.598 153.853 112.712C153.853 117.708 152.679 121.394 150.448 123.413C147.256 126.302 146.711 126.147 141.683 120.899C131.013 109.762 114.585 115.946 114.585 131.099C114.585 135.258 116.266 138.652 120.181 142.403C125.429 147.431 125.585 147.973 122.696 151.166C120.709 153.361 116.998 154.57 112.244 154.57C105.427 154.57 103.547 153.244 87.2905 136.961C71.9406 121.586 69.7084 118.537 69.7084 112.942C69.7084 108.89 71.0952 105.278 73.4801 103.119C77.1532 99.7953 77.3886 99.837 82.4643 104.7C88.8828 110.849 101.003 111.662 105.881 106.272C110.825 100.809 109.883 89.3399 103.982 83.1816C99.1197 78.1059 99.0779 77.8706 102.402 74.1974C104.626 71.7399 108.171 70.4257 112.575 70.4257ZM207.939 165.79C213.977 165.79 216.54 167.637 231.958 183.12C248.066 199.296 249.217 200.962 249.217 208.076C249.217 213.072 248.043 216.758 245.812 218.777C242.62 221.666 242.075 221.51 237.047 216.263C230.144 209.057 221.139 208.655 214.537 215.257C207.935 221.86 208.34 230.864 215.545 237.767C220.793 242.795 220.949 243.337 218.06 246.53C216.004 248.801 212.432 249.907 207.322 249.852C200.191 249.776 198.53 248.617 183.158 232.971C168.658 218.213 166.591 215.275 166.129 208.793C165.751 203.475 166.583 200.529 169.11 198.242C172.431 195.236 172.89 195.332 177.828 200.064C184.247 206.213 196.367 207.026 201.244 201.636C206.189 196.173 205.246 184.704 199.346 178.546C194.483 173.47 194.442 173.234 197.766 169.561C199.99 167.104 203.535 165.79 207.939 165.79ZM303.303 261.153C309.341 261.153 311.903 263.001 327.322 278.484C343.728 294.959 344.581 296.214 344.581 303.861C344.581 308.664 343.403 313.086 341.658 314.831C339.007 317.482 338.169 317.208 332.685 311.892C325.079 304.52 317.149 304.078 310.947 310.679C304.431 317.615 304.719 326.175 311.723 333.742C317.304 339.773 317.364 340.027 313.837 342.625C311.841 344.095 307.002 345.298 303.083 345.298C296.604 345.298 294.401 343.749 278.78 328.217C262.237 311.769 261.621 310.854 262.047 303.442C262.29 299.209 263.696 294.525 265.175 293.034C267.52 290.667 268.535 290.963 273.134 295.37C277.083 299.153 280.298 300.421 285.959 300.421C295.137 300.421 299.148 296.553 299.953 286.931C300.418 281.364 299.459 278.867 295.124 274.342C289.852 268.84 289.802 268.602 293.13 264.925C295.354 262.468 298.899 261.153 303.303 261.153ZM399.242 358.101C406.582 358.513 408.608 359.925 424.518 375.727C443.402 394.482 445.662 399.994 438.221 409.135L434.628 413.548L429.237 408.407C422.637 402.111 410.575 401.23 405.64 406.684C400.71 412.132 401.639 423.618 407.505 429.741C411.648 434.065 412.074 435.39 410.083 437.789C408.628 439.541 404.623 440.662 399.811 440.662C392.394 440.662 390.903 439.659 374.795 423.825C358.383 407.691 357.668 406.649 357.668 398.812C357.668 387.196 361.715 384.237 368.591 390.824C379.074 400.868 396.935 395.135 396.935 381.728C396.935 378.184 394.876 374.203 390.942 370.144C385.319 364.343 385.144 363.767 388.104 360.807C392.113 358.11 395.132 357.93 399.242 358.101Z" fill="white"/>
<path d="M279.134 232.388C279.134 231.989 280.391 229.253 281.928 226.307C283.464 223.361 284.726 218.637 284.732 215.809C284.748 209.337 290.348 208.81 295.89 214.759C300.799 220.028 301.14 228.203 296.387 226.695C294.563 226.116 289.935 227.323 286.103 229.378C282.27 231.432 279.134 232.786 279.134 232.388Z" fill="white"/>
<path d="M477.7 19.939C471.462 19.939 468.929 21.856 449.271 41.4627L427.69 62.9891L408.919 44.5134L388.795 44.2456L331.491 101.123V123.695L349.106 141.472L332.57 158.323L315.249 141.261L291.289 141.664L266.312 166.359L280.158 180.715C281.234 180.733 285.401 177.384 289.418 173.27C295.297 167.25 298.051 165.79 303.533 165.79C307.988 165.79 311.522 167.094 313.755 169.561C317.082 173.237 317.035 173.473 311.876 178.858C301.109 190.096 306.297 205.057 320.962 205.057C326.549 205.057 335.257 199.14 339.104 195.454C352.124 209.677 352.126 209.801 329.616 231.895L343.793 245.598L370.758 219.174V196.607L353.916 179.671L370.766 163.133L388.622 180.748H409.048L466.122 123.761V101.079L449.244 84.5567L470.773 62.9699C488.96 44.7353 492.299 40.4871 492.299 35.5901C492.299 26.7107 485.983 19.939 477.7 19.939ZM399.02 70.4257C403.351 70.4257 406.908 71.7542 409.119 74.1974C412.443 77.8706 412.404 78.1059 407.541 83.1816C401.392 89.6001 400.576 101.72 405.966 106.598C411.43 111.542 422.898 110.6 429.057 104.7C434.132 99.837 434.368 99.7953 438.041 103.119C440.285 105.15 441.813 108.891 441.813 112.356C441.813 117.233 438.848 121.132 423.548 136.375C407.382 152.48 404.53 154.57 398.708 154.57C395.057 154.57 390.738 153.18 389.006 151.448C386.091 148.533 386.25 147.911 391.411 142.034C397.978 134.554 398.537 127.19 393.062 120.23C387.419 113.056 377.067 113.354 369.838 120.899C364.81 126.147 364.265 126.302 361.073 123.413C358.832 121.385 357.668 117.704 357.668 112.638C357.668 105.42 358.743 103.875 375.001 87.6847C390.383 72.367 393.085 70.4257 399.02 70.4257Z" fill="white"/>
<path d="M166.157 268.634L140.763 291.897L140.846 314.713L158.433 332.254L140.809 349.878L123.089 332.47L100.515 332.208L45.399 387.414L45.6669 411.857L62.28 428.402L40.7508 449.986C31.6468 460.561 10.501 474.876 23.4289 487.96C38.5316 501.088 53.5874 478.75 62.9264 470.816L84.2063 449.597L100.236 465.666L122.956 466.839L180.03 409.853L180.036 389.617L162.364 371.429L179.984 353.808L197.449 369.415L218.699 368.356L243.648 346.098L228.647 331.449C206.416 351.951 206.454 351.981 194.279 339.773C202.806 332.039 213.962 324.093 204.384 314.266L198.553 308.401C190.592 300.093 182.168 309.482 173.084 317.383C157.413 302.163 157.582 302.148 180.092 282.377L166.157 268.634ZM112.989 358.388C118.47 358.388 122.476 359.437 123.997 361.27C126.007 363.691 125.449 365.122 120.488 370.24C113.022 377.943 112.613 385.801 119.351 392.131C125.641 398.039 135.922 397.406 143.033 390.671C149.714 384.344 153.853 387.295 153.853 398.387C153.853 405.681 152.822 407.169 136.52 423.403C129.291 430.728 115.022 450.891 99.8334 436.003C111.958 425.859 114.465 414.167 105.555 406.358C96.5557 398.13 85.087 402.358 77.2872 413.183C60.2958 397.067 76.0082 385.651 87.0385 375.647C103.871 358.885 104.619 358.388 112.989 358.388Z" fill="white"/>
<path d="M256.633 16.9219C218.09 17.0056 180.117 26.2379 145.838 43.8594L149.748 47.998C182.904 31.2968 219.508 22.5886 256.633 22.5703C292.797 22.6722 328.461 31.0192 360.914 46.9766L364.945 42.457C331.296 25.6988 294.224 16.9588 256.633 16.9219ZM470.17 143.434L465.797 147.639C484.549 182.277 494.405 221.031 494.48 260.42C494.391 297.727 485.528 334.49 468.605 367.738L472.959 372.051C490.79 337.54 500.106 299.263 500.129 260.418C500.124 219.526 489.821 179.294 470.17 143.434ZM42.9941 144.096C23.4854 179.769 13.2201 219.759 13.1348 260.418C13.207 299.39 22.6325 337.775 40.6191 372.348L44.582 368.133C27.626 334.759 18.7867 297.854 18.7832 260.42C18.816 221.266 28.5144 182.725 47.0176 148.219L42.9941 144.096ZM142.979 469.332L138.969 473.289C174.969 493.283 215.453 503.821 256.633 503.916C297.439 503.915 337.591 493.659 373.398 474.09L368.914 469.871C334.398 488.443 295.828 498.198 256.633 498.268C216.927 498.26 177.854 488.313 142.979 469.332Z" fill="white" fill-opacity="0.313726"/>
<path d="M255.562 68.9551C230.758 68.9581 206.204 73.9261 183.35 83.5664L192.666 93.4277C212.522 85.7338 233.631 81.785 254.926 81.7812C276.789 81.8292 298.445 86.0354 318.736 94.1758L327.953 83.8418C305.063 74.0837 280.446 69.0214 255.562 68.9551ZM427.471 184.404L416.643 194.818C423.665 213.825 427.281 233.92 427.326 254.182C427.258 275.141 423.369 295.912 415.85 315.477L426.893 326.418C436.426 303.748 441.366 279.411 441.426 254.818C441.394 230.663 436.654 206.746 427.471 184.404ZM83.2695 185.375C74.3417 207.44 69.7355 231.015 69.7012 254.818C69.7181 279.324 74.5809 303.584 84.0098 326.203L93.916 315.67C86.4026 296.04 82.5422 275.201 82.5254 254.182C82.5987 234.131 86.1692 214.247 93.0762 195.424L83.2695 185.375ZM196.787 416.258L185.887 427.01C208.018 436.002 231.674 440.644 255.562 440.682C278.961 440.625 302.139 436.151 323.877 427.494L312.266 416.57C293.858 423.133 274.468 426.519 254.926 426.582C235.097 426.51 215.429 423.017 196.787 416.258Z" fill="white" fill-opacity="0.313726"/>
</svg>
