<svg width="512" height="512" viewBox="0 0 512 512" fill="none" xmlns="http://www.w3.org/2000/svg">
<path d="M254.578 248.046C237.578 248.375 220.728 255.516 206.921 269.412C194.173 282.241 191.386 289.287 191.386 308.672C191.386 321.545 191.889 325.032 194.101 327.477C197.367 331.085 197.959 345.811 194.879 346.838C190.397 348.332 193.015 356.03 201.509 366.327C210.034 376.662 212.55 378.212 215.692 375.07C218.52 372.242 225.532 382.156 225.532 388.983C227.323 412.593 282.035 411.47 285.844 387.799C287.703 379.527 293.362 372.846 296.386 375.356C299.518 377.955 302.144 376.224 310.757 365.874C318.641 356.401 320.719 349.903 317.038 346.221C313.839 343.023 314.683 332.094 318.532 326.888C321.889 322.348 322.11 320.877 321.411 307.517C320.445 289.057 316.095 279.532 303.149 267.547C288.731 254.198 271.578 247.717 254.578 248.046ZM304.896 314.673C305.084 314.605 305.912 315.34 307.568 316.811C309.4 318.437 310.9 320.009 310.9 320.303C310.9 322.26 307.587 320.232 306.074 317.348C305.163 315.612 304.707 314.74 304.896 314.673ZM206.292 315.389C207.133 315.336 207.071 316.439 205.384 318.472C204.304 319.773 202.7 320.841 201.818 320.841C200.937 320.841 201.486 319.438 203.036 317.725C204.441 316.173 205.638 315.431 206.292 315.389ZM227.433 328.601C232.131 328.601 234.595 329.665 238.169 333.238C244.925 339.994 243.957 346.252 235.114 352.979V352.982C225.859 360.022 216.956 360.138 210.131 353.313C204.546 347.728 204.177 344.062 208.5 337.068C212.001 331.402 218.268 328.601 227.433 328.601ZM284.162 328.601C293.327 328.601 299.596 331.402 303.098 337.068C307.402 344.032 307.049 348.21 301.707 353.553C295.095 360.165 285.65 359.949 276.487 352.979C267.644 346.252 266.673 339.994 273.429 333.238C277.002 329.665 279.463 328.601 284.162 328.601ZM254.702 350.735C256.834 350.809 260.814 362.213 262.204 372.449C263.277 380.35 262.881 380.876 258.107 377.895C255.653 376.362 254.393 376.362 251.939 377.895C247.507 380.663 247.251 380.447 247.356 374.001C247.475 366.711 252.137 351.55 254.502 350.762C254.567 350.74 254.634 350.732 254.702 350.735ZM280.997 391.297C281.928 391.238 282.82 391.519 282.832 392.123C282.911 392.777 282.221 393.691 280.575 393.721C279.568 393.618 279.564 394.041 279.397 394.38C278.648 395.898 277.408 395.807 276.065 395.455C275.552 395.432 275.043 395.424 274.71 396.081C273.955 397.517 272.71 397.774 271.865 396.776C271.349 396.261 270.099 396.431 269.781 397.192C268.831 399.614 267.448 398.798 266.277 397.435C265.584 396.619 263.982 396.891 262.945 398.058C261.237 400.009 260.757 399.296 259.474 398.058C258.211 396.991 256.939 397.504 255.932 398.058C254.913 398.566 253.9 398.767 252.671 398.058C251.932 397.643 250.838 397.423 249.615 398.024C248.134 398.723 246.776 398.885 245.172 397.921C244.404 397.559 243.538 397.379 242.5 397.851C241.094 398.41 239.909 398.28 238.961 397.399C238.495 396.932 238.158 396.393 236.981 397.052C236.11 397.63 234.844 397.556 234.169 396.809C233.48 396.067 232.242 395.208 230.874 396.287C229.839 395.872 229.273 395.084 228.687 394.31C227.952 393.557 228.236 393.03 230.005 392.749C231.096 392.606 232.195 392.443 233.06 393.025C234.189 393.394 235.255 393.895 236.738 393.511C237.723 393.183 238.516 393.318 239.177 393.775C240.021 394.399 240.948 394.559 241.977 394.119C243.405 393.387 244.171 393.775 245.02 394.021C246.407 394.498 247.815 394.777 249.339 393.973C250.926 393.186 252.078 393.33 252.971 394.021C253.852 394.776 254.688 394.506 255.522 394.17C256.692 393.64 257.676 393.673 258.569 393.973C259.616 394.29 260.158 395.062 262.495 394.219C263.7 393.623 265.577 393.372 266.422 393.973C267.074 394.57 268.627 395.01 269.365 394.267C269.903 393.679 270.394 393.734 270.887 393.775C272.013 394.013 273.088 393.963 274.03 393.186C274.721 392.501 275.479 392.219 276.308 392.366C277.31 392.543 278.51 392.65 279.466 391.777C279.868 391.491 280.439 391.333 280.997 391.297Z" fill="white"/>
<path d="M255.953 94.7979L259.805 188.895L253.606 188.909L255.953 94.7979Z" fill="white" fill-opacity="0.501961"/>
<path d="M180.52 211.883L255.953 12L332.007 212.23L328.614 210.445L282.317 87.1981C281.898 87.6166 306.834 187.485 310.213 199.098C302.214 194.655 293.817 191.248 284.514 190.196L283.738 181.081L273.947 188.415C270.6 188.268 267.468 188.05 264.25 188.558L282.725 173.556L263.33 70.6174C261.077 62.5436 254.201 60.1132 250.352 70.6174L230.548 173.556L248.703 188.558C245.521 188.259 242.318 188.067 239.006 188.415L229.495 181.146L228.637 190.196C220.265 192.106 212.354 195.511 204.498 199.098L230.373 87.1981L182.929 210.445L180.52 211.883Z" fill="white" fill-opacity="0.501961"/>
<path d="M387.077 321.275V313.34C398.44 314.733 409.476 317.67 419.55 325.137L419.5 334.317C409.719 328.113 399.764 321.484 387.077 321.275Z" fill="white" fill-opacity="0.501961"/>
<path d="M327.284 262.119L324.993 277.093C288.716 229.021 223.141 228.539 188.176 277.702C183.215 286.907 182.88 288.5 182.338 305.409C181.781 322.783 181.895 323.543 185.939 329.467C189.473 334.645 189.971 336.648 189.183 342.507C188.67 346.314 187.559 350.12 186.714 350.966C185.868 351.811 185.177 354.799 185.177 357.606C185.177 361.866 184.157 363.352 178.999 366.608C175.601 368.753 172.534 370.508 172.183 370.508C123.782 279.883 237.956 168.725 327.284 262.119Z" fill="white" fill-opacity="0.5"/>
<path d="M305.369 396.284C309.17 385.783 312.854 378.964 318.534 371.915C326.529 361.993 328.656 354.737 324.722 350.803C323.787 349.868 322.914 345.713 322.782 341.568C322.601 335.92 323.437 332.777 326.118 329.018C329.387 324.435 329.672 322.517 329.421 306.765L329.146 289.528L340.361 283.588C358.119 332.767 348.434 380.309 301.227 410.84C300.602 410.853 302.466 404.303 305.369 396.284Z" fill="white" fill-opacity="0.5"/>
<path d="M184.836 389.954L187.95 365.14L197.071 376.768C202.758 384.037 206.796 391.278 209.35 398.785C211.442 404.937 212.743 411.205 212.743 411.205C212.511 411.488 192.31 399.764 184.836 389.954Z" fill="white" fill-opacity="0.5"/>
<path d="M129.321 399.918L147.908 387.142C82.8158 268.194 222.33 153.618 323.294 221.744V241.481C227.407 170.022 104.579 283.618 163.709 378.269L182.692 368.224L174.351 418.432L129.321 399.918Z" fill="white"/>
<path d="M222.766 416.769L213.555 384.477C218.537 385.109 220.851 394.299 220.876 398.188C220.876 402.219 221.899 406.978 223.15 408.764C225.065 423.134 282.442 422.057 286.788 408.764C288.256 406.076 289.237 401.345 289.899 397.328C290.928 391.094 299.08 380.367 298.394 382.925L289.616 415.632C266.828 423.408 244.445 425.255 222.766 416.769Z" fill="white" fill-opacity="0.5"/>
<path d="M64.2656 418.325L74.8053 412.429C49.8586 373.067 76.9953 317.342 124.643 313.356L124.628 321.794C85.0124 324.823 61.5331 370.022 82.2188 407.76L91.3817 402.099L87.9266 427.382L64.2656 418.325Z" fill="white" fill-opacity="0.501961"/>
<path d="M344.817 432.206V423.728C379.378 457.263 462.982 423.033 431.549 349.139L421.717 354.567L424.712 330.016L447.734 339.737L438.375 345.731C473.531 432.434 376.15 464.531 344.817 432.206Z" fill="white" fill-opacity="0.501961"/>
<path d="M95.0726 433.274L94.7759 425.271C119.633 442.372 144.149 440.548 166.717 424.833L171.604 428.897C152.427 444.827 119.938 453.147 95.0726 433.274Z" fill="white" fill-opacity="0.501961"/>
<path d="M310.39 462.528C307.253 462.047 306.256 461.187 306.898 459.514C307.392 458.227 307.796 456.544 307.796 455.775C307.796 454.678 317.537 448.813 325.194 445.299C325.8 445.021 324.644 448.859 322.625 453.827C318.87 463.073 317.995 463.694 310.39 462.528Z" fill="white" fill-opacity="0.501961"/>
<path d="M192.032 456.395C190.396 452.276 188.816 448.353 188.521 447.679C188.226 447.004 191.892 448.368 196.667 450.71C201.443 453.052 205.764 456.273 206.27 457.867C207.422 461.496 207.319 461.586 200.568 462.846C195.08 463.871 194.967 463.786 192.032 456.395Z" fill="white" fill-opacity="0.501961"/>
<path d="M225.77 461.508L229.382 463.501L242.209 498.478L238.168 497.153L225.77 461.508Z" fill="white" fill-opacity="0.501961"/>
<path d="M245.711 498.478C245.711 498.132 243.615 490.597 241.054 481.734C238.493 472.87 236.397 465.306 236.397 464.923C249.846 466.658 263.295 466.592 276.743 464.923C276.721 467.051 267.723 497.633 266.878 498.478C259.701 500.356 252.627 500.653 245.711 498.478Z" fill="white" fill-opacity="0.501961"/>
<path d="M381.898 252.122L362.547 264.482C427.64 383.43 288.126 498.006 187.162 429.88V410.143C283.049 481.602 405.876 368.006 346.747 273.355L327.764 283.4L336.104 233.192L381.898 252.122Z" fill="white"/>
<path d="M287.241 461.507L283.63 463.501L270.802 498.478L274.844 497.153L287.241 461.507Z" fill="white" fill-opacity="0.501961"/>
<path d="M124.69 338.602C118.103 340.059 111.77 343.523 106.34 348.988C99.6723 355.699 98.2158 359.386 98.2158 369.525C98.2158 376.258 98.4799 378.08 99.6372 379.359C101.345 381.246 101.655 388.95 100.044 389.487C97.7 390.269 99.0669 394.294 103.509 399.68C107.968 405.085 109.285 405.897 110.929 404.253C112.408 402.774 116.077 407.959 116.077 411.53C116.852 421.75 136.572 423.1 144.482 416.247L142.408 414.922C142.175 414.919 141.949 414.945 141.797 415.241C141.402 415.993 140.751 416.128 140.309 415.606C140.04 415.337 139.385 415.426 139.219 415.824C138.722 417.091 138 416.662 137.388 415.949C137.025 415.522 136.187 415.666 135.644 416.277C134.751 417.298 134.499 416.925 133.828 416.277C133.168 415.719 132.502 415.987 131.976 416.277C131.442 416.543 130.912 416.648 130.269 416.277C129.883 416.06 129.311 415.944 128.671 416.259C127.897 416.625 127.187 416.707 126.348 416.204C125.946 416.015 125.494 415.923 124.951 416.171C124.216 416.463 123.594 416.396 123.098 415.934C122.854 415.69 122.678 415.407 122.063 415.752C121.607 416.054 120.946 416.015 120.593 415.624C120.232 415.236 119.586 414.787 118.871 415.351C118.329 415.134 118.032 414.724 117.726 414.318C117.341 413.924 117.49 413.649 118.415 413.501C118.986 413.427 119.56 413.34 120.013 413.644C120.603 413.837 121.162 414.099 121.938 413.899C122.453 413.727 122.868 413.799 123.214 414.039C123.655 414.365 124.139 414.448 124.678 414.218C125.424 413.835 125.825 414.04 126.269 414.172C126.994 414.422 127.731 414.568 128.529 414.154C129.359 413.742 129.959 413.818 130.427 414.172C130.887 414.567 131.326 414.423 131.763 414.248C132.375 413.97 132.887 413.988 133.354 414.145C133.902 414.311 134.188 414.717 135.41 414.276C136.04 413.964 137.021 413.831 137.463 414.145C137.805 414.457 138.617 414.688 139.003 414.3C139.284 413.992 139.541 414.021 139.799 414.042C140.206 414.128 140.598 414.133 140.965 413.999C141.293 411.081 123.822 406.961 118.798 399.828L130.922 391.774C131.029 391.659 131.134 391.569 131.228 391.537C131.248 391.531 131.267 391.533 131.286 391.531L138.651 386.638C128.264 373.324 125.742 356.309 124.69 338.602ZM106.012 373.039C106.452 373.009 106.421 373.584 105.538 374.648C104.973 375.329 104.134 375.887 103.673 375.887C103.212 375.887 103.497 375.155 104.308 374.259C105.043 373.448 105.67 373.06 106.012 373.039ZM117.07 379.948C119.527 379.948 120.816 380.502 122.685 382.371C126.219 385.905 125.713 389.179 121.088 392.697V392.7C116.247 396.383 111.589 396.444 108.019 392.874C105.098 389.953 104.905 388.034 107.166 384.376C108.997 381.413 112.276 379.948 117.07 379.948Z" fill="white" fill-opacity="0.501961"/>
<path d="M387.527 337.089C384.885 356.088 378.723 373.327 372.497 390.535C369.022 395.677 363.712 398.602 361.257 404.669C362.721 406.165 364.185 409.083 364.185 411.36C365.138 423.932 394.273 423.336 396.301 410.731C397.291 406.327 400.303 402.768 401.914 404.104C403.581 405.488 404.98 404.568 409.567 399.057C413.765 394.012 414.871 390.551 412.911 388.591C411.208 386.888 411.656 381.068 413.707 378.295C415.494 375.878 415.612 375.096 415.24 367.982C414.726 358.151 412.409 353.08 405.516 346.698C400.069 341.656 393.89 338.462 387.527 337.089ZM406.445 371.79C406.545 371.761 406.987 372.146 407.869 372.929C408.845 373.795 409.643 374.634 409.643 374.791C409.643 375.833 407.879 374.747 407.074 373.214C406.589 372.29 406.345 371.826 406.445 371.79ZM395.405 379.207C400.286 379.207 403.624 380.7 405.488 383.717C407.78 387.425 407.592 389.649 404.747 392.494C401.226 396.015 396.197 395.902 391.317 392.19C386.609 388.608 386.092 385.273 389.69 381.676C391.593 379.773 392.903 379.207 395.405 379.207ZM379.716 390.99L379.719 390.993C380.854 391.035 382.972 397.107 383.713 402.558C384.284 406.766 384.072 407.043 381.529 405.456C380.222 404.64 379.553 404.64 378.246 405.456C375.886 406.93 375.748 406.817 375.804 403.384C375.869 399.502 378.35 391.428 379.61 391.009C379.639 390.991 379.682 390.99 379.716 390.99ZM393.72 412.593C394.215 412.563 394.689 412.712 394.695 413.033C394.736 413.381 394.372 413.868 393.495 413.883C392.958 413.825 392.956 414.055 392.866 414.236C392.467 415.044 391.808 414.995 391.093 414.807C390.819 414.789 390.549 414.79 390.373 415.141C389.971 415.905 389.307 416.042 388.857 415.511C388.582 415.236 387.915 415.328 387.746 415.733C387.24 417.023 386.505 416.587 385.881 415.861C385.512 415.426 384.66 415.57 384.108 416.192C383.198 417.231 382.941 416.851 382.258 416.192C381.586 415.623 380.908 415.897 380.372 416.192C379.829 416.462 379.29 416.569 378.635 416.192C378.242 415.971 377.661 415.855 377.01 416.176C376.221 416.548 375.498 416.632 374.644 416.115C374.235 415.922 373.773 415.828 373.22 416.076C372.471 416.373 371.841 416.302 371.337 415.833C371.089 415.585 370.906 415.299 370.28 415.651C369.816 415.957 369.142 415.918 368.783 415.52C368.416 415.124 367.759 414.666 367.03 415.24C366.479 415.02 366.176 414.602 365.864 414.19C365.473 413.788 365.623 413.507 366.566 413.358C367.146 413.285 367.733 413.196 368.193 413.506C368.794 413.703 369.363 413.969 370.152 413.764C370.677 413.589 371.097 413.66 371.449 413.904C371.899 414.236 372.392 414.321 372.94 414.086C373.701 413.697 374.11 413.905 374.562 414.041C375.301 414.295 376.049 414.442 376.861 414.017C377.706 413.598 378.32 413.675 378.796 414.041C379.265 414.443 379.709 414.297 380.153 414.12C380.776 413.837 381.3 413.856 381.775 414.017C382.333 414.185 382.623 414.596 383.868 414.147C384.509 413.83 385.507 413.696 385.957 414.017C386.304 414.335 387.131 414.57 387.524 414.174C387.81 413.861 388.073 413.889 388.335 413.91C388.934 414.037 389.507 414.011 390.008 413.597C390.376 413.232 390.781 413.081 391.223 413.16C391.757 413.254 392.394 413.312 392.903 412.847C393.116 412.695 393.423 412.612 393.72 412.593Z" fill="white" fill-opacity="0.501961"/>
</svg>
