<svg width="512" height="512" viewBox="0 0 512 512" fill="none" xmlns="http://www.w3.org/2000/svg">
<path d="M226.34 389.451L213.258 404.128L246.49 499.113H263.586L300.293 403.597L286.315 389.451H226.34ZM255.621 398.899C259.103 398.884 263.577 401.216 265.812 404.408C269.333 409.434 267.239 417.82 261.756 420.655C257.064 423.082 252.348 422.638 248.51 419.409C240.902 413.007 244.16 401.351 254.199 399.054C254.646 398.951 255.124 398.902 255.621 398.899Z" fill="white" fill-opacity="0.5"/>
<path d="M310.578 189.012L300.664 194.658C234.691 154.691 177.18 212.278 180.143 264.535L170.484 269.504C158.932 178.417 245.816 150.855 310.578 189.012Z" fill="white"/>
<path d="M151.989 219.574C155.231 213.813 176.251 198.568 180.194 197.585C157.508 222.149 158.185 261.658 166.974 290.232L157.06 299.266C144.75 277.155 146.673 234.034 151.989 219.574Z" fill="white"/>
<path d="M15.7041 264.654C12.7647 263.58 12.9564 263.159 12.9564 259.416V251.269C13.1126 248.78 12.182 248.032 15.7041 246.359L108.507 213.067L119.906 224.24C87.6197 252.92 86.9341 258.021 119.906 288.351L108.507 299.965L15.7041 264.654Z" fill="white" fill-opacity="0.5"/>
<path d="M496.449 264.442C499.388 263.368 499.196 262.948 499.196 259.205V251.058C499.04 248.569 499.971 247.82 496.449 246.148L403.646 212.855L392.247 224.029C424.533 252.708 425.219 257.81 392.247 288.139L403.646 299.754L496.449 264.442Z" fill="white" fill-opacity="0.5"/>
<path d="M226.342 121.809L213.26 107.133L246.491 12.1475H263.588L300.295 107.663L286.317 121.809H226.342ZM255.623 112.361C259.105 112.376 263.579 110.044 265.814 106.853C269.335 101.826 267.241 93.4406 261.758 90.6049C257.066 88.1788 252.35 88.6222 248.512 91.8515C240.904 98.2532 244.161 109.909 254.201 112.207C254.648 112.309 255.126 112.359 255.623 112.361Z" fill="white" fill-opacity="0.5"/>
<path d="M78.6025 417.126L133.783 299.203L139.744 304.201L87.8837 416.368L98.4053 426.691L235.893 361.964V349.846H243.814V367.429L96.8616 436.615L78.6025 417.126Z" fill="white"/>
<path d="M100.101 413.877L224.808 355.864L224.807 347.265C213.331 345.484 198.694 340.121 187.368 333.956C192.11 346.427 183.221 358.275 172.528 357.715C152.703 356.102 151.734 330.602 170.337 324.997L148.32 310.447L100.101 413.877Z" fill="white"/>
<path d="M166.045 349.476C159.164 343.557 163.681 331.816 172.84 331.816C180.196 331.816 185.318 338.946 182.628 345.44C179.714 352.475 171.778 354.407 166.045 349.476Z" fill="white"/>
<path d="M77.8203 95.4912L133.001 213.415L138.962 208.416L87.1015 96.2496L97.6231 85.9258L235.111 150.654V162.771H243.032V145.189L96.0794 76.0026L77.8203 95.4912Z" fill="white"/>
<path d="M99.3184 98.7398L224.025 156.753L224.025 165.352C212.549 167.133 197.912 172.496 186.585 178.662C191.328 166.19 182.439 154.342 171.746 154.902C151.92 156.516 150.952 182.016 169.555 187.62L147.538 202.17L99.3184 98.7398Z" fill="white"/>
<path d="M165.263 163.142C158.381 169.06 162.899 180.801 172.058 180.801C179.413 180.801 184.536 173.671 181.846 167.177C178.932 160.142 170.995 158.21 165.263 163.142Z" fill="white"/>
<path d="M433.921 95.4912L378.741 213.415L372.779 208.416L424.64 96.2496L414.118 85.9258L276.63 150.654V162.771H268.709V145.189L415.662 76.0026L433.921 95.4912Z" fill="white"/>
<path d="M412.423 98.7398L287.716 156.753L287.716 165.352C299.192 167.133 313.829 172.496 325.156 178.662C320.414 166.19 329.303 154.342 339.996 154.902C359.821 156.516 360.789 182.016 342.186 187.62L364.203 202.17L412.423 98.7398Z" fill="white"/>
<path d="M346.479 163.142C353.36 169.06 348.842 180.801 339.684 180.801C332.328 180.801 327.205 173.671 329.895 167.177C332.809 160.142 340.746 158.21 346.479 163.142Z" fill="white"/>
<path d="M433.921 417.126L378.741 299.203L372.779 304.201L424.64 416.368L414.118 426.691L276.63 361.964V349.846H268.709V367.429L415.662 436.615L433.921 417.126Z" fill="white"/>
<path d="M412.423 413.877L287.716 355.864L287.716 347.265C299.192 345.484 313.829 340.121 325.156 333.956C320.414 346.427 329.303 358.275 339.996 357.715C359.821 356.102 360.789 330.602 342.186 324.997L364.203 310.447L412.423 413.877Z" fill="white"/>
<path d="M346.479 349.476C353.36 343.557 348.842 331.816 339.684 331.816C332.328 331.816 327.205 338.946 329.895 345.44C332.809 352.475 340.746 354.407 346.479 349.476Z" fill="white"/>
<path d="M200.814 322.573L210.729 316.927C276.702 356.895 334.213 299.307 331.249 247.05L340.909 242.082C352.461 333.168 265.577 360.73 200.814 322.573Z" fill="white"/>
<path d="M359.403 292.011C356.162 297.771 335.141 313.016 331.198 314C353.885 289.436 353.207 249.927 344.418 221.353L354.332 212.319C366.642 234.43 364.719 277.551 359.403 292.011Z" fill="white"/>
</svg>
