<svg width="512" height="512" viewBox="0 0 512 512" fill="none" xmlns="http://www.w3.org/2000/svg">
<path d="M288.769 12C302.196 24.7622 316.736 37.0467 326.974 51.1774C302.086 53.8085 279.259 60.5671 256.779 68.021C233.899 60.6691 210.485 54.523 185.666 51.5439C195.132 37.5037 208.391 25.6333 221.13 13.4657C203.194 25.2025 187.087 37.8545 173.051 51.5439C151.48 51.945 129.91 55.4538 108.339 58.6841C127.265 58.4425 146.453 56.8854 164.46 61.2471C147.075 80.77 135.395 101.611 124.243 122.574C101.714 134.16 79.75 147.444 59.1629 164.863C56.9611 146.74 57.8036 128.616 58.2491 110.492C54.1479 131.423 51.3089 152.354 51.6689 173.285C35.2887 188.729 24.1181 206.582 12 223.996C24.8771 210.967 36.5699 196.159 51.303 185.918C53.9425 210.597 61.2451 234.108 67.5729 257.864C59.244 282.388 55.4309 306.5 52.4007 330.541C37.9131 318.566 25.5348 304.478 12.3659 291.182C24.4612 308.233 36.1085 325.413 51.485 341.526C51.6176 361.664 54.5421 381.801 58.799 401.938C58.8978 384.697 56.8401 366.839 61.3582 350.863C80.4579 364.711 100.616 377.924 123.151 389.708L164.643 453.016C147.46 455.789 130.276 455.12 113.092 455.945C133.085 458.338 152.962 461.548 173.417 460.704C188.382 474.917 204.019 488.457 221.65 500C209.243 487.4 196.483 475.019 185.94 461.253C210.173 458.834 233.867 452.632 257.417 445.419C280.243 453.259 303.651 457.598 327.158 461.345C317.777 475.62 304.563 487.593 291.876 499.882C309.26 488.515 325.775 476.061 340.41 461.253C361.104 461.374 381.277 458.887 401.285 455.578C383.95 455.341 366.614 456.286 349.278 452.831C363.873 433.611 377.507 413.428 388.671 390.771C411.225 378.962 433.149 366.268 452.289 349.672C455.305 367.979 453.394 386.286 453.293 404.593C457.177 383.967 462.11 363.341 460.057 342.716C476.034 327.438 488.07 309.528 500 291.548C487.549 304.65 476.158 319.079 461.155 328.986C458.326 304.942 453.271 281.217 445.617 257.864C452.633 234.422 459.311 210.888 461.063 186.008C476.656 197.203 487.297 209.815 499.818 221.889C488.682 205.394 478.086 188.735 462.251 173.651C461.452 151.868 459.442 130.388 454.757 109.577C455.219 127.701 456.149 145.825 452.379 163.948C433.627 146.958 411.699 133.855 388.581 122.208C377.81 100.559 365.742 79.6187 349.642 60.8807C367.911 56.5464 386.872 59.1472 405.582 59.2328C384.194 54.4441 362.805 50.887 341.416 51.9103C325.545 37.4869 307.551 24.4804 288.769 12ZM335.646 61.9119C349.185 78.944 360.489 96.4918 367.703 114.985C351.82 111.53 335.619 108.553 317.807 107.995C305.942 96.5642 291.428 87.2562 277.218 77.7042C296.957 69.544 316.394 64.7093 335.646 61.9119ZM178.02 62.1301C197.271 64.9275 216.709 69.7622 236.447 77.9225C222.237 87.4744 207.723 96.7825 195.859 108.214C178.047 108.771 161.845 111.748 145.963 115.204C153.177 96.71 164.481 79.1622 178.02 62.1301ZM256.779 83.9474C276.498 95.0218 295.314 106.753 310.705 123.125C333.758 122.759 355.836 127.598 377.43 135.023C383.907 155.951 388.177 177.195 387.849 199.097C405.136 216.378 419.708 235.718 428.25 257.864C418.753 279.316 405.132 295.772 389.311 310.404C391.019 333.749 383.89 356.11 377.064 378.505C355.887 386.652 334.136 389.33 311.984 388.208C296.457 406.571 277.77 418.154 257.417 428.301C234.836 419.239 216.557 404.19 199.742 388.393C177.78 388.663 156.264 386.26 135.76 377.774C126.818 356.459 125.007 333.464 124.243 310.222C105.637 295.456 94.1104 277.422 84.3918 257.864C95.6085 237.362 107.682 217.189 125.156 199.097C123.377 177.495 130.025 155.894 135.212 134.292C157.18 127.995 179.299 123.646 201.753 123.674C217.2 108.488 236.477 95.7304 256.779 83.9474ZM397.217 143.573C415.684 150.797 436.049 164.446 453.057 178.005C450.264 197.284 445.436 216.749 437.287 236.516C427.749 222.286 415.611 205.42 404.197 193.539C403.64 175.701 400.667 159.478 397.217 143.573ZM115.604 143.183C112.154 159.089 108.664 176.606 108.107 194.444C96.6925 206.325 86.1182 223.24 76.58 237.471C68.4315 217.704 64.8814 195.86 62.088 176.581C79.0956 163.022 97.1372 150.408 115.604 143.183ZM77.3678 277.682C86.906 291.913 96.2006 306.448 107.615 318.329C108.172 336.167 111.145 352.392 114.595 368.297C96.1283 361.073 78.6057 349.752 61.5982 336.194C64.3915 316.915 69.2193 297.449 77.3678 277.682ZM435.226 277.956C443.375 297.723 448.202 317.189 450.996 336.468C433.988 350.027 416.466 361.347 397.998 368.572C401.449 352.666 404.422 336.441 404.978 318.604C416.393 306.722 425.688 292.187 435.226 277.956ZM367.455 398.733C360.241 417.226 348.937 434.774 335.398 451.806C316.146 449.009 296.709 444.174 276.97 436.014C291.18 426.462 305.694 417.154 317.559 405.723C335.371 405.165 351.572 402.188 367.455 398.733ZM145.255 398.769C161.138 402.224 177.339 405.203 195.151 405.761C207.015 417.192 221.53 426.5 235.74 436.052C216.001 444.212 196.564 449.047 177.312 451.844C163.773 434.812 152.469 417.262 145.255 398.769Z" fill="white" fill-opacity="0.5"/>
<path d="M209.887 311.521L218.442 306.574C251.577 333.987 322.298 315.695 317.332 249.398L324.828 245.063C335.285 298.627 273.04 354.544 209.887 311.521Z" fill="white"/>
<path d="M226.174 330.161L218.159 338.964C298.057 371.006 368.989 294.595 337.34 219.352L329.197 227.507C355.21 291.222 289.221 357.092 226.174 330.161Z" fill="white"/>
<path d="M300.367 201.594L291.812 206.54C258.677 179.128 187.956 197.419 192.922 263.717L185.426 268.051C174.969 214.487 237.214 158.57 300.367 201.594Z" fill="white"/>
<path d="M284.445 182.953L292.46 174.151C212.562 142.108 141.63 218.519 173.279 293.762L181.422 285.607C155.409 221.892 221.398 156.022 284.445 182.953Z" fill="white"/>
<path d="M319.663 81.2007L322.222 86.3266C297.471 88.0457 275.162 92.8777 255.772 101.43C234.732 94.3486 213.281 88.6401 190.785 86.4187L194.166 81.2928L186.946 86.8773L178.354 87.4259L184.844 88.1588C169.207 107.009 156.639 126.518 147.824 146.833C126.994 157.835 106.539 169.558 88.595 186.1L87.6812 179.875L86.6755 187.382L81.375 193.789L86.7675 190.678C87.8451 213.816 93.7953 235.909 101.667 257.589C91.8046 278.847 89.4432 301.107 86.6755 323.312L82.2887 321.205L86.8595 325.965L87.0414 334.753L88.9609 329.353C106.659 344.326 126.633 356.045 147.735 366.149C157.978 386.397 169.177 406.323 185.208 424.639L180.181 426.745L187.677 427.112L191.516 431.413L190.693 426.838C213.424 424.582 235.794 420.97 256.594 411.46C277.245 420.248 299.411 424.783 322.496 426.746L320.302 432.146L326.061 426.838L333.465 427.202L327.798 424.639C343.488 407.412 356.131 388.227 364.998 366.608C385.527 357.156 405.217 345.349 423.314 329.078L425.051 334.204L425.417 327.156L431.084 321.297L425.325 324.227C425.873 300.824 418.664 279.364 411.615 257.864C418.93 235.981 424.133 213.627 427.061 190.768L431.176 193.331L426.605 187.93L426.331 179.601L424.685 185.552C406.25 168.386 386.231 156.294 365.364 146.923C355.104 126.78 344.376 106.818 327.888 89.0737L333.465 87.7923L325.969 87.1515L319.663 81.2007ZM188.469 89.4262C207.721 92.2236 225.329 97.7932 245.067 105.953C230.857 115.505 218.902 123.165 207.038 134.597C189.226 135.154 174.842 139.199 158.959 142.654C166.174 124.16 174.93 106.458 188.469 89.4262ZM323.907 89.6665C337.446 106.699 346.203 124.399 353.417 142.892C337.534 139.437 324.614 134.662 306.802 134.104C294.938 122.673 281.519 115.744 267.309 106.192C287.048 98.0314 304.656 92.4639 323.907 89.6665ZM255.772 111.91C269.096 118.343 280.927 125.629 289.771 134.823C284.559 134.442 279.8 136.713 274.907 137.928C294.723 141.395 312.523 148.319 327.516 160.064C326.027 155.42 322.746 151.032 318.857 146.731C332.221 147.736 345.422 149.395 357.764 154.498C362.182 168.031 364.35 181.002 366.038 193.851C361.515 189.268 356.529 187.469 351.69 184.789C363.43 200.181 371.443 217.813 374.569 238.381C375.899 233.199 377.592 228.239 377.283 222.072C386.284 232.274 394.391 243.671 401.326 256.634C394.893 270.486 386.595 281.302 377.412 290.68C377.699 284.918 376.062 279.541 374.697 274.11C371.132 295.316 364.283 314.208 351.43 328.868C356.32 326.793 361.225 324.824 365.78 320.064C365.991 333.47 362.113 346.83 357.506 359.548C345.316 363.031 332.679 365.504 319.115 365.889L328.034 351.65C311.215 365.097 292.709 371.303 273.485 374.433C278.325 376.65 283.77 377.651 289.643 377.799C279.706 387.54 268.459 394.659 256.81 400.972C255.001 402.783 221.862 378.819 223.201 378.057C224.162 377.511 239.716 375.548 239.359 374.951C217.587 372.335 200.108 362.892 184.164 351.004C186.886 356.163 189.586 361.326 193.988 366.149C180.708 365.413 167.799 363.002 155.208 359.159C150.835 345.83 148.293 332.833 147.711 320.194C152.287 324.007 157.181 326.865 162.446 328.608C147.627 311.717 141.183 293.283 139.439 273.98C136.399 278.936 135.586 284.528 134.914 290.161C125.622 279.971 117.88 269.16 112.034 257.589C117.936 245.161 125.147 233.21 135.172 222.847C134.894 228.046 137.089 232.751 139.179 237.476C140.733 218.768 148.734 201.289 160.509 184.531C156.044 186.772 151.377 188.51 147.84 193.074C149.073 180.415 150.262 167.763 154.821 154.628C167.56 150.513 180.821 148.1 194.246 146.214C190.734 150.572 187.937 155.406 185.456 160.453C201.413 148.484 219.44 141.492 238.841 137.8C233.278 136.542 227.589 135.092 222.684 134.823C232.071 125.569 243.304 118.421 255.772 111.91ZM370.682 159.091C389.149 166.316 406.826 175.087 423.834 188.645C421.04 207.925 415.479 225.558 407.33 245.325C397.792 231.095 389.045 216.926 377.63 205.044C377.074 187.207 374.133 174.997 370.682 159.091ZM142.554 159.107C139.103 175.013 136.163 187.223 135.606 205.06C124.191 216.942 115.444 231.11 105.906 245.341C97.7577 225.574 92.1961 207.941 89.4028 188.661C106.41 175.103 124.087 166.332 142.554 159.107ZM105.502 268.332C115.04 282.562 123.785 296.731 135.2 308.612C135.757 326.45 138.7 338.658 142.15 354.564C123.683 347.339 106.006 338.57 88.9989 325.011C91.7922 305.732 97.3538 288.099 105.502 268.332ZM406.59 268.332C414.739 288.099 420.3 305.732 423.094 325.011C406.086 338.57 388.41 347.339 369.943 354.564C373.393 338.658 377.431 325.717 377.988 307.88C390.762 297.019 398.451 283.612 406.59 268.332ZM159.775 370.993C175.658 374.448 187.849 377.393 205.66 377.951C217.525 389.382 231.673 398.141 245.883 407.693C226.145 415.854 208.539 421.423 189.287 424.221C175.748 407.188 166.989 389.487 159.775 370.993ZM353.945 371.093C346.731 389.587 337.974 407.289 324.435 424.321C305.183 421.523 287.576 415.956 267.837 407.796C282.047 398.244 296.014 389.851 307.878 378.419C324.958 379.143 338.062 374.548 353.945 371.093Z" fill="white"/>
</svg>
