<svg width="512" height="512" viewBox="0 0 512 512" fill="none" xmlns="http://www.w3.org/2000/svg">
<path d="M101.488 254.209L85.4805 303.089L141.364 452.159V318.928L135.759 267.184L101.488 254.209Z" fill="white"/>
<path d="M92.0552 442.583L80.3355 416.571L16.5913 244.776L18.0205 241.632L69.4732 305.662L92.3411 362.831L71.1883 301.944L18.5922 235.629L21.4507 219.05L93.1986 247.92L76.6194 301.944L123.499 422.574L96.9146 438.867L84.6232 414.856L92.0552 442.583Z" fill="white" fill-opacity="0.501961"/>
<path d="M94.1211 446.469L125.451 427.874L142.631 493.564L94.1211 446.469Z" fill="white" fill-opacity="0.501961"/>
<path d="M153.512 470.31L151.226 395.418L162.945 389.701L153.512 470.31Z" fill="white" fill-opacity="0.501961"/>
<path d="M151.512 388.272L162.803 383.841V355.685L153.227 329.959L151.512 388.272Z" fill="white" fill-opacity="0.501961"/>
<path d="M147.367 266.929L149.796 287.939L155.846 284.446L147.367 266.929Z" fill="white"/>
<path d="M150.083 293.37L153.227 322.384C161.331 317.869 169.85 314.182 179.096 311.95L169.663 288.654C162.596 288.966 156.007 290.392 150.083 293.37Z" fill="white"/>
<path d="M31.4556 207.473L31.8843 214.333L118.639 248.206L114.923 237.058L31.4556 207.473Z" fill="white" fill-opacity="0.501961"/>
<path d="M102.004 206.546L98.77 220.291L107.461 224.94C107.223 218.687 104.671 212.612 102.004 206.546Z" fill="white" fill-opacity="0.501961"/>
<path d="M119.185 168.749C133.102 153.451 146.045 138.013 162.439 123.069L169.716 128.93C159.581 135.497 151.546 142.851 144.45 150.558L119.185 168.749Z" fill="white" fill-opacity="0.501961"/>
<path d="M82.3977 214.631L75.9297 211.802C88.3461 176.607 103.533 142.39 135.152 113.973H144.45C107.486 142.977 93.8756 178.506 82.3977 214.631Z" fill="white" fill-opacity="0.501961"/>
<path d="M57.3341 205.736C66.8279 168.209 94.3725 124.295 118.78 104.877L115.344 102.452C85.3559 131.841 63.6239 165.576 54.1001 205.736H57.3341Z" fill="white" fill-opacity="0.501961"/>
<path d="M411.683 256.859L424.832 307.169L364.947 456.238L367.52 323.008L373.125 271.264L411.683 256.859Z" fill="white"/>
<path d="M415.371 450.232L427.091 424.219L494.408 258.713L492.979 255.569L444.813 313.596L415.085 370.48L443.098 309.878L495.409 247.565L493.979 223.554L422.231 252.425L437.667 309.878L383.928 430.222L410.512 446.516L422.803 422.504L415.371 450.232Z" fill="white" fill-opacity="0.501961"/>
<path d="M412.496 452.905L381.167 434.309L363.986 500L412.496 452.905Z" fill="white" fill-opacity="0.501961"/>
<path d="M352.799 482.108L355.085 407.216L343.366 401.499L352.799 482.108Z" fill="white" fill-opacity="0.501961"/>
<path d="M354.797 400.069L342.508 395.639L343.223 357.192L354.797 331.18V400.069Z" fill="white" fill-opacity="0.501961"/>
<path d="M360.186 268.318L357.756 289.328L351.707 285.835L360.186 268.318Z" fill="white"/>
<path d="M357.47 294.759L354.326 323.773C346.221 319.258 337.703 315.571 328.457 313.339L337.89 290.042C344.956 290.355 351.546 291.78 357.47 294.759Z" fill="white"/>
<path d="M476.201 215.361L476.783 217.775L390.028 251.648L392.733 244.946L476.201 215.361Z" fill="white" fill-opacity="0.501961"/>
<path d="M409.204 193.609L409.918 214.762L407.346 216.191L410.347 229.483L419.065 226.625C418.494 214.993 414.72 204.1 409.204 193.609Z" fill="white" fill-opacity="0.501961"/>
<path d="M340.743 125.292L351.32 120.432C372.215 135.836 384.596 154.55 399.056 172.457L379.619 161.308C368.802 147.637 354.936 136.337 340.743 125.292Z" fill="white" fill-opacity="0.501961"/>
<path d="M361.324 263.928C365.325 260.82 369.198 257.507 375.045 257.353L400.771 210.188L397.484 182.747L273.712 115.287V133.438L371.329 183.748C388.444 192.876 387.852 205.328 381.046 220.012L361.324 263.928Z" fill="white"/>
<path d="M435.86 218.75L442.328 215.92C429.911 180.725 411.086 141.051 379.467 112.634H370.169C407.133 141.638 424.382 182.624 435.86 218.75Z" fill="white" fill-opacity="0.501961"/>
<path d="M460.923 209.854C451.429 172.327 416.204 118.509 391.796 99.0913L395.232 96.6658C425.22 126.055 454.633 169.694 464.157 209.854H460.923Z" fill="white" fill-opacity="0.501961"/>
<path d="M172.546 384.417L177.397 400.587L170.929 394.119L172.546 384.417Z" fill="white" fill-opacity="0.501961"/>
<path d="M331.168 389.672L326.317 405.842L332.785 399.374L331.168 389.672Z" fill="white" fill-opacity="0.501961"/>
<path d="M169.949 414.141V421.573C180.59 427.447 192.181 431.421 203.536 435.866L189.958 423.86C182.755 421.953 176.425 417.866 169.949 414.141Z" fill="white" fill-opacity="0.501961"/>
<path d="M331.702 419.6V427.032C321.061 432.906 309.47 436.88 298.115 441.325L311.693 429.319C318.896 427.412 325.227 423.325 331.702 419.6Z" fill="white" fill-opacity="0.501961"/>
<path d="M167.492 442.629V446.873C189.145 454.941 212.047 460.51 235.305 465.368L231.768 461.325C209.847 457.572 188.337 451.765 167.492 442.629Z" fill="white" fill-opacity="0.501961"/>
<path d="M333.609 447.452V451.697C311.459 459.297 289.587 463.162 267.817 465.643L271.354 461.601C292 461.331 312.773 455.703 333.609 447.452Z" fill="white" fill-opacity="0.501961"/>
<path d="M143.975 258.069C139.975 254.96 136.102 251.647 130.255 251.494L111.031 203.472L113.104 182.748L235.018 115.287V133.439L137.401 183.748C120.286 192.876 121.735 205.757 128.541 220.442L143.975 258.069Z" fill="white"/>
<path d="M239.955 115.59C249.151 118.388 258.417 118.317 267.749 115.59L267.747 137.521H239.955V115.59Z" fill="white"/>
<path d="M253.797 194.217L201.651 220.897L253.797 338.938L302.714 220.897L253.797 194.217Z" fill="white"/>
<path d="M253.574 171.403C250.817 171.411 248.098 172.427 244.501 174.426L181.033 207.961C171.584 213.442 173.88 218.055 176.469 225.003L230.96 353.895L253.796 373.907L274.821 353.895L332.223 226.76C333.926 222.284 333.194 215.314 328.324 212.206L262.884 174.426C259.125 172.396 256.331 171.395 253.574 171.403ZM253.796 189.971L307.565 219.469L253.796 349.246L196.397 219.826L253.796 189.971Z" fill="white" fill-opacity="0.501961"/>
<path d="M234.693 144.159L136.647 196.896L134.934 209.189L163.303 280.079C169.54 277.761 175.502 279.067 178.595 286.794L187.027 306.447C191.315 318.042 184.771 319.673 180.227 321.554L212.16 396.136L251.172 430.906L291.435 396.136L325.023 322.811C319.175 319.324 316.3 315.273 320.161 307.663L332.167 283.937C336.551 278.769 340.091 280.151 343.744 280.651L374.474 209.189L372.329 196.896L274.164 144.596L269.362 148.132H238.692L234.693 144.159ZM254.224 161.964C257.627 162.137 260.684 164.246 267.127 167.776L331.316 204.837C343.202 211.25 347.198 213.497 338.491 231.609L280.277 359.757C262.836 392.57 236.216 380.973 226.108 359.757L168.912 225.666C164.997 216.176 161.81 209.514 175.174 202.302L239.248 167.776C247.074 163.555 250.821 161.791 254.224 161.964Z" fill="white"/>
<path d="M160.373 324.384L169.663 320.669L203.25 400.421L240.411 433.436C250.447 442.53 253.165 442.845 264.136 433.436L301.296 400.421L335.455 320.669L345.174 324.384L316.732 402.993C314.247 409.781 311.693 413.297 305.584 419.143L266.566 453.159C251.284 465.341 249.427 464.889 235.837 453.159L194.532 414.141C190.469 410.028 188.733 401.334 186.242 394.703L160.373 324.384Z" fill="white"/>
<path d="M121.212 97.2783L219.544 112.714L195.532 129.293L121.212 97.2783Z" fill="white" fill-opacity="0.501961"/>
<path d="M387.372 97.281L289.041 112.717L313.052 129.296L387.372 97.281Z" fill="white" fill-opacity="0.501961"/>
<path d="M128.072 85.8444L173.808 93.5622C171.764 89.0984 180.805 83.6491 190.673 78.1264L244.982 47.5407L244.984 15.8115L153.513 71.2661C170.053 91.7449 152.561 89.8621 128.072 85.8444Z" fill="white"/>
<path d="M136.504 78.8412L147.652 72.8384L150.368 81.2709L136.504 78.8412Z" fill="white"/>
<path d="M381.81 85.1771L336.075 92.895C338.119 88.4312 329.077 82.9819 319.21 77.4592L256.465 43.7292L256.466 12L356.37 70.5989C339.83 91.0777 357.322 89.1949 381.81 85.1771Z" fill="white"/>
<path d="M374.664 77.745L363.516 71.7422L360.8 80.1747L374.664 77.745Z" fill="white"/>
<path d="M244.982 59.4036V105.141L185.527 94.7058L244.982 59.4036Z" fill="white"/>
<path d="M256.465 56.0569V105.141L324.145 94.2176L256.465 56.0569Z" fill="white"/>
</svg>
