<svg width="512" height="512" viewBox="0 0 512 512" fill="none" xmlns="http://www.w3.org/2000/svg">
<path d="M84.8603 266.099L73.7058 230.5L100.761 210.564L93.8789 186.594L19.1199 254.233C14.2168 258.374 12.1894 261.982 12 267.523L12.2373 306.445L15.56 310.955L84.8603 266.099Z" fill="white"/>
<path d="M91.5053 261.115L114.764 246.401C114.762 251.057 115.638 255.588 117.849 259.929C117.894 237.045 175.989 235.918 174.096 261.115C179.339 255.447 178.17 221.6 182.165 202.02L221.562 176.389C223.029 188.383 223.857 200.122 226.783 212.7C228.385 189.261 285.136 187.703 284.217 214.361C288.565 202.771 288.552 189.544 290.625 177.101L329.785 202.732C332.124 221.623 331.198 242.328 337.142 259.217C338.191 237.507 394.35 235.453 393.389 260.878C396.032 256.72 396.752 251.409 397.186 245.926L421.394 262.539L429.226 233.348L401.696 212.463L411.426 180.423L256.45 40.636L99.5746 181.135L109.78 213.175L82.4868 233.822L91.5053 261.115Z" fill="white"/>
<path d="M427.139 266.428L438.294 230.828L411.238 210.893L418.121 186.922L492.88 254.561C497.783 258.703 499.81 262.311 500 267.852L499.763 306.774L496.44 311.283L427.139 266.428Z" fill="white"/>
<path d="M146.21 276.067C160.104 276.067 171.367 269.479 171.367 261.353C171.367 253.226 160.104 246.638 146.21 246.638C132.316 246.638 121.053 253.226 121.053 261.353C121.053 269.479 132.316 276.067 146.21 276.067Z" fill="white"/>
<path d="M256.213 228.839C270.106 228.839 281.37 222.251 281.37 214.124C281.37 205.998 270.106 199.41 256.213 199.41C242.319 199.41 231.056 205.998 231.056 214.124C231.056 222.251 242.319 228.839 256.213 228.839Z" fill="white"/>
<path d="M365.385 276.067C379.278 276.067 390.542 269.479 390.542 261.353C390.542 253.226 379.278 246.638 365.385 246.638C351.491 246.638 340.228 253.226 340.228 261.353C340.228 269.479 351.491 276.067 365.385 276.067Z" fill="white"/>
<path d="M144.725 294.484C120.3 299.109 100.453 353.633 119.216 388.462L118.377 365.806L127.608 393.327C129.72 402.787 130.114 411.983 120.727 419.674C126.722 425.149 130.477 419.418 133.817 411.619C136.107 431.641 125.937 449.618 144.893 471.364C143.324 438.182 150.429 435.202 161.507 415.983C171.484 399.14 163.644 379.326 167.547 375.54C172.785 380.631 174.375 390.889 174.26 403.564C177.973 398.147 183.457 302.288 144.725 294.484ZM143.048 298.344C156.515 299.433 154.332 329.594 153.031 337.109L149.257 324.188C145.202 339.411 145.711 356.514 149.257 374.868C138.729 357.471 136.278 340.074 135.494 322.677L133.817 323.515C131.281 311.532 135.403 299.139 143.048 298.344Z" fill="white" fill-opacity="0.51"/>
<path d="M256.723 247.06C232.298 251.685 212.452 306.21 231.214 341.038L230.376 318.382L239.607 345.903C241.718 355.363 242.112 364.559 232.725 372.25C238.72 377.725 242.475 371.994 245.816 364.195C248.106 384.217 237.936 402.194 256.892 423.94C255.323 390.758 262.428 387.778 273.505 368.559C283.483 351.716 275.642 331.902 279.546 328.116C284.784 333.208 286.374 343.465 286.258 356.141C289.972 350.723 295.455 254.864 256.723 247.06ZM255.046 250.92C268.513 252.009 266.33 282.17 265.03 289.686L261.256 276.764C257.201 291.988 257.71 309.09 261.256 327.444C250.728 310.047 248.277 292.65 247.493 275.253L245.816 276.091C243.279 264.108 247.402 251.715 255.046 250.92Z" fill="white" fill-opacity="0.51"/>
<path d="M367.682 293.714C343.257 298.338 323.411 352.863 342.173 387.692L341.335 365.036L350.566 392.556C352.677 402.016 353.071 411.212 343.684 418.904C349.679 424.378 353.434 418.647 356.775 410.849C359.065 430.87 348.895 448.848 367.851 470.594C366.282 437.412 373.387 434.432 384.464 415.212C394.442 398.37 386.601 378.556 390.505 374.77C395.743 379.861 397.333 390.119 397.217 402.794C400.931 397.377 406.414 301.518 367.682 293.714ZM366.005 297.574C379.472 298.663 377.289 328.824 375.989 336.339L372.215 323.417C368.16 338.641 368.669 355.744 372.215 374.098C361.687 356.701 359.236 339.304 358.452 321.907L356.775 322.745C354.238 310.762 358.361 298.369 366.005 297.574Z" fill="white" fill-opacity="0.51"/>
</svg>
