<svg width="512" height="512" viewBox="0 0 512 512" fill="none" xmlns="http://www.w3.org/2000/svg">
<path d="M226.341 298.644C219.719 325.004 214.954 351.983 200.475 375.724L136.155 282.952L179.955 400.383L172.712 400.555L12 233.29L133.052 406.763L125.119 408.66L50.1088 377.621L97.5293 416.592C35.554 445.423 145.069 470.374 252.551 469.875C396.066 467.4 466.294 440.996 414.298 416.937L461.374 377.966L387.57 408.66L378.086 406.073L500 233.635L339.977 400.727L331.355 400.038L374.982 285.021L311.353 377.103C295.529 349.518 291.329 324.147 284.625 298.299C277.137 299.707 269.631 301.102 259.449 300.713C268.696 335.56 277.978 389.411 308.076 416.937C415.659 432.061 362.697 454.893 286.349 459.012C260.891 431.95 261.027 401.585 255.632 369.861C250.053 401.321 246.208 434.128 221.34 459.012C112.07 452.338 111.812 425.104 204.613 416.592C232.706 391.862 240.774 343.86 252.724 300.369C241.646 301.221 233.792 300.058 226.341 298.644Z" fill="white"/>
<path d="M232.221 265.985C247.024 268.881 262.957 267.821 279.043 266.229C271.914 225.414 267.565 185.358 267.581 146.491L310.257 199.166L255.632 42.1174L200.274 200.142L243.438 145.76C243.112 184.129 237.615 225.082 232.221 265.985Z" fill="white"/>
<path d="M218.288 233.81L218.228 237.965C153.455 243.929 122.68 269.862 254.85 275.553C328.096 277.104 409.428 252.381 293.795 237.965L294.109 233.81C329.224 234.466 377.519 245.666 378.118 260.536C378.581 272.015 342.901 288.324 255.023 287.32C188.446 286.947 134.072 275.088 133.98 260.536C136.805 237.679 211.606 234.114 218.288 233.81Z" fill="white" fill-opacity="0.506024"/>
</svg>
