<svg width="512" height="512" viewBox="0 0 512 512" fill="none" xmlns="http://www.w3.org/2000/svg">
<path d="M354.91 109.756H153.365L140.766 125.22V384.021L153.925 398.048H354.91L368.069 384.021V125.22L354.91 109.756ZM253.017 114.596C257.346 114.596 260.855 118.185 260.855 122.612C260.855 127.039 257.346 130.628 253.017 130.628C248.688 130.628 245.179 127.039 245.179 122.612C245.179 118.185 248.688 114.596 253.017 114.596ZM310.519 118.945C330.864 118.945 347.357 135.813 347.357 156.62C347.357 177.428 330.864 194.296 310.519 194.296C290.174 194.296 273.68 177.428 273.68 156.62C273.68 135.813 290.174 118.945 310.519 118.945ZM197.101 119.349C217.446 119.349 233.94 136.217 233.94 157.024C233.94 177.832 217.446 194.7 197.101 194.7C176.756 194.7 160.263 177.832 160.263 157.024C160.263 136.217 176.756 119.349 197.101 119.349ZM252.763 189.918H252.781C260.573 189.918 266.89 196.378 266.89 204.347C266.89 212.316 260.573 218.776 252.781 218.776C244.989 218.776 238.673 212.316 238.673 204.347C238.673 196.386 244.978 189.929 252.763 189.918ZM355.401 197.577C359.729 197.577 363.238 201.166 363.238 205.593C363.238 210.02 359.729 213.609 355.401 213.609C351.072 213.609 347.563 210.02 347.563 205.593C347.563 201.166 351.072 197.577 355.401 197.577ZM154.543 197.593C158.872 197.593 162.381 201.182 162.381 205.609C162.381 210.036 158.872 213.625 154.543 213.625C150.215 213.625 146.705 210.036 146.705 205.609C146.705 201.182 150.215 197.593 154.543 197.593ZM310.559 215.507H310.562C310.679 215.507 310.797 215.507 310.914 215.507C331.259 215.507 347.752 232.375 347.752 253.182C347.752 273.99 331.259 290.858 310.914 290.858C290.569 290.858 274.076 273.99 274.076 253.182C274.075 232.516 290.352 215.706 310.559 215.507ZM196.902 216.519C217.247 216.519 233.74 233.386 233.74 254.194C233.74 275.001 217.247 291.869 196.902 291.869C176.557 291.869 160.064 275.001 160.064 254.194C160.064 233.386 176.557 216.519 196.902 216.519ZM252.806 289.261H252.821C260.613 289.261 266.93 295.721 266.93 303.69C266.93 311.658 260.613 318.119 252.821 318.119C245.03 318.119 238.713 311.658 238.713 303.69C238.713 295.727 245.02 289.269 252.806 289.261ZM355.578 294.023C359.907 294.023 363.416 297.612 363.416 302.04C363.416 306.467 359.907 310.056 355.578 310.056C351.249 310.056 347.74 306.467 347.74 302.04C347.74 297.612 351.249 294.023 355.578 294.023ZM154.32 294.205C158.649 294.205 162.158 297.794 162.158 302.221C162.158 306.648 158.649 310.237 154.32 310.237C149.991 310.237 146.482 306.648 146.482 302.221C146.482 297.794 149.991 294.205 154.32 294.205ZM309.769 313.284C309.887 313.283 310.006 313.283 310.124 313.284C330.469 313.284 346.962 330.152 346.962 350.959C346.962 371.767 330.469 388.634 310.124 388.634C289.779 388.634 273.286 371.767 273.286 350.959C273.285 330.293 289.562 313.483 309.769 313.284ZM196.372 313.509C196.491 313.509 196.609 313.509 196.728 313.509C217.073 313.509 233.566 330.377 233.566 351.185C233.566 371.992 217.073 388.86 196.728 388.86C176.382 388.86 159.889 371.992 159.889 351.185C159.888 330.518 176.166 313.709 196.372 313.509ZM252.787 377.731C252.823 377.731 252.859 377.731 252.895 377.731C257.226 377.731 260.737 381.174 260.739 385.422C260.739 389.671 257.227 393.116 252.895 393.115C248.562 393.116 245.05 389.671 245.05 385.422C245.051 381.215 248.498 377.788 252.787 377.731Z" fill="white" fill-opacity="0.51"/>
<path d="M344.367 28.8839L327.542 48.5201C125.555 -15.2728 -6.5979 186.141 60.9873 343.368L78.3428 331.344L76.1034 391.178L18.9982 371.138L38.873 358.255C15.4341 308.109 12.7227 252.352 25.1566 192.495L12 180.471C37.7679 94.181 105.144 41.7259 158.682 16.715L170.719 27.8801C220.805 8.64228 276.901 4.49286 344.367 28.8839Z" fill="white"/>
<path d="M162.035 481.184L179.354 460.434C377.789 529.074 531.926 332.932 450.193 158.14L430.858 172.998L433.097 113.164L490.202 133.204L470.327 146.087C493.766 196.233 503.632 256.293 486.843 321.008L500 333.032C474.232 419.322 406.856 471.777 353.318 496.788L341.281 485.623C291.195 504.861 218.303 506.147 162.035 481.184Z" fill="white"/>
<path d="M139.106 94.8813L125.839 110.265V397.721L138.708 413.712H369.319L383.36 397.721V110.265L370.099 94.8813H139.106ZM148.594 102.346H360.201L374.848 119.875V388.615L360.201 404.4L148.012 404.2L133.873 388.615V119.875L148.594 102.346Z" fill="white" fill-opacity="0.51"/>
<path d="M310.109 321.121C302.182 321.121 294.58 324.342 288.974 330.074C283.369 335.807 280.22 343.581 280.22 351.688C280.22 359.795 283.369 367.57 288.974 373.303C294.58 379.035 302.182 382.256 310.109 382.256C318.035 382.256 325.638 379.035 331.243 373.303C336.848 367.57 339.997 359.795 339.997 351.688C339.997 343.581 336.848 335.807 331.243 330.074C325.638 324.342 318.035 321.121 310.109 321.121ZM310.647 338.772C312.294 338.772 313.925 339.104 315.447 339.748C316.968 340.393 318.351 341.338 319.515 342.529C320.68 343.719 321.603 345.133 322.234 346.689C322.864 348.246 323.188 349.913 323.188 351.598C323.188 353.282 322.864 354.95 322.234 356.506C321.603 358.062 320.68 359.476 319.515 360.667C318.351 361.858 316.968 362.802 315.447 363.447C313.925 364.092 312.294 364.423 310.647 364.423C309.001 364.423 307.37 364.092 305.848 363.447C304.327 362.802 302.944 361.858 301.78 360.667C300.615 359.476 299.692 358.062 299.061 356.506C298.431 354.95 298.107 353.282 298.107 351.598C298.107 349.913 298.431 348.246 299.061 346.689C299.692 345.133 300.615 343.719 301.78 342.529C302.944 341.338 304.327 340.393 305.848 339.748C307.37 339.104 309.001 338.772 310.647 338.772ZM310.672 345.103C309.025 345.129 307.455 345.816 306.299 347.016C305.144 348.216 304.496 349.832 304.496 351.516C304.496 352.358 304.659 353.192 304.974 353.97C305.289 354.748 305.751 355.455 306.333 356.051C306.915 356.646 307.607 357.119 308.367 357.441C309.128 357.763 309.943 357.929 310.767 357.929C311.59 357.929 312.406 357.763 313.166 357.441C313.927 357.119 314.618 356.646 315.201 356.051C315.783 355.455 316.245 354.748 316.56 353.97C316.875 353.192 317.037 352.358 317.037 351.516C317.037 350.674 316.875 349.84 316.56 349.062C316.245 348.284 315.783 347.577 315.201 346.982C314.618 346.386 313.927 345.914 313.166 345.592C312.406 345.269 311.59 345.103 310.767 345.103C310.735 345.103 310.704 345.103 310.672 345.103Z" fill="white"/>
<path d="M197.1 321.403C189.173 321.403 181.571 324.624 175.966 330.356C170.361 336.089 167.212 343.863 167.212 351.97C167.212 360.077 170.361 367.852 175.966 373.585C181.571 379.317 189.173 382.538 197.1 382.538C205.027 382.538 212.629 379.317 218.235 373.585C223.84 367.852 226.989 360.077 226.989 351.97C226.989 343.863 223.84 336.089 218.235 330.356C212.629 324.624 205.027 321.403 197.1 321.403ZM197.639 339.054C199.286 339.054 200.917 339.386 202.438 340.03C203.96 340.675 205.342 341.62 206.507 342.811C207.671 344.001 208.595 345.415 209.225 346.971C209.856 348.528 210.18 350.195 210.18 351.88C210.18 355.281 208.859 358.543 206.507 360.949C204.155 363.354 200.965 364.705 197.639 364.705C194.313 364.705 191.123 363.354 188.772 360.949C186.42 358.543 185.098 355.281 185.098 351.88C185.098 350.195 185.423 348.528 186.053 346.971C186.683 345.415 187.607 344.001 188.772 342.811C189.936 341.62 191.319 340.675 192.84 340.03C194.362 339.386 195.992 339.054 197.639 339.054ZM197.663 345.385C196.017 345.411 194.446 346.098 193.291 347.298C192.135 348.498 191.488 350.114 191.488 351.798C191.488 353.499 192.149 355.13 193.325 356.333C194.5 357.535 196.095 358.211 197.758 358.211C199.421 358.211 201.016 357.535 202.192 356.333C203.368 355.13 204.029 353.499 204.029 351.798C204.029 350.097 203.368 348.466 202.192 347.264C201.016 346.061 199.421 345.385 197.758 345.385C197.727 345.385 197.695 345.385 197.663 345.385Z" fill="white"/>
<path d="M196.903 223.222C188.976 223.222 181.373 226.442 175.768 232.175C170.163 237.907 167.014 245.682 167.014 253.789C167.014 261.896 170.163 269.671 175.768 275.404C181.373 281.136 188.976 284.356 196.903 284.357C204.829 284.356 212.432 281.136 218.037 275.404C223.642 269.671 226.791 261.896 226.791 253.789C226.791 245.682 223.642 237.907 218.037 232.175C212.432 226.442 204.829 223.222 196.903 223.222ZM197.441 240.873C199.088 240.873 200.719 241.205 202.241 241.849C203.762 242.494 205.145 243.438 206.309 244.629C207.474 245.82 208.397 247.234 209.028 248.79C209.658 250.346 209.982 252.014 209.982 253.698C209.982 257.1 208.661 260.362 206.309 262.767C203.957 265.173 200.767 266.524 197.441 266.524C194.115 266.524 190.926 265.173 188.574 262.767C186.222 260.362 184.901 257.1 184.901 253.698C184.901 252.014 185.225 250.346 185.855 248.79C186.486 247.234 187.409 245.82 188.574 244.629C189.738 243.438 191.121 242.494 192.642 241.849C194.164 241.205 195.795 240.873 197.441 240.873ZM197.466 247.204C195.819 247.23 194.249 247.917 193.093 249.116C191.938 250.316 191.29 251.933 191.29 253.617C191.29 255.318 191.951 256.949 193.127 258.152C194.303 259.354 195.898 260.03 197.561 260.03C199.224 260.03 200.819 259.354 201.994 258.152C203.17 256.949 203.831 255.318 203.831 253.617C203.831 251.916 203.17 250.285 201.994 249.082C200.819 247.88 199.224 247.204 197.561 247.204C197.529 247.204 197.497 247.204 197.466 247.204Z" fill="white"/>
<path d="M310.321 223.424C302.394 223.424 294.792 226.645 289.187 232.377C283.582 238.11 280.433 245.885 280.433 253.992C280.433 262.099 283.582 269.874 289.187 275.606C294.792 281.338 302.394 284.559 310.321 284.559C318.248 284.559 325.85 281.338 331.455 275.606C337.06 269.874 340.209 262.099 340.209 253.992C340.209 245.885 337.06 238.11 331.455 232.377C325.85 226.645 318.248 223.424 310.321 223.424ZM310.86 241.075C314.186 241.075 317.376 242.426 319.728 244.832C322.08 247.237 323.401 250.499 323.401 253.901C323.401 257.302 322.08 260.565 319.728 262.97C317.376 265.375 314.186 266.726 310.86 266.726C307.534 266.726 304.344 265.375 301.993 262.97C299.641 260.565 298.319 257.302 298.319 253.901C298.319 252.217 298.644 250.549 299.274 248.993C299.904 247.437 300.828 246.023 301.992 244.832C303.157 243.641 304.539 242.696 306.061 242.052C307.583 241.407 309.213 241.075 310.86 241.075ZM310.884 247.407C309.237 247.432 307.667 248.119 306.511 249.319C305.356 250.519 304.708 252.135 304.708 253.819C304.708 254.662 304.871 255.496 305.186 256.274C305.501 257.052 305.963 257.759 306.545 258.354C307.127 258.949 307.818 259.422 308.579 259.744C309.34 260.066 310.155 260.232 310.979 260.232C312.642 260.232 314.237 259.557 315.413 258.354C316.588 257.151 317.249 255.52 317.249 253.819C317.249 252.119 316.588 250.488 315.413 249.285C314.237 248.082 312.642 247.407 310.979 247.407C310.947 247.406 310.915 247.406 310.884 247.407Z" fill="white"/>
<path d="M310.321 126.053C302.394 126.053 294.792 129.274 289.187 135.006C283.582 140.739 280.433 148.514 280.433 156.621C280.433 164.727 283.582 172.502 289.187 178.235C294.792 183.967 302.394 187.188 310.321 187.188C318.248 187.188 325.85 183.967 331.455 178.235C337.06 172.502 340.209 164.727 340.209 156.621C340.209 148.514 337.06 140.739 331.455 135.006C325.85 129.274 318.248 126.053 310.321 126.053ZM310.86 143.704C314.186 143.704 317.376 145.055 319.728 147.461C322.08 149.866 323.401 153.128 323.401 156.53C323.401 159.931 322.08 163.194 319.728 165.599C317.376 168.004 314.186 169.355 310.86 169.355C309.213 169.355 307.583 169.024 306.061 168.379C304.539 167.735 303.157 166.79 301.992 165.599C300.828 164.408 299.904 162.994 299.274 161.438C298.644 159.882 298.319 158.214 298.319 156.53C298.319 153.128 299.641 149.866 301.993 147.461C304.344 145.055 307.534 143.704 310.86 143.704ZM310.884 150.036C309.237 150.061 307.667 150.748 306.511 151.948C305.356 153.148 304.708 154.764 304.708 156.448C304.708 157.291 304.871 158.124 305.186 158.902C305.501 159.681 305.963 160.387 306.545 160.983C307.127 161.578 307.818 162.051 308.579 162.373C309.34 162.695 310.155 162.861 310.979 162.861C312.642 162.861 314.237 162.186 315.413 160.983C316.588 159.78 317.249 158.149 317.249 156.448C317.249 154.748 316.588 153.116 315.413 151.914C314.237 150.711 312.642 150.036 310.979 150.036C310.947 150.035 310.915 150.035 310.884 150.036Z" fill="white"/>
<path d="M196.704 126.458C188.777 126.458 181.175 129.679 175.57 135.411C169.965 141.144 166.816 148.918 166.816 157.025C166.816 165.132 169.965 172.907 175.57 178.64C181.175 184.372 188.777 187.593 196.704 187.593C204.631 187.593 212.233 184.372 217.839 178.64C223.444 172.907 226.593 165.132 226.593 157.025C226.593 148.918 223.444 141.144 217.839 135.411C212.233 129.679 204.631 126.458 196.704 126.458ZM197.243 144.109C198.89 144.109 200.521 144.441 202.042 145.085C203.564 145.73 204.946 146.674 206.111 147.865C207.275 149.056 208.199 150.47 208.829 152.026C209.46 153.583 209.784 155.25 209.784 156.935C209.784 158.619 209.46 160.287 208.829 161.843C208.199 163.399 207.275 164.813 206.111 166.004C204.946 167.195 203.564 168.139 202.042 168.784C200.521 169.429 198.89 169.76 197.243 169.76C195.596 169.76 193.966 169.429 192.444 168.784C190.923 168.139 189.54 167.195 188.376 166.004C187.211 164.813 186.287 163.399 185.657 161.843C185.027 160.287 184.702 158.619 184.702 156.935C184.702 155.25 185.027 153.583 185.657 152.026C186.287 150.47 187.211 149.056 188.376 147.865C189.54 146.674 190.923 145.73 192.444 145.085C193.966 144.441 195.596 144.109 197.243 144.109ZM197.267 150.44C195.621 150.466 194.05 151.153 192.895 152.353C191.739 153.553 191.092 155.169 191.092 156.853C191.092 157.695 191.254 158.529 191.569 159.307C191.884 160.085 192.346 160.792 192.929 161.388C193.511 161.983 194.202 162.456 194.963 162.778C195.724 163.1 196.539 163.266 197.362 163.266C198.186 163.266 199.001 163.1 199.762 162.778C200.523 162.456 201.214 161.983 201.796 161.388C202.378 160.792 202.84 160.085 203.155 159.307C203.471 158.529 203.633 157.695 203.633 156.853C203.633 155.152 202.972 153.521 201.796 152.319C200.62 151.116 199.025 150.44 197.362 150.44C197.331 150.44 197.299 150.44 197.267 150.44Z" fill="white"/>
</svg>
