<svg width="512" height="512" viewBox="0 0 512 512" fill="none" xmlns="http://www.w3.org/2000/svg">
<path d="M257.128 12L241.635 102.472C169.496 110.021 112.61 167.943 105.624 240.959L104.921 240.809L12 255.568L104.921 271.849L105.755 271.697C113.254 344.164 169.891 401.424 241.539 408.973L257.128 500L271.224 409.199C343.667 402.401 401.258 344.756 408.739 271.555L500 255.566L408.883 241.094C401.922 167.342 344.076 109.03 271.138 102.24L257.128 12ZM267.644 125.639C330.569 131.136 380.434 181.676 385.742 245.335L328.324 257.521L385.678 267.955C384.494 310.423 356.119 346.466 334.988 360.059C317.647 347.432 300.041 335.349 280.284 324.758C275.785 322.144 276.263 315.819 279.212 312.325C305.514 284.007 306.813 213.368 254.868 212.839C219.556 214.395 199.124 258.456 233.927 312.479C239.165 320.477 235.628 323.704 231.652 326.138C212.229 336.438 195.412 348.714 178.165 360.665C149.026 338.337 130.552 304.609 127.291 267.78L183.676 257.523L127.206 245.539C132.383 182.083 181.853 131.545 244.533 125.679L255.195 185.65L267.644 125.639Z" fill="white"/>
<path d="M256.881 159.244C244.36 159.244 231.961 161.738 220.393 166.585C208.825 171.432 198.314 178.536 189.46 187.491C180.606 196.447 173.583 207.079 168.792 218.78C164 230.481 161.534 243.022 161.534 255.687C161.534 268.352 164.001 280.893 168.792 292.594C173.584 304.295 180.607 314.927 189.461 323.882C198.315 332.838 208.826 339.941 220.394 344.788C231.962 349.634 244.36 352.129 256.881 352.129C282.168 352.128 306.419 341.968 324.3 323.881C342.18 305.795 352.226 281.265 352.226 255.687C352.226 243.022 349.76 230.481 344.969 218.78C340.177 207.079 333.154 196.448 324.301 187.492C315.447 178.536 304.936 171.432 293.368 166.586C281.801 161.739 269.402 159.244 256.881 159.244ZM256.665 168.184C279.812 168.185 302.01 177.485 318.377 194.041C334.745 210.596 343.94 233.05 343.94 256.463C343.94 268.056 341.683 279.535 337.297 290.246C332.911 300.957 326.482 310.689 318.378 318.886C310.274 327.084 300.653 333.587 290.064 338.023C279.475 342.46 268.126 344.743 256.665 344.743C245.204 344.743 233.855 342.46 223.266 338.023C212.677 333.587 203.056 327.084 194.952 318.886C186.847 310.689 180.419 300.957 176.033 290.246C171.647 279.535 169.39 268.056 169.39 256.463C169.39 233.05 178.585 210.596 194.952 194.041C211.32 177.485 233.518 168.185 256.665 168.184Z" fill="white" fill-opacity="0.5"/>
</svg>
