<svg width="512" height="512" viewBox="0 0 512 512" fill="none" xmlns="http://www.w3.org/2000/svg">
<path d="M280.784 84.7528C262.495 81.6178 245.449 82.6289 228.736 84.7528L255.356 12L280.784 84.7528Z" fill="white"/>
<path d="M84.7089 231.053C81.5758 249.354 82.5863 266.41 84.7089 283.133L12 256.497L84.7089 231.053Z" fill="white"/>
<path d="M229.332 427.247C247.621 430.382 264.668 429.371 281.38 427.247L254.76 500L229.332 427.247Z" fill="white"/>
<path d="M427.291 230.881C430.424 249.182 429.414 266.238 427.291 282.961L500 256.325L427.291 230.881Z" fill="white"/>
<path d="M255.968 107.566C216.626 107.566 178.895 123.205 151.075 151.041C123.256 178.877 107.627 216.631 107.627 255.997C107.627 295.364 123.256 333.118 151.075 360.954C178.895 388.79 216.626 404.428 255.968 404.428C295.311 404.428 333.042 388.79 360.862 360.954C388.681 333.118 404.31 295.364 404.31 255.997C404.31 216.631 388.681 178.877 360.862 151.041C333.042 123.205 295.311 107.566 255.968 107.566ZM255.92 124.262C273.314 124.262 290.538 127.691 306.607 134.351C322.677 141.012 337.279 150.774 349.578 163.081C361.877 175.388 371.634 189.998 378.29 206.078C384.946 222.158 388.372 239.392 388.372 256.796C388.372 291.946 374.417 325.656 349.577 350.51C324.738 375.365 291.048 389.328 255.92 389.328C220.791 389.328 187.102 375.365 162.262 350.51C137.423 325.656 123.468 291.946 123.468 256.796C123.468 239.392 126.893 222.158 133.55 206.078C140.206 189.998 149.962 175.388 162.262 163.081C174.561 150.774 189.162 141.012 205.232 134.351C221.302 127.691 238.526 124.262 255.92 124.262Z" fill="white"/>
<path d="M256.211 158.504C243.34 158.504 230.595 161.04 218.704 165.968C206.813 170.897 196.008 178.12 186.907 187.227C177.806 196.333 170.587 207.144 165.661 219.042C160.735 230.941 158.2 243.693 158.2 256.572C158.2 269.45 160.735 282.203 165.661 294.101C170.587 305.999 177.806 316.81 186.907 325.917C196.008 335.023 206.813 342.247 218.704 347.175C230.595 352.103 243.34 354.64 256.211 354.64C282.204 354.64 307.133 344.307 325.513 325.916C343.894 307.525 354.22 282.581 354.22 256.572C354.22 230.563 343.894 205.619 325.513 187.228C307.133 168.836 282.204 158.504 256.211 158.504ZM253.738 169.281H258.874V171.85V190.417C275.287 191.289 290.777 198.285 302.288 210.025C313.798 221.764 320.494 237.394 321.052 253.831H340.124H342.691V258.967H340.124H321.024C320.301 275.28 313.537 290.74 302.049 302.336C290.56 313.933 275.17 320.837 258.874 321.703V339.803V342.372H253.738V339.803V321.727C237.127 321.293 221.298 314.577 209.438 302.931C197.578 291.286 190.569 275.577 189.821 258.967H172.28H169.712V253.831H172.28H189.791C190.371 237.096 197.311 221.215 209.195 209.426C221.078 197.637 237.01 190.829 253.738 190.393V171.85V169.281Z" fill="white"/>
<path d="M253.738 199.001C239.793 199.525 226.565 205.486 216.748 215.672C206.93 225.858 201.261 239.503 200.893 253.831H225.108C225.495 246.346 228.632 239.269 233.916 233.958C239.201 228.647 246.26 225.477 253.738 225.057V199.001ZM258.874 199.009V225.168C266.006 226.005 272.611 229.344 277.517 234.591C282.423 239.839 285.312 246.656 285.671 253.832H310.549C310.199 239.704 304.692 226.226 295.121 216.071C285.549 205.916 272.612 199.827 258.874 199.009ZM200.996 258.969C201.901 272.877 207.794 285.947 217.535 295.654C227.276 305.361 240.175 311.015 253.738 311.525V285.638C246.613 285.251 239.852 282.367 234.64 277.49C229.428 272.613 226.098 266.056 225.235 258.969H200.996ZM285.541 258.969C284.727 265.751 281.652 272.061 276.814 276.881C271.976 281.701 265.656 284.749 258.874 285.533V311.466C272.214 310.661 284.81 304.883 294.297 295.218C303.785 285.552 309.512 272.663 310.403 258.969H285.541Z" fill="white"/>
<path d="M253.738 235.114C249.051 235.666 244.704 237.838 241.447 241.255C238.189 244.672 236.227 249.12 235.898 253.831H253.738V235.114ZM258.874 235.137V253.832H276.251C275.936 249.195 274.038 244.806 270.874 241.403C267.71 237.999 263.473 235.787 258.874 235.137ZM236.183 258.968C236.994 263.203 239.133 267.069 242.29 270.004C245.448 272.939 249.458 274.79 253.738 275.288V258.968H236.183ZM258.874 258.968V275.248C263.055 274.65 266.946 272.76 270.001 269.841C273.056 266.922 275.122 263.121 275.911 258.968H258.874Z" fill="white"/>
</svg>
