<svg width="512" height="512" viewBox="0 0 512 512" fill="none" xmlns="http://www.w3.org/2000/svg">
<path d="M307.19 313.593C303.408 308.996 302.64 308.134 300.014 313.593L283.62 344.932C282.17 347.519 281.909 349.64 283.949 351.714L300.145 366.133C301.597 367.566 300.939 368.669 300.211 369.82L288.623 387.135C286.365 391.576 287.488 398.748 288.36 404.714C288.723 406.417 290.349 410.305 291.223 411.887C292.93 415.555 296.034 414.05 293.769 410.704C293.121 409.694 293.343 407.692 292.574 405.044C290.713 396.581 295.23 398.039 299.289 401.027C308.141 407.336 311.571 414.976 310.416 423.742C310.117 430.288 314.414 428.848 314.301 423.873C314.259 420.144 315.895 417.44 314.893 413.603C312.743 406.304 318.578 409.2 320.687 413.142C323.457 418.276 322.9 420.914 323.387 424.334C323.779 429.263 326.609 427.045 326.415 424.664C327.779 410.897 323.72 406.461 319.897 401.62L314.367 394.904C308.942 389.668 311.643 388.95 315.881 384.239L328.785 368.701C330.877 366.001 332.334 364.294 329.97 358.298C323.417 341.027 319.101 327.724 307.19 313.593Z" fill="white"/>
<path d="M478.949 294.778C480.258 270.683 482.088 232.398 451.388 237.98C445.293 173.175 419.438 133.07 388.259 99.6182C461.255 156.496 501.253 219.681 478.949 294.778Z" fill="white" fill-opacity="0.5"/>
<path d="M446.645 226.421C441.062 208.346 419.271 205.935 413.33 222.076C406.722 206.66 398.262 192.087 386.204 179.149C379.217 170.045 380.319 166.109 379.884 161.767L379.752 102.512C379.438 94.9906 382.172 98.2253 384.756 100.932C423.739 143.048 439.267 184.798 446.645 226.421Z" fill="white" fill-opacity="0.5"/>
<path d="M410.326 223.362C410.943 224.721 411.018 225.828 409.023 225.969C386.406 223.382 367.447 246.08 362.467 280.438C356.339 261.348 352.034 242.622 342.728 222.896C340.624 218.576 340.797 215.859 343.194 213.026C355.295 203.009 363.986 192.082 372.43 181.09C376.325 176.282 381.802 179.733 382.859 180.996C394.424 194.365 402.69 208.765 410.326 223.362Z" fill="white" fill-opacity="0.5"/>
<path d="M358.684 282.648C359.745 285.773 358.977 287.461 355.129 286.73C333.503 279.21 321.985 291.832 311.346 297.132C307.689 299.419 306.28 297.85 307.988 295.091C321.088 273.434 325.312 249.279 333.731 226.355C334.316 224.625 335.765 222.845 337.747 226.355C347.068 244.534 354.95 263.072 358.684 282.648Z" fill="white" fill-opacity="0.5"/>
<path d="M476.985 333.483C476.154 336.214 477.437 335.215 478.661 334.321C498.488 292.252 503.637 253.006 497.652 215.901C477.469 130.405 389.531 75.3061 378.008 75.753C375.604 75.6277 372.97 73.7307 370.001 75.5667L366.835 77.6152C366.111 78.3851 365.579 79.7837 365.718 83.388C364.894 110.333 363.26 137.196 357.524 163.649L351.937 169.236C348.314 172.877 348.55 174.343 348.399 177.057C347.488 194.36 343.765 198.228 340.764 205.549L368.139 175.381C373.423 170.303 373.078 164.778 373.167 158.994L373.353 90.092C373.15 85.0955 374.58 85.3895 378.008 87.2986C431.814 115.324 485.535 181.241 491.195 234.144C494.803 264.989 489.851 298.16 476.985 333.483Z" fill="white"/>
<path d="M35.0152 332.952C35.8458 335.683 34.5626 334.684 33.3392 333.79C13.5123 291.721 8.36338 252.475 14.3479 215.37C34.5312 129.874 122.47 74.7754 133.992 75.2222C136.396 75.097 139.03 73.1999 141.999 75.036L145.165 77.0844C145.889 77.8543 146.421 79.2529 146.282 82.8572C147.106 109.802 148.74 136.665 154.476 163.119L160.063 168.705C163.686 172.346 163.45 173.812 163.601 176.526C164.512 193.829 168.235 197.697 171.236 205.018L143.861 174.85C138.577 169.772 138.922 164.247 138.833 158.463L138.647 89.5612C138.85 84.5648 137.42 84.8588 133.992 86.7679C80.1859 114.793 26.4649 180.711 20.8056 233.614C17.1972 264.458 22.1495 297.629 35.0152 332.952Z" fill="white"/>
<path d="M33.4324 294.777C32.1231 270.682 30.2931 232.397 60.9931 237.979C67.0882 173.174 92.9438 133.069 124.122 99.6172C51.1262 156.495 11.1285 219.68 33.4324 294.777Z" fill="white" fill-opacity="0.5"/>
<path d="M65.7363 226.421C71.3194 208.345 93.1103 205.935 99.0509 222.075C105.659 206.66 114.119 192.087 126.177 179.148C133.164 170.044 132.062 166.109 132.497 161.767L132.629 102.511C132.943 94.9902 130.209 98.2248 127.625 100.931C88.6417 143.048 73.1142 184.798 65.7363 226.421Z" fill="white" fill-opacity="0.5"/>
<path d="M102.055 223.361C101.438 224.721 101.363 225.827 103.358 225.968C125.975 223.381 144.934 246.079 149.913 280.438C156.042 261.347 160.347 242.621 169.653 222.895C171.757 218.575 171.584 215.858 169.187 213.026C157.086 203.008 148.394 192.082 139.951 181.089C136.055 176.281 130.578 179.732 129.522 180.996C117.957 194.365 109.691 208.764 102.055 223.361Z" fill="white" fill-opacity="0.5"/>
<path d="M153.697 282.647C152.637 285.772 153.405 287.461 157.253 286.729C178.878 279.21 190.397 291.831 201.036 297.132C204.692 299.419 206.101 297.85 204.393 295.091C191.294 273.433 187.07 249.279 178.65 226.355C178.066 224.625 176.616 222.845 174.634 226.355C165.313 244.533 157.431 263.072 153.697 282.647Z" fill="white" fill-opacity="0.5"/>
<path d="M323.968 46.0631C322.737 46.076 321.176 47.039 319.611 49.1827C306.221 69.2015 288.139 87.0516 280.372 109.096C265.059 104.488 249.203 104.576 232.836 109.096C223.646 86.6441 208.343 68.6724 194.141 49.8953C189.589 44.73 185.198 44.2821 187.112 52.3174C190.657 84.6319 183.059 113.208 199.541 126.991C199.789 133.912 193.942 164.14 189.113 163.398C186.532 162.982 186.651 165.849 188.74 168.053C195.641 176.283 204.367 179.563 212.95 183.23C224.256 186.24 233.725 192.205 240.883 196.453C251.083 200.445 261.431 200.883 271.982 196.453C280.866 191.519 290.028 186.444 299.542 182.299C308.154 179.239 316.844 176.385 323.75 168.891C327.152 163.88 325.489 162.214 323.1 162.932C320.732 164.225 317.233 146.188 313.508 127.179C331.638 111.971 323.919 72.1378 326.328 50.7614C326.721 47.8108 325.654 46.0457 323.968 46.0631ZM228.204 151.498C235.918 151.492 242.305 158.454 243.444 163.677C244.478 166.268 246.836 172.192 240.65 171.917C234.387 170.81 227.379 179.493 216.952 166.937C214.422 163.896 212.808 160.747 216.952 156.926C220.663 153.083 224.479 151.553 228.022 151.5C228.083 151.499 228.144 151.498 228.204 151.498ZM286.026 151.5C286.086 151.5 286.147 151.501 286.208 151.502C289.751 151.555 293.566 153.085 297.278 156.928C301.422 160.749 299.808 163.898 297.278 166.939C286.851 179.495 279.845 170.812 273.582 171.919C267.395 172.194 269.754 166.27 270.788 163.679C271.927 158.456 278.312 151.494 286.026 151.5ZM248.349 175.791C248.382 175.791 248.415 175.792 248.449 175.793C249.165 175.818 249.892 176.124 250.473 176.805L253.568 179.902C257.287 183.823 252.279 186.866 249.611 183.859L246.561 180.717C244.294 178.225 246.24 175.796 248.349 175.791ZM265.233 176.072C267.38 175.997 269.424 178.464 267.121 180.995L264.071 184.138C261.404 187.144 256.395 184.101 260.114 180.18L263.209 177.086C263.79 176.405 264.518 176.096 265.233 176.072Z" fill="white"/>
<path d="M205.183 313.592C208.966 308.995 209.734 308.133 212.36 313.592L228.754 344.931C230.203 347.518 230.465 349.638 228.425 351.713L212.228 366.131C210.776 367.565 211.435 368.668 212.162 369.818L223.75 387.134C226.009 391.575 224.886 398.747 224.013 404.713C223.65 406.416 222.024 410.304 221.151 411.886C219.444 415.553 216.339 414.049 218.605 410.703C219.252 409.693 219.031 407.691 219.8 405.042C221.66 396.58 217.144 398.038 213.084 401.026C204.233 407.335 200.802 414.975 201.957 423.741C202.257 430.286 197.959 428.846 198.073 423.872C198.114 420.143 196.479 417.439 197.48 413.601C199.63 406.303 193.796 409.199 191.686 413.141C188.916 418.274 189.473 420.912 188.987 424.333C188.595 429.262 185.764 427.044 185.958 424.663C184.595 410.896 188.653 406.46 192.476 401.619L198.007 394.903C203.431 389.667 200.73 388.949 196.493 384.237L183.588 368.699C181.496 366 180.04 364.293 182.403 358.297C188.956 341.026 193.273 327.722 205.183 313.592Z" fill="white"/>
<path d="M242.448 361.128C254.118 378.011 257.158 378.964 271.154 362.839C263.205 412.185 260.642 441.386 223.75 460.403C188.667 473.702 162.656 460.832 146.955 445.027C136.972 433.695 133.917 411.152 135.109 390.122C135.447 378.614 136.621 367.105 140.793 355.597C141.64 352.863 142.749 351.866 144.216 353.227C145.766 354.968 147.207 353.96 147.64 352.569C148.224 349.939 149.657 351.043 150.932 350.857C153.423 351.193 155.101 350.255 155.672 348.223C157.12 344.438 159.579 341.551 162.125 338.742C165.772 335.25 167.068 337.639 165.417 341.376C163.038 344.517 160.215 347.735 161.73 350.198C162.65 352.224 161.413 353.651 160.15 355.07C158.514 357.553 154.183 369.492 156.726 372.847C151.625 379.734 144.723 387.137 142.768 393.125C139.033 421.816 147.344 443.881 183.193 450.8C244.528 456.489 250.311 399.773 242.448 361.128Z" fill="white"/>
<path d="M202.945 267.109C214.999 281.135 246.193 301.432 241.131 282.384C257.789 302.984 258.949 295.899 271.681 282.384C265.438 301.117 299.834 276.975 309.077 268.426C292.984 296.779 288.962 323.875 259.691 356.043C257.641 357.953 256.375 358.902 253.733 356.043C232.842 336.464 217.273 298.116 202.945 267.109Z" fill="white"/>
<path d="M232.13 276.341C229.3 259.728 238.499 268.496 245.352 276.341C255.415 285.026 256.021 287.64 266.767 276.341C273.892 268.65 283.941 258.409 280.734 276.341C298.621 266.838 313.369 253.994 323.565 236.303C324.562 233.696 324.976 231.089 323.751 228.482L331.758 216.936C331.992 216.186 332.693 215.622 326.917 212.467C324.201 211.517 323.931 209.814 327.662 206.88C331.821 203.52 336.063 199.173 341.442 181.182C343.926 173.049 338.322 173.004 330.456 175.222C310.136 189.291 296.028 194.396 272.54 204.273C260.561 210.559 252.891 209.467 241.255 204.273C222.148 196.468 201.668 190.277 186.506 177.83C184.586 175.885 170.136 170.306 170.863 177.83C173.939 193.06 178.351 197.905 183.526 205.763C188.463 210.931 189.825 211.309 184.83 214.143C178.517 216.75 183.244 219.357 184.458 221.964C187.348 224.943 188.235 228.367 188.927 231.834C189.482 234.827 189.218 238.148 192.093 240.214C199.555 252.28 211.721 265.946 232.13 276.341Z" fill="white"/>
</svg>
