<svg width="512" height="512" viewBox="0 0 512 512" fill="none" xmlns="http://www.w3.org/2000/svg">
<path d="M255.394 12.01C251.7 12.01 247.974 13.3077 245.003 15.8589L244.998 15.8625L244.993 15.8675C202.646 52.3959 83.1277 118.219 60.1232 128.724C55.0962 131.002 51.9017 136.101 52.0003 141.596V141.606C53.4497 214.58 88.1248 290.573 126.404 351.515L137.488 344.552C99.9441 284.78 66.4659 210.553 65.0883 141.359C65.0827 141.016 65.2407 140.775 65.5284 140.645L65.5358 140.642L65.5431 140.638C90.4948 129.245 207.723 65.3006 253.546 25.7773L253.54 25.7835C254.09 25.3106 254.73 25.0961 255.402 25.0961C256.073 25.0961 256.713 25.3112 257.263 25.7835C303.107 65.3207 421.582 129.414 446.484 140.781L446.489 140.783C446.794 140.922 446.917 141.13 446.91 141.435V141.446C445.54 210.99 417.487 288.001 379.694 347.961L390.767 354.939C429.293 293.816 458.548 215.055 459.998 141.722C460.121 136.216 456.895 131.135 451.913 128.866C428.977 118.395 308.169 52.4009 265.804 15.8574L265.799 15.8525L265.794 15.8488C262.823 13.2976 259.097 12 255.403 12L255.394 12.01ZM171.309 393.67L160.839 401.525C182.699 430.66 204.032 454.812 220.646 471.773C228.952 480.253 236.066 486.926 241.575 491.594C244.33 493.929 246.668 495.756 248.7 497.129C249.716 497.815 250.645 498.389 251.659 498.888C252.674 499.386 253.593 500 255.928 500C258.242 500 259.16 499.393 260.168 498.901C261.176 498.408 262.098 497.841 263.103 497.164C265.113 495.812 267.418 494.015 270.136 491.718C275.571 487.125 282.584 480.559 290.777 472.215C307.165 455.527 328.225 431.755 349.876 403.046L339.425 395.164C318.14 423.388 297.398 446.79 281.437 463.043C273.457 471.17 266.657 477.517 261.685 481.718C259.256 483.772 257.286 485.278 255.926 486.202C254.541 485.26 252.519 483.71 250.037 481.608C244.989 477.331 238.09 470.874 229.997 462.613C213.812 446.089 192.799 422.312 171.309 393.67Z" fill="white" fill-opacity="0.447447"/>
<path d="M100.739 151.653L114.342 218.331L160.483 211.13L170.351 240.468L168.217 199.928H122.61L100.739 151.653Z" fill="white"/>
<path d="M413.466 151.654L399.864 218.332L353.723 211.131L343.854 240.469L345.988 199.929H391.596L413.466 151.654Z" fill="white"/>
<path d="M224.494 170.323H286.904V236.468L224.494 236.468V170.323Z" fill="white"/>
<path d="M168.506 330.3C165.679 330.308 163.133 331.316 161.58 333.675L151.962 346.502L152.715 357.062L119.713 402.136L112.735 403.457L101.04 414.959L108.103 425.07L106.74 427.433H102.338L98.3302 420.881C97.1429 419.137 93.5134 421.388 94.605 423.034L98.4002 429.86H129.424L131.781 427.503L130.369 426.088L128.389 428.162C126.496 429.602 124.883 425.756 126.315 423.825L133.292 416.281L131.971 407.605L165.542 362.153L173.085 360.834L182.137 347.821C187.973 339.27 176.984 330.279 168.506 330.3ZM169.57 335.516C170.612 335.516 171.643 335.721 172.605 336.119C173.567 336.518 174.441 337.102 175.177 337.838C175.913 338.575 176.497 339.449 176.896 340.411C177.294 341.373 177.499 342.404 177.499 343.445C177.499 345.548 176.663 347.564 175.176 349.05C173.689 350.536 171.673 351.371 169.57 351.371C167.468 351.371 165.453 350.535 163.966 349.049C162.48 347.563 161.645 345.547 161.644 343.445C161.644 341.343 162.479 339.326 163.965 337.839C165.452 336.352 167.468 335.517 169.57 335.516ZM118.205 409.268C121.245 409.268 123.71 411.732 123.71 414.773C123.71 417.813 121.245 420.277 118.205 420.277C115.165 420.277 112.7 417.813 112.7 414.773C112.7 411.732 115.165 409.268 118.205 409.268Z" fill="white"/>
<path d="M340.276 330.301C343.102 330.307 345.649 331.316 347.201 333.676L356.819 346.503L356.066 357.063L389.068 402.136L396.046 403.458L407.741 414.96L400.679 425.071L402.041 427.434H406.443L410.451 420.882C411.639 419.137 415.268 421.389 414.176 423.035L410.381 429.861H379.357L377 427.504L378.412 426.089L380.393 428.163C382.285 429.603 383.898 425.757 382.467 423.825L375.489 416.282L376.81 407.606L343.24 362.154L335.696 360.835L326.644 347.822C320.808 339.27 331.797 330.28 340.276 330.301ZM339.211 335.517C338.17 335.517 337.139 335.722 336.177 336.12C335.215 336.519 334.341 337.103 333.604 337.839C332.868 338.575 332.284 339.449 331.886 340.411C331.487 341.373 331.282 342.405 331.282 343.446C331.283 345.548 332.118 347.564 333.605 349.051C335.092 350.537 337.109 351.372 339.211 351.372C341.313 351.371 343.329 350.536 344.815 349.05C346.301 347.563 347.136 345.548 347.137 343.446C347.137 341.343 346.302 339.327 344.816 337.84C343.33 336.353 341.314 335.517 339.211 335.517ZM390.577 409.269C387.536 409.269 385.072 411.733 385.072 414.773C385.072 417.814 387.536 420.278 390.577 420.278C393.617 420.278 396.081 417.814 396.081 414.773C396.081 411.733 393.617 409.269 390.577 409.269Z" fill="white"/>
<path d="M189.153 345.954C189.786 350.427 189.114 354.45 184.62 357.156L189.422 376.625L197.155 383.159C205.074 390.209 222.13 375.636 213.424 367.424L189.153 345.954ZM204.291 369.055C205.75 369.055 207.15 369.634 208.182 370.666C209.214 371.698 209.795 373.097 209.795 374.557C209.795 375.28 209.653 375.995 209.376 376.663C209.1 377.331 208.694 377.938 208.183 378.449C207.672 378.96 207.065 379.366 206.397 379.642C205.729 379.919 205.013 380.061 204.291 380.061C203.568 380.061 202.852 379.919 202.184 379.642C201.516 379.366 200.909 378.96 200.398 378.449C199.887 377.938 199.481 377.331 199.205 376.663C198.928 375.995 198.786 375.28 198.786 374.557C198.787 373.097 199.367 371.698 200.399 370.666C201.431 369.634 202.831 369.055 204.291 369.055Z" fill="white"/>
<path d="M319.925 345.955C319.292 350.428 319.964 354.451 324.458 357.157L319.657 376.626L311.923 383.16C304.004 390.21 286.948 375.637 295.654 367.425L319.925 345.955ZM304.788 369.056C303.328 369.056 301.929 369.635 300.896 370.667C299.864 371.699 299.284 373.098 299.283 374.557C299.283 375.28 299.425 375.996 299.702 376.664C299.979 377.332 300.384 377.939 300.895 378.45C301.406 378.961 302.013 379.366 302.681 379.643C303.349 379.92 304.065 380.062 304.788 380.062C305.511 380.062 306.226 379.92 306.894 379.643C307.562 379.366 308.169 378.961 308.68 378.45C309.191 377.939 309.597 377.332 309.873 376.664C310.15 375.996 310.292 375.28 310.292 374.557C310.292 373.098 309.711 371.699 308.679 370.667C307.647 369.635 306.247 369.056 304.788 369.056Z" fill="white"/>
<path d="M226.827 345.686C224.183 344.865 221.516 346.188 219.626 347.953L208.624 357.755C214.211 360.996 219.077 364.848 220.093 371.958L236.562 356.822C240.437 352.426 237.258 345.43 232.361 345.42C237.892 352.001 234.758 356.936 228.959 357.069C223.467 357.091 220.25 349.627 226.827 345.686Z" fill="white"/>
<path d="M282.154 345.687C284.799 344.866 287.466 346.189 289.356 347.954L300.357 357.756C294.77 360.997 289.905 364.849 288.889 371.958L272.419 356.822C268.545 352.426 271.723 345.431 276.62 345.42C271.089 352.001 274.223 356.937 280.022 357.069C285.515 357.092 288.732 349.628 282.154 345.687Z" fill="white"/>
<path d="M225.609 341.032H284.544V329.15L293.973 319.815H215.99L225.609 329.15V341.032Z" fill="white"/>
<path d="M239.431 244.868L215.691 260.472C209.012 264.982 208.663 270.914 215.691 274.74L241.029 287.144L215.694 302.479C212.457 304.809 215.891 311.794 215.694 315.414H229.028V312.748L253.299 295.811C254.487 294.749 256.597 294.888 257.832 295.811L280.904 312.479V315.414H293.973C293.825 311.456 298.013 306.577 293.973 303.88L268.769 286.342L294.772 273.541C299.775 271.208 300.119 264.579 294.772 261.272L270.501 245.137C267.53 243.414 264.381 242.573 261.032 242.736C262.101 253.599 246.372 253.671 248.363 242.736C245.245 242.302 241.693 243.514 239.431 244.868ZM254.652 252.109L276.435 266.254L254.652 278.419L233.34 266.254L254.652 252.109ZM219.372 262.92C221.871 262.919 223.897 264.945 223.897 267.444C223.896 269.942 221.87 271.966 219.372 271.966C216.874 271.966 214.849 269.942 214.848 267.444C214.847 264.945 216.873 262.919 219.372 262.92ZM290.504 262.92C293.003 262.919 295.029 264.945 295.029 267.444C295.028 269.942 293.002 271.966 290.504 271.966C288.007 271.966 285.981 269.942 285.98 267.444C285.979 264.945 288.005 262.919 290.504 262.92ZM254.766 281.82C257.263 281.821 259.287 283.845 259.288 286.342C259.288 288.84 257.264 290.865 254.766 290.866C252.267 290.867 250.241 288.841 250.242 286.342C250.243 283.844 252.268 281.82 254.766 281.82Z" fill="white"/>
<path d="M218.913 236.468V183.556H198.545C195.042 183.355 191.648 185.578 192.887 188.931C194.914 196.315 190.861 194.887 189.775 191.948L192.416 208.922L214.387 232.685C215.96 234.47 217.154 236.072 218.913 236.468Z" fill="white"/>
<path d="M292.611 236.468V183.555H312.979C316.482 183.355 319.876 185.578 318.637 188.93C316.61 196.315 320.663 194.887 321.749 191.948L319.108 208.921L297.137 232.684C295.564 234.469 294.37 236.072 292.611 236.468Z" fill="white"/>
<path d="M179.553 177.124L219.96 164.855C221.228 169.297 211.054 172.282 200.623 175.524C192.293 178.047 182.193 181.028 179.553 177.124Z" fill="white"/>
<path d="M176.219 156.187L211.425 145.786L213.025 152.053L178.352 162.455L176.219 156.187Z" fill="white"/>
<path d="M170.175 134.521L205.381 124.119L206.981 130.387L172.308 140.788L170.175 134.521Z" fill="white"/>
<path d="M164.126 119.905L201.468 108.873C198.432 106.447 193.729 103.129 188.832 103.875L171.387 109.061C167.79 110.722 164.823 117.033 164.126 119.905Z" fill="white"/>
<path d="M168.889 102.036L187.607 96.1895L188.738 99.2541L169.879 105.195L168.889 102.036Z" fill="white"/>
<path d="M332.397 177.125L291.991 164.856C290.723 169.297 300.896 172.282 311.327 175.524C319.657 178.047 329.757 181.029 332.397 177.125Z" fill="white"/>
<path d="M335.731 156.188L300.525 145.786L298.925 152.054L333.598 162.456L335.731 156.188Z" fill="white"/>
<path d="M341.775 134.521L306.569 124.119L304.969 130.387L339.642 140.789L341.775 134.521Z" fill="white"/>
<path d="M347.824 119.906L310.482 108.873C313.518 106.447 318.221 103.129 323.118 103.875L340.563 109.061C344.16 110.722 347.127 117.033 347.824 119.906Z" fill="white"/>
<path d="M343.062 102.036L324.344 96.1899L323.212 99.2546L342.071 105.195L343.062 102.036Z" fill="white"/>
</svg>
