<svg width="512" height="512" viewBox="0 0 512 512" fill="none" xmlns="http://www.w3.org/2000/svg">
<path d="M423.888 62.1912V36.6426L436.168 24.4259C442.922 17.7067 448.913 12.6737 449.481 13.2414C450.049 13.8091 450.513 25.1456 450.513 38.4336V62.5936H475.257H500L487.493 75.1667L474.985 87.7397H449.436H423.888V62.1912Z" fill="white" fill-opacity="0.501961"/>
<path d="M24.5077 75.1668L12 62.5937H36.7087H61.4175L61.8222 37.2969L62.2269 12L75.1698 24.8006L88.1126 37.6011V62.6705V87.7398H62.564H37.0154L24.5077 75.1668Z" fill="white" fill-opacity="0.501961"/>
<path d="M230.562 77.0156L236.771 58.8956L298.527 58.5093L360.284 58.1235L351.066 76.6296L341.848 95.1356H283.101H224.354L230.562 77.0156Z" fill="white" fill-opacity="0.501961"/>
<path d="M205.027 150.975C205.06 150.772 207.636 143.283 210.752 134.334L216.418 118.063L273.32 117.676L330.223 117.29L321.522 134.317L312.821 151.345H258.895C229.235 151.345 204.995 151.179 205.027 150.975Z" fill="white" fill-opacity="0.501961"/>
<path d="M187.269 203.486C187.297 202.876 189.543 196.053 192.261 188.324L197.202 174.272L249.095 173.884L300.988 173.495L299.14 177.582C298.124 179.829 294.678 186.827 291.483 193.132L285.674 204.596H236.446C209.37 204.596 187.241 204.096 187.269 203.486Z" fill="white" fill-opacity="0.501961"/>
<path d="M172.145 244.903C175.156 236.157 178.155 228.17 178.808 227.153C180.182 225.016 236.838 224.651 314.651 226.277L361.21 227.249L351.879 242.917C346.747 251.535 342.545 259.085 342.54 259.695C342.536 260.305 302.964 260.804 254.602 260.804H166.671L172.145 244.903Z" fill="white"/>
<path d="M248.272 313.648C248.67 312.61 250.516 304.955 252.373 296.637L255.75 281.513H292.569H329.388L325.567 287.799C323.465 291.257 318.968 298.912 315.574 304.81L309.402 315.534H278.475C254.014 315.534 247.7 315.14 248.272 313.648Z" fill="white"/>
<path d="M236.031 368.137C236.031 366.002 239.366 350.674 242.086 340.311L243.541 334.764H270.109C284.722 334.764 296.678 335.192 296.678 335.716C296.678 336.24 292.252 344.227 286.844 353.466L277.009 370.264H256.52C239.687 370.264 236.031 369.885 236.031 368.137Z" fill="white"/>
<path d="M222.719 423.631C222.719 422.256 228.154 398.355 229.557 393.561C230.221 391.291 232.394 390.973 247.225 390.973C256.526 390.973 264.136 391.25 264.136 391.589C264.136 391.928 259.783 399.583 254.463 408.6L244.791 424.994H233.755C227.685 424.994 222.719 424.381 222.719 423.631Z" fill="white"/>
<path d="M156.514 422.251C87.2601 380.628 50.9381 302.096 64.4325 223.163C71.2489 183.291 87.6566 150.726 115.421 121.963C132.391 104.384 148.211 92.5997 168.449 82.4654C184.078 74.6386 204.316 67.3647 205.94 68.9896C206.389 69.4379 204.482 76.6266 201.702 84.9645L196.649 100.124L181.784 107.615C166.048 115.544 149.379 127.495 138.467 138.673C132.034 145.263 131.647 145.428 122.673 145.428H113.473L105.999 156.602C93.655 175.058 84.0651 198.134 78.9848 221.606C76.4406 233.361 76.4406 277.893 78.9848 289.648C83.8599 312.172 96.3155 341.492 107.429 356.603C111.881 362.658 112.309 362.868 120.206 362.868C128.337 362.868 128.435 362.924 140.125 373.919C146.586 379.997 157.995 389.054 165.477 394.046C172.96 399.037 179.242 403.266 179.438 403.443C180.3 404.221 171.327 428.565 170.017 429.002C169.213 429.27 163.137 426.232 156.514 422.251Z" fill="white"/>
<path d="M278.927 446.598C278.927 445.703 280.945 438.913 283.412 431.509L287.896 418.048L296.355 416.178C307.924 413.62 327.751 405.495 339.6 398.456C351.2 391.564 370.936 375.901 377.638 368.268C382.104 363.182 382.895 362.868 391.245 362.868H400.11L405.881 354.363C435.875 310.158 443.858 250.759 426.697 199.459C421.752 184.676 410.878 163.029 403.071 152.428C398.044 145.601 397.928 145.543 389.26 145.486C380.771 145.43 380.28 145.203 372.249 137.628C367.701 133.338 361.464 127.789 358.39 125.297L352.799 120.766L358.738 107.85C362.9 98.798 365.236 95.26 366.547 96.0224C372.566 99.5227 387.807 112.759 397.5 122.904C422.194 148.752 439.106 181.683 447.05 219.387C450.718 236.799 450.722 274.429 447.056 291.867C432.056 363.226 382.314 418.991 314.574 440.39C299.104 445.277 278.927 448.791 278.927 446.598Z" fill="white"/>
<path d="M208.836 481.464C209.295 479.168 211.442 470.015 213.606 461.126L217.542 444.963L224.568 444.512C228.964 444.23 231.594 444.67 231.594 445.688C231.594 447.377 209.526 485.641 208.553 485.641C208.249 485.641 208.377 483.761 208.836 481.464Z" fill="white"/>
<path d="M435.977 485.625L423.888 473.777V448.646V423.515H449.436H474.985L487.493 436.088L500 448.661H475.257H450.513V473.067C450.513 486.491 449.963 497.474 449.29 497.474C448.617 497.474 442.627 492.142 435.977 485.625Z" fill="white" fill-opacity="0.501961"/>
<path d="M61.4873 474.146V448.661H36.7437H12L24.5077 436.088L37.0155 423.515H62.5641H88.1126V448.322V473.129L74.8 486.38L61.4873 499.631V474.146Z" fill="white" fill-opacity="0.501961"/>
</svg>
