<svg width="512" height="512" viewBox="0 0 512 512" fill="none" xmlns="http://www.w3.org/2000/svg">
<path d="M249.086 391.422L257.246 375.546L492.52 500L249.086 391.422ZM287.586 325.983C290.19 322.402 296.201 307.047 300.562 308.602L492.52 418.733L287.586 325.983ZM19.4805 257.23L209.582 349.84L205.878 367.814L19.4805 257.23ZM327.849 260.638L336.224 245.219L492.52 335.788L327.849 260.638ZM190.087 276.94L220.555 277.255L217.865 290.984L190.087 276.94ZM19.4805 174.932L155.812 237.735L151.011 255.945L19.4805 174.932ZM305.383 165.479L315.961 146.861L492.52 254.115L305.383 165.479ZM19.4805 93.4337L183.218 166.18L174.727 185.152L19.4805 93.4337ZM19.4805 12L208.174 93.901L200.725 112.703L19.4805 12Z" fill="white" fill-opacity="0.501961"/>
<path d="M243.737 262.079H166.073L226.99 85.969H325.898L266.624 209.116H332.734L204.162 435.767L243.737 262.079Z" fill="white"/>
</svg>
