<svg width="512" height="512" viewBox="0 0 512 512" fill="none" xmlns="http://www.w3.org/2000/svg">
<path d="M180.801 36.0721L174.044 16.2971L260.725 55.1216L340.553 16.2971L331.575 36.0721L260.725 71.8974L180.801 36.0721Z" fill="white" fill-opacity="0.5"/>
<path d="M204.331 70.3385L200.159 56.0044L260.725 82.9708L319.68 56.0044L310.269 71.3905L260.725 95.1972L204.331 70.3385Z" fill="white" fill-opacity="0.5"/>
<path d="M230.595 211.932C229.272 209.791 243.189 196.859 249.922 193.973C256.646 191.09 267.546 190.396 269.005 192.757C269.5 193.558 271.395 194.78 273.217 195.472C276.615 196.765 280.396 202.941 278.778 204.559C278.281 205.056 274.396 203.76 270.145 201.679L262.416 197.894L255.38 201.454C251.51 203.412 247.667 205.014 246.838 205.014C246.01 205.014 243.003 206.865 240.156 209.128C234.811 213.376 231.997 214.201 230.595 211.932Z" fill="white"/>
<path d="M282.016 296.204C281.945 284.815 280.05 279.383 273.644 272.207L268.136 266.036L263.693 271.24C259.102 276.618 257.297 276.685 257.297 271.477C257.297 266.792 262.403 261.229 266.652 261.285C271.529 261.35 274.98 263.514 281.05 270.316C286.016 275.88 286.094 276.146 286.094 287.538C286.094 295.588 285.481 299.918 284.08 301.77C282.237 304.207 282.063 303.738 282.016 296.204Z" fill="white"/>
<path d="M209.302 322.127C209.302 320.923 208.092 318.239 206.613 316.162C205.134 314.085 203.351 309.837 202.651 306.722C201.951 303.608 200.076 298.852 198.484 296.154C195.219 290.619 194.939 286.31 197.069 274.346C199.52 260.576 202.31 252.162 209.389 237.19C214.419 226.552 217.122 222.413 220.017 220.916C222.153 219.811 224.702 217.941 225.683 216.76C226.663 215.579 228.61 214.613 230.01 214.613C232.173 214.613 232.338 215.09 231.109 217.787C230.314 219.532 228.076 221.924 226.136 223.1C224.131 224.317 221.47 228.124 219.968 231.925C213.216 249.011 206.729 268.357 204.46 278.173C202.101 288.377 202.094 289.166 204.325 293.309C206.38 297.124 209.427 308.437 211.66 320.544C212.08 322.817 211.749 324.315 210.829 324.315C209.99 324.315 209.302 323.33 209.302 322.127Z" fill="white"/>
<path d="M142.384 343.239C138.498 339.352 143.355 278.831 149.06 260.063C152.877 247.507 152.679 245.721 147.595 246.838C145.332 247.335 143.481 247.296 143.481 246.752C143.481 246.208 144.724 241.591 146.242 236.491C149.909 224.18 163.308 197.98 172.413 185.321C178.552 176.785 181 174.56 187.577 171.541C198.641 166.463 199.213 163.575 190.63 156.125L183.934 150.313L189.419 147.921C197.165 144.543 221.233 143.878 238.884 146.553C252.544 148.624 269.78 154.002 270.583 156.443C270.816 157.151 265.397 157.705 258.245 157.705C246.273 157.705 244.855 158.02 235.1 162.843C214.098 173.226 197.208 194.777 186.594 224.734C184.488 230.678 181.378 236.928 179.682 238.624C169.495 248.811 156.21 287.656 151.078 322.258C148.871 337.142 146.778 344.884 144.96 344.884C144.448 344.884 143.289 344.144 142.384 343.239Z" fill="white"/>
<path d="M279.923 367.245C298.679 350.18 304.117 344.292 308.719 336.064C313.7 327.155 313.744 326.945 312.005 320.16C310.465 314.151 310.566 311.987 312.805 302.995C315.009 294.143 315.154 291.33 313.842 282.855C312.481 274.06 311.748 272.478 307.017 268.109C304.102 265.417 300.284 260.257 298.534 256.641C294.804 248.935 287.114 240.952 281.294 238.743C278.018 237.499 263.316 236.994 253.643 237.793C252.764 237.865 249.831 240.941 247.125 244.628C243.365 249.75 241.591 254.197 239.604 263.483C238.174 270.166 236.102 279.161 235 283.471C233.11 290.864 233.153 291.563 235.765 295.813C237.287 298.29 241.151 305.563 244.35 311.973C248.601 320.491 251.729 324.814 255.966 328.03C261.373 332.134 262.013 332.302 265.458 330.52C270.343 327.994 271.861 325.951 273.078 320.265C274.309 314.52 279.28 306.529 281.637 306.505C283.975 306.482 283.803 307.764 280.64 313.969C279.021 317.144 278.252 320.576 278.732 322.487C279.931 327.266 278.282 332.046 274.093 335.93C270.947 338.847 269.031 339.399 262.053 339.399C254.094 339.399 253.521 339.16 248.076 333.571C244.467 329.867 241.181 324.495 239.057 318.83C237.219 313.928 233.784 306.65 231.422 302.657C229.061 298.664 227.129 294.15 227.129 292.625C227.129 289.966 231.989 269.634 236.15 254.889C238.338 247.135 244.419 238.6 250.509 234.737C253.828 232.631 255.71 232.422 262.388 233.42C266.753 234.071 273.101 234.101 276.495 233.484C279.889 232.868 284.675 232.719 287.132 233.151C292.917 234.171 301.014 241.996 306.619 251.987C309.054 256.328 311.848 260.339 312.827 260.901C320.058 265.048 323.188 283.368 319.566 300.35C318.283 306.366 317.439 312.83 317.69 314.716C319.114 325.399 318.106 330.557 312.933 339.054C306.292 349.96 281.829 372.359 276.653 372.272C275.192 372.249 276.306 370.536 279.923 367.245Z" fill="white"/>
<path d="M241.247 377.208C233.573 372.82 224.911 365.773 222.308 361.8C221.147 360.029 219.587 355.357 218.84 351.416C218.01 347.044 215.888 342.27 213.392 339.164C211.142 336.365 209.322 332.65 209.345 330.909C209.389 327.75 209.395 327.751 212.431 331.415C217.572 337.619 223.015 347.157 223.015 349.96C223.015 355.228 235.431 367.85 246.373 373.706C249.394 375.322 256.197 375.049 266.553 372.894C273.097 371.533 272.238 374.629 265.182 377.832C257.099 381.501 248.356 381.273 241.247 377.208Z" fill="white"/>
<path d="M236.13 450.519C226.05 445.216 210.169 432.173 201.231 421.856C196.293 416.157 193.137 410.797 190.887 404.294C189.107 399.147 187.211 393.856 186.674 392.536C184.664 387.596 182.147 390.24 179.82 399.735C178.526 405.014 177.194 409.334 176.86 409.334C173.467 409.334 169.01 383.241 166.827 350.603C164.932 322.261 165.054 310.269 167.444 290.025C169.786 270.192 172.424 259.208 177.157 249.581L180.528 242.724L179.83 248.209C176.789 272.115 176.199 281.583 176.95 294.456C180.089 348.299 202.512 392.233 235.02 408.237C243.814 412.566 244.899 412.762 260.082 412.762C275.644 412.762 276.152 412.663 286.313 407.641C314.542 393.69 336.752 354.646 342.273 309.267C347.457 266.661 338.629 224.13 318.174 193.164C309.02 179.305 298.57 169.619 285.973 163.317C280.644 160.651 273.331 156.302 269.723 153.653C258.506 145.42 243.838 139.343 226.498 135.748C206.118 131.522 202.92 129.183 209.46 123.293C212.074 120.939 214.37 120.712 232.709 120.993C250.451 121.264 254.328 121.748 262.984 124.773C268.444 126.68 273.432 127.72 274.068 127.084C274.705 126.448 274.562 124.183 273.752 122.052C271.324 115.664 273.976 115.109 283.264 120.059C293.96 125.76 309.333 138.96 319.004 150.747C324.736 157.734 327.387 162.542 330.051 170.784C331.979 176.748 333.944 182.015 334.417 182.488C336.613 184.684 339.112 179.955 341.533 169.018C345.087 152.967 351.177 187.123 352.718 231.754C353.519 254.951 352.636 273.672 349.821 293.158C349.47 295.587 350.702 292.021 352.559 285.234C357.008 268.966 358.668 256.882 360.093 230.383C360.742 218.315 361.702 207.362 362.226 206.043C363.709 202.305 366.482 203.207 368.546 208.099C370.76 213.346 371.246 275.848 369.202 292.433C368.528 297.901 368.382 302.375 368.877 302.375C369.373 302.375 370.976 301.627 372.44 300.712C373.904 299.798 375.505 299.454 375.998 299.947C377.535 301.483 371.413 326.249 365.494 342.443C357.062 365.511 349.938 378.505 343.16 383.181C335.559 388.424 332.219 392.345 333.192 394.881C333.636 396.038 336.796 398.344 340.214 400.005C343.633 401.665 346.43 403.788 346.43 404.722C346.43 407.424 330.368 414.524 317.335 417.581C293.541 423.163 270.603 423.463 256.268 418.379C253.063 417.242 250.44 416.54 250.44 416.819C250.44 417.098 254.297 419.473 259.011 422.099C269.951 428.191 283.004 432.185 298.448 434.166C311.098 435.788 315.788 438.311 314.139 442.606C312.389 447.166 305.359 448.424 283.107 448.159C266.686 447.963 260.629 447.396 257.464 445.759C255.184 444.58 251.692 443.616 249.702 443.616C246.243 443.616 246.126 443.854 247.012 449.101C248.168 455.941 246.781 456.121 236.13 450.519Z" fill="white"/>
<path d="M87.2587 405.385C62.167 386.16 37.0838 366.924 12 347.689L32.7964 344.883L100.546 396.12L105.456 471.015L88.2871 495.703L87.2587 405.385Z" fill="white" fill-opacity="0.5"/>
<path d="M112.249 389.899C94.0722 375.972 75.9011 362.037 57.7295 348.102L72.7951 346.069L121.876 383.187L125.432 437.443L112.994 455.328L112.249 389.899Z" fill="white" fill-opacity="0.5"/>
<path d="M424.741 405.384C449.833 386.16 474.916 366.924 500 347.689L479.204 344.883L411.454 396.12L406.544 471.015L423.713 495.703L424.741 405.384Z" fill="white" fill-opacity="0.5"/>
<path d="M399.751 389.899C417.928 375.971 436.099 362.036 454.271 348.102L439.205 346.069L390.124 383.187L386.568 437.443L399.006 455.328L399.751 389.899Z" fill="white" fill-opacity="0.5"/>
</svg>
