<svg width="512" height="512" viewBox="0 0 512 512" fill="none" xmlns="http://www.w3.org/2000/svg">
<path d="M35.7174 436.175C62.3991 418.549 61.9709 418.802 59.1136 422.322C55.8417 426.352 20.0243 450 17.1926 450C15.8701 450 24.2063 443.779 35.7174 436.175ZM475.666 437.545C465.478 430.694 453.608 422.109 449.289 418.467C436.984 408.092 437.374 408.323 488.533 441.726C497.371 447.497 500.086 449.952 497.654 449.972C495.749 449.991 485.855 444.395 475.666 437.545ZM390.951 445.407C388.234 443.751 381.927 437.216 376.934 430.885C371.941 424.554 364.958 416.194 361.416 412.307C348.87 398.54 340.54 386.512 341.56 383.635C342.308 381.523 348.414 387.939 367.643 411.039C398.66 448.302 398.762 448.431 397.181 448.424C396.471 448.421 393.667 447.063 390.951 445.407ZM120.397 445.789C121.373 443.077 172.696 381.08 174.047 380.982C176.128 380.83 175.301 386.977 173.066 388.278C171.878 388.969 166.59 394.834 161.313 401.313C135.729 432.726 127.016 442.826 123.538 445.1C121.43 446.479 120.039 446.784 120.397 445.789ZM64.5281 435.819C65.5712 434.131 92.8792 415.615 103.764 409.216C112.366 404.158 109.7 406.57 90.2274 421.462C73.2532 434.443 61.226 441.162 64.5281 435.819ZM434.504 428.019C427.519 422.84 421.804 418.204 421.804 417.718C421.804 416.615 423.05 417.351 437.008 426.694C443.211 430.847 448.731 434.962 449.273 435.84C451.585 439.58 446.379 436.824 434.504 428.019ZM235.356 419.139C231.716 417.849 226.897 414.548 224.648 411.802C215.928 401.157 205.279 383.406 203.591 376.702C202.619 372.839 200.198 367.078 198.211 363.9C190.337 351.302 181.256 328.446 172.827 300.011C158.276 250.926 148.173 220.674 144.97 216.602C143.31 214.491 137.842 209.973 132.819 206.562C120.975 198.519 117.114 193.506 117.114 186.171C117.114 179.463 127.382 150.097 130.639 147.493C133.609 145.118 133.491 144.641 128.108 137.208C124.055 131.615 123.396 129.314 123.396 120.779C123.396 114.065 124.329 109.187 126.28 105.701C127.867 102.868 130.063 98.8635 131.161 96.8032C132.735 93.8494 133.448 93.5172 134.535 95.2327C135.384 96.5734 135.921 96.7089 135.936 95.5857C135.949 94.5835 138.725 90.2658 142.104 85.9909C148.865 77.4382 155.74 74.6346 169.952 74.6346C175.544 74.6346 176.973 74.1843 175.633 72.8445C174.586 71.7976 167.942 70.9826 159.627 70.8813C143.518 70.685 142.139 68.9904 154.667 64.7833L162.956 61.9995L180.231 66.7943C207.116 74.2566 214.934 79.1743 224.528 94.6594C229.646 102.921 234.124 103.774 232.767 96.23C232.262 93.4226 231.395 88.1771 230.841 84.5735L229.832 78.0214L235.736 80.0512C240.692 81.7549 242.687 83.9425 248.158 93.6708C251.742 100.045 255.674 105.261 256.894 105.261C258.114 105.261 262.046 100.045 265.63 93.6708C271.101 83.9425 273.096 81.7549 278.052 80.0512L283.956 78.0214L282.947 84.5735C282.393 88.1771 281.526 93.4226 281.021 96.23C279.664 103.774 284.142 102.921 289.26 94.6594C298.855 79.1743 306.672 74.2566 333.557 66.7943L350.832 61.9995L359.122 64.7833C371.649 68.9904 370.27 70.6852 354.161 70.8813C345.846 70.9824 339.202 71.7976 338.155 72.8445C336.815 74.1843 338.244 74.6346 343.836 74.6346C358.048 74.6346 364.923 77.4382 371.684 85.9909C375.063 90.2658 377.839 94.5835 377.852 95.5857C377.867 96.7087 378.404 96.5732 379.254 95.2327C380.34 93.5172 381.053 93.8494 382.627 96.8032C383.725 98.8635 385.921 102.868 387.508 105.701C392.714 114.999 391.052 134.53 384.375 142.532C382.805 144.414 382.592 145.865 383.686 147.244C386.969 151.384 396.675 180.589 396.675 186.328C396.675 193.445 390.734 201.074 380.511 207.087C376.876 209.226 372.218 212.777 370.161 214.979C366.034 219.398 357.668 243.482 343.899 290.588C339.073 307.101 332.136 326.742 328.368 334.564C324.623 342.338 321.061 350.466 320.452 352.625C319.843 354.785 318.419 357.612 317.287 358.908C316.155 360.203 313.449 366.718 311.273 373.385C307.591 384.664 298.732 400.037 289.147 411.779C286.788 414.669 282.032 417.79 277.78 419.239C268.419 422.429 244.486 422.372 235.356 419.139ZM240.132 393.993C240.703 393.422 239.584 392.164 237.645 391.198C231.669 388.219 233.388 385 241.922 383.189L249.724 381.534L233.669 374.678C224.839 370.908 217.179 368.259 216.646 368.791C215.591 369.846 222.077 381.782 228.131 389.926C231.687 394.711 237.459 396.666 240.132 393.993ZM285.657 389.926C291.711 381.782 298.197 369.846 297.142 368.791C296.61 368.259 288.949 370.908 280.119 374.678L264.064 381.534L271.866 383.189C280.4 385 282.119 388.219 276.143 391.198C272.076 393.225 273.082 395.031 278.279 395.031C280.497 395.031 283.309 393.086 285.657 389.926ZM262.277 369.945C264.486 369.105 275.134 362.672 285.938 355.651C302.075 345.163 305.582 342.211 305.582 339.116C305.582 336.811 304.665 335.349 303.22 335.349C301.235 335.349 300.881 332.16 300.997 315.324C301.074 304.311 300.755 294.239 300.29 292.944C299.825 291.648 298.672 282.46 297.727 272.526C295.972 254.08 292.505 243.304 285.643 234.97C281.588 230.046 269.341 226.832 262.172 228.811C258.927 229.707 254.861 229.707 251.616 228.811C244.447 226.832 232.2 230.046 228.145 234.97C221.283 243.304 217.816 254.08 216.061 272.526C215.116 282.46 213.963 291.648 213.498 292.944C213.033 294.239 212.715 304.311 212.791 315.324C212.908 332.16 212.553 335.349 210.568 335.349C209.123 335.349 208.206 336.811 208.206 339.116C208.206 342.212 211.719 345.166 227.892 355.678C253.18 372.113 254.803 372.787 262.277 369.945ZM239.079 354.454C228.847 351.692 225.56 349.46 225.507 345.236C225.492 344.196 227.807 342.908 230.648 342.375C237.281 341.131 286.143 342.077 287.537 343.476C288.117 344.059 288.131 345.988 287.567 347.763C285.189 355.257 256.644 359.196 239.079 354.454ZM231.765 252.842C231.765 252.381 233.494 248.593 235.606 244.424L239.448 236.843H256.894H274.34L278.182 244.424C280.294 248.593 282.023 252.381 282.023 252.842C282.023 253.303 270.715 253.68 256.894 253.68C243.073 253.68 231.765 253.303 231.765 252.842ZM206.241 228.158C212.861 221.308 214.268 216.925 212.427 208.881C210.095 198.691 211.814 194.871 221.378 188.986C229.276 184.127 230.11 183.004 234.226 171.704C238.614 159.654 241.125 157.413 241.259 165.428C241.324 169.287 241.668 169.04 245.225 162.587L249.12 155.519L247.931 165.728C246.158 180.948 246.933 189.358 250.561 194.265C255.354 200.749 254.805 204.992 249.171 204.992C245.735 204.992 243.272 203.405 239.318 198.645L234.046 192.299L229.416 197.132C223.86 202.931 225.121 206.459 233.625 208.916C236.621 209.781 241.37 212.433 244.177 214.808C248.214 218.223 250.875 219.127 256.894 219.127C262.913 219.127 265.574 218.223 269.611 214.808C272.418 212.433 277.167 209.781 280.163 208.916C288.667 206.459 289.928 202.931 284.372 197.132L279.742 192.299L274.47 198.645C265.125 209.895 254.68 205.826 263.227 194.265C266.855 189.358 267.63 180.948 265.857 165.728L264.668 155.519L268.563 162.587C272.12 169.04 272.464 169.287 272.529 165.428C272.663 157.413 275.174 159.654 279.562 171.704C283.678 183.004 284.512 184.127 292.41 188.986C301.998 194.885 303.694 198.686 301.336 208.99C299.458 217.195 301.4 222.556 308.706 229.336C313.612 233.889 313.843 233.943 315.572 230.944C319.083 224.854 327.145 217.725 331.639 216.737C334.152 216.185 342.568 212.671 350.343 208.928C358.117 205.185 367.305 201.651 370.76 201.074C378.087 199.851 383.568 195.329 384.862 189.437C385.366 187.145 384.034 177.21 381.904 167.359C379.049 154.158 378.107 145.41 378.321 134.097C378.599 119.508 378.457 118.777 375.472 119.378C373.744 119.726 368.998 120.441 364.925 120.969C357.823 121.889 357.483 122.166 356.631 127.73C353.52 148.032 350.134 152.749 333.34 160.176C325.335 163.716 324.247 163.824 315.235 161.967C302.914 159.428 299.778 156.454 297.428 145.08C296.384 140.024 294.721 135.887 293.732 135.887C292.743 135.887 290.654 134.473 289.091 132.746C287.527 131.018 284.986 129.605 283.443 129.605C281.9 129.605 280.201 128.898 279.667 128.034C277.564 124.631 275.741 126.767 275.741 132.632C275.741 137.404 274.817 139.527 271.659 142.011C267.909 144.961 267.141 145.041 262.235 142.991C257.62 141.062 256.168 141.062 251.553 142.991C246.647 145.041 245.879 144.961 242.129 142.011C238.972 139.527 238.047 137.404 238.047 132.632C238.047 126.767 236.224 124.631 234.121 128.034C233.587 128.898 231.888 129.605 230.345 129.605C228.802 129.605 226.261 131.018 224.697 132.746C223.134 134.473 221.046 135.887 220.056 135.887C219.068 135.887 217.404 140.024 216.36 145.08C214.01 156.454 210.874 159.428 198.553 161.967C189.542 163.824 188.453 163.716 180.448 160.176C163.654 152.749 160.268 148.032 157.157 127.73C156.305 122.166 155.965 121.889 148.863 120.969C144.79 120.441 140.044 119.726 138.316 119.379C135.319 118.778 135.174 119.592 135.155 137.134C135.139 150.953 134.235 159.191 131.515 170.302C129.435 178.796 128.324 186.813 128.903 189.148C130.527 195.695 135.747 200.056 143.321 201.192C147.134 201.763 156.319 205.326 163.732 209.109C171.145 212.891 178.353 215.989 179.751 215.992C184.178 215.999 192.505 222.096 195.858 227.779C197.638 230.795 199.592 233.262 200.201 233.262C200.81 233.262 203.528 230.965 206.241 228.158ZM220.771 118.56C220.771 117.668 217.533 112.024 213.575 106.016C205.247 93.3748 194.636 83.436 186.656 80.8025C179.268 78.3642 160.12 79.6912 153.56 83.096C145.666 87.1933 138.907 99.7639 144.598 99.7639C145.894 99.7639 146.954 100.743 146.954 101.939C146.954 103.642 149.086 103.948 156.77 103.348C168.683 102.419 186.013 106.452 204.28 114.403C217.893 120.328 220.771 121.054 220.771 118.56ZM310.253 113.992C330.035 105.88 346.034 102.292 357.7 103.35C364.891 104.002 366.834 103.708 366.834 101.971C366.834 100.757 367.894 99.7639 369.19 99.7639C374.881 99.7639 368.122 87.1933 360.228 83.096C353.668 79.6912 334.52 78.3642 327.132 80.8025C319.152 83.436 308.541 93.3748 300.213 106.016C293.347 116.437 291.729 120.181 294.088 120.181C294.677 120.181 301.951 117.396 310.253 113.992ZM222.342 99.7639C221.338 97.8883 220.163 96.7072 219.731 97.1391C219.299 97.5709 219.765 99.4589 220.771 101.334C221.775 103.21 222.949 104.391 223.381 103.959C223.813 103.528 223.347 101.64 222.342 99.7639ZM294.588 97.593C294.588 96.7292 293.55 97.3945 292.282 99.0711C291.014 100.748 289.976 102.827 289.976 103.69C289.976 104.554 291.014 103.889 292.282 102.212C293.55 100.535 294.588 98.4568 294.588 97.593ZM77.8807 409.739C77.9203 408.017 160.951 353.534 161.975 354.558C163.965 356.548 159.861 360.34 148.057 367.419C135.497 374.952 88.9286 403.838 81.5469 408.675C79.5133 410.007 77.8635 410.486 77.8807 409.739ZM421.018 401.634C413.244 396.647 395.045 385.287 380.576 376.387C360.908 364.29 354.269 359.424 354.269 357.108C354.269 355.041 354.922 354.407 356.233 355.203C363.562 359.653 437.02 408.102 438.216 409.274C439.151 410.19 438.858 410.729 437.431 410.718C436.178 410.71 428.793 406.62 421.018 401.634ZM32.3029 384.816C32.3029 383.659 98.9594 350.544 115.758 343.356C123.846 339.895 134.351 334.997 139.101 332.47C143.852 329.944 149.74 327.41 152.184 326.84C156.259 325.889 156.537 326.102 155.528 329.398C154.922 331.375 153.88 334.01 153.212 335.252C152.543 336.494 128.069 347.137 98.8244 358.904C29.6986 386.717 32.3029 385.703 32.3029 384.816ZM419.198 360.16C373.803 341.95 363.673 337.34 362.264 334.249C358.459 325.896 362.034 325.34 374.687 332.316C379.438 334.936 389.946 339.908 398.038 343.367C414.754 350.511 478.383 382.295 475.988 382.305C475.124 382.308 449.569 372.343 419.198 360.16ZM124.557 322.566C126.813 320.31 140.965 316.589 142.912 317.74C143.712 318.213 139.825 319.87 134.274 321.423C122.119 324.821 122.326 324.797 124.557 322.566ZM380.443 321.707C376.267 320.43 373.23 319.006 373.695 318.541C375.069 317.167 384.886 319.495 388.156 321.969C391.853 324.766 390.276 324.713 380.443 321.707ZM22.4239 296.763C29.6734 293.59 136.449 292.103 138.969 295.14C141.526 298.22 122.941 299.227 66.0701 299.088C22.8466 298.983 17.9483 298.722 22.4239 296.763ZM376.257 297.848C376.257 293.657 382.031 293.252 433.149 293.851C474.598 294.336 487.233 294.96 491.26 296.721C495.847 298.725 489.882 298.984 436.331 299.098C402.82 299.17 376.257 298.617 376.257 297.848ZM132.605 267.077C130.895 265.367 80.8357 245.029 32.3029 226.327C17.2106 220.511 10.5632 216.785 12.2582 215.09C12.7689 214.579 35.6869 222.413 63.187 232.499C90.6871 242.585 117.299 252.264 122.325 254.009C129.117 256.367 131.853 258.205 132.978 261.165C134.521 265.224 134.297 268.769 132.605 267.077ZM382.539 263.403C382.539 259.361 391.144 255.453 435.153 239.512C461.932 229.812 487.29 220.525 491.505 218.873C495.721 217.222 499.497 216.198 499.897 216.598C501.026 217.727 492.966 221.498 474.279 228.586C448.093 238.518 407.108 254.928 395.649 260.07C384.883 264.9 382.539 265.496 382.539 263.403Z" fill="white"/>
</svg>
