<svg width="512" height="512" viewBox="0 0 512 512" fill="none" xmlns="http://www.w3.org/2000/svg">
<path d="M302.705 497.715C300.087 495.801 299.137 491.458 297.812 475.361C296.563 460.195 295.399 454.558 292.979 451.96C291.225 450.077 288.386 445.425 286.671 441.62C284.885 437.66 280.622 432.764 276.697 430.167C271.144 426.492 269.843 424.569 269.843 420.038C269.843 415.721 268.023 412.7 261.871 406.805C257.007 402.145 253.898 397.598 253.898 395.145C253.898 391.277 242.132 374.091 229.024 358.813C225.575 354.793 220.871 347.665 218.571 342.973C212.068 329.704 200.595 310.137 196.206 304.833C194.019 302.189 191.939 299.154 191.584 298.088C190.537 294.947 185.75 297.817 182.302 303.654C179.991 307.566 178.563 308.536 177.169 307.142C170.741 300.713 169.904 313.933 175.265 337.225C177.648 347.579 181.117 371.802 181.391 379.994C181.446 381.662 180.307 385.648 178.86 388.852C177.412 392.056 175.675 396.671 174.998 399.107C173.133 405.82 167.052 411.508 161.739 411.508C153.396 411.508 147.147 401.247 147.282 387.769C147.372 378.717 138.674 349.677 134.227 344.186C133.043 342.725 131.517 339.536 130.836 337.1C130.155 334.664 128.18 329.482 126.446 325.584C124.712 321.687 121.124 311.92 118.471 303.882L113.648 289.266H107.016C96.9271 289.266 92.1354 283.185 91.2656 269.278C90.6011 258.653 91.7359 254.166 100.661 232.131C101.746 229.453 100.838 229.03 94.0129 229.03C87.6834 229.03 84.9104 227.949 80.0932 223.601C68.9755 213.568 44.4822 198.789 40.8704 199.935C36.271 201.395 31.0598 196.377 26.0097 185.625C20.4676 173.826 20.6374 167.963 26.6864 162.262C32.3279 156.945 44.9254 148.896 59.4554 141.324C65.0548 138.407 69.6389 135.076 69.6423 133.923C69.6457 132.769 71.8409 131.573 74.5205 131.265C77.2001 130.957 79.261 129.907 79.1002 128.933C78.5338 125.499 82.5465 122.732 88.0916 122.732C91.7425 122.732 95.8398 120.903 99.8332 117.489C103.207 114.606 107.017 112.214 108.301 112.174C109.738 112.129 110.243 110.869 109.616 108.891C108.797 106.313 110.579 104.858 118.644 101.515C133.729 95.2628 134.998 93.4293 133.882 79.5161C132.603 63.5822 136.776 50.412 145.534 42.7423C150.548 38.3509 152.433 35.0061 153.801 28.0728C155.553 19.1889 155.65 19.0859 162.715 18.5658C171.661 17.9072 177.866 23.5751 178.094 32.6129C178.189 36.3913 180.666 42.1621 184.849 48.348C190.948 57.3664 191.446 59.0581 191.339 70.3822C191.276 77.1284 191.972 82.9085 192.886 83.227C193.801 83.5453 200.252 86.9684 207.222 90.8336C217.385 96.469 220.85 99.5352 224.71 106.311C231.352 117.97 235.889 134.741 236.527 149.994C236.756 155.463 237.623 159.936 238.453 159.936C239.284 159.936 239.439 161.589 238.798 163.61C238.007 166.102 238.681 168.078 240.893 169.754C243.13 171.449 243.395 172.243 241.738 172.282C239.218 172.34 239.353 174.007 243.18 190.054C249.466 216.407 249.432 228.765 243.052 236.875C241.036 239.438 239.865 242.783 240.45 244.308C241.122 246.06 239.435 249.022 235.867 252.356L230.22 257.631L233.56 267.69C235.398 273.223 237.462 278.946 238.147 280.408C238.833 281.869 240.297 286.453 241.402 290.594C242.507 294.736 244.101 298.124 244.945 298.124C245.789 298.124 246.063 299.717 245.554 301.664C245.045 303.611 245.807 307.004 247.248 309.203C248.808 311.583 249.527 315.529 249.025 318.951C247.834 327.062 254.351 339.383 266.682 352.332C283.133 369.607 291.061 380.285 292.05 386.497C293.316 394.445 297.591 404.422 299.731 404.422C300.61 404.422 301.819 406.814 302.417 409.737C303.015 412.66 303.986 417.395 304.575 420.26C305.164 423.124 307.157 426.835 309.004 428.507C310.851 430.178 312.362 433.032 312.362 434.849C312.362 436.667 314.513 441.526 317.142 445.647C327.791 462.345 333.622 477.345 333.622 488.043C333.622 494.257 333 495.216 327.478 497.523C319.772 500.742 306.981 500.841 302.705 497.715ZM221.245 213.996C220.607 210.599 217.443 202.029 214.213 194.951C210.982 187.873 207.337 179.69 206.113 176.767C204.083 171.922 203.77 171.765 202.57 174.995C201.846 176.944 200.844 182.287 200.343 186.869C199.462 194.926 199.652 195.344 206.133 199.634C210.773 202.704 213.218 205.864 214.083 209.906C216.421 220.838 223.261 224.744 221.245 213.996ZM122.797 178.716C122.797 162.818 117.688 156.393 105.045 156.393C101.022 156.393 87.5473 161.331 82.2084 164.762C81.8084 165.019 82.8049 166.692 84.4229 168.48C86.041 170.268 87.3648 172.966 87.3648 174.475C87.3648 179.183 91.7101 181.477 96.8933 179.506C101.069 177.919 101.538 178.151 101.538 181.807C101.538 184.043 104.426 189.247 107.955 193.371L114.373 200.868L118.585 194.669C121.76 189.997 122.797 186.068 122.797 178.716Z" fill="white"/>
<path d="M209.295 491.201C211.912 489.287 212.863 484.944 214.188 468.847C215.436 453.681 216.6 448.044 219.021 445.446C220.775 443.563 223.613 438.911 225.329 435.106C227.114 431.146 231.378 426.25 235.302 423.653C240.855 419.979 242.156 418.055 242.156 413.524C242.156 409.207 243.976 406.186 250.129 400.292C254.992 395.631 258.101 391.085 258.101 388.631C258.101 384.763 269.868 367.577 282.975 352.3C286.425 348.279 291.129 341.151 293.428 336.459C299.931 323.19 311.405 303.623 315.793 298.319C317.98 295.675 320.06 292.64 320.416 291.574C321.463 288.433 326.25 291.303 329.698 297.14C332.008 301.052 333.436 302.022 334.83 300.628C341.259 294.199 342.095 307.419 336.734 330.711C334.351 341.065 330.882 365.288 330.609 373.48C330.553 375.148 331.692 379.135 333.139 382.339C334.587 385.542 336.325 390.157 337.002 392.593C338.866 399.306 344.948 404.994 350.26 404.994C358.603 404.994 364.852 394.733 364.718 381.255C364.627 372.203 373.326 343.163 377.773 337.672C378.956 336.211 380.482 333.022 381.163 330.586C381.844 328.15 383.82 322.968 385.553 319.07C387.287 315.173 390.876 305.407 393.528 297.368L398.351 282.752H404.983C415.072 282.752 419.864 276.671 420.734 262.764C421.398 252.139 420.264 247.653 411.338 225.617C410.254 222.94 411.161 222.516 417.987 222.516C424.316 222.516 427.089 221.435 431.906 217.087C443.024 207.054 467.517 192.275 471.129 193.421C475.728 194.881 480.94 189.863 485.99 179.111C491.532 167.312 491.362 161.449 485.313 155.748C479.672 150.431 467.074 142.382 452.544 134.811C446.945 131.893 442.361 128.562 442.357 127.409C442.354 126.255 440.159 125.06 437.479 124.751C434.799 124.443 432.739 123.393 432.899 122.419C433.466 118.986 429.453 116.218 423.908 116.218C420.257 116.218 416.16 114.389 412.166 110.975C408.793 108.092 404.982 105.7 403.699 105.66C402.261 105.615 401.756 104.355 402.384 102.377C403.202 99.7992 401.421 98.3439 393.356 95.0013C378.271 88.7489 377.001 86.9154 378.118 73.0022C379.397 57.0683 375.224 43.8981 366.466 36.2284C361.451 31.837 359.566 28.4922 358.198 21.5589C356.446 12.675 356.349 12.572 349.284 12.0518C340.339 11.3932 334.134 17.0612 333.906 26.099C333.81 29.8774 331.333 35.6482 327.15 41.8341C321.052 50.8525 320.554 52.5442 320.66 63.8683C320.723 70.6145 320.027 76.3947 319.113 76.7131C318.199 77.0315 311.748 80.4544 304.777 84.3197C294.614 89.9551 291.15 93.0213 287.29 99.7967C280.648 111.457 276.111 128.227 275.473 143.48C275.244 148.949 274.377 153.423 273.546 153.423C272.715 153.423 272.56 155.076 273.202 157.096C273.992 159.588 273.319 161.564 271.106 163.24C268.87 164.935 268.604 165.729 270.261 165.768C272.782 165.826 272.647 167.493 268.819 183.54C262.534 209.893 262.568 222.251 268.947 230.361C270.964 232.924 272.135 236.269 271.55 237.794C270.877 239.546 272.564 242.508 276.133 245.842L281.78 251.117L278.439 261.177C276.602 266.709 274.538 272.432 273.852 273.894C273.167 275.355 271.702 279.939 270.598 284.08C269.493 288.222 267.898 291.61 267.054 291.61C266.21 291.61 265.936 293.203 266.445 295.15C266.955 297.097 266.192 300.49 264.751 302.689C263.192 305.069 262.473 309.015 262.975 312.437C264.165 320.549 257.648 332.869 245.317 345.818C228.867 363.093 220.938 373.771 219.949 379.983C218.683 387.931 214.409 397.908 212.269 397.908C211.389 397.908 210.18 400.3 209.583 403.223C208.985 406.146 208.014 410.881 207.424 413.746C206.835 416.61 204.842 420.321 202.995 421.993C201.149 423.664 199.637 426.518 199.637 428.335C199.637 430.153 197.487 435.012 194.858 439.134C184.208 455.831 178.378 470.831 178.378 481.529C178.378 487.743 178.999 488.702 184.522 491.009C192.227 494.228 205.019 494.328 209.295 491.201ZM290.755 207.482C291.392 204.085 294.557 195.515 297.787 188.437C301.017 181.359 304.662 173.176 305.887 170.253C307.916 165.408 308.229 165.251 309.429 168.481C310.153 170.43 311.155 175.773 311.656 180.355C312.538 188.412 312.348 188.83 305.866 193.12C301.226 196.19 298.781 199.35 297.917 203.392C295.578 214.324 288.739 218.23 290.755 207.482ZM389.202 172.202C389.202 156.304 394.311 149.879 406.954 149.879C410.977 149.879 424.452 154.817 429.791 158.248C430.191 158.505 429.195 160.179 427.577 161.966C425.959 163.754 424.635 166.452 424.635 167.961C424.635 172.669 420.289 174.963 415.106 172.992C410.931 171.405 410.462 171.637 410.462 175.293C410.462 177.529 407.574 182.733 404.044 186.857L397.626 194.354L393.414 188.155C390.24 183.484 389.202 179.554 389.202 172.202Z" fill="url(#paint0_linear_219_7905)"/>
<defs>
<linearGradient id="paint0_linear_219_7905" x1="352.866" y1="15.171" x2="209.295" y2="491.201" gradientUnits="userSpaceOnUse">
<stop stop-color="white" stop-opacity="0.501961"/>
<stop offset="1" stop-color="white" stop-opacity="0"/>
</linearGradient>
</defs>
</svg>
