<?xml version="1.0" encoding="UTF-8" standalone="no"?>
<!-- Created with Inkscape (http://www.inkscape.org/) -->
<svg width="601.33197" height="162.563" viewBox="0 0 159.1022 43.011449" version="1.1" id="svg862" inkscape:version="1.2.2 (732a01da63, 2022-12-09)" sodipodi:docname="Nemesis.svg" xmlns:inkscape="http://www.inkscape.org/namespaces/inkscape" xmlns:sodipodi="http://sodipodi.sourceforge.net/DTD/sodipodi-0.dtd" xmlns="http://www.w3.org/2000/svg" xmlns:svg="http://www.w3.org/2000/svg" xmlns:rdf="http://www.w3.org/1999/02/22-rdf-syntax-ns#" xmlns:cc="http://creativecommons.org/ns#" xmlns:dc="http://purl.org/dc/elements/1.1/">
  <title id="title1933">Nemesis</title>
  <sodipodi:namedview id="namedview864" pagecolor="#3b3e37" bordercolor="#666666" borderopacity="1.0" inkscape:pageshadow="2" inkscape:pageopacity="0" inkscape:pagecheckerboard="true" inkscape:document-units="px" showgrid="false" units="px" inkscape:zoom="2" inkscape:cx="203.5" inkscape:cy="127.5" inkscape:window-width="2560" inkscape:window-height="1387" inkscape:window-x="-8" inkscape:window-y="-8" inkscape:window-maximized="1" inkscape:current-layer="layer2" inkscape:snap-global="true" inkscape:showpageshadow="0" inkscape:deskcolor="#3b3e37"/>
  <defs id="defs859"/>
  <g inkscape:groupmode="layer" id="layer2" inkscape:label="Tracing" style="display:inline" transform="translate(-5.9520899,-4.6074703)">
    <path id="path1734" style="color:#000000;fill:#000000;fill-opacity:1;stroke-width:0.0264583;stroke-dasharray:none" d="m 108.87434,7.1962648 -1.25935,2.2200194 -2.97604,0.5984128 v 1.602487 h 0.002 v 1.292427 l 0.75395,-0.811837 h 4.07055 V 9.5253216 h 1.59732 v 2.5724524 h 6.54689 l 2.70887,2.503724 v 0.565857 c 0.4713,-0.0012 0.66656,-0.002 1.34411,-0.0031 0.62237,-0.001 1.24938,-0.0029 1.73219,-0.0021 0.2414,3.97e-4 0.44705,9.3e-4 0.5979,0.0021 0.0754,5.82e-4 0.13665,0.0012 0.18345,0.0021 0.0139,2.45e-4 0.0223,2.24e-4 0.032,5.17e-4 l -0.003,-0.65319 -0.005,-0.03514 h -0.66507 l -0.96222,-0.962732 h -2.47375 l -2.44016,-2.099614 h -3.14916 v -1.212363 l -0.50297,-0.126091 -1.33842,-2.8814772 z M 25.49288,8.9284586 v 3.2432134 l -0.960665,0.0078 -0.306958,0.370003 v 0.425297 l -0.22841,0.487826 v 0.34675 l -0.866097,0.519348 v 7.683252 h 3.3538 c 0.208154,0.0799 0.470655,0.136477 0.412378,0.318844 l 0.03617,3.101619 -0.133842,0.281637 1.755448,0.0015 0.0155,-7.077087 c 0.0893,-0.384397 0.371555,-0.381926 0.638204,-0.36587 l 38.148058,-0.0078 c 0.42744,0.07931 0.549442,0.349548 0.756026,0.566891 l 3.325378,6.927225 h 0.0155 v -0.0186 h 7.619688 V 23.20149 H 73.188676 L 72.782498,22.769475 68.957409,14.494011 H 56.324589 L 55.931331,13.997917 H 34.923312 l -0.346233,-0.0155 v -0.56689 H 33.36475 l -0.299206,-0.267684 h -0.487826 l -4.6762,-4.2193814 z m 84.23826,0.8609296 v 2.3083858 h 1.06815 V 9.7893882 Z M 70.878223,10.75212 c -0.132837,0 -0.239779,0.106942 -0.239779,0.239779 0,0.132837 0.106942,0.239778 0.239779,0.239778 h 0.317294 v 0.339515 c 0,0.09541 0.07719,0.172082 0.172598,0.172082 h 0.250632 c 0.09541,0 0.172082,-0.07667 0.172082,-0.172082 v -0.339515 h 0.393774 c 0.132834,0 0.239779,-0.106941 0.239779,-0.239778 0,-0.132837 -0.106945,-0.239779 -0.239779,-0.239779 z m -7.568531,0.0057 c -0.132836,0 -0.239778,0.106942 -0.239778,0.239779 0,0.132837 0.106942,0.239778 0.239778,0.239778 h 0.317294 v 0.339515 c 0,0.09541 0.07719,0.172082 0.172598,0.172082 h 0.250632 c 0.09541,0 0.172082,-0.07667 0.172082,-0.172082 v -0.33951 h 0.393775 c 0.132836,0 0.239778,-0.106942 0.239778,-0.239779 0,-0.132837 -0.106942,-0.239779 -0.239778,-0.239779 z m 11.211203,0.01189 c -0.132837,0 -0.239779,0.106942 -0.239779,0.239779 0,0.132837 0.106942,0.239779 0.239779,0.239779 h 0.317291 v 0.339518 c 0,0.09541 0.07719,0.172082 0.172601,0.172082 h 0.250629 c 0.09541,0 0.172083,-0.07667 0.172083,-0.172082 v -0.339515 h 0.393776 c 0.132834,0 0.239779,-0.106941 0.239779,-0.239778 0,-0.132838 -0.106945,-0.239779 -0.239779,-0.239779 z m 15.098302,0.0067 c -0.132836,0 -0.239778,0.106942 -0.239778,0.239779 0,0.132837 0.106942,0.239779 0.239778,0.239779 h 0.317294 v 0.339516 c 0,0.09541 0.07719,0.172082 0.172598,0.172082 h 0.250632 c 0.09541,0 0.172082,-0.07667 0.172082,-0.172082 v -0.339515 h 0.393774 c 0.132837,0 0.239779,-0.106941 0.239779,-0.239779 0,-0.132837 -0.106942,-0.239778 -0.239779,-0.239778 z m 3.695899,0.01499 c -0.132837,0 -0.239779,0.106942 -0.239779,0.239779 0,0.132837 0.106942,0.239779 0.239779,0.239779 h 0.317293 v 0.339516 c 0,0.09541 0.07719,0.172082 0.172599,0.172082 h 0.250631 c 0.09541,0 0.172083,-0.07667 0.172083,-0.172082 v -0.339515 h 0.393774 c 0.132837,0 0.239778,-0.106941 0.239778,-0.239778 0,-0.132837 -0.106941,-0.239779 -0.239778,-0.239779 z m -26.313641,0.0077 c -0.127039,0.0064 -0.227375,0.111093 -0.227375,0.239779 0,0.132837 0.106942,0.239779 0.239779,0.239779 h 0.317294 v 0.339514 c 0,0.09541 0.07719,0.172082 0.172598,0.172082 h 0.250632 c 0.09541,0 0.172082,-0.07667 0.172082,-0.172082 v -0.339511 h 0.393774 c 0.132837,0 0.239779,-0.106942 0.239779,-0.239779 0,-0.132837 -0.106942,-0.239778 -0.239779,-0.239778 h -1.30638 c -0.0042,0 -0.0083,-2.07e-4 -0.0124,0 z m 11.272182,0 c -0.12704,0.0064 -0.227378,0.111093 -0.227378,0.239779 0,0.132837 0.106944,0.239779 0.239779,0.239779 h 0.317293 v 0.339514 c 0,0.09541 0.07719,0.172082 0.172601,0.172082 h 0.250629 c 0.09541,0 0.172083,-0.07667 0.172083,-0.172082 v -0.339511 h 0.393774 c 0.132836,0 0.239778,-0.106942 0.239778,-0.239779 0,-0.132837 -0.106942,-0.239778 -0.239778,-0.239778 h -1.30638 c -0.0042,0 -0.0083,-2.07e-4 -0.0124,0 z m 18.877917,0.0088 c -0.132837,0 -0.239779,0.106942 -0.239779,0.239779 0,0.132837 0.106942,0.239779 0.239779,0.239779 h 0.317294 v 0.339514 c 0,0.09541 0.07719,0.172082 0.172598,0.172082 h 0.250632 c 0.09541,0 0.172082,-0.07667 0.172082,-0.172082 v -0.339506 h 0.393774 c 0.132837,0 0.239779,-0.106942 0.239779,-0.239779 0,-0.132837 -0.106942,-0.239778 -0.239779,-0.239778 z m 3.745506,0.0083 c -0.13283,0 -0.23978,0.106942 -0.23978,0.239779 0,0.132837 0.10695,0.239779 0.23978,0.239779 h 0.3173 v 0.339514 c 0,0.09541 0.0772,0.172082 0.17259,0.172082 h 0.25064 c 0.0954,0 0.17208,-0.07667 0.17208,-0.172082 v -0.339508 h 0.39377 c 0.13284,0 0.23978,-0.106942 0.23978,-0.239779 0,-0.132837 -0.10694,-0.239778 -0.23978,-0.239778 z m -18.993671,0.221182 v 0.537952 h 0.187584 c -2.91e-4,0.0058 -5.16e-4,0.0117 -5.16e-4,0.01757 v 0.871264 c 0,0.187874 0.151125,0.338998 0.338998,0.338998 h 4.571815 c 0.187872,0 0.339513,-0.151124 0.339513,-0.338998 v -0.871264 c 0,-0.0059 -2.25e-4,-0.01177 -5.16e-4,-0.01757 h 0.228409 v -0.537952 z m -24.779366,0.04806 -0.976167,1.543059 v 0.199988 c 1.313719,-0.01657 12.952637,-0.01601 24.33598,-0.01189 0.493384,1.79e-4 0.951667,3.05e-4 1.443323,5.16e-4 -0.0027,-0.01619 -0.01809,-0.02642 -0.01809,-0.04341 v -1.075897 c 0,-0.01174 0.01108,-0.01859 0.0124,-0.02997 h -2.350243 c 0.0011,0.0102 0.0016,0.02054 0.0016,0.03101 v 0.232544 c 0,0.178543 -0.144005,0.321944 -0.322461,0.321944 h -0.665078 c -0.178554,0 -0.321942,-0.143401 -0.321942,-0.321944 v -0.232545 c 0,-0.01046 4.92e-4,-0.0208 0.0015,-0.03101 H 75.81745 c 0.0011,0.0102 0.0016,0.02054 0.0016,0.03101 v 0.232544 c 0,0.178544 -0.144005,0.321945 -0.322461,0.321945 h -0.665078 c -0.178554,0 -0.321942,-0.143401 -0.321942,-0.321945 v -0.232544 c 0,-0.01046 4.92e-4,-0.0208 0.0016,-0.03101 h -2.447395 c 0.0011,0.0102 0.0016,0.02054 0.0016,0.03101 v 0.232544 c 0,0.178544 -0.144005,0.321945 -0.322461,0.321945 h -0.665078 c -0.178554,0 -0.321942,-0.143401 -0.321942,-0.321945 v -0.232544 c 0,-0.01046 4.92e-4,-0.0208 0.0015,-0.03101 h -2.447395 c 0.0011,0.0102 0.0015,0.02054 0.0015,0.03101 v 0.232544 c 0,0.178544 -0.143907,0.321945 -0.322461,0.321945 h -0.665078 c -0.178554,0 -0.321942,-0.143401 -0.321942,-0.321945 v -0.232544 c 0,-0.01046 0.0021,-0.0208 0.0031,-0.03101 h -2.447438 c 0.0011,0.0102 0.0026,0.02054 0.0026,0.03101 v 0.232544 c 0,0.178544 -0.143912,0.321945 -0.322461,0.321945 h -0.665075 c -0.178554,0 -0.321945,-0.143401 -0.321945,-0.321945 v -0.232544 c 0,-0.01046 4.92e-4,-0.0208 0.0016,-0.03101 h -2.22112 v -0.582395 z m 26.007197,0.525033 a 0.38002387,0.38002387 0 0 1 0.379822,0.379821 0.38002387,0.38002387 0 0 1 -0.379822,0.379822 0.38002387,0.38002387 0 0 1 -0.380339,-0.379822 0.38002387,0.38002387 0 0 1 0.380339,-0.379821 z m 2.782776,0 a 0.38002387,0.38002387 0 0 1 0.379823,0.379821 0.38002387,0.38002387 0 0 1 -0.379823,0.379822 0.38002387,0.38002387 0 0 1 -0.37982,-0.379822 0.38002387,0.38002387 0 0 1 0.37982,-0.379821 z m 1.607653,0.05736 c 0.0013,0.01138 0.01292,0.01823 0.01292,0.02997 v 1.075903 c 0,0.01799 -0.01659,0.0289 -0.01964,0.04599 8.548002,0.0041 15.565451,0.0088 15.565451,0.0088 0.002,1.930347 0.002,3.861011 0.002,5.791378 0.36839,-0.15341 0.7452,-0.285744 1.12862,-0.396358 l 0.63975,-1.19786 h 0.90588 l -0.0124,-0.408244 2.70061,0.0041 -0.004,0.404109 h 0.56793 l 0.87849,1.190625 c 4.45298,1.277068 7.54719,5.315826 7.62124,9.947713 h 0.92605 v -3.879309 h 3.34501 l 0.35812,-0.208256 v -0.576193 l 1.17202,-1.132747 h 3.17552 l -0.56638,-0.652673 V 20.53553 h -1.97817 l -0.34985,-0.33228 v -0.449086 h -4.64054 l -5.43947,-4.283459 h -4.21576 v 0.61805 l -0.35243,0.301273 -2.92178,0.01447 -0.39739,-0.315743 v -0.467672 h -1.47391 v -0.525549 c -0.0295,-0.0077 -0.0757,-0.01975 -0.12919,-0.03462 -0.0384,-0.01067 -0.0741,-0.02109 -0.10336,-0.03152 -0.007,-0.0026 -0.0135,-0.0062 -0.0217,-0.0098 -0.004,-0.0018 -0.01,-0.0025 -0.0155,-0.0057 -0.006,-0.0031 -0.0226,-0.017 -0.0233,-0.01757 -2.6e-4,-2.91e-4 -0.0236,-0.02352 -0.0238,-0.02377 -9e-5,-1.26e-4 -0.0134,-0.02314 -0.0134,-0.02326 -10e-5,-1.18e-4 -0.01,-0.0371 -0.01,-0.03721 0,-1.1e-4 0.002,-0.05054 0.002,-0.05064 3e-5,-1.02e-4 0.0211,-0.04486 0.0212,-0.04496 1.1e-4,-2e-5 0.004,-0.0036 0.006,-0.0057 0.002,-0.01996 0.004,-0.04737 0.006,-0.0863 0.003,-0.09207 5.4e-4,-0.220512 -0.004,-0.349333 -0.008,-0.257647 -0.0238,-0.517798 -0.0238,-0.517798 l -0.004,-0.05633 0.61134,-0.658358 v -1.47483 h -2.24896 c 0.001,0.0102 0.002,0.02054 0.002,0.03101 v 0.232544 c 0,0.178541 -0.1439,0.321945 -0.32246,0.321945 h -0.66507 c -0.17856,0 -0.32195,-0.143404 -0.32195,-0.321945 v -0.232544 c 0,-0.01046 4.9e-4,-0.0208 0.002,-0.03101 h -2.447395 c 0.0011,0.0102 0.0016,0.02054 0.0016,0.03101 v 0.232544 c 0,0.178541 -0.143907,0.321945 -0.322461,0.321945 h -0.665075 c -0.178554,0 -0.321945,-0.143404 -0.321945,-0.321945 v -0.232544 c 0,-0.01046 4.92e-4,-0.0208 0.0016,-0.03101 h -2.447396 c 0.0011,0.0102 0.0021,0.02054 0.0021,0.03101 v 0.232544 c 0,0.178541 -0.143907,0.321945 -0.322461,0.321945 h -0.665075 c -0.178554,0 -0.321945,-0.143404 -0.321945,-0.321945 v -0.232544 c 0,-0.01046 0.0021,-0.0208 0.0031,-0.03101 h -2.447396 c 0.0011,0.0102 0.0031,0.02054 0.0031,0.03101 v 0.232544 c 0,0.178541 -0.143915,0.321945 -0.322461,0.321945 h -0.665075 c -0.178555,0 -0.321945,-0.143404 -0.321945,-0.321945 v -0.232544 c 0,-0.01046 0.0015,-0.0208 0.0026,-0.03101 z m 17.988561,0.693497 -1.42782,1.537375 c 0.003,0.04764 0.0157,0.233824 0.0232,0.468705 0.004,0.131619 0.005,0.262095 0.002,0.365352 -0.001,0.02994 -0.004,0.05276 -0.006,0.07803 0.0392,0.01071 0.0793,0.02026 0.10749,0.02687 h 1.41335 v -1.520317 l 0.32711,-0.303858 3.12539,0.0021 0.2191,0.30179 v 0.301791 h 4.70618 l 5.25961,4.464841 h 4.32997 v -0.0041 l 0.005,0.0041 h 0.014 c 1e-4,0 0.0723,0.01959 0.0724,0.01964 1e-4,4e-5 0.0309,0.02937 0.031,0.02946 10e-5,1.7e-4 0.0195,0.03274 0.0196,0.03307 0,6.88e-4 0.007,0.01806 0.008,0.02325 0.001,0.0072 0.002,0.01171 0.003,0.01654 l 0.11266,0.09302 v 1.791105 l 0.18965,0.181384 h 9.66763 l 0.23874,-0.238228 V 15.0842 h 0.23513 l 0.0129,-0.04703 3.39824,0.931726 h 15.00787 v -1.419551 l -16.14785,-0.315226 -0.0682,0.323494 -0.3421,0.0036 -0.22118,-0.358117 -1.10226,0.0062 -0.18706,-0.242879 h -8.7943 c 4e-5,0.199825 -5e-4,0.416556 -0.001,0.609265 h 0.21704 l 5.2e-4,5.16e-4 h 6.7324 l 0.30851,0.337964 v 2.414323 l -0.34985,0.435116 h -6.91586 v -0.26355 h 6.78925 l 0.21084,-0.265617 v -2.216919 l -0.1602,-0.1757 h -6.61509 l -5.2e-4,5.17e-4 h -0.21756 l -0.0109,3.683496 -0.49196,0.384473 h -0.67593 l -0.33951,-0.335897 -0.0119,-2.770374 c -0.0131,-3.44e-4 -0.0292,-7.16e-4 -0.047,-10e-4 -0.0431,-7.94e-4 -0.10305,-0.0015 -0.17725,-0.0021 -0.14848,-0.0011 -0.35303,-0.0037 -0.59377,-0.0041 -0.48147,-6.88e-4 -1.10863,0.0011 -1.73064,0.0021 -1.24397,0.0021 -2.46703,0.0062 -2.46703,0.0062 l -0.001,-0.239779 -3.65042,-3.203939 z m 10.4345,0 3.2489,2.849439 v -0.04082 c 0,0 0.6145,-0.0014 0.86145,-0.0021 v -0.44904 l -2.54869,-2.357479 z m -50.329732,0.747242 c -2.247495,4.4e-5 -4.260943,6.79e-4 -5.637382,0.0026 v 0.270784 c 0.147407,0.06428 0.244166,0.208204 0.248047,0.36897 0,0.22832 -0.185092,0.413411 -0.413412,0.413411 -0.228319,0 -0.413411,-0.185091 -0.413411,-0.413411 0.0132,-0.158419 0.116065,-0.295237 0.264583,-0.351916 v -0.287834 c -0.32984,4.76e-4 -1.2822,-8.6e-5 -1.562695,5.16e-4 v 0.256832 c 0.155072,0.06371 0.256318,0.214758 0.256315,0.382406 0,0.22832 -0.185092,0.413411 -0.413411,0.413411 -0.22832,0 -0.413412,-0.185091 -0.413412,-0.413411 -2e-6,-0.167648 0.101243,-0.3187 0.256315,-0.382406 v -0.256315 c -0.838006,0.0019 -1.408125,0.0043 -1.639175,0.0072 v 0.726571 l 0.30644,0.384472 h 15.372704 l 0.829408,-1.121378 c -2.311821,-5e-6 -4.793422,-5.44e-4 -7.040914,-5.17e-4 z m 37.199792,0.110071 -10.457757,0.01499 -0.207738,0.077 -0.810802,0.599446 -0.420132,1.802991 -3.761526,1.99626 h -3.818371 v 4.380612 h 7.462594 l 4.420402,-3.117123 h 0.153995 l 4.927345,-3.255615 2.51199,0.0062 z m 2.94659,0.227376 v 2.478919 h 3.40599 v -2.478918 z m -14.47198,0.325561 -2.896466,1.418002 -0.476456,-0.429431 h -13.12478 l -0.04702,-0.06408 v 1.212329 h 12.673645 l 1.257805,0.84956 -0.0584,0.0863 2.232422,-1.185974 z m 18.19733,0.111105 v 1.3224 h 2.33215 v -1.3224 z m 2.59777,0 v 1.3224 h 1.51774 l 5.43946,4.283459 h 0.84749 v -1.141015 h -0.72657 l -5.25756,-4.464844 z m 9.37049,0.136426 h 1.04076 l 0.43254,0.58446 h -1.4733 z m -52.205588,0.474906 3.755326,8.127152 0.297138,0.31626 h 5.771224 v -5.22242 h 0.0021 c -2.65e-4,-0.0019 -0.0036,-0.0016 -0.0036,-0.0036 0,-0.0011 0.0023,-9.56e-4 0.0026,-0.0021 h -6.404776 l -1.374077,-3.215307 z m 55.219878,0.01809 v 3.929475 l 0.20515,0.205156 h 0.48214 l 0.32246,-0.220658 v -3.913976 z m 32.03163,0.0057 0.0631,20.986833 h 1.46399 l 0.96015,-0.96015 v -1.35392 l -1.35392,-1.480014 V 17.792517 l 2.39313,-1.385445 v -1.322916 l -0.69246,-0.534851 z m -85.101769,0.01757 1.321882,3.095418 h 1.890843 V 14.53538 Z m 81.472539,0.01912 v 1.414384 h 1.43299 v -1.057816 l -0.0868,-0.330213 z m -48.87298,0.457318 c -0.0146,0.0036 -0.0403,0.01027 -0.0475,0.01189 0.002,1.62e-4 0.005,4.37e-4 0.008,0 0.003,-3.7e-4 0.0144,-0.0022 0.0139,-0.0021 -5.3e-4,1.1e-4 0.0256,-0.01 0.0253,-0.0098 z m 30.21675,0.304374 v 4.826579 l -0.39274,0.392741 h -7.64036 v 1.081587 l 0.65112,0.750342 h 7.75715 l 4.53099,-1.158069 h 2.20917 l -1.12758,-3.184301 0.40669,0.0026 1.16841,3.181718 h 0.85059 l -1.12758,-3.184301 0.40669,0.0026 1.16841,3.181718 h 0.8754 l -1.12758,-3.184301 0.40669,0.0026 1.16841,3.181718 h 1.88774 l -1.08934,-3.07268 5.03535,-1.167888 v -0.736389 h -12.6721 z M 14.336971,15.70789 v 1.366842 h 8.416541 V 15.70789 Z m 85.889849,0.360702 -4.771803,3.169832 h -0.148313 l -4.419885,3.115055 h -7.546824 v 0.02739 l -0.923976,0.820622 h -3.024621 v 2.538863 H 96.81824 c 0.836549,-3.223756 3.149748,-5.861255 6.23683,-7.111194 h -0.23875 v -2.560567 z m -25.482167,0.10542 v 1.456758 h 8.439277 v -0.02532 h 0.154514 v 0.02532 h 3.798734 l 1.320332,-0.701766 -1.119312,-0.754992 z m 75.754017,0.05839 v 0.947229 l -4.95318,1.148767 1.86707,5.261694 h 0.79168 l -0.88522,-2.460831 0.40205,-0.40256 h 3.49436 l 0.0134,0.0036 c 0.0971,0.0196 0.21445,0.03481 0.32246,0.111621 0.10797,0.07681 0.17695,0.225063 0.16795,0.410311 l 0.002,-0.0078 c 0,0 0.003,0.635441 0.004,1.283126 7.9e-4,0.323833 5.3e-4,0.651292 0,0.904337 0,0.06368 -5.1e-4,0.105075 -0.001,0.15813 h 0.88212 v -4.5899 h -1.49035 c -0.0146,-4.77e-4 -0.026,-0.0128 -0.0253,-0.02739 v -1.41025 c 5.3e-4,-0.01379 0.0115,-0.02487 0.0253,-0.02532 h 2.47272 c 0.0138,4.5e-4 0.0249,0.01153 0.0253,0.02532 v 1.41025 c 7.9e-4,0.01459 -0.0107,0.02692 -0.0253,0.02739 h -0.71882 v 16.60777 l 1.43506,-0.01654 v -19.35895 h -1.43299 v 1.297079 h -0.26562 v -1.297079 z m 4.4049,0.0098 v 2.34456 h 1.3839 v -2.34456 z M 32.292981,16.380201 c 0.0024,-8.2e-5 0.0049,5.4e-5 0.0072,0 0.0048,-1.11e-4 0.0096,0 0.01447,0 h 6.840925 c 0.308459,0 0.556557,0.228644 0.556557,0.51263 0,0.283986 -0.248098,0.51263 -0.556557,0.51263 h -6.840925 c -0.308446,0 -0.556555,-0.228644 -0.556555,-0.51263 0,-0.277365 0.236446,-0.502307 0.534851,-0.51263 z m 12.567707,0 c 0.0024,-8.2e-5 0.0048,5.4e-5 0.0072,0 0.0048,-1.11e-4 0.0097,0 0.01447,0 h 6.840926 c 0.30846,0 0.556557,0.228644 0.556557,0.51263 0,0.283986 -0.248097,0.51263 -0.556557,0.51263 h -6.840926 c -0.308351,0 -0.556554,-0.228644 -0.556554,-0.51263 0,-0.277365 0.236432,-0.502307 0.53485,-0.51263 z m 12.650391,0 c 0.0024,-8.2e-5 0.0048,5.4e-5 0.0072,0 0.0048,-1.11e-4 0.0097,0 0.01447,0 h 6.840926 c 0.308459,0 0.556556,0.228643 0.556556,0.51263 0,0.283986 -0.248097,0.51263 -0.556556,0.51263 h -6.840926 c -0.308354,0 -0.556554,-0.228644 -0.556554,-0.51263 0,-0.277365 0.236432,-0.502307 0.53485,-0.51263 z m 78.637051,0.214974 c 0.004,-1.08e-4 0.009,0 0.0129,0 0.27398,0 0.49609,0.22211 0.49609,0.496093 0,0.273984 -0.22211,0.496094 -0.49609,0.496094 -0.27398,0 -0.49609,-0.22211 -0.49609,-0.496094 0,-0.269702 0.2151,-0.489302 0.48317,-0.496093 z m 23.75359,0.252697 -1.87379,1.039213 0.0631,13.791923 0.96014,1.007691 c 0.34918,-4.749156 1.10201,-6.247405 0.8506,-15.838827 z m -54.01324,0.03411 v 3.560506 h 2.15491 v -3.560506 z m -0.95808,0.276469 -0.54208,1.014925 1.40094,-0.0036 -0.004,-1.011308 z m 3.29489,0 v 1.00614 l 1.45727,-0.0041 -0.74052,-1.002006 z m -93.619601,0.228409 0.02326,3.180168 1.345137,0.608232 0.04599,5.184179 -1.681551,0.708484 -0.0015,4.034379 h 8.41654 v -6.107124 c -0.08327,-0.0307 -0.156677,-0.03587 -0.219625,-0.02067 -0.08172,0.01973 -0.153337,0.07303 -0.211357,0.172082 l -2.249991,3.800802 -0.01912,0.01189 c -0.500403,0.341059 -0.777108,0.318056 -1.084172,0.406176 l -0.0041,0.0021 h -0.0036 c -0.770708,0.157194 -1.049023,0.201034 -1.302763,0.345716 -0.165879,0.131844 -0.29692,0.251596 -0.466638,0.329695 -0.15789,0.07265 -0.359297,0.08456 -0.609782,0.05271 -0.0065,0.0031 -0.01354,0.0101 -0.01912,0.01189 -0.02617,0.0084 -0.04397,0.0085 -0.06253,0.0078 -0.03712,-0.0015 -0.07577,-0.01002 -0.119373,-0.02325 -0.08721,-0.02646 -0.194337,-0.07509 -0.302823,-0.152446 -0.216973,-0.15471 -0.435614,-0.433848 -0.427364,-0.843876 0.0077,-0.384506 0.167311,-0.666746 0.364835,-0.84956 0.197524,-0.182814 0.425663,-0.271134 0.599963,-0.285254 0.908665,-0.07361 1.52098,-0.285622 1.880506,-0.496094 0.179763,-0.105237 0.29555,-0.210768 0.353467,-0.290938 0.02896,-0.04009 0.04324,-0.07256 0.04703,-0.09147 0.0038,-0.01888 -8.55e-4,-0.01877 0,-0.01757 l -0.04496,-0.06666 0.05116,-0.06253 c 1.561976,-1.863041 2.040405,-2.886014 2.3828,-3.43545 0.171198,-0.274717 0.323253,-0.446726 0.56224,-0.511596 0.220391,-0.05982 0.489787,-0.03404 0.905371,0.02997 v -5.631698 z m 87.108891,0.116789 c 0.002,-8.2e-5 0.005,5.6e-5 0.007,0 0.005,-1.13e-4 0.009,0 0.0134,0 0.28741,-2.3e-5 0.52041,0.23298 0.52039,0.520382 2e-5,0.287402 -0.23298,0.520405 -0.52039,0.520382 -0.28741,2.2e-5 -0.5204,-0.232981 -0.52038,-0.520382 -2e-5,-0.2807 0.2221,-0.509888 0.50023,-0.520382 z m 49.4285,0.0863 v 1.35754 h 2.41794 v -1.35754 z m -71.753748,0.119369 c 1.24e-4,0.0011 0.0021,9.3e-4 0.0021,0.0021 0,0.002 -0.0032,0.0017 -0.0036,0.0036 h 0.0031 v 1.475879 l 0.423227,0.178284 0.01189,2.24069 -0.434083,0.186035 -10e-4,1.141532 h 2.923852 l 0.760159,-0.675411 v -4.523755 l 0.109037,0.107487 v -0.136441 z m 26.378738,0.470256 a 10.154372,10.154372 0 0 0 -8.931743,10.080005 10.154372,10.154372 0 0 0 0.707966,3.708817 c 0.245727,-0.162058 0.559832,-0.385097 0.815973,-0.568957 a 9.2514758,9.2514758 0 0 1 -0.621152,-3.315043 9.2514758,9.2514758 0 0 1 8.028956,-9.169983 z m 2.5275,0.03876 -0.003,0.805636 c 4.61448,0.594271 7.94988,4.407833 7.9499,9.060429 -6e-4,1.125433 -0.20655,2.241317 -0.60772,3.292822 l 0.45114,0.464571 0.40876,-0.0078 c 0.42999,-1.142683 0.65039,-2.353551 0.6506,-3.574459 -9e-5,-5.150852 -3.73373,-9.44178 -8.84958,-10.041248 z m 11.98996,0.129192 v 1.141015 h 3.26802 c -0.005,-0.100416 -0.0125,-0.281296 -0.0274,-0.562756 -0.009,-0.175436 -0.0194,-0.351407 -0.0274,-0.482141 -0.003,-0.04005 -0.006,-0.06593 -0.008,-0.09612 z m -90.460615,0.08992 c -0.267742,-0.0023 -0.68415,-0.0093 -0.799951,0.307475 l 0.0062,6.9696 3.803385,0.0036 -0.08475,-1.014409 c 0.14083,-0.01082 -0.126289,-0.06095 -0.155546,-0.06873 -0.09036,-0.03358 -0.151402,-0.09454 -0.223759,-0.145211 -0.08832,-0.672309 -0.02091,-1.499008 -0.02635,-2.139921 h 2.761588 v 2.214852 l -0.339514,0.171566 c -0.0074,0.05986 -0.03373,0.272014 -0.07803,0.545186 -0.0024,0.01469 -0.0059,0.02615 -0.0083,0.04082 -2.24e-4,0.0013 2.24e-4,0.0028 0,0.0041 0,0.135993 -0.0022,0.271329 -0.0088,0.393774 l 5.984648,0.0062 -0.217559,-1.118795 -0.404627,-0.287321 v -1.822111 l 0.02532,-0.03307 c 0.04011,-0.05778 0.0812,-0.08533 0.09767,-0.101803 l 0.03721,-0.03876 h 2.718697 v 1.929597 l -0.33383,0.359152 -0.249079,1.11466 6.0911,0.0062 -0.219107,-1.126546 -0.402042,-0.287321 v -1.822111 l 0.02325,-0.03307 c 0.0401,-0.05778 0.0812,-0.08533 0.09767,-0.101803 l 0.03927,-0.03876 h 2.71663 v 1.929597 l -0.33383,0.359152 -0.251148,1.122412 6.160866,0.0062 -0.220658,-1.134298 -0.402042,-0.287321 v -1.822111 l 0.02325,-0.03307 c 0.04011,-0.05778 0.0812,-0.08533 0.09767,-0.101803 l 0.03927,-0.03876 h 2.71663 v 1.929597 l -0.33383,0.359152 -0.252695,1.130163 6.090065,0.0062 -0.222208,-1.142049 -0.404627,-0.287321 v -1.822111 l 0.02377,-0.03307 c 0.0401,-0.05778 0.08326,-0.08533 0.09973,-0.101803 l 0.03669,-0.03876 h 2.719216 v 1.929597 l -0.334349,0.359152 -0.254246,1.137915 5.382098,0.0057 -3.247863,-6.765995 -0.738455,-0.553455 z m -18.120858,0.04858 -0.72502,0.642855 v 2.970361 c 0,0.09354 0.736906,0.642855 0.736906,0.642855 h 0.165364 v -4.256071 z m 0.4408,0 v 4.256071 h 3.681429 V 21.430021 L 14.31165,20.555656 v -2.058272 l -0.0031,-0.01137 z m 61.364213,0.077 c 0.0021,-8.3e-5 0.0045,5.6e-5 0.0067,0 0.0045,-1.13e-4 0.0089,0 0.01344,0 0.287684,0 0.520898,0.233224 0.520898,0.520899 0,0.287674 -0.233214,0.520898 -0.520898,0.520898 -0.287685,0 -0.520899,-0.233224 -0.520899,-0.520898 0,-0.280967 0.222343,-0.51037 0.500745,-0.520899 z m 81.40174,0.437183 v 1.736328 h 1.36942 v -1.736328 z m -46.73823,1.112076 v 0.329179 c -4e-5,0.05298 -0.0431,0.09585 -0.0961,0.0956 h -2.21279 c -0.0528,-3.9e-5 -0.0956,-0.04282 -0.0956,-0.0956 V 20.11797 c -0.44987,0.06696 -0.88704,0.16885 -1.30844,0.303341 l 0.58963,1.201993 c 0.61631,-0.178032 1.26783,-0.273387 1.94148,-0.273368 0.75017,3.4e-5 1.47248,0.118935 2.14974,0.337964 l 0.52503,-1.21853 c -0.47827,-0.162395 -0.97714,-0.282903 -1.49293,-0.357085 z m -3.96513,0.394292 c -3.25578,1.155725 -5.521207,4.257403 -5.521106,7.825362 3.7e-5,0.353143 0.02331,0.700777 0.06615,1.042313 l 1.316196,-0.130224 c -0.039,-0.298647 -0.0594,-0.603326 -0.0594,-0.912606 -9e-5,-3.088132 2.00495,-5.707812 4.7842,-6.628536 z m 5.70611,0.05168 -0.5209,1.215946 c 2.67224,0.979288 4.57913,3.545621 4.57905,6.557223 -2e-5,0.305322 -0.0199,0.606264 -0.0579,0.901237 l 1.30948,0.184485 c 0.0464,-0.355266 0.0713,-0.717337 0.0713,-1.085205 1e-5,-3.517676 -2.20214,-6.580012 -5.38106,-7.773686 z m -84.472873,0.0057 c 0.0043,-1.09e-4 0.0086,0 0.01292,0 0.276262,0 0.500227,0.223965 0.500227,0.500227 0,0.276263 -0.223965,0.500228 -0.500227,0.500228 -0.276263,0 -0.500228,-0.223965 -0.500228,-0.500228 0,-0.271945 0.217013,-0.493379 0.487309,-0.500227 z m 91.598533,0.09819 c 0.003,-7.6e-5 0.006,0 0.009,0 h 0.99684 c 0.19482,0 0.35192,0.156597 0.35192,0.351399 v 1.678451 c 0,0.194814 -0.1571,0.3514 -0.35192,0.3514 h -0.99684 c -0.19481,0 -0.35192,-0.156586 -0.35192,-0.3514 v -1.678451 c 0,-0.191758 0.15204,-0.346611 0.34262,-0.351399 z m 0.0873,0.222208 c -0.15155,0.0076 -0.2713,0.132256 -0.2713,0.285771 v 1.365292 c 0,0.158467 0.12782,0.28577 0.28629,0.28577 h 0.8108 c 0.15847,0 0.28629,-0.127303 0.28629,-0.28577 v -1.365292 c 0,-0.158467 -0.12782,-0.285771 -0.28629,-0.285771 h -0.8108 c -0.005,0 -0.0101,-2.46e-4 -0.015,0 z m 30.70407,0.108004 -0.20515,0.205156 0.85937,2.392618 h 2.97553 c 2.7e-4,-0.05351 7.7e-4,-0.09556 0.001,-0.160197 0,-0.252294 -0.001,-0.578641 -0.002,-0.90227 -0.002,-0.647278 -0.004,-1.281575 -0.004,-1.281575 v -0.0036 -0.0041 c 0.006,-0.127827 -0.0176,-0.151944 -0.0568,-0.179834 -0.0371,-0.02642 -0.11754,-0.04691 -0.21084,-0.06615 z m -8.67596,0.480591 -4.53099,1.158069 h -7.66981 v 1.646411 h 7.35717 l 1.01234,-0.371037 -0.15451,-0.31626 h 11.91452 L 146.3206,21.47295 Z m -32.57992,0.198954 c -0.0444,0.0036 -0.0801,0.120295 -0.0801,0.264584 0,0.146579 0.0367,0.264583 0.0822,0.264583 h 0.76171 c 0.0454,0 0.0822,-0.118004 0.0822,-0.264583 0,-0.14658 -0.0367,-0.264584 -0.0822,-0.264584 h -0.76171 c -7.1e-4,0 -10e-4,-5.7e-5 -0.002,0 z m -1.88412,0.289388 c -0.005,2.71e-4 -0.009,0.0015 -0.0124,0.0036 l -0.663,0.375687 c -0.0395,0.02239 -0.0134,0.143257 0.0589,0.270785 0.0723,0.127527 0.16254,0.212041 0.20205,0.189652 l 0.66301,-0.375687 c 0.0395,-0.02239 0.0134,-0.143257 -0.0589,-0.270785 -0.0655,-0.115572 -0.14582,-0.195884 -0.18966,-0.19327 z m 4.38836,0.112655 c -0.0439,0.0016 -0.11598,0.08949 -0.17001,0.21084 -0.0596,0.133906 -0.074,0.256447 -0.0326,0.274918 l 0.69608,0.310059 c 0.0415,0.01847 0.1228,-0.07435 0.18242,-0.208256 0.0596,-0.133907 0.074,-0.256448 0.0326,-0.274919 l -0.69609,-0.310058 c -0.004,-0.0017 -0.008,-0.0028 -0.0124,-0.0026 z m -86.135299,0.319877 v 3.091801 h 3.681429 v -3.091801 z m 84.047059,0.09095 c -3.22905,-7.3e-5 -5.84674,2.617617 -5.84667,5.846672 2.2e-4,3.228854 2.61782,5.846228 5.84667,5.846153 1.5964,-1.03e-4 3.04344,-0.640122 4.09845,-1.677416 0.064,-0.06294 -0.13808,-0.334162 -0.077,-0.399975 0.52534,-0.566085 0.94815,-1.236023 1.21749,-1.976107 0.0351,-0.0964 0.32389,0.01239 0.35399,-0.0863 0.16454,-0.539858 0.25317,-1.112689 0.25321,-1.706356 1e-5,-0.519759 -0.0676,-1.023555 -0.19482,-1.503267 -0.0225,-0.08467 -0.35266,-0.01145 -0.37879,-0.09457 -0.35256,-1.121783 -1.04243,-2.023758 -1.93993,-2.740918 -0.0988,-0.07896 0.11376,-0.386352 0.01,-0.458887 -0.94726,-0.661289 -2.09956,-1.048951 -3.34243,-1.049032 z m -66.689463,0.10542 c -6e-4,6e-4 -0.0015,0.0011 -0.0021,0.0016 v 1.592151 l 0.281636,0.198954 h 1.849501 l 0.216524,-0.232544 v -1.560112 z m 7.765418,0 c -0.0011,0.001 -0.0026,0.0027 -0.0036,0.0036 v 1.590084 l 0.28112,0.198954 h 1.849498 l 0.217043,-0.232544 v -1.560112 z m 7.828462,0 c -6e-4,6e-4 -0.0015,0.0011 -0.0021,0.0016 v 1.592151 l 0.28112,0.198954 h 1.849498 l 0.217043,-0.232544 v -1.560112 z m 7.755599,0 c -6e-4,6e-4 -10e-4,0.0011 -0.0015,0.0016 v 1.592151 l 0.281119,0.198954 h 1.849501 l 0.216525,-0.232544 v -1.560112 z m -31.040998,0.02532 c 0.0046,0.518887 0.0071,0.924944 0.0078,1.443323 -0.04638,0.184425 0.03187,0.232873 0.09405,0.337964 0.641219,0.0075 1.295676,0.0036 1.941484,0.0036 l 0.03462,0.0052 0.154512,-0.0052 v -1.784904 z m 90.804782,0.0155 -1.01182,0.982369 v 0.615466 l -0.0837,0.04858 h 4.37079 v -1.646411 z m -16.43517,0.37207 0.44028,0.999939 c 2.22517,0.220598 3.9206,2.092342 3.92069,4.328418 -8e-4,0.614596 -0.13184,1.222047 -0.38447,1.78232 0.17206,0.266788 0.48632,0.750969 0.51625,0.768945 l -0.9772,0.02067 c -0.81862,1.116423 -2.11979,1.776504 -3.50418,1.777668 -1.39724,-9.63e-4 -2.70896,-0.673068 -3.52588,-1.806607 l -1.20354,0.0083 0.63096,-1.098124 c -0.16598,-0.466524 -0.25109,-0.957968 -0.25166,-1.453141 0.001,-2.224815 1.68126,-4.090021 3.89382,-4.32325 0.1628,-0.340093 0.44493,-1.005107 0.44493,-1.005107 z m 49.19234,0.01964 c -1.83884,0.546162 -0.62295,1.741311 0.0465,2.782776 -0.0247,-0.926344 -0.15857,-1.836889 -0.0465,-2.782776 z M 22.08792,23.171517 c -0.07307,4.13e-4 -0.13399,0.0069 -0.182935,0.02015 -0.173138,0.04699 -0.278714,0.157856 -0.441833,0.419613 -0.323094,0.518461 -0.837204,1.585246 -2.374533,3.427697 0.0039,0.02903 0.02112,0.05618 0.0155,0.08423 -0.01201,0.06 -0.04053,0.11806 -0.08217,0.1757 -0.08327,0.115275 -0.222049,0.233888 -0.420129,0.349849 -0.396161,0.231919 -0.687665,0.579637 -1.62109,0.655257 -0.554109,0.04302 -0.840831,0.386703 -0.845943,0.779281 -0.02611,0.863036 0.969745,0.852895 1.441772,0.452169 0.552336,-0.233154 0.934592,-0.353023 1.359091,-0.43925 0.340929,-0.09784 0.52988,-0.0016 0.982886,-0.304891 l 2.220536,-3.752219 c 0.08134,-0.138875 0.202577,-0.235174 0.343648,-0.269234 0.08579,-0.02071 0.178888,0.01403 0.270785,0.04082 v -0.882117 l -0.01447,-0.690397 c -0.271779,-0.04066 -0.490369,-0.06757 -0.651123,-0.06666 z m 80.19717,0.375171 c -0.0136,6.8e-5 -0.0241,0.0038 -0.0305,0.01137 l -0.49041,0.583427 c -0.0292,0.03476 0.0372,0.138726 0.14934,0.233061 0.1122,0.09433 0.22606,0.142245 0.25529,0.107486 l 0.4904,-0.583426 c 0.0292,-0.03476 -0.0372,-0.138726 -0.14934,-0.233061 -0.0876,-0.0737 -0.17626,-0.119096 -0.22479,-0.118856 z m 9.18393,0.10697 c -0.0496,0.0032 -0.13438,0.04767 -0.21859,0.11834 -0.11229,0.09422 -0.17957,0.198271 -0.15038,0.23306 l 0.48989,0.583944 c 0.0292,0.03479 0.143,-0.01327 0.25528,-0.107487 0.11229,-0.09422 0.17957,-0.198272 0.15038,-0.233061 l -0.48989,-0.583427 c -0.007,-0.0087 -0.0202,-0.01243 -0.0367,-0.01137 z m -39.195017,0.415996 c 0.0019,-9.7e-5 0.0038,7.3e-5 0.0057,0 0.0019,-7.4e-5 0.0037,4.9e-5 0.0057,0 0.004,-1.01e-4 0.0079,0 0.01188,0 0.25572,0 0.463021,0.207311 0.463021,0.463021 0,0.255709 -0.207301,0.46302 -0.463021,0.46302 -0.255719,0 -0.46302,-0.207311 -0.46302,-0.46302 0,-0.247796 0.195005,-0.450728 0.439766,-0.463021 z m 19.177124,0.03462 c 0.0013,-6.9e-5 0.0028,-3e-6 0.0041,0 l 4.245218,0.0083 c 0.08259,1.61e-4 0.297924,0.13948 0.299726,0.314193 h 5.16e-4 v 0.0072 0.227893 0.321427 H 95.849274 91.306399 91.155504 V 24.66186 24.433967 c 0,-0.0024 -2.6e-5,-0.0048 0,-0.0072 0.0019,-0.17199 0.210291,-0.318094 0.29559,-0.322461 z m -10.08104,0.0083 c 0.0024,-6.8e-5 0.0047,0 0.0072,0 h 8.798947 c 0.159964,0 0.28898,0.13948 0.292488,0.314193 h 5.16e-4 v 0.0072 0.227893 0.321427 H 90.176234 81.377287 81.084798 V 24.66186 24.433967 c 0,-0.0024 -4.7e-5,-0.0048 0,-0.0072 0.0034,-0.17199 0.128757,-0.309928 0.285253,-0.314193 z m 71.235953,0.0124 -17.04806,0.02325 0.971,2.43396 c 3.58057,-0.676766 4.13292,-0.327027 6.94997,-0.518315 0.73125,-0.0033 0.93881,0.202779 1.16737,0.400493 l 0.0222,-0.110588 0.73846,0.153996 0.0294,0.05271 c 0.77784,1.419124 1.32411,2.721335 1.85364,4.011641 l 0.002,0.0041 0.002,0.0057 c 0.28815,0.861563 0.13099,1.544627 0.12299,2.240689 v 0.04083 l -0.0217,0.03101 c -0.13526,0.20016 -0.22912,0.38789 -0.55293,0.720884 l -0.006,0.0057 -0.004,0.0041 c -0.85896,0.715668 -2.0183,1.258241 -3.08612,1.838131 l -0.006,0.0036 -0.006,0.0021 c -2.1014,0.871736 -4.20313,1.743609 -6.30453,2.615345 l -0.01,0.0036 c -1.95371,1.015368 -3.90684,2.030444 -5.86062,3.045809 l -0.19482,1.95957 0.60616,0.425297 0.5824,0.189137 6.13244,-2.747637 2.65307,-2.274797 7.54941,-3.030821 3.7176,-0.04341 z m -17.31264,0.07493 -0.93534,0.341065 h -7.4042 v 0.345715 l -1.61334,2.36368 v 0.913639 h 4.47053 l 2.56832,-0.626835 0.0114,0.04599 c 0.0564,-0.04054 0.0992,-0.07534 0.16536,-0.123506 1.52121,-0.368999 2.72507,-0.634932 3.70934,-0.826823 z m -28.30266,0.225826 a 3.9054762,3.9054762 0 0 0 -3.9057,3.905705 3.9054762,3.9054762 0 0 0 3.9057,3.905189 3.9054762,3.9054762 0 0 0 3.90518,-3.905189 3.9054762,3.9054762 0 0 0 -3.90518,-3.905705 z m 15.11432,0.115239 v 0.727087 l 1.03818,0.0083 0.2713,0.311093 0.0233,0.99012 -0.25684,0.338997 -1.0759,0.01189 v 1.235583 h 2.9714 v -0.995805 l 1.61333,-2.361612 v -0.265617 z m 32.84657,0.02274 -0.008,4.586284 0.27388,0.181384 c -0.0728,-0.329663 0.65952,-3.315617 0.78031,-3.283004 z m 1.04593,1.484664 0.0103,0.01447 c -0.003,-0.0088 -0.006,-0.01333 -0.0103,-0.01447 z m -115.280286,-1.399914 0.206705,1.07797 1.13378,0.001 0.241329,-1.079004 z m 7.763867,0 0.210322,1.085721 1.128096,0.0016 0.243396,-1.087272 z m 7.830013,0 0.211873,1.09399 1.124995,10e-4 0.244946,-1.095023 z m 7.755599,0 0.211357,1.099674 h 1.124995 l 0.24598,-1.099674 z m -31.078207,0.0155 0.197404,1.018025 0.0021,0.0078 0.0015,0.02894 1.138432,10e-4 c 0.04272,-0.137357 0.06537,-0.297277 0.08837,-0.42478 -0.0012,-0.314055 0.106719,-0.534395 0.102319,-0.626835 z m 103.965734,0.01912 c 0.002,-7.5e-5 0.004,5e-5 0.006,0 0.004,-1.02e-4 0.008,0 0.0119,0 0.25828,2.7e-5 0.46765,0.2094 0.46767,0.467672 -2e-5,0.258266 -0.20939,0.467644 -0.46767,0.467671 -0.25827,-2.9e-5 -0.46764,-0.209406 -0.46767,-0.467671 2e-5,-0.252249 0.20026,-0.458192 0.4501,-0.467672 z m -7.81089,0.01499 c 0.004,-8.2e-5 0.009,5.5e-5 0.0129,0 0.009,-1.11e-4 0.0176,0 0.0263,0 1.12325,0 2.03399,0.910683 2.03399,2.033985 -2.7e-4,0.04154 -0.002,0.08308 -0.005,0.12454 l -1.17409,-0.01085 v 5.16e-4 5.17e-4 5.17e-4 5.17e-4 5.16e-4 5.17e-4 5.17e-4 5.17e-4 5.16e-4 5.17e-4 5.17e-4 5.17e-4 5.17e-4 c -1.7e-4,0.448762 -0.36409,0.812466 -0.81287,0.812353 -0.33575,3e-6 -0.63709,-0.206589 -0.75809,-0.519865 l -0.97669,0.712618 c -0.22222,-0.333335 -0.34105,-0.724908 -0.34158,-1.125512 0,-1.110172 0.88951,-2.013039 1.99471,-2.033985 z m 18.28105,0.01705 h 3.79305 l 0.45682,0.398426 v 1.39423 0.158646 l -0.15813,-0.02945 c -1.12193,-0.212781 -1.70294,0.318896 -1.86707,0.945162 -0.16365,0.624469 0.10808,1.333482 0.81236,1.529105 h 1.32808 v 2.930054 h -2.48615 l -0.971,-1.219047 -1.28674,-5.790861 z m 0.0956,0.26355 -0.18139,0.152445 1.23817,5.574337 0.85318,1.072286 h 2.09599 V 29.3753 h -1.11362 l -0.0176,-0.0041 c -0.85308,-0.232496 -1.19711,-1.108698 -1.00148,-1.855184 0.18524,-0.706835 0.90515,-1.252691 2.01538,-1.117245 v -1.16427 l -0.29094,-0.255798 z m -18.29501,0.03927 c -0.95899,0 -1.74201,0.783023 -1.74201,1.742013 0,0.267248 0.0605,0.52096 0.16898,0.747758 l 0.46405,-0.357084 c -0.0766,-0.158328 -0.0899,-0.202006 -0.0899,-0.390674 0,-0.665498 0.5334,-1.19941 1.1989,-1.19941 0.50135,0 0.92801,0.302954 1.10794,0.736905 l 0.49351,-0.222725 c -0.26718,-0.620438 -0.8854,-1.056783 -1.60145,-1.056783 z m -10.56473,0.402043 v 1.321366 h 1.13895 l -0.27957,-0.349333 0.006,-0.668176 0.26303,-0.303857 z m 1.26297,0 v 1.321366 h 0.73639 v -1.321366 z m 1.37976,0 v 1.321366 h 1.81229 v -1.321389 z m -105.406981,0.116765 -1.554944,0.631486 v 0.75396 l 1.554944,-0.631486 z m 7.047632,0.226343 v 5.008997 H 26.62511 V 25.76309 Z m 77.895499,0.112138 c -0.0403,9.12e-4 -0.0678,0.0107 -0.0744,0.02946 l -0.25166,0.719336 c -0.015,0.04286 0.0844,0.116413 0.22272,0.164847 0.13835,0.04843 0.26198,0.05268 0.27699,0.0098 l 0.25167,-0.719336 c 0.015,-0.04286 -0.0844,-0.116414 -0.22273,-0.164848 -0.0778,-0.02724 -0.15083,-0.04045 -0.20257,-0.03927 z m 12.21734,0.0047 c -0.0521,0.0012 -0.1276,0.02069 -0.20722,0.05581 -0.13412,0.05915 -0.2271,0.140349 -0.20878,0.181901 l 0.30748,0.697115 c 0.0183,0.04155 0.1408,0.02711 0.27492,-0.03204 0.13411,-0.05915 0.22761,-0.139832 0.20928,-0.181384 l -0.30799,-0.697632 c -0.007,-0.01688 -0.032,-0.02456 -0.0677,-0.02377 z m -6.06578,0.04289 a 2.408767,2.408767 0 0 1 2.40863,2.408638 2.408767,2.408767 0 0 1 -2.40863,2.408638 2.408767,2.408767 0 0 1 -2.40864,-2.408638 2.408767,2.408767 0 0 1 2.40864,-2.408638 z m -78.343531,0.05839 v 1.367875 h 3.648356 v -1.367875 h -1.147217 l -0.318327,0.774629 -0.746207,-0.0015 -0.368453,-0.773079 z m 6.978385,0 v 1.367875 h 3.648356 v -1.367875 h -1.147217 l -0.318325,0.774629 -0.74621,-0.0015 -0.368451,-0.773079 z m 7.011459,0 v 1.367875 h 3.648356 v -1.367875 h -1.147218 l -0.318325,0.774629 -0.74621,-0.0015 -0.368451,-0.773079 z m 6.945313,0 v 1.367875 h 3.648355 v -1.367875 h -1.147217 l -0.318326,0.774629 -0.746209,-0.0015 -0.368451,-0.773079 z m 6.992852,0 v 1.367875 h 3.648359 v -1.367918 h -1.147218 l -0.318328,0.774629 -0.746723,-0.0015 -0.367938,-0.773079 z m 7.085873,0 v 1.367875 h 3.648358 v -1.367875 h -1.147218 l -0.318328,0.774629 -0.746207,-0.0015 -0.368453,-0.773079 z m 7.823814,0.02274 0.01499,1.079004 1.119827,0.309542 v 0.101803 c 0,0 -0.0037,0.551071 -0.0057,1.101741 -9.97e-4,0.275336 -7.46e-4,0.550397 0,0.75551 4.03e-4,0.102556 4.53e-4,0.187779 0.0016,0.24598 6e-4,0.0291 0.0014,0.05162 0.0021,0.0646 3.15e-4,0.0065 2.01e-4,0.01162 0,0.0098 -1.01e-4,-9e-4 -0.0023,-0.01436 -0.0021,-0.01344 1e-4,2.3e-4 -0.0037,-0.01205 -0.0036,-0.01189 6.1e-5,1.6e-4 -0.01195,-0.02335 -0.01188,-0.02325 6.1e-5,10e-5 -0.05277,-0.04913 -0.05271,-0.04909 2.1e-5,10e-5 -0.02221,0.0016 -0.03876,0.0021 0.02599,0.02634 0.111104,0.113172 0.111104,0.113172 0,0 -0.04286,0.09971 -0.04289,0.09973 -2.9e-5,3e-5 -0.02371,0.01753 -0.02377,0.01757 -6.1e-5,0 -0.115592,0.004 -0.122992,0.0041 0.0098,0.0027 0.05275,0.01344 0.05271,0.01344 -5e-5,0 0.02178,-0.0021 0.0217,-0.0021 -3.2e-4,0 0.01249,-0.0018 0.01344,-0.0021 -8.26e-4,4.35e-4 -0.0021,0.0016 -0.0036,0.0021 -0.0063,0.0019 -0.0182,0.0052 -0.03307,0.0098 -0.02973,0.0091 -0.07376,0.02248 -0.127125,0.03927 -0.106714,0.03359 -0.2497,0.07903 -0.39429,0.125057 -0.158604,0.05049 -0.305151,0.09712 -0.416512,0.132808 l 0.01809,1.298629 h 3.037022 v -5.423959 z m 3.377054,0 v 5.423959 l 0.382405,-0.736906 4.854485,0.02532 0.152445,0.61805 0.211873,0.09354 v -5.423959 l -0.206706,0.04237 -0.160713,0.378272 -4.910296,-0.01137 z m 5.945372,0 v 1.496033 h 1.884641 v 0.517798 h -1.884641 v 1.421619 h 1.884641 v 0.519865 h -1.884641 v 1.468644 h 0.91984 l 2.128555,-1.009758 v -3.291272 l -2.093413,-1.087789 0.01809,-0.03514 z m 1.45986,0 1.854666,0.961182 v 3.620968 l -2.33629,1.107426 h -2.27118 v 3.260266 h 2.6417 l 0.37827,-0.267684 0.139012,-0.04909 h -0.03979 v -0.0021 -2.07791 l 2.398305,-2.004011 h 3.87728 c -0.01254,-0.0958 -0.01912,-0.19327 -0.01912,-0.292489 2.38e-4,-1.233272 1.000135,-2.232986 2.233456,-2.232938 1.232993,2.39e-4 2.2327,0.999868 2.232938,2.232938 2.6e-5,0.737964 -0.358283,1.392189 -0.910021,1.798857 l 1.167368,0.07751 -0.03359,0.508497 5.865791,8.485785 h 1.491904 l 1.60145,1.980242 13.81258,0.0078 2.19935,-1.984375 v -0.654741 h -0.0258 v -2.786912 l -0.92862,-0.723984 v -1.480013 l 2.26704,-5.006931 2.29857,-1.133264 h 0.99219 v 0.755509 l 0.93638,0.936894 v 2.353861 l -0.27544,0.409278 0.20619,0.357085 h 2.83238 l 0.0145,-0.01757 -0.82682,-1.12448 0.003,-0.0021 -0.75654,-0.437182 v -2.963154 h -2.11563 l -0.002,-0.263549 h 0.002 l 2.38125,-0.01757 v 0.01757 h 1.36322 v 2.885095 l -0.60668,0.700733 0.73122,0.993738 0.002,-0.0026 0.13436,0.188619 0.0434,0.05891 -0.001,5.16e-4 1.85415,2.601391 0.37776,0.07855 2.17299,3.039089 v 0.582395 l -0.0336,0.339513 c 1.90554,-0.990158 3.81217,-1.979615 5.71748,-2.969844 l 0.004,-0.0036 0.006,-0.0021 c 2.10004,-0.87118 4.20087,-1.742098 6.30091,-2.613279 0.001,-2.64e-4 0.002,2.65e-4 0.002,0 1.07532,-0.583755 2.21844,-1.125587 3.03703,-1.806606 0.28428,-0.29413 0.36154,-0.44526 0.49248,-0.642856 0.0129,-0.712886 0.15028,-1.334287 -0.10749,-2.110982 -0.52154,-1.270801 -1.06284,-2.547744 -1.81643,-3.929992 l -0.36432,-0.07597 1.71101,4.106209 c 0.43358,1.314446 -0.4319,2.261979 -1.36736,2.857191 l -6.28385,2.629296 c -1.00709,0.28584 -1.67876,-0.14706 -2.43086,-0.413411 l -4.29948,-6.548437 c -0.27471,-0.858373 -0.27133,-1.181699 -0.10542,-1.415418 l -2.24482,0.548287 h -12.33827 c -0.0187,2.295814 -0.78757,4.57217 -2.18953,6.390308 l -2.94917,0.03307 c -4.32937,3.371991 -8.14596,2.041803 -11.69127,-0.496093 h -2.30322 c -1.236546,-1.76561 -1.901084,-3.868368 -1.903759,-6.023922 5.3e-4,-0.783185 0.08867,-1.563858 0.262517,-2.327507 h -2.04122 v 0.47284 l -2.50579,0.933793 h -2.274323 l -1.288812,-1.113587 v -0.293006 z m 6.616134,0 v 0.172083 l 1.124995,0.968416 h 2.124935 l 2.289267,-0.851111 v -0.289388 z m 62.092845,1.087789 c 0.004,-8.9e-5 0.007,4.5e-5 0.0103,0 0.004,-4.5e-5 0.007,1e-6 0.0109,0 0.45529,6.7e-5 0.82446,0.369388 0.82424,0.824756 -6e-5,0.455172 -0.36915,0.824172 -0.82424,0.824239 -0.45518,-6.5e-5 -0.82417,-0.369066 -0.82424,-0.824239 -2.1e-4,-0.448281 0.35747,-0.813443 0.80306,-0.824756 z m -79.472147,0.265617 0.03514,2.495455 c 0.11227,-0.03581 0.171288,-0.05464 0.340547,-0.10852 0.144728,-0.04607 0.287018,-0.0913 0.394293,-0.125057 0.0316,-0.0099 0.05166,-0.01565 0.07596,-0.02325 -0.0011,-0.06053 -0.0012,-0.141601 -0.0016,-0.242362 -7.51e-4,-0.2064 -0.001,-0.481922 0,-0.757577 0.0018,-0.501546 0.0071,-0.917473 0.0078,-1.004073 z m -42.856814,0.08527 v 5.331974 h 3.648356 v -5.331974 h -1.068669 v 3.43855 a 0.10091359,0.10091359 0 0 1 -0.101285,0.09922 h -1.308448 a 0.10091359,0.10091359 0 0 1 -0.101802,-0.09922 v -3.43855 z m 6.978385,0 v 5.331974 h 3.648356 v -5.331974 h -1.068667 v 3.43855 a 0.10091359,0.10091359 0 0 1 -0.101288,0.09922 h -1.308447 a 0.10091359,0.10091359 0 0 1 -0.101801,-0.09922 v -3.43855 z m 7.011459,0 v 5.331974 h 3.648356 v -5.331974 h -1.068668 v 3.43855 a 0.10091359,0.10091359 0 0 1 -0.101288,0.09922 h -1.308447 a 0.10091359,0.10091359 0 0 1 -0.101801,-0.09922 v -3.43855 z m 6.945313,0 v 5.331974 h 3.648355 v -5.331974 h -1.068668 v 3.43855 a 0.10091359,0.10091359 0 0 1 -0.101288,0.09922 h -1.308446 a 0.10091359,0.10091359 0 0 1 -0.101801,-0.09922 v -3.43855 z m 6.992852,0 v 5.331974 h 3.648359 v -5.331974 h -1.068671 v 3.43855 a 0.10091359,0.10091359 0 0 1 -0.101285,0.09922 h -1.308447 a 0.10091359,0.10091359 0 0 1 -0.101804,-0.09922 v -3.43855 z m 7.085873,0 v 5.331974 h 3.648358 v -5.331974 h -1.068671 v 3.43855 a 0.10091359,0.10091359 0 0 1 -0.101285,0.09922 h -1.308446 a 0.10091359,0.10091359 0 0 1 -0.101804,-0.09922 v -3.43855 z m -33.742642,0.08883 v 3.247863 h 1.107426 v -3.247863 z m 6.978384,0 v 3.247863 h 1.107427 v -3.247863 z m 7.011459,0 v 3.247863 h 1.107426 v -3.247863 z m 6.945312,0 v 3.247863 h 1.107427 v -3.247863 z m 6.992855,0 v 3.247863 h 1.107427 v -3.247863 z m 7.085873,0 v 3.247863 h 1.107426 v -3.247863 z m 35.536848,0.788065 c -0.14657,0.002 -0.26416,0.04037 -0.26355,0.08578 l 0.0103,0.761711 c 6.1e-4,0.04541 0.11905,0.08051 0.26562,0.07855 0.14657,-0.002 0.26416,-0.04037 0.26355,-0.08578 l -0.0103,-0.76171 c -6.1e-4,-0.04541 -0.11905,-0.08051 -0.26562,-0.07855 z m 12.81678,0.148829 c -0.12097,0.0036 -0.2121,0.03366 -0.21342,0.07338 l -0.0253,0.761711 c -0.002,0.04539 0.11499,0.08555 0.26149,0.09043 0.1465,0.0049 0.26565,-0.02747 0.26716,-0.07286 l 0.0253,-0.761711 c 0.002,-0.04539 -0.11499,-0.08607 -0.26149,-0.09095 -0.0183,-6.11e-4 -0.0365,-5.13e-4 -0.0537,0 z m -22.993935,0.19637 c -0.01437,0 -0.318455,0.591603 -0.210841,0.591178 0.107614,-4e-4 2.222603,-0.0088 2.222603,-0.0088 0.0067,-0.08422 -0.09833,-0.425764 -0.254765,-0.582393 z m -0.355534,0.663525 c -0.225245,0 -0.393166,0.198512 -0.445969,0.567408 0.04972,-0.0077 0.08273,0.06098 0.138494,0.06098 h 2.974496 c 0.0111,0 0.159623,-0.105232 0.170532,-0.104903 -0.05503,-0.363028 -0.256141,-0.523483 -0.479041,-0.523483 z m 23.938069,0.167949 c -0.28074,1.670653 -1.15505,3.139803 -2.39831,4.183725 l 0.8909,0.979784 c 0.40226,-0.342104 0.77151,-0.721776 1.10226,-1.133782 0.0408,-0.05078 -0.39822,-0.449511 -0.35863,-0.501261 0.52982,-0.692611 0.86999,-1.405008 1.1622,-2.244824 0.0412,-0.118279 0.6421,0.04364 0.678,-0.077 0.0991,-0.333011 0.17658,-0.675104 0.23357,-1.024227 z m -13.76453,0.02015 -1.3193,0.130224 c 0.06415,0.402922 0.156572,0.796305 0.276468,1.177706 0.02722,0.08658 0.447532,-0.09619 0.477491,-0.01085 0.279704,0.796886 0.677651,1.397655 1.172541,2.062406 0.0347,0.04659 -0.32193,0.501938 -0.28629,0.547772 0.31681,0.407482 0.67132,0.784214 1.0573,1.126027 l 0.90847,-0.962213 c -1.18089,-1.03308 -2.01063,-2.457493 -2.28668,-4.071068 z m 25.4434,0.100768 v 2.810685 l 0.56637,0.328147 0.5333,-0.617018 v -2.52181 z m 6.2575,0.617534 2.52181,3.851444 0.7891,3.084049 -2.58021,1.89239 -0.0331,0.0041 c -0.0863,0.01199 -0.18821,0.03751 -0.30644,0.03101 -0.11824,-0.0065 -0.25308,-0.05386 -0.36742,-0.165883 l -0.006,-0.0077 -2.41018,-3.234428 -0.62529,-0.28112 -0.01,-1.576131 0.5488,0.04082 c 0.5828,-0.327234 0.84104,-0.74976 0.95912,-1.247984 0.12023,-0.506189 0.0948,-1.086259 0.11524,-1.663982 l 0.002,-0.08216 1.29864,-0.595829 z m -42.181914,0.151928 c -0.05655,0 -0.1197,0.124215 -0.170016,0.116273 0.0494,0.377494 0.248814,0.528649 0.477491,0.528649 h 2.358512 c 0.205785,0 0.334909,-0.162565 0.440801,-0.528649 -0.01174,3.81e-4 -0.117224,-0.116273 -0.129194,-0.116273 z m 42.084244,0.183969 -1.04903,0.482141 c -0.0149,0.538764 0.008,1.102633 -0.11731,1.632974 -0.13202,0.557073 -0.43955,1.077148 -1.10329,1.439707 l -0.0331,0.01757 -0.36122,-0.02584 0.008,1.121378 0.53123,0.238228 2.43551,3.267501 c 0.0707,0.06774 0.12392,0.08415 0.19172,0.08785 0.0618,0.0034 0.14121,-0.01029 0.22841,-0.02325 l 2.3766,-1.746147 -0.73432,-2.869075 z m -30.47358,0.212906 c -0.0514,0.0024 -0.1341,0.03477 -0.21911,0.08888 -0.12366,0.07871 -0.20371,0.173046 -0.17932,0.211357 l 0.40928,0.642855 c 0.0244,0.03831 0.14351,0.0058 0.26717,-0.07286 0.12365,-0.07871 0.2037,-0.173046 0.17931,-0.211357 l -0.40927,-0.642855 c -0.008,-0.01197 -0.0247,-0.01713 -0.0481,-0.01602 z m -16.112198,0.03307 -2.230355,1.865004 v 1.876369 l 0.172082,-0.06098 h 4.99091 l 0.645956,0.582909 0.03566,0.05633 1.762168,-1.122413 c 0.158308,-0.10084 0.370967,-0.05392 0.471805,0.104389 l 1.689819,2.652033 c 0.100841,0.158308 0.05341,0.371482 -0.104902,0.472323 l -1.774571,1.130681 0.596347,0.944129 1.385962,-0.863516 c 0.09721,-0.06054 0.224195,-0.03106 0.284737,0.06615 0.06054,0.09721 0.03106,0.224198 -0.06615,0.284739 l -1.383893,0.861963 0.716751,1.134813 1.43247,-0.892452 c 0.09721,-0.06054 0.224195,-0.03106 0.284737,0.06614 0.06054,0.09721 0.03106,0.224198 -0.06615,0.28474 l -1.430404,0.890899 0.791168,1.253154 1.297078,-0.80822 c 0.09721,-0.06054 0.224194,-0.03106 0.284736,0.06615 0.06054,0.0972 0.03106,0.224198 -0.06615,0.28474 l -1.295011,0.806666 0.632521,1.001491 0.25218,0.136943 1.21698,-0.758095 c 0.09721,-0.06054 0.224195,-0.03106 0.284737,0.06615 0.06054,0.09721 0.03106,0.224197 -0.06615,0.284739 l -1.018024,0.634069 1.676384,0.911571 h 20.26077 l 2.75745,-2.537827 -0.016,-1.445393 -0.23564,-0.110585 -0.0134,-0.516766 -0.38189,5.16e-4 -0.006,0.831993 -2.44223,2.132685 -14.03892,-0.0078 -1.60197,-1.980242 H 99.307226 L 93.405779,32.85666 89.97343,32.628766 90.00237,32.192617 c -0.510456,-0.29676 -0.892416,-0.790148 -1.042565,-1.376093 z m 27.263958,0.0832 c -0.0165,7.58e-4 -0.0288,0.0055 -0.0351,0.01499 l -0.42271,0.634586 c -0.0252,0.03779 0.0527,0.133667 0.17466,0.214974 0.12197,0.08131 0.24043,0.116335 0.26562,0.07855 l 0.42271,-0.634587 c 0.0252,-0.03779 -0.0527,-0.133667 -0.17466,-0.214974 -0.0915,-0.06098 -0.18082,-0.09581 -0.23048,-0.09353 z m -89.447759,0.200508 v 1.702738 h 3.681429 v -1.702738 z m 69.33737,0.04599 c -0.107614,4e-4 -2.222087,0.0088 -2.222087,0.0088 -0.0067,0.08422 0.09781,0.426281 0.254249,0.58291 h 1.756997 c 0.01436,0 0.318452,-0.59212 0.210841,-0.591695 z m 22.272019,0.05581 c -0.0498,0.0029 -0.17003,0.125709 -0.28577,0.295072 l -0.69144,1.011824 c -0.12771,0.186883 -0.20015,0.357372 -0.16226,0.382407 l 1.72754,1.141532 c 0.0379,0.02503 0.17149,-0.10509 0.29921,-0.291973 l 0.69143,-1.011822 c 0.12772,-0.186884 0.20015,-0.357373 0.16227,-0.382408 l -1.72755,-1.141532 c -0.004,-0.0023 -0.008,-0.0034 -0.0134,-0.0031 z m -15.247644,0.01447 c -0.0051,-3.02e-4 -0.0094,7.54e-4 -0.01292,0.0031 l -1.72806,1.141532 c -0.03789,0.02503 0.03455,0.19604 0.162264,0.382924 l 0.691946,1.011822 c 0.127715,0.186883 0.2608,0.317008 0.298691,0.291973 l 1.727543,-1.141532 c 0.0379,-0.02503 -0.034,-0.195524 -0.16175,-0.382407 L 99.591194,31.512083 C 99.475452,31.34272 99.355173,31.219414 99.305423,31.216494 Z m -27.740424,0.476974 0.01137,0.804086 3.10162,2.45618 h 4.386811 v -3.260257 z m 12.660209,1.104841 c 0.0036,-8.8e-5 0.0072,0 0.01085,0 0.232394,-1.17e-4 0.420995,0.188198 0.421161,0.420647 1.17e-4,0.232649 -0.188568,0.421278 -0.421161,0.421162 -0.232651,1.19e-4 -0.42128,-0.188511 -0.421164,-0.421162 1.64e-4,-0.228816 0.182878,-0.415001 0.410311,-0.420647 z m 18.620049,0.198956 c -0.0459,0.0014 -0.12988,0.06711 -0.20567,0.164846 -0.0898,0.115832 -0.13304,0.231587 -0.0971,0.259416 l 0.60203,0.466637 c 0.0359,0.02783 0.13703,-0.04281 0.22686,-0.158644 0.0898,-0.115832 0.13304,-0.231587 0.0971,-0.259416 l -0.60203,-0.46664 c -0.006,-0.0043 -0.0127,-0.0065 -0.0212,-0.0062 z m 7.8543,0.153995 c -0.006,2.91e-4 -0.0119,0.0024 -0.0165,0.0057 l -0.61754,0.447003 c -0.0368,0.02664 0.003,0.143804 0.0889,0.262515 0.086,0.118713 0.18491,0.192521 0.22169,0.165883 l 0.61753,-0.447003 c 0.0368,-0.02664 -0.003,-0.143804 -0.0889,-0.262514 -0.0752,-0.103876 -0.16042,-0.173601 -0.20515,-0.171567 z m -8.09976,0.607198 -0.91054,0.964282 c 1.43838,1.194435 3.28624,1.912718 5.30199,1.912546 1.95562,-1.99e-4 3.75302,-0.676445 5.17178,-1.807642 l -0.89349,-0.980821 c -1.18179,0.9183 -2.66628,1.465474 -4.2788,1.465546 -1.6638,5e-5 -3.19161,-0.582287 -4.39094,-1.553911 z m -11.922269,0.366903 c -0.02875,0.0021 -0.05773,0.01156 -0.08423,0.02842 l -1.763199,1.122929 1.867069,2.955893 1.774052,-1.130165 c 0.08328,-0.05311 0.107493,-0.159499 0.05426,-0.242879 l -1.689824,-2.652023 c -0.02656,-0.04169 -0.06594,-0.06836 -0.109554,-0.07803 -0.0109,-0.0024 -0.02183,-0.0039 -0.03307,-0.0041 -0.0042,-9.5e-5 -0.0087,-2.2e-4 -0.01292,0 -0.0011,5e-5 -0.0015,-6.6e-5 -0.0026,0 z m 14.535019,0.104902 c -0.0435,0.0021 -0.10388,0.102036 -0.14004,0.234611 -0.0386,0.141415 -0.0345,0.265038 0.009,0.276987 l 0.73536,0.200504 c 0.0438,0.01195 0.10974,-0.09216 0.14831,-0.233577 0.0386,-0.141414 0.0345,-0.265038 -0.009,-0.276987 l -0.73536,-0.200504 c -0.003,-7.46e-4 -0.005,-0.0012 -0.008,-0.001 z m 3.23185,0.107487 c -0.001,3.9e-5 -0.003,2.51e-4 -0.004,5.18e-4 l -0.74879,0.142627 c -0.0446,0.0085 -0.0584,0.131439 -0.031,0.275433 0.0274,0.143997 0.0851,0.252921 0.1297,0.244431 l 0.7488,-0.142627 c 0.0446,-0.0085 0.0584,-0.131439 0.031,-0.275436 -0.0265,-0.139494 -0.0816,-0.246129 -0.12558,-0.244946 z m 39.15988,0.304892 0.1111,0.240295 -9.28522,4.279326 -0.1111,-0.240298 z m -43.11054,3.697965 h 12.45195 l 0.47955,0.479557 0.0331,1.686719 -1.62058,1.620573 h -12.63387 l -0.62838,-0.810286 v -0.777214 z m -4.602301,0.777214 c 0.0024,-9e-5 0.0049,6.1e-5 0.0072,0 0.0048,-1.22e-4 0.0096,0 0.01447,0 0.310521,0 0.562241,0.251722 0.562241,0.562239 0,0.310518 -0.25172,0.56224 -0.562241,0.56224 -0.310517,0 -0.562239,-0.251722 -0.562239,-0.56224 0,-0.303276 0.240038,-0.550875 0.540536,-0.562239 z m 36.487681,0.330729 c 0.004,-1.11e-4 0.009,0 0.0134,0 0.28312,0 0.51263,0.229513 0.51263,0.51263 0,0.283117 -0.22951,0.51263 -0.51263,0.51263 -0.28312,0 -0.51263,-0.229513 -0.51263,-0.51263 0,-0.278694 0.22219,-0.505613 0.49919,-0.51263 z m -36.13215,2.629297 c 0.002,-9e-5 0.005,6.1e-5 0.007,0 0.005,-1.25e-4 0.01,0 0.0145,0 0.31509,0 0.57051,0.255426 0.57051,0.570507 0,0.315082 -0.25542,0.570508 -0.57051,0.570508 -0.315078,0 -0.570505,-0.255426 -0.570505,-0.570508 0,-0.307734 0.243885,-0.558974 0.548805,-0.570507 z"/>
  </g>
  <metadata id="metadata1931">
    <rdf:RDF>
      <cc:Work rdf:about="">
        <dc:title>Nemesis</dc:title>
        <dc:rights>
          <cc:Agent>
            <dc:title>Respawn Entertainment</dc:title>
          </cc:Agent>
        </dc:rights>
        <cc:license rdf:resource="http://artlibre.org/licence/lal"/>
      </cc:Work>
      <cc:License rdf:about="http://artlibre.org/licence/lal">
        <cc:permits rdf:resource="http://creativecommons.org/ns#Reproduction"/>
        <cc:permits rdf:resource="http://creativecommons.org/ns#Distribution"/>
        <cc:permits rdf:resource="http://creativecommons.org/ns#DerivativeWorks"/>
        <cc:requires rdf:resource="http://creativecommons.org/ns#ShareAlike"/>
        <cc:requires rdf:resource="http://creativecommons.org/ns#Notice"/>
        <cc:requires rdf:resource="http://creativecommons.org/ns#Attribution"/>
      </cc:License>
    </rdf:RDF>
  </metadata>
</svg>